<svg xmlns="http://www.w3.org/2000/svg" viewBox="0 0 306.19 340.54"><defs><style>.cls-1{stroke:#000;stroke-linecap:round;stroke-linejoin:round;stroke-width:0.25px;}.cls-2{opacity:0.9;}</style></defs><g id="レイヤー_2" data-name="レイヤー 2"><g id="レイヤー_1-2" data-name="レイヤー 1"><path d="M9.47,84.81a12.15,12.15,0,0,0,2,4.19,12.3,12.3,0,0,0,4.61,3.6A5.75,5.75,0,0,0,15,93.93,13.3,13.3,0,0,1,10.28,90a10.61,10.61,0,0,1-1.65-3.19,11.11,11.11,0,0,1-.53,1.57,9.65,9.65,0,0,1-3.23,4A13.84,13.84,0,0,1,1.73,94a4.17,4.17,0,0,0-.82-1.39A10.82,10.82,0,0,0,5.14,90a8.62,8.62,0,0,0,2.22-5.14H4.71c-.89,0-2.33,0-3.19.06V83.26c.82,0,2.27.06,3.19.06h2.8c0-.7,0-1.74.06-4l1.65.18c.22,0,.37.12.37.25s-.1.18-.37.27c0,1.28-.07,2.37-.11,3.3h3.41c1,0,2.36,0,3.18-.06v1.61c-.85,0-2.21-.06-3.18-.06Z"/><path d="M27.94,86c-.46,0-1.14,0-1.6,0H22.77c-.46,0-1.14,0-1.6,0V84.65a26,26,0,0,1-3.47,2.21,5,5,0,0,0-.88-1.57A15.36,15.36,0,0,0,23.92,79l1.55.54c.21.07.31.16.31.27s-.07.16-.32.26a10.47,10.47,0,0,0,2.64,2.71A18.1,18.1,0,0,0,32.33,85a5.81,5.81,0,0,0-1,1.64,24.54,24.54,0,0,1-3.41-1.92ZM30,93.65c-.37-.47-.72-.93-1.12-1.38-1.55.29-2.54.43-4.56.65l-3.2.33L19,93.47c-.13.19-.24.29-.33.29s-.18-.11-.21-.21L18,91.87h.51c.58,0,1.14-.05,1.71-.07a15.55,15.55,0,0,0,1-1.53c.24-.42.45-.84.68-1.25h-1c-.79,0-2.18,0-2.87,0V87.48c.66,0,2.05.07,2.87.07h7.49c.88,0,2.14,0,2.86-.07v1.59c-.75,0-2,0-2.86,0H23.67c-.15.24-.26.45-.36.61-.62,1-.89,1.45-1.34,2.06l1.25-.09c1.92-.15,3.15-.27,4.46-.47-.41-.37-.86-.69-1.31-1l1-.93a16.26,16.26,0,0,1,3.9,3.48Zm-3.68-9.11c.46,0,.91,0,1.38,0A8.44,8.44,0,0,1,27,84a10.73,10.73,0,0,1-2.53-2.77A15.26,15.26,0,0,1,21.92,84a5.09,5.09,0,0,1-.58.48c.49,0,.95,0,1.43,0Z"/><path d="M37.63,91.71c1.19-.24,2.4-.51,3.68-.83l.21,1.34c-2.25.59-3.6.9-6.85,1.51l-.11.17c-.06.11-.13.16-.21.16s-.17-.06-.22-.21l-.53-1.52c.82-.09,1.65-.21,2.5-.35v-4.1h-.47c-.69,0-1.58,0-2.24.05V86.38c.61,0,1.52.05,2.24.05h.47v-4c0-1.67,0-2-.05-2.56.35,0,.88,0,1.36,0h6.67c.66,0,1.44,0,1.92-.05v1.49c-.52,0-1.37,0-1.92,0H37.63v.75h5c.66,0,1.65,0,2.24,0v1.47c-.59,0-1.58,0-2.24,0h-5v.75h5c.66,0,1.65,0,2.24,0v1.47l-2.24,0h-5v.82h7.72c.64,0,1.68,0,2.24-.05v1.55c-.59,0-1.63-.05-2.24-.05H40.61a8.05,8.05,0,0,0,1.59,1.76A17.63,17.63,0,0,0,44.76,88l1.29.84a.21.21,0,0,1,.13.17c0,.1-.11.15-.29.15h-.14c-.83.49-1.55.89-2.37,1.31A16.28,16.28,0,0,0,48,92.44,10.84,10.84,0,0,0,47,93.81,15.52,15.52,0,0,1,41.65,91a8.9,8.9,0,0,1-2.54-3.12H37.63Z"/><path class="cls-1" d="M17.07,123.33c0,2.28,0,4.2.06,5.28H14c0-1.17.08-2.85.08-5.28v-5H7.68c-1.64,0-4.35.06-6,.12v-3c1.57.06,4.26.12,6,.12H14V104.94H8.85c-1.64,0-4.35.06-6,.12v-3c1.56.06,4.26.12,6,.12H22.32c1.89,0,4.47-.06,6-.12v3c-1.62-.09-4.17-.12-6-.12H17.07v10.62h6.39c1.89,0,4.44-.06,6-.12v3c-1.59-.09-4.14-.12-6-.12H17.07ZM6.84,105.75a43.94,43.94,0,0,1,4.78,7.38l-2.79,1.5a38.55,38.55,0,0,0-4.29-7.44Zm12,7.83a38.09,38.09,0,0,0,4.41-8L26.13,107a.41.41,0,0,1,.27.36c0,.21-.24.33-.81.36a60,60,0,0,1-4.5,7.26Z"/><path class="cls-1" d="M36.06,128H33c.05-1.2.08-3.06.08-5.58V107.79c0-2.46,0-3.78-.08-4.77.8,0,1.52.06,2.54.06H53.85c1,0,1.77,0,2.55-.06,0,1-.09,3-.09,4.77V122c0,2.52,0,4.11.09,5.28h-3v-2.1H36.06Zm7.2-22.17h-7.2v6.63h7.2Zm-7.2,9.39v7.2h7.2v-7.2Zm17.31-2.76v-6.63H46.14v6.63Zm-7.23,10h7.23v-7.2H46.14Z"/><path class="cls-1" d="M76.71,108.87c1.71-.33,3.42-.69,5.19-1.11L82,110.4c-2,.51-2.76.72-5.31,1.17,0,.72.06,1.14.06,2,0,.3.06,1,.06,1.38,0,1.8-1,2.4-5.54,2.4h-.21a12.42,12.42,0,0,0-.58-3.09,18.45,18.45,0,0,0,2,.12c1.31,0,1.43-.12,1.43-1.26v-1l-3.68.66L70,113a.45.45,0,0,1-.4.24c-.23,0-.3-.12-.39-.48L68.58,110q2.65-.23,5.31-.63v-2.7H71.41c-.82,0-1.78,0-2.41.06V104c.67,0,1.75.06,2.41.06h2.48a16.47,16.47,0,0,0-.24-3.12l3.27.24c.25,0,.42.12.42.3s-.15.36-.54.57a15.3,15.3,0,0,0-.09,2h2.64c.66,0,1.74,0,2.4-.06v2.7c-.63,0-1.59-.06-2.4-.06H76.71Zm-1.08,19.59H72.69c.06-.72.06-1.71.06-3.18v-4.47c0-1,0-2.13-.06-2.67,1.06.06,2,.06,3.31.06H89.28c1.32,0,2.25,0,3.3-.06-.06.54-.09,1.71-.09,2.67V125c0,1.41,0,2.43.09,3.12H89.64v-1h-14Zm14-4V121h-14v3.48Zm2.16-11.55c0,2,0,3.45.09,4.38h-3c.06-1,.09-2.49.09-4.38V109.8H85.74A8.15,8.15,0,0,1,81,117.15a11.21,11.21,0,0,0-1.62-2.55c3-1.74,3.57-3.06,3.57-8.07,0-1.77-.06-3.63-.15-4.35l2,.63a37.26,37.26,0,0,0,8.43-1.8l2.07,1.92a.48.48,0,0,1,.15.3c0,.18-.18.3-.45.3h-.48a75.2,75.2,0,0,1-8.7,1.47v2.16H93.9c.66,0,1.74,0,2.4,0v2.73c-.63,0-1.59-.06-2.4-.06H91.8Z"/><path class="cls-1" d="M110.53,118.2H108c-1.65,0-4.36.06-6,.12v-3c1.56.06,4.26.12,6,.12h2.55v-5h-6.84c-.12.33-.27.63-.42,1a22.87,22.87,0,0,1-3.45,5.94,20.11,20.11,0,0,0-2.22-2.19c2.85-4,4.19-7.2,5.36-12.84l2.83.78c.48.12.71.33.71.57s-.21.39-.83.6a34.51,34.51,0,0,1-.93,3.36h5.79V105.3c0-2.4,0-3.66-.1-4.5l3.15.18c.34,0,.51.15.51.3s-.14.36-.56.6v5.76h4.31c1.8,0,4.44-.06,6-.12v3c-1.56-.06-4.2-.12-6-.12h-4.31v5h2.81c1.89,0,4.44,0,6-.12v3c-1.59-.06-4.14-.12-6-.12h-2.81v6.18h6c1.89,0,4.47-.06,6-.12v3c-1.62-.09-4.16-.12-6-.12H103.83c-1.64,0-4.34.06-6,.12v-3c1.53.06,4.25.12,6,.12h6.7Z"/><path d="M6.35,136.67a11,11,0,0,0,0,14H5.5a10.22,10.22,0,0,1,0-14Z"/><path d="M10.34,146.47c.77-.2,1.49-.44,2.34-.75l.11.82A36.41,36.41,0,0,1,8.46,148c-.13.19-.21.28-.3.28A.25.25,0,0,1,8,148.1l-.45-1c.71-.14,1.32-.26,1.87-.39V143H8.65c-.3,0-.67,0-.9,0v-1c.23,0,.6,0,.9,0h.72v-3.47H8.51c-.28,0-.67,0-.89,0v-.93h4.63v.93c-.22,0-.62,0-.9,0h-1v3.47h.89c.28,0,.66,0,.89,0v1c-.23,0-.61,0-.89,0h-.89Zm4.5-2.67c.2,0,.3.09.3.18s-.07.16-.3.25c0,2.27-.05,2.75-.34,3.51a3.92,3.92,0,0,1-2.08,2.16,8.05,8.05,0,0,1-1.94.75,4.29,4.29,0,0,0-.52-.9A10.86,10.86,0,0,0,12,149a3.25,3.25,0,0,0,1.55-1.74,7.33,7.33,0,0,0,.27-2.19,7.87,7.87,0,0,0-.11-1.4Zm1.74-4.05A16.31,16.31,0,0,1,15.34,142c1.35-.07,2.68-.19,4-.34a15.07,15.07,0,0,0-1.15-1.25l.61-.58a11.23,11.23,0,0,1,2.61,3l-.9.63c-.21-.37-.44-.73-.66-1.11-1.25.2-1.83.27-3.37.44l-3.08.33c-.15.18-.21.24-.29.24s-.16-.08-.22-.24l-.33-1,1.67-.08a17.63,17.63,0,0,0,1.25-2.35H13.81c-.43,0-1.06,0-1.5,0v-1c.44,0,1.07,0,1.5,0h2.32v-1.12c0-.2,0-.65,0-1l1.05.1c.2,0,.29.06.29.15s-.09.18-.3.3v1.53H20c.44,0,1.07,0,1.49,0v1c-.42,0-1.05,0-1.49,0Zm.46,3.93c.17,0,.26.06.26.15s-.09.18-.28.3c0,.31,0,.75,0,1.41v2.58c0,1,0,1.77,0,2.19H16c0-.53,0-1.23,0-2.19v-2.58c0-.9,0-1.56-.05-2Zm2.2,5.47c0,.24.09.3.51.3.71,0,.73-.07.76-1.72a4.18,4.18,0,0,0,1,.37c-.1,1.56-.19,1.86-.64,2.12a3.49,3.49,0,0,1-1.28.18c-1,0-1.33-.24-1.33-1v-4.95c0-.36,0-.75,0-1l1,.1c.19,0,.27.06.27.15s-.08.18-.29.3c0,.15,0,.17,0,.41Z"/><path d="M24.71,142.82H23.8l-.9,0v-.94h1.81V139H22.65v-.93c.22,0,.6,0,.89,0h3.29c.29,0,.67,0,.9,0V139a8.94,8.94,0,0,0-.9,0H25.66v2.95h2v.94l-.91,0H25.66V146a23.15,23.15,0,0,0,2.34-1l.21.87c-1.11.57-3,1.39-4.65,2.05-.12.26-.16.33-.26.33a.28.28,0,0,1-.23-.15l-.61-1c.71-.18,1.48-.42,2.25-.69Zm7.71,2.42c0,.76,0,2,0,3.24,0,.25,0,.57,0,.7,0,.63-.13.92-.49,1.11a3.66,3.66,0,0,1-1.94.3,2.33,2.33,0,0,0-.3-1.14c.47,0,.72.05,1.08.05.58,0,.62-.06.62-.62v-2.8c-1,.66-2.1,1.29-3.56,2.1l0,.16c-.05.15-.12.21-.23.21a.24.24,0,0,1-.2-.12l-.68-1A29.08,29.08,0,0,0,31.45,145v-4.5H29.77c-.63,0-1.47,0-2.09,0v-1c.57,0,1.43,0,2.09,0h1.68c0-1.47,0-2.4-.09-2.75l1.14.11c.15,0,.22.07.22.15s-.07.16-.26.28c0,.42,0,.51,0,2.21h2c.6,0,1.58,0,2.09,0v1c-.54,0-1.52,0-2.09,0h-2v.7a17.1,17.1,0,0,0,.66,2.28,14.48,14.48,0,0,0,2.27-1.78l.79.63c.12.09.15.16.15.24s-.07.15-.22.15l-.23,0a18.9,18.9,0,0,1-2.44,1.5c.14.3.28.59.45.89a11.48,11.48,0,0,0,2.86,3.43,2.35,2.35,0,0,0-.83.83,12.61,12.61,0,0,1-2.67-3.54,11,11,0,0,1-.79-1.8ZM29,141.59a11.84,11.84,0,0,1,2,2.3l-.82.63a12.4,12.4,0,0,0-1.79-2.31Zm4.78-4.41a8.42,8.42,0,0,1,1.6,1.61l-.75.66a9.66,9.66,0,0,0-1.44-1.64Z"/><path d="M45.05,141.79a12.2,12.2,0,0,0,2.12,4.32,10.82,10.82,0,0,0,4.35,3.37,8.6,8.6,0,0,0-.9.93,12.41,12.41,0,0,1-4.29-3.7,10.6,10.6,0,0,1-1.77-3.77,10,10,0,0,1-.68,2.4,9.15,9.15,0,0,1-3,3.77,12.51,12.51,0,0,1-2.9,1.51,4.07,4.07,0,0,0-.58-.88,10,10,0,0,0,4-2.54A9,9,0,0,0,43.63,142a1.57,1.57,0,0,1,0-.24H41c-.83,0-2.18,0-3,.06v-1c.77,0,2.12.06,3,.06h2.8c0-.71.06-1.71.08-4l1.08.17c.23,0,.34.1.34.22s-.09.18-.34.27c0,1.32-.07,2.4-.12,3.32h3.46c.94,0,2.23,0,3-.06v1c-.81,0-2.08-.06-3-.06Z"/><path d="M62.56,141.58l.82.75c.12.12.17.18.17.24s-.06.21-.55.3a18.68,18.68,0,0,1-2.9,1.84c0,.24,0,.48,0,.72h3.44c.94,0,2.22,0,3-.06v1c-.79,0-2.07,0-3,0H60.07v1.08c0,.27,0,1.07,0,1.59,0,0,0,.08,0,.21,0,1.08-.5,1.34-2.58,1.35a2.56,2.56,0,0,0-.29-1.17c.57.05.87.06,1.27.06s.55-.09.55-.63v-2.49H55.63c-.83,0-2.17,0-3,0v-1c.77,0,2.13.06,3,.06h3.45a10.21,10.21,0,0,0-.12-1.66l.95.07a14,14,0,0,0,1.69-1.11H57.55c-.63,0-1.51,0-2.09.05v-1c.58,0,1.46,0,2.09,0h4.8Zm-1.35-1.82a14.11,14.11,0,0,0,1.8-3.09l1,.5c.12.06.17.1.17.16s-.08.17-.3.21c-.75,1.17-1.07,1.65-1.51,2.22h1c.74,0,1.9,0,2.55-.06,0,.54,0,.81,0,1.14v.38c0,.37,0,.82,0,1.32H64.81c0-.44,0-1,0-1.32v-.54H54.22v.54c0,.34,0,.88,0,1.32h-1.1c0-.5,0-.95,0-1.32v-.38c0-.33,0-.6,0-1.14.67,0,1.7.06,2.67.06Zm-6-2.89A8.29,8.29,0,0,1,57,139.13l-1,.6a12.19,12.19,0,0,0-1.52-2.31Zm3.68-.18a9.33,9.33,0,0,1,1.24,2.44l-1,.42A11.17,11.17,0,0,0,58,137.08Z"/><path d="M75.16,137.6c0-.4,0-.73,0-1l1,.11q.27,0,.27.15c0,.09-.09.18-.3.3v1.15h2.28c.93,0,2.22,0,3-.06v1c-.77,0-2.12-.06-3-.06H71.09v3.45a14.59,14.59,0,0,1-.44,4.25,8.63,8.63,0,0,1-2,3.52,3.08,3.08,0,0,0-.75-.73,8,8,0,0,0,2.22-5.42,4.7,4.7,0,0,1-.53.38l-1.09.67c-.11.23-.17.3-.25.3s-.16-.07-.21-.18l-.44-.91a17.07,17.07,0,0,0,2.56-1.32c0-.21,0-.44,0-.66v-2.94c0-.45,0-1,0-1.32h5.07Zm-6.69,2a7,7,0,0,1,1.24,2.21l-.91.46a9.12,9.12,0,0,0-1.09-2.17ZM76.73,144c0,.17,0,.32,0,.48a12.44,12.44,0,0,1,2.72,2.7l-.72.77a11.62,11.62,0,0,0-2.19-2.58,4,4,0,0,1-.55,1.14,5.58,5.58,0,0,1-2.21,1.84,3.57,3.57,0,0,0-.49-.81,4.49,4.49,0,0,0,2-1.83,4,4,0,0,0,.45-1.71H73.18v3c0,2.3,0,2.9,0,3.53h-1c0-.59,0-2,0-2.91v-2.07c0-1.7,0-2,0-2.48.59.05,1.46.08,2.25.08h1.35v-1.61H73.46c-.49,0-1.33,0-1.78.05v-1c.45,0,1.21,0,1.78,0h6c.59,0,1.35,0,1.8,0v1c-.46,0-1.3-.05-1.8-.05H76.75v1.61h1.62c.78,0,1.63,0,2.22-.08,0,.36,0,.75,0,2.22v2.12c0,.3,0,1,0,1.59,0,0,0,.06,0,.19,0,1.07-.48,1.32-2.44,1.35a2.37,2.37,0,0,0-.27-1.14,7.68,7.68,0,0,0,1,.05c.6,0,.66-.06.66-.62V144Z"/><path d="M84.26,138.35v7.8c0,1.92,0,3.45.07,4.4H83.21c.05-1,.08-2.51.08-4.4v-7.39c0-.47,0-1,0-1.32h3l.2-.19.82.64a.31.31,0,0,1,.11.2c0,.09-.07.15-.32.28a37.83,37.83,0,0,1-1.48,3.6,4,4,0,0,1,1.76,3.38,1.77,1.77,0,0,1-1.24,1.93,4,4,0,0,1-1.41.14,3.44,3.44,0,0,0-.22-1.14l.7,0c.9,0,1.14-.23,1.14-1a3.3,3.3,0,0,0-.78-2.13,7.88,7.88,0,0,0-1-1A38.94,38.94,0,0,0,86,138.35Zm6.87,7a5.6,5.6,0,0,1-1.42,3.37,7.77,7.77,0,0,1-3.62,2,3,3,0,0,0-.52-.81A7.16,7.16,0,0,0,89,148a4.35,4.35,0,0,0,1.14-2.73h-.55c-.5,0-1.34,0-1.8,0v-1c.45,0,1.21.05,1.8.05h4.62c.58,0,1.35,0,1.8-.05v1c-.45,0-1.3,0-1.8,0h-.79v3.54c0,.37.16.45,1,.45s1.22-.11,1.34-.5a3.46,3.46,0,0,0,.12-1,4.81,4.81,0,0,0,1,.38c-.15,1.21-.23,1.45-.53,1.72s-.87.35-2,.35c-1.34,0-1.82-.26-1.82-1V145.3Zm.11-7.62c0-.42,0-.75,0-1l1,.09c.21,0,.28.07.28.16s-.07.18-.3.3v1.31h1.07c1,0,2.19,0,3-.08,0,.54,0,.83,0,1.16v.43c0,.39,0,.83,0,1.32h-1c0-.43,0-1,0-1.32v-.69H88.46v.69c0,.35,0,.89.05,1.32h-1c0-.49.05-.93.05-1.32v-.43c0-.33,0-.6,0-1.16.77.05,2,.08,3,.08h.77ZM95,142.6c-.44,0-1.06,0-1.5,0H90.26c-.43,0-1.06,0-1.5,0v-1l1.5,0h3.26l1.5,0Z"/><path d="M118,140.48c-.31,0-.78,0-1.18,0H113.8l-1.2,0v-1c.33,0,.87,0,1.2,0h3.06c.31,0,.85,0,1.18,0Zm-3.92,10h-1.07c0-.36,0-.82,0-1.6v-1.91c0-.46,0-1.05,0-1.32.35,0,.65,0,1.1,0h2.39c.44,0,.75,0,1.08,0,0,.27,0,.86,0,1.32v1.53c0,.74,0,1.2,0,1.56h-1v-.61h-2.46Zm3.28-12c-.23,0-.6,0-.9,0h-2.35c-.29,0-.68,0-.9,0v-1l.9,0h2.35l.9,0Zm0,4c-.23,0-.6,0-.9,0h-2.35c-.29,0-.68,0-.9,0v-1l.9,0h2.35l.9,0Zm0,2.05h-4.15v-1c.22,0,.61,0,.9,0h2.35c.3,0,.67,0,.9,0Zm-.82,2h-2.46v2.07h2.46Zm5.63-9.43c.35.13.42.19.42.33s0,.15-.24.24a9.11,9.11,0,0,0,4.22,3.7,2.19,2.19,0,0,0-.69.9,10.63,10.63,0,0,1-2.71-2.07,7.62,7.62,0,0,1-1.45-1.93,10.13,10.13,0,0,1-1.38,2.14,11.42,11.42,0,0,1-2.25,2.15,3.83,3.83,0,0,0-.61-.86,9.27,9.27,0,0,0,2.25-2.14,10.08,10.08,0,0,0,1.54-2.79Zm1.07,4.3a.27.27,0,0,1,.15.2c0,.13-.09.16-.48.16a12.87,12.87,0,0,1-4.63,3.27,3.1,3.1,0,0,0-.49-.85,11,11,0,0,0,4.52-3.32Zm3.14,5.06a.29.29,0,0,1,.14.21c0,.13-.12.18-.52.18a13.66,13.66,0,0,1-3.53,2.37,18.32,18.32,0,0,1-4.12,1.42,3.42,3.42,0,0,0-.38-.93,14.59,14.59,0,0,0,7.49-3.84Zm-1.52-2.79c.13.09.19.16.19.25s-.12.18-.36.18h-.13a14.13,14.13,0,0,1-5.89,3.58,4,4,0,0,0-.44-.9,12.12,12.12,0,0,0,5.74-3.66Z"/><path d="M138.91,145.67a15.19,15.19,0,0,0,.05,1.56h-1v-.3h-1.76v.59c0,.22.05,1.39.05,1.78,0,1.07-.48,1.32-2.43,1.35a2.38,2.38,0,0,0-.29-1.14,7.89,7.89,0,0,0,1,.05c.59,0,.66-.06.66-.62v-2h-1.64v.29h-.94c0-.36.05-.86.05-1.61v-1.42a12.93,12.93,0,0,1-1.68,1.39,3.41,3.41,0,0,0-.64-.73,13.11,13.11,0,0,0,2-1.62A10.53,10.53,0,0,0,131,141.8l.55-.54a9.5,9.5,0,0,1,1.58,1.26c.1-.12.21-.24.31-.37a11.47,11.47,0,0,0,.77-1.1H132.8l-1.8,0v-.93c.46,0,1.22,0,1.8,0h1.83a13.15,13.15,0,0,0,.59-1.44H130.5v4a11.45,11.45,0,0,1-.51,4,8.28,8.28,0,0,1-2.07,3.57,3,3,0,0,0-.68-.77,8.08,8.08,0,0,0,2.22-5.2l-1.2.73c-.1.23-.17.29-.24.29s-.16-.06-.21-.17l-.45-.91a18.57,18.57,0,0,0,2.14-1.07,5.62,5.62,0,0,0,0-.58v-3.45c0-.47,0-1.05,0-1.32h5.43v-.24c0-.4,0-.73,0-1l1,.11c.19,0,.28.06.28.15s-.09.18-.3.3v.64h2.45c.93,0,2.22,0,3-.06v1c-.78,0-2.13-.06-3-.06h-3l.88.33c.19.06.27.15.27.24s0,.15-.4.21c-.12.24-.23.47-.33.66h3.45c.58,0,1.35,0,1.8,0v.93l-1.8,0H137.5a8.84,8.84,0,0,0,1,1.25,10.81,10.81,0,0,0,1.28-1.16l.86.63a.24.24,0,0,1,.1.17c0,.09-.09.15-.25.15h-.18c-.32.18-.39.22-.89.55l-.29.21a9.91,9.91,0,0,0,2.53,1.35,3.25,3.25,0,0,0-.62.89,13.72,13.72,0,0,1-2.17-1.29Zm-10.77-6.28a6.92,6.92,0,0,1,1.26,2.19l-.93.48a8.36,8.36,0,0,0-1.08-2.18Zm6.06,8.29c.21.11.24.14.24.21s-.11.17-.35.2a12.91,12.91,0,0,1-4.27,2.37,6.74,6.74,0,0,0-.51-.86,10.89,10.89,0,0,0,4.23-2.26Zm3.81-3.15v-.79h-4.37v.79Zm-4.37,1.58H138v-.8h-4.37Zm4.28-3.2a8.68,8.68,0,0,1-1.37-1.86h-1.3a12.88,12.88,0,0,1-1.21,1.73l-.12.13Zm-.32,4.44a20.09,20.09,0,0,0,3.5,2.15,3.56,3.56,0,0,0-.72.81,20,20,0,0,1-3.42-2.39Z"/><path d="M144,139.85a.17.17,0,0,1,.15.18.15.15,0,0,1-.07.12l-.12.08a11,11,0,0,1-.79,3.79,3.06,3.06,0,0,0-.79-.58,8.75,8.75,0,0,0,.71-3.77Zm1.53-2.89c.14,0,.21.07.21.15s-.07.16-.27.28c0,.53,0,.84,0,3.87v5c0,1.93,0,3.4.05,4.38h-1.09c0-1,.08-2.45.08-4.38v-5c0-2.46,0-3.94-.09-4.41Zm.69,2.38a10.74,10.74,0,0,1,1.41,1.79l-.81.55a15.14,15.14,0,0,0-1.22-1.8Zm9-1.05h1.19v.9c-.31,0-.8,0-1.19,0h-3.29V140h3.4v.9c-.31,0-.8,0-1.2,0h-2.2v1h3.23c.44,0,1.07,0,1.49,0v.92c-.42,0-1.05,0-1.49,0H148c-.43,0-1.06,0-1.48,0v-.92c.42,0,1,0,1.48,0h2.88v-1H149c-.41,0-.87,0-1.21,0V140h3v-.88h-2.67c-.4,0-.89,0-1.2,0v-.9h3.87c0-.76,0-1.21,0-1.54l1.07.09c.18,0,.25.07.25.15s-.07.18-.28.3c0,.21,0,.84,0,1Zm-6.4,9.53c0,2.22,0,2.28,0,2.85h-1c0-.59,0-2,0-2.93v-1.32c0-2.16,0-2.46,0-2.92.59,0,1.44.06,2.23.06h2.92c.77,0,1.63,0,2.21-.06,0,.39,0,.87,0,2.37v1.57c0,.27,0,1.07,0,1.59a1.37,1.37,0,0,1,0,.21c0,1.07-.48,1.32-2.43,1.35a2.63,2.63,0,0,0-.29-1.14c.44,0,.68.05,1,.05.6,0,.66-.06.66-.62v-1.06Zm5.37-3.41h-5.37v.86h5.37Zm-5.37,2.6h5.37v-.93h-5.37Z"/><path d="M163.64,142c.12.05.17.09.17.15s0,.12-.35.23c-.37.79-.58,1.2-.8,1.62h1.08a10.6,10.6,0,0,0,1.12,0v.95c-.19,0-.49,0-1.12,0h-2v1.51h2.85v.94l-1.2,0h-1.65V148c0,1.12,0,2.08,0,2.62h-1.05c0-.58.05-1.41.05-2.62v-.74h-1.45l-1.2,0v-.94h2.65v-1.51h-1.9c-.4,0-.88,0-1.19,0V144c.33,0,.86,0,1.19,0h.85a11.51,11.51,0,0,0-1-2l.48-.23h-.37c-.4,0-.88,0-1.19,0v-.95c.33,0,.86,0,1.19,0h1.9v-1.27h-2.65v-.94l1.2,0h1.45v-.42c0-.59,0-1.05,0-1.4l1,.11c.19,0,.28.06.28.15s-.09.18-.29.3v1.26h1.65l1.2,0v.94h-2.85v1.27h2c.35,0,.91,0,1.17,0v.95c-.26,0-.74,0-1.17,0H163Zm-4.06-.24a7.69,7.69,0,0,1,.63,1,6.46,6.46,0,0,1,.42.93l-.64.3h1.73a10.59,10.59,0,0,0,.83-2.24Zm10,6a8.13,8.13,0,0,0,2.1,1.77,3.9,3.9,0,0,0-.66.91,8.25,8.25,0,0,1-2-1.77,10.42,10.42,0,0,1-1.78,1.85,4.92,4.92,0,0,0-.66-.8,9.06,9.06,0,0,0,1.85-1.9l-.14-.23a9.53,9.53,0,0,1-1.16-4.11h-.74V149c0,.69,0,1.27,0,1.6h-1c0-.36,0-.85,0-1.6v-10.2c0-.48,0-1,0-1.32h5.4c0,.25,0,.76,0,1.21v.9c0,.38,0,.75,0,1.25,0,.93-.39,1.15-2.11,1.15h-.12a3.24,3.24,0,0,0-.21-1.12l1,0c.36,0,.45-.07.45-.4v-2.15h-3.38v4.23h3.82l.21-.25.73.64c.09.09.12.14.12.21s-.07.18-.24.23H171a13.36,13.36,0,0,1-1.33,4.22ZM168,143.48a9.84,9.84,0,0,0,.93,3.33,13.06,13.06,0,0,0,1-3.33Z"/><path d="M178.24,138.11c.31,0,.85,0,1.2,0v.9l-1.2,0h-1.33a7.08,7.08,0,0,1,.8,1.58l-1,.4a7,7,0,0,0-.94-2H175a12.22,12.22,0,0,1-1.79,2,4.12,4.12,0,0,0-.58-.72,9.91,9.91,0,0,0,2.6-3.59l.9.38c.14.06.23.13.23.22s-.07.15-.42.21a6.75,6.75,0,0,1-.39.69Zm6.9,0c.33,0,.87,0,1.2,0v.9l-1.2,0h-1.91a6,6,0,0,1,.78,1.52l-1,.4a8.6,8.6,0,0,0-.87-1.92H181a12.81,12.81,0,0,1-1.1,1.11l.21,0c.19,0,.27.07.27.15s-.08.18-.29.3c0,.13,0,.48,0,.64h2.84c1,0,2.2,0,3-.06,0,.54,0,.83,0,1.16v.55c0,.38,0,.81,0,1.31h-1.1c0-.44,0-1,0-1.31v-.72H174.19v.72c0,.35,0,.87.05,1.31h-1.08c0-.5,0-.93,0-1.31v-.55c0-.33,0-.62,0-1.16.77,0,2,.06,3,.06h2.92V141c0-.42,0-.75,0-1l.7.06a2.62,2.62,0,0,0-.59-.57,9.19,9.19,0,0,0,2.15-2.91l.9.36c.14.06.23.13.23.22s-.06.17-.42.21a4,4,0,0,1-.44.75ZM182.59,147c.66,0,1.12,0,1.65,0,0,.27-.05.84-.05,1.32V149c0,.7,0,1.21.05,1.56h-1.08V150h-6.78v.63h-1.06c0-.34,0-.85,0-1.59v-4.69c0-.48,0-1.07,0-1.34.52,0,1,0,1.64,0h4.91c.66,0,1.13,0,1.65,0,0,.27-.05.86-.05,1.34v.52c0,.71,0,1.2.05,1.56h-1.08V146h-6.06v1Zm-.15-3h-6.06v1.11h6.06Zm-6.06,5.14h6.78v-1.27h-6.78Z"/><path d="M190.83,146.2a24.86,24.86,0,0,0,2.27-1.37l.28.83c-.89.58-1.49,1-2.21,1.38l-2.63,1.42c-.1.24-.17.33-.26.33a.31.31,0,0,1-.23-.15l-.6-.91c.81-.3,1.62-.66,2.43-1v-3.6h-2v-.94l.89,0h1.13V139h-1.29l-.88,0V138h5.35V139l-.89,0h-1.34v3.23h1.06l.9,0v.94h-2Zm3.75-1.91v.63h-1c0-.6,0-1.47,0-2.64v-2.23c0-.9,0-1.91,0-2.39.4,0,.75,0,1.28,0h4.6c.53,0,.89,0,1.28,0,0,.48,0,1.64,0,2.39v2c0,1.19,0,2.07,0,2.64h-1v-.42h-2.11v2h1.88c.57,0,1.35,0,1.79,0v1c-.45,0-1.29,0-1.79,0h-1.88v2.05h2.29c.57,0,1.35,0,1.78,0v1c-.44,0-1.29-.05-1.78-.05h-7.09c-.5,0-1.34,0-1.81.05v-1c.45,0,1.22,0,1.81,0h3.82v-2.05h-1.89c-.5,0-1.33,0-1.79,0v-1c.44,0,1.22,0,1.79,0h1.89v-2Zm2-5.7h-2v2h2Zm-2,2.94v1.86h2v-1.86Zm5.11-.9v-2h-2.11v2Zm-2.11,2.76h2.11v-1.86h-2.11Z"/><path d="M208.25,142.91v3.54c0,1.05.25,1.2,2,1.2a13.12,13.12,0,0,0,3.63-.42l.25,1a19.14,19.14,0,0,1-3.89.33c-2.6,0-3-.29-3-2.06v-3.45c-2.09.38-2.57.48-3.8.77l-.3-1.14c1.2-.11,2.72-.32,4.1-.54v-1.35a22.1,22.1,0,0,0-.07-2.27l1.16.11c.16,0,.25.07.25.16s-.05.14-.28.29c0,.36,0,.49,0,1.71V142l5.52-1,.15-.18.83.73c.1.11.13.15.13.23s-.07.15-.34.19a11.78,11.78,0,0,1-3.46,3.72,2.66,2.66,0,0,0-.73-.73,9.71,9.71,0,0,0,3.09-3Z"/><path d="M220.42,139.45a7.91,7.91,0,0,1,2.71,2.16l-.85.82a9.26,9.26,0,0,0-2.52-2.17Zm-.29,8.25a22.11,22.11,0,0,0,5-2.85,20.8,20.8,0,0,0,4.53-4.59,2.38,2.38,0,0,0,.67.88,24.4,24.4,0,0,1-4.65,4.64,33.84,33.84,0,0,1-4.39,2.74c-.06.21-.12.3-.23.3s-.16-.06-.25-.18Z"/><path d="M242.69,139.51l.2-.26.84.69c.15.12.19.18.19.27s-.07.2-.33.3a15.36,15.36,0,0,1-1.65,3.8,10.63,10.63,0,0,1,1.71,1.35l-.76.84a13,13,0,0,0-1.55-1.31,15.51,15.51,0,0,1-5.74,4.64A3.41,3.41,0,0,0,235,149a14,14,0,0,0,5.46-4.33,13.44,13.44,0,0,0-2.3-1l.54-.81a17.67,17.67,0,0,1,2.33,1,12.43,12.43,0,0,0,1.49-3.33H239a13.59,13.59,0,0,1-3.69,4.52,2.16,2.16,0,0,0-.71-.77,13.24,13.24,0,0,0,3.23-3.73,11.38,11.38,0,0,0,1.14-2.91l1,.39c.16.06.21.1.21.19s-.05.15-.33.26c-.2.55-.29.78-.42,1.11Z"/><path d="M260.2,144.2c-.7,0-1.89,0-2.69,0h-5.88c-.73,0-2,0-2.68,0v-1.09c.62,0,1.92,0,2.68,0h5.88c.83,0,2,0,2.69,0Z"/><path d="M262.84,150.68a10.93,10.93,0,0,0,0-14h.86a10.24,10.24,0,0,1,0,14Z"/><path d="M12.48,185.19l1.38,1.12c.11.1.16.18.16.26s-.11.21-.4.3A13.82,13.82,0,0,1,11,192.19a16.27,16.27,0,0,1-6.4,4.48,3.14,3.14,0,0,0-1.16-1.5c3.19-1.35,4.82-2.44,6.26-4.18a10.93,10.93,0,0,0,2.05-3.89l-4,.29c-2.16.16-3.74.24-4.53.32L3,185.93h.46c.29,0,.64,0,1.32-.05l1.35,0,1.54-.08,4.53-.25Zm3.75-1.13a1.64,1.64,0,1,1-1.63-1.64A1.64,1.64,0,0,1,16.23,184.06Zm-2.5,0a.86.86,0,0,0,1.72,0,.86.86,0,1,0-1.72,0Z"/><path d="M21.65,194.86H19.9c0-.59.05-1.54.05-2.8v-3.38c0-1.5,0-2-.05-2.54.44,0,.82,0,1.36,0H28c.54,0,.93,0,1.36,0,0,.51-.05,1.58-.05,2.54v3.38c0,1.33,0,2.19.05,2.8H27.6v-.75h-6Zm6-2.32v-4.8h-6v4.8Z"/><path d="M41.62,184.15c.21.1.22.11.22.21s-.05.16-.35.27c-.13.26-.35.66-.67,1.22H44l.26-.29,1.26,1.06c.19.16.21.17.21.27s-.06.18-.38.32A15.38,15.38,0,0,1,41,194a21.3,21.3,0,0,1-3.89,2.7A3.61,3.61,0,0,0,36,195.34c4.08-2.14,6.08-4.29,7.44-8H39.94a17.44,17.44,0,0,1-3.72,3.87A4.2,4.2,0,0,0,35.06,190a13.44,13.44,0,0,0,3.66-3.75,11.15,11.15,0,0,0,1.39-2.77Zm3.57-.3a10.65,10.65,0,0,1,2,1.6l-.8.88a9.12,9.12,0,0,0-1.94-1.67Zm1.25-1.46a10.35,10.35,0,0,1,2,1.6l-.78.88a9.89,9.89,0,0,0-1.94-1.65Z"/><path d="M51.38,187.23l1.6,0h7.28l.24-.27,1.25,1.12c.13.11.16.16.16.24s-.11.2-.39.28a12.63,12.63,0,0,1-2.7,4.84,15.46,15.46,0,0,1-5.27,3.65,6.38,6.38,0,0,0-1-1.51,12.53,12.53,0,0,0,5.84-4.3,9,9,0,0,0,1.28-2.45H53c-.44,0-1.08,0-1.6,0Zm9.06-1.67c-.45,0-1.14,0-1.61,0H54.38c-.46,0-1.13,0-1.59,0V183.9l1.59,0h4.45l1.61,0Z"/><path d="M65.9,193.32c1.57,0,1.8,0,2.66-.09a48.51,48.51,0,0,0,3-8.71l1.84.75c.16.07.21.11.21.21s0,.19-.43.35a56,56,0,0,1-2.9,7.27c1.78-.18,2.85-.27,3.2-.32.6-.06,1.28-.18,2.07-.3a13,13,0,0,0-1.75-2.37l1.25-.92a20.84,20.84,0,0,1,3.79,5.65l-1.69.88c-.35-.84-.5-1.18-.83-1.85-1.4.27-1.86.35-4.17.65-2.08.28-2.22.28-3.16.4s-1.17.15-1.88.26c-.09.16-.19.24-.29.24s-.19-.13-.24-.27Z"/><path d="M92,186.86a9.43,9.43,0,0,0,1.63,1,16,16,0,0,0,4,1.39,3.56,3.56,0,0,0-.72,1.39,14.5,14.5,0,0,1-4.21-1.73,9.18,9.18,0,0,1-1.91-1.41c0,1,0,1.78,0,2.26h-1.6c0-.54,0-1.28,0-2.29a17.06,17.06,0,0,1-6.34,3.35,4.31,4.31,0,0,0-.64-1.36A18,18,0,0,0,88,186.86H86.22c-.88,0-2.32,0-3.18.06v-1.41c.83,0,2.27.07,3.18.07h3.06v-.9c-1.41.11-3,.18-4.83.22a3.92,3.92,0,0,0-.43-1.32h.19a42.2,42.2,0,0,0,10.07-1l1,1c.14.12.16.14.16.2s-.08.16-.23.16H94.9c-1.34.27-2.66.46-4.1.62v1h3c1,0,2.38,0,3.18-.07v1.41c-.85,0-2.21-.06-3.18-.06ZM86,192.68c-.88,0-2.32,0-3.18.07v-1.44c.81,0,2.27.06,3.18.06h1.33a11.82,11.82,0,0,0,1.14-1.82l1.5.68a.27.27,0,0,1,.18.24c0,.16-.13.23-.5.26-.17.24-.33.45-.48.64H94c1,0,2.39,0,3.21-.06v1.44c-.87,0-2.23-.07-3.21-.07h0a10.15,10.15,0,0,1-1.73,2l.05,0A21.62,21.62,0,0,1,96,196.14l-.84,1.33a27.66,27.66,0,0,0-2.55-1.15c-.61-.23-1.23-.44-1.84-.64a17.22,17.22,0,0,1-7,1.81,4,4,0,0,0-.49-1.43,21.47,21.47,0,0,0,5.53-1c-.74-.19-1.47-.32-2.23-.45-.17.23-.35.43-.53.64l-1.23-.91a20.88,20.88,0,0,0,1.54-1.7Zm2.16,0-.72.93a25.56,25.56,0,0,1,3.12.58,8.13,8.13,0,0,0,1.59-1.51Z"/><path d="M104.93,195.2c.13.06.19.14.19.24s-.09.2-.51.24a15.11,15.11,0,0,1-5.44,1.84,3.1,3.1,0,0,0-.61-1.48,14.64,14.64,0,0,0,5.14-1.45Zm-2.61-.2h-1.65c0-.64,0-1.56,0-2.8v-2.11c0-1,0-2,0-2.54.64,0,1.25,0,2.15,0h6.46c.93,0,1.59,0,2.25,0,0,.52,0,1.63,0,2.54v2c0,1.28,0,2.21,0,2.82h-1.65v-.45h-7.56Zm.56-7.93h-1.57c0-.39,0-.92,0-1.7v-.74c0-.51,0-1.12,0-1.41.56,0,1.06,0,1.76,0h6c.72,0,1.21,0,1.77,0,0,.29,0,.9,0,1.41v.75c0,.76,0,1.3,0,1.67h-1.58v-.38h-6.34Zm7,1.79h-7.56v.73h7.56Zm-7.56,2.58h7.56v-.74h-7.56Zm0,1.84h7.56v-.74h-7.56Zm6.9-8.86h-6.34v1.08h6.34Zm-1.36,10.14a20.3,20.3,0,0,0,5.7,1.45,3.3,3.3,0,0,0-.72,1.49,17.37,17.37,0,0,1-3.06-.69,12.44,12.44,0,0,1-2.85-1.12Z"/><path d="M119.07,195.18c1.19-.24,2.4-.51,3.68-.83l.21,1.34c-2.25.6-3.6.9-6.85,1.51l-.11.17c-.06.12-.13.16-.21.16s-.17-.06-.22-.2L115,195.8c.82-.09,1.65-.2,2.5-.35v-4.09h-.47c-.69,0-1.58,0-2.24,0v-1.55c.61,0,1.52.05,2.24.05h.47v-4c0-1.67,0-2.05-.05-2.56.35,0,.88,0,1.36,0h6.67c.66,0,1.44,0,1.93-.05v1.49c-.53,0-1.38,0-1.93,0h-6.45v.75h5c.66,0,1.65,0,2.24-.05V187c-.59,0-1.58-.05-2.24-.05h-5v.75h5c.66,0,1.65,0,2.24-.05v1.47l-2.24,0h-5v.82h7.72c.64,0,1.68,0,2.24-.05v1.55c-.59,0-1.63,0-2.24,0h-4.74a8.78,8.78,0,0,0,1.58,1.76,17.22,17.22,0,0,0,2.57-1.61l1.29.84c.08.05.13.11.13.17s-.11.15-.29.15h-.14c-.83.49-1.55.89-2.37,1.31a16.54,16.54,0,0,0,4.58,1.94,10.67,10.67,0,0,0-.92,1.36,15.69,15.69,0,0,1-5.39-2.8,9.13,9.13,0,0,1-2.55-3.12h-1.47Z"/><path d="M6.91,214.78A19.88,19.88,0,0,1,10,217.34l-1.37,2.14a14.76,14.76,0,0,0-1.75-2v2.9c0,3.15,0,5.47.1,7H4.54c.07-1.56.09-3.91.09-7v-2.06a19.82,19.82,0,0,1-2.33,4.89A12.45,12.45,0,0,0,1,220.75,24.58,24.58,0,0,0,4.3,212.3H3.41c-.63,0-1.39,0-1.9,0v-2.28c.53,0,1.39.05,1.9.05H4.63c0-2.67-.07-4.32-.14-4.92l2.52.19c.21,0,.36.1.36.24s-.12.27-.43.46c0,.69,0,.81,0,4h1c.53,0,1.4,0,1.92-.05v2.28c-.5,0-1.27,0-1.92,0h-1Zm8.33-8.17c.26.1.41.22.41.37s-.12.21-.48.38a21.91,21.91,0,0,1-4.63,9.14,5.73,5.73,0,0,0-1.68-1.75,17.72,17.72,0,0,0,2.66-4,18.88,18.88,0,0,0,1.7-4.87Zm6.36,20.67c-.24-.72-.5-1.42-.79-2.11-1.49.24-3.51.45-10.25,1.22-.22.24-.31.31-.41.31s-.21-.12-.29-.31l-.74-2.25c.86,0,1.7-.08,2.57-.12a65,65,0,0,0,2.76-10.37l2.54.62c.12,0,.27.17.27.27s-.15.24-.46.36c-.46,1.46-.53,1.63-1.54,5-.33,1.1-.69,2.18-1.29,4,2-.12,4-.32,6-.6a29.06,29.06,0,0,0-2.33-3.56l1.68-1.15a21.19,21.19,0,0,1,4.4,7.54ZM19,205.63a18.19,18.19,0,0,0,2.09,5,14.61,14.61,0,0,0,3.17,3.68,6.12,6.12,0,0,0-1.8,1.79A16.94,16.94,0,0,1,19,211.61a19.49,19.49,0,0,1-2.06-5.52Z"/><path d="M36.62,214.56a23.07,23.07,0,0,1-3.79,4.82A33.79,33.79,0,0,1,27.41,224a5.54,5.54,0,0,0-1.32-2,33.05,33.05,0,0,0,5.33-4.36A28.47,28.47,0,0,0,35.76,212h-4c-1.32,0-3.48.05-4.78.1v-2.4c1.25.07,3.41.09,4.78.09h4.82c0-.79,0-1.61,0-2.4a18.19,18.19,0,0,0-.12-2.33l2.57.17c.21,0,.36.12.36.26s-.12.24-.46.46c0,1.27,0,2.57,0,3.84h4.85c1.51,0,3.55,0,4.77-.09v2.4c-1.27,0-3.31-.1-4.77-.1h-4.2a28.33,28.33,0,0,0,9.79,9.53,7.88,7.88,0,0,0-1.49,2.06,29,29,0,0,1-9-9.17v5.86h2.42l1.9,0v2.25c-.5,0-1.25,0-1.9,0H38.93c0,1.56,0,3.14.12,4.7H36.53c.07-1.56.09-3.14.09-4.7h-2.4c-.64,0-1.39,0-1.89,0V220.3l1.89,0h2.4Z"/><path d="M78.29,211.15c1.51,0,3.55-.05,4.77-.09v2.37c-1.27-.05-3.31-.07-4.77-.07h-2c.41,4.42,1.32,7.49,2.88,9.62.56.77,1.18,1.28,1.54,1.28s.72-.84,1-2.91a8.94,8.94,0,0,0,2,.87c-.43,2.59-.53,3-.93,3.77a1.93,1.93,0,0,1-1.73,1.1c-1.32,0-2.81-1.18-4-3.17-1.78-2.86-2.67-5.81-3-10.56H65.66c-1.32,0-3.48,0-4.77.07v-2.37c1.24,0,3.4.09,4.77.09h8.21c-.05-.93-.07-2-.07-3.05a17.72,17.72,0,0,0-.14-3l2.59.29c.26,0,.38.11.38.26s-.14.29-.48.48c0,.69,0,1,0,1.63,0,1.2,0,2.3.07,3.36Zm-11.47,5c0-1.1,0-1.39,0-2.21l2.37.15c.27,0,.44.12.44.24s-.15.29-.48.48V217h2.16c.52,0,1.39,0,1.92,0v2.28c-.51,0-1.28,0-1.92,0H69.1v3.41c1.6-.48,3.16-1,4.6-1.54l.51,2.11a119.54,119.54,0,0,1-11.43,3.63c-.16.31-.33.48-.48.48A.42.42,0,0,1,62,227l-1.06-2.42c.58-.1,1.18-.22,1.78-.34v-5.06c0-1.92,0-2.93-.07-3.6l2.47.14c.26,0,.41.12.41.24s-.12.29-.46.48c0,.55,0,1.22,0,2.74v4.53c.61-.14,1.2-.31,1.81-.45Zm3.84-7H65.09l-1.9,0V207c.53,0,1.39,0,1.9,0h5.57c.52,0,1.39,0,1.92,0v2.25Zm8-3.12a15.22,15.22,0,0,1,3,3l-1.68,1.46a14.91,14.91,0,0,0-2.72-3.05Z"/><path d="M87.55,210.89a21.42,21.42,0,0,1,3,3.12l-1.87,1.51a18.69,18.69,0,0,0-2.76-3.17Zm4.51,6.26c-.64,1.92-.91,2.64-1.73,4.71a39,39,0,0,1-1.65,3.74c-.24.48-.26.55-.41.89v.17c0,.19-.07.33-.22.33s-.12-.05-.33-.21L86,225.36A50.39,50.39,0,0,0,90.24,216Zm-2.9-11.42a17.14,17.14,0,0,1,2.86,3l-1.92,1.49a18.16,18.16,0,0,0-2.62-3.15ZM99,207.48c0-1.11,0-1.39,0-2.21l2.4.15c.26,0,.43.11.43.24s-.14.28-.46.48v2.92h3c.93,0,2.16,0,2.88-.07v2.33c-.75,0-2.09,0-2.88,0h-3v3.34h4.2c.92,0,2.17,0,2.86-.05v2.3c-.72,0-2.06,0-2.86,0H95.06c-.79,0-2.13,0-2.88,0v-2.3c.72,0,1.95.05,2.88.05H99v-3.34H95.57a26.27,26.27,0,0,1-1.71,3.24A6.23,6.23,0,0,0,92,213.19a20.67,20.67,0,0,0,3-7.42l2,.63c.4.12.48.19.48.38a.26.26,0,0,1-.15.24l-.41.15c-.21.72-.4,1.34-.6,1.89H99Zm-2.62,19.66H94c0-.56.07-1.37.07-2.55v-4c0-.76,0-1.68-.07-2.11.84,0,1.58,0,2.64,0h7.2c1.08,0,1.8,0,2.64,0,0,.43,0,1.35,0,2.11v3.87c0,1.13,0,1.94,0,2.49h-2.35v-.81H96.36Zm7.78-6.48H96.36V224h7.78Z"/><path d="M121.07,209a11,11,0,0,0,0,14h-.85a10.22,10.22,0,0,1,0-14Z"/><path d="M128.62,216.83a8.07,8.07,0,0,0,1.8,2.23,16.78,16.78,0,0,0,2.74-1.77l.9.63a.2.2,0,0,1,.11.17c0,.07-.08.13-.21.13h-.2c-1,.55-1.69.93-2.67,1.39a14.42,14.42,0,0,0,4.94,2.27,6.53,6.53,0,0,0-.68.91,14.54,14.54,0,0,1-5-2.62,9,9,0,0,1-2.6-3.33h-1.29v4.23c1.19-.26,2.36-.56,3.45-.9l.08.85a63.46,63.46,0,0,1-6.18,1.56l-.11.17c-.06.1-.12.15-.19.15s-.17-.06-.21-.2l-.38-1c.84-.11,1.68-.24,2.54-.41v-4.42h-.75c-.65,0-1.49,0-2.1,0v-1l2.1,0h.75v-3.75c0-1.28,0-1.92,0-2.4.35,0,.83,0,1.28,0h5.94c.61,0,1.35,0,1.8-.05v1c-.5,0-1.29,0-1.8,0h-6.17v1.12h5.13c.6,0,1.53,0,2.09,0v1c-.56,0-1.49,0-2.09,0h-5.13v1.17h5.13c.6,0,1.53,0,2.09-.05v1c-.56,0-1.49,0-2.09,0h-5.13v1.14h7.35l2.1,0v1c-.55,0-1.53,0-2.1,0Z"/><path d="M138.65,219.24v1.68h-1c0-.58,0-1.42,0-2.64v-3.84c0-1.47,0-2.25-.06-2.68l1,.1c.16,0,.25.06.25.14s-.07.18-.28.3c0,.27,0,1.3,0,2.14v3.93h.81v-7.66c0-.69,0-.87,0-1.4l1,.09c.18,0,.27.08.27.17s-.09.16-.29.3v8.5h.92v-3.93c0-1.47,0-2.25-.06-2.68l1,.1c.17,0,.26.06.26.14s-.08.18-.29.3c0,.27,0,1.2,0,2.14v2.87c0,1.14,0,2.1,0,2.64h-1v-.71Zm11.07-.79c0,.58,0,1.38,0,2.35,0,.2,0,.56,0,.72,0,1.07-.51,1.37-2.37,1.4a1.87,1.87,0,0,0-.5-1.17c.47,0,1,0,1.2,0,.53,0,.62-.09.62-.58v-5.09H144.1l-1.49,0v-1l1.49,0h5.64l1.5,0v1c-.51,0-1,0-1.52,0Zm-5.17-6.68c-.44,0-1.07,0-1.5,0v-.93c.43,0,1.06,0,1.5,0h1.89a15.89,15.89,0,0,0,.1-1.8l1.08.21c.12,0,.2.09.2.2s0,.1-.32.27c0,.42-.06.79-.1,1.12h1.89c.43,0,1.06,0,1.48,0v.93c-.42,0-1.05,0-1.48,0h-2.06c0,.12-.07.23-.1.33a12.49,12.49,0,0,1,3.22,2l-.69.79a12.12,12.12,0,0,0-2.91-2,3.24,3.24,0,0,1-.24.31,6.07,6.07,0,0,1-2.8,1.77,2.51,2.51,0,0,0-.51-.82c1.54-.54,2.19-.93,2.67-1.64a2.58,2.58,0,0,0,.37-.72Zm.09,9.51h-1c0-.34,0-.85,0-1.59v-1.47c0-.48,0-1.05,0-1.32.34,0,.64,0,1.09,0h1.55c.43,0,.75,0,1.08,0,0,.27-.05.84-.05,1.32v1.08c0,.71,0,1.22.05,1.56h-1v-.61h-1.75Zm1.75-3.49h-1.75v1.6h1.75Z"/><path d="M159.77,214.11a12,12,0,0,0,2.12,4.32,10.83,10.83,0,0,0,4.35,3.38,6.5,6.5,0,0,0-.9.93,12.24,12.24,0,0,1-4.29-3.71,10.47,10.47,0,0,1-1.77-3.76,10.16,10.16,0,0,1-.68,2.4,9.06,9.06,0,0,1-3,3.76,12.69,12.69,0,0,1-2.9,1.52,4.14,4.14,0,0,0-.58-.89,10.07,10.07,0,0,0,4-2.53,9,9,0,0,0,2.24-5.18,1.75,1.75,0,0,1,0-.24h-2.72c-.82,0-2.17,0-3,.06v-1c.76,0,2.11.06,3,.06h2.81c0-.7.06-1.71.07-4l1.08.16c.24,0,.35.11.35.23s-.09.18-.35.27c0,1.32-.06,2.4-.12,3.31H163c.94,0,2.23,0,3-.06v1c-.81,0-2.09-.06-3-.06Z"/><path d="M177.28,213.9l.82.75c.12.12.17.18.17.24s-.06.21-.56.3a18.19,18.19,0,0,1-2.89,1.85c0,.24,0,.48,0,.72h3.44c.94,0,2.22,0,3-.06v1c-.79,0-2.07,0-3,0h-3.45v1.08c0,.27,0,1.06,0,1.59a1.21,1.21,0,0,1,0,.21c0,1.08-.5,1.33-2.58,1.35a2.5,2.5,0,0,0-.29-1.17c.57,0,.87.06,1.26.06s.56-.09.56-.63v-2.49h-3.45c-.83,0-2.18,0-3,0v-1c.78,0,2.13.06,3,.06h3.45a10.26,10.26,0,0,0-.12-1.67l.94.08a13.4,13.4,0,0,0,1.7-1.11h-4c-.63,0-1.52,0-2.09,0v-1c.57,0,1.46,0,2.09,0h4.8Zm-1.35-1.81a14.59,14.59,0,0,0,1.8-3.09l1,.49c.12.06.17.11.17.17s-.08.16-.3.21a25.5,25.5,0,0,1-1.52,2.22h1c.74,0,1.89,0,2.55-.06,0,.54,0,.81,0,1.14v.37c0,.38,0,.83,0,1.32h-1.11c0-.43,0-1,0-1.32V213H168.94v.54c0,.35,0,.89,0,1.32h-1.11c0-.49,0-.94,0-1.32v-.37c0-.33,0-.6,0-1.14.67,0,1.69.06,2.67.06Zm-6-2.9a8.55,8.55,0,0,1,1.73,2.27l-.95.6a12.14,12.14,0,0,0-1.53-2.31Zm3.68-.18a9.56,9.56,0,0,1,1.24,2.45l-1,.42a10.8,10.8,0,0,0-1.11-2.48Z"/><path d="M189.88,209.93c0-.41,0-.74,0-1l1,.1c.18,0,.27.06.27.15s-.09.18-.3.3v1.16h2.28c.93,0,2.22,0,3-.06v1c-.76,0-2.11-.06-3-.06h-7.34V215a14.16,14.16,0,0,1-.45,4.24,8.38,8.38,0,0,1-2,3.53,2.77,2.77,0,0,0-.75-.74,7.88,7.88,0,0,0,2.22-5.41,3.77,3.77,0,0,1-.52.37l-1.1.68c-.1.22-.16.3-.24.3s-.16-.08-.21-.18l-.45-.92a16.3,16.3,0,0,0,2.57-1.32c0-.21,0-.43,0-.66V212c0-.45,0-1,0-1.32.51,0,1,0,1.65,0h3.42Zm-6.69,2a7.35,7.35,0,0,1,1.24,2.2l-.91.47a9,9,0,0,0-1.1-2.18Zm8.26,4.41a4,4,0,0,1,0,.48,12.07,12.07,0,0,1,2.73,2.7l-.72.76a12.13,12.13,0,0,0-2.19-2.58,4,4,0,0,1-.55,1.14,5.59,5.59,0,0,1-2.21,1.85,3.37,3.37,0,0,0-.49-.81,4.6,4.6,0,0,0,2-1.83,4,4,0,0,0,.45-1.71H187.9v3c0,2.29,0,2.89,0,3.52h-1.05c0-.58.05-2,.05-2.91v-2.07c0-1.69,0-2-.05-2.47.59,0,1.46.07,2.25.07h1.35v-1.6h-2.31c-.49,0-1.33,0-1.78,0v-1c.45,0,1.21.05,1.78.05h6c.59,0,1.35,0,1.8-.05v1c-.46,0-1.3,0-1.8,0h-2.71v1.6h1.62c.78,0,1.63,0,2.22-.07,0,.36-.05.75-.05,2.22v2.11c0,.3,0,1,.05,1.59,0,0,0,.06,0,.2,0,1.06-.48,1.32-2.44,1.35a2.37,2.37,0,0,0-.27-1.14,9.49,9.49,0,0,0,1,0c.6,0,.66-.06.66-.61v-4.8Z"/><path d="M199,210.68v7.8c0,1.92,0,3.45.06,4.39h-1.11c0-1,.08-2.5.08-4.39v-7.4c0-.46,0-1.05,0-1.32.33,0,.65,0,1.08,0h1.88l.19-.2.83.65a.26.26,0,0,1,.1.19c0,.09-.06.15-.31.29a35.77,35.77,0,0,1-1.49,3.6,3.94,3.94,0,0,1,1.77,3.37,1.79,1.79,0,0,1-1.24,1.94,4.44,4.44,0,0,1-1.41.13,3.23,3.23,0,0,0-.23-1.14c.17,0,.51,0,.71,0,.9,0,1.14-.22,1.14-1a3.32,3.32,0,0,0-.78-2.13,7.8,7.8,0,0,0-1-1,38.08,38.08,0,0,0,1.48-3.81Zm6.87,6.94a5.63,5.63,0,0,1-1.42,3.38,7.68,7.68,0,0,1-3.62,2,3.74,3.74,0,0,0-.52-.81,7.16,7.16,0,0,0,3.43-1.83,4.38,4.38,0,0,0,1.14-2.73h-.55l-1.8,0v-1c.45,0,1.21,0,1.8,0h4.62c.58,0,1.35,0,1.8,0v1l-1.8,0h-.8v3.54c0,.38.17.45,1,.45.95,0,1.23-.1,1.35-.49a3.51,3.51,0,0,0,.12-1.05,4.83,4.83,0,0,0,.95.37c-.15,1.22-.23,1.46-.53,1.73s-.87.34-2,.34c-1.34,0-1.82-.25-1.82-1v-3.89ZM206,210c0-.42,0-.75,0-1l1,.09c.21,0,.28.08.28.17s-.07.18-.3.3v1.3H208c1,0,2.19,0,3-.07,0,.54,0,.82,0,1.15v.44c0,.39,0,.82,0,1.32h-1c0-.44,0-1,0-1.32v-.69h-6.83v.69c0,.34,0,.88,0,1.32h-1c0-.5,0-.93,0-1.32V212c0-.33,0-.6,0-1.15.77,0,1.95.07,3,.07H206Zm3.78,4.92-1.5,0H205l-1.5,0v-1c.44,0,1.07,0,1.5,0h3.26c.43,0,1.06,0,1.5,0Z"/><path d="M238.12,221.3c.9,0,2.22,0,3-.06v1c-.78,0-2.1-.06-3-.06h-9v.7h-1c0-.7,0-1.12,0-3.54v-6c0-2.45,0-2.88,0-3.39.84,0,1.94.06,3,.06h6.39c.9,0,2.17,0,3-.06V211c-.76,0-2.08-.06-3-.06h-8.33V221.3Zm-5.79-7.59a10.07,10.07,0,0,1-1.49,2,4.22,4.22,0,0,0-.72-.62,10,10,0,0,0,2.22-3.88l1,.31c.11.05.15.09.15.18s0,.14-.33.21c-.12.33-.25.63-.37.92h4.74c.6,0,1.53,0,2.08-.05v1c-.55,0-1.48,0-2.08,0h-2v.4a9.06,9.06,0,0,1-.17,1.76h3.11c.6,0,1.57,0,2.08-.05v1c-.54,0-1.51-.05-2.08-.05H236a8.37,8.37,0,0,0,4.12,3.2,2.69,2.69,0,0,0-.67.91,9.74,9.74,0,0,1-2.83-2,6.88,6.88,0,0,1-1.53-2.15,6,6,0,0,1-1.43,2.37,8.61,8.61,0,0,1-3.28,1.91,4,4,0,0,0-.56-.92,6.57,6.57,0,0,0,3.3-1.87,4.55,4.55,0,0,0,.89-1.49h-2.27c-.63,0-1.47,0-2.1.05v-1c.59,0,1.44.05,2.1.05h2.54a8.13,8.13,0,0,0,.18-1.76v-.4Z"/><path d="M253.63,218c0,.7,0,1.21,0,1.56h-.94v-.3H251v.58c0,.23.05,1.4.05,1.79,0,1.06-.48,1.32-2.43,1.35a2.38,2.38,0,0,0-.29-1.14,9.85,9.85,0,0,0,1,0c.58,0,.66-.06.66-.61v-2h-1.64v.28h-.94c0-.36,0-.85,0-1.6v-1.43a13,13,0,0,1-1.68,1.4,3.15,3.15,0,0,0-.63-.74,14.17,14.17,0,0,0,2-1.62,10,10,0,0,0-1.49-1.42l.56-.54a9,9,0,0,1,1.57,1.26c.11-.12.21-.24.32-.38a10.72,10.72,0,0,0,.76-1.09h-1.35c-.49,0-1.33,0-1.8,0v-.93l1.8,0h1.83a15,15,0,0,0,.59-1.44h-4.73v4a11.19,11.19,0,0,1-.51,4,8.22,8.22,0,0,1-2.07,3.57,2.76,2.76,0,0,0-.67-.76,8.15,8.15,0,0,0,2.22-5.21l-1.2.74c-.11.22-.17.28-.24.28a.23.23,0,0,1-.21-.16l-.45-.92a19.34,19.34,0,0,0,2.14-1.06,5.82,5.82,0,0,0,0-.59v-3.45c0-.46,0-1.05-.05-1.32.51,0,1,0,1.67,0h3.76v-.24c0-.41,0-.74,0-1l1,.1c.19,0,.28.06.28.15s-.09.18-.3.3v.65h2.45c.93,0,2.22,0,3-.06v1c-.78,0-2.13-.06-3-.06h-3l.88.33c.18.06.27.15.27.24s0,.15-.4.21l-.33.66h3.45l1.8,0v.93c-.47,0-1.31,0-1.8,0h-1.68a9.41,9.41,0,0,0,1,1.24,9.39,9.39,0,0,0,1.29-1.15l.86.63a.2.2,0,0,1,.1.16c0,.09-.09.15-.25.15h-.18c-.32.18-.39.23-.89.56-.12.07-.21.15-.3.21a10.2,10.2,0,0,0,2.54,1.35,3.35,3.35,0,0,0-.62.88,13.72,13.72,0,0,1-2.17-1.29Zm-10.77-6.29a7.23,7.23,0,0,1,1.26,2.19l-.93.48a8.43,8.43,0,0,0-1.08-2.17Zm6.06,8.3c.21.1.24.13.24.21s-.11.16-.35.19a13,13,0,0,1-4.27,2.37,7.34,7.34,0,0,0-.51-.85,10.91,10.91,0,0,0,4.23-2.27Zm3.81-3.15v-.8h-4.37v.8Zm-4.37,1.57h4.37v-.79h-4.37Zm4.28-3.19a9.2,9.2,0,0,1-1.37-1.86H250a12.88,12.88,0,0,1-1.22,1.72l-.12.14Zm-.32,4.44a20,20,0,0,0,3.5,2.14,3.79,3.79,0,0,0-.72.81,19,19,0,0,1-3.42-2.38Z"/><path d="M258.67,212.18a.16.16,0,0,1,.15.18.15.15,0,0,1-.08.12l-.12.07a10.9,10.9,0,0,1-.78,3.8,3.23,3.23,0,0,0-.79-.59,8.71,8.71,0,0,0,.7-3.76Zm1.53-2.9c.13,0,.21.08.21.15s-.08.17-.27.29c0,.52,0,.84,0,3.87v5c0,1.94,0,3.41.06,4.38h-1.09c0-1,.07-2.44.07-4.38v-5c0-2.46,0-4-.09-4.41Zm.69,2.39a10.71,10.71,0,0,1,1.41,1.78l-.81.56a15.56,15.56,0,0,0-1.22-1.8Zm8.95-1c.32,0,.86,0,1.19,0v.9l-1.19,0h-3.3v.89h2.21c.33,0,.87,0,1.2,0v.9l-1.2,0h-2.21v1h3.24l1.49,0v.91l-1.49,0h-7.09l-1.49,0v-.91l1.49,0h2.88v-1h-1.82l-1.2,0v-.9c.35,0,.89,0,1.2,0h1.82v-.89H262.9c-.41,0-.89,0-1.2,0v-.9c.33,0,.87,0,1.2,0h2.67c0-.77,0-1.22-.05-1.55l1.07.09c.18,0,.25.08.25.15s-.07.18-.28.3c0,.21,0,.84,0,1Zm-6.4,9.52c0,2.22,0,2.28,0,2.85h-1.05c0-.58.05-2,.05-2.92v-1.32c0-2.16,0-2.46,0-2.93.58.05,1.44.06,2.23.06h2.91c.78,0,1.64,0,2.22-.06,0,.39,0,.87,0,2.37v1.58c0,.27,0,1.06,0,1.59a1.21,1.21,0,0,1,0,.21c0,1.06-.48,1.32-2.43,1.35a2.63,2.63,0,0,0-.29-1.14c.44,0,.68,0,1,0,.6,0,.66-.06.66-.61v-1.07Zm5.37-3.4h-5.37v.85h5.37Zm-5.37,2.59h5.37v-.93h-5.37Z"/><path d="M278.36,214.31c.12,0,.17.09.17.15s0,.12-.35.22c-.37.8-.58,1.2-.81,1.62h2.21v.94c-.2,0-.5,0-1.13,0h-2v1.52h1.65c.31,0,.87,0,1.2,0v1c-.32,0-.8,0-1.2,0h-1.65v.73c0,1.13,0,2.09,0,2.63h-1c0-.59,0-1.41,0-2.63v-.73H274c-.4,0-.88,0-1.2,0v-1c.33,0,.89,0,1.2,0h1.44V217.2h-1.89l-1.2,0v-.94h2a11.15,11.15,0,0,0-1-2l.48-.22h-1.56v-.94l1.2,0h1.89v-1.28H274c-.4,0-.88,0-1.2,0V211c.33,0,.89,0,1.2,0h1.44v-.42c0-.58,0-1,0-1.39l1,.1c.18,0,.27.06.27.15s-.09.18-.28.3V211h1.65c.31,0,.87,0,1.2,0v.95c-.32,0-.8,0-1.2,0h-1.65v1.28h2l1.17,0v.94h-1.9Zm-4.06-.24a8.31,8.31,0,0,1,.63,1,8.56,8.56,0,0,1,.42.93l-.65.3h1.74a10.5,10.5,0,0,0,.83-2.23Zm10,6a7.93,7.93,0,0,0,2.1,1.77,4,4,0,0,0-.66.92,8.69,8.69,0,0,1-2-1.77,10.07,10.07,0,0,1-1.78,1.84,4.85,4.85,0,0,0-.66-.79,8.76,8.76,0,0,0,1.84-1.91l-.13-.22a9.57,9.57,0,0,1-1.16-4.11h-.75v5.53c0,.69,0,1.28.05,1.61h-1.05c0-.36,0-.86,0-1.61v-10.2c0-.48,0-1,0-1.32.33,0,.63,0,1.08,0h3.24c.45,0,.75,0,1.08,0,0,.26,0,.77,0,1.22v.9c0,.37,0,.75,0,1.24,0,.93-.39,1.16-2.11,1.16h-.12a3.29,3.29,0,0,0-.21-1.13c.4,0,.75,0,1,0s.45-.08.45-.41v-2.14h-3.39v4.23h3.83l.2-.26.74.65c.09.09.12.13.12.21s-.07.18-.24.22l-.06,0a13.21,13.21,0,0,1-1.33,4.21Zm-1.54-4.27a9.84,9.84,0,0,0,.93,3.33,13.18,13.18,0,0,0,1-3.33Z"/><path d="M292,215a20.61,20.61,0,0,0,1.2-3.05l1.05.41a.23.23,0,0,1,.14.18c0,.1-.12.16-.41.19-.37.9-.66,1.49-1.06,2.27h1l1.79,0v1l-1.79,0h-4.72l-1.8,0v-1l1.8,0Zm-.91-4.95c0-.23,0-.66,0-1l1,.09c.2,0,.27.07.27.16s-.07.18-.3.3V211h1.47c.59,0,1.35,0,1.8,0v1c-.46,0-1.3,0-1.8,0h-4c-.49,0-1.33,0-1.8,0v-1c.45,0,1.23,0,1.8,0H291Zm-1.29,11.28v1h-1c0-.36,0-.86,0-1.61v-2.34c0-.48,0-1.06,0-1.33.33,0,.63,0,1.08,0h3.38c.43,0,.75,0,1.08,0,0,.27,0,.85,0,1.33v2c0,.7,0,1.21,0,1.56h-1v-.6Zm.09-9.39a11,11,0,0,1,1.05,2.62l-1,.36a13,13,0,0,0-.93-2.62Zm3.42,6h-3.51v2.51h3.51Zm7.66-7.42a.31.31,0,0,1,.14.21c0,.12-.06.16-.48.27-.33,1-.62,1.68-1.52,3.7a5.7,5.7,0,0,1,1.76,2.33,5.55,5.55,0,0,1,.34,1.93,1.8,1.8,0,0,1-1.33,2,5.29,5.29,0,0,1-1.49.13,2.67,2.67,0,0,0-.24-1.17c.23,0,.72.06,1,.06.72,0,1-.33,1-1.08a4.54,4.54,0,0,0-.92-2.71,6,6,0,0,0-.84-.92l-.34-.34c.16-.41.31-.77.39-1,.49-1.19.81-2,1.11-2.93h-2.13v7.62c0,1.92,0,3.44.06,4.38h-1.11c0-1,.07-2.5.07-4.38v-7.26c0-.46,0-1,0-1.32.33,0,.64,0,1.08,0h2.37l.21-.29Z"/><path d="M302.56,223a11,11,0,0,0,0-14h.85a10.22,10.22,0,0,1,0,14Z"/><path d="M11.94,7.06c-.46,0-1.14,0-1.6,0H6.77c-.46,0-1.14,0-1.6,0V5.68A26,26,0,0,1,1.7,7.89,5.11,5.11,0,0,0,.82,6.32,15.25,15.25,0,0,0,7.92,0L9.47.54c.21.07.31.16.31.28s-.07.16-.32.25A10.47,10.47,0,0,0,12.1,3.78,18.1,18.1,0,0,0,16.33,6a5.76,5.76,0,0,0-1,1.63A24.54,24.54,0,0,1,11.94,5.7ZM14,14.68c-.37-.47-.72-.93-1.12-1.38-1.55.29-2.54.43-4.56.66l-3.2.32L3,14.5c-.13.19-.24.29-.33.29s-.18-.11-.21-.21L2,12.9h.51c.58,0,1.14-.05,1.71-.06a17,17,0,0,0,1-1.54c.24-.42.45-.83.68-1.25h-1c-.79,0-2.18,0-2.87,0V8.52c.66,0,2.05.06,2.87.06h7.49c.88,0,2.14,0,2.86-.06V10.1c-.75,0-2,0-2.86,0H7.67c-.15.24-.26.45-.36.61-.62,1-.89,1.46-1.34,2.07l1.25-.1c1.92-.14,3.15-.27,4.46-.46-.41-.37-.86-.69-1.31-1.05l1-.92a16,16,0,0,1,3.9,3.47ZM10.34,5.57l1.38,0c-.26-.18-.5-.37-.72-.55A10.73,10.73,0,0,1,8.47,2.22,15.31,15.31,0,0,1,5.92,5.06c-.19.17-.38.33-.58.48.49,0,1,0,1.43,0Z"/><path d="M35.06,5.65h-.68c-.43,0-.94,0-1.28,0V4.16c.36,0,.93,0,1.28,0h.68V3.07c0-1.26,0-1.93-.05-2.4l1.63.11c.18,0,.27.07.27.16s-.08.2-.29.32c0,.37,0,.8,0,1.81V4.19h.56c.33,0,.91,0,1.26,0V5.68l-1.26,0h-.56v3a17.71,17.71,0,0,0,1.74-.56l.13,1.38A37,37,0,0,1,34.1,11c-.15.24-.21.3-.32.3a.27.27,0,0,1-.23-.19L33,9.49c.67-.09,1.38-.24,2.07-.4Zm10.18,4.4a8.67,8.67,0,0,1-1.84,2.79A8.3,8.3,0,0,1,40,15a3.3,3.3,0,0,0-.73-1.1,8.82,8.82,0,0,0,3-1.87,8.21,8.21,0,0,0,1.41-2H42.66a8.51,8.51,0,0,1-2.08,2.4,12.85,12.85,0,0,1-3.76,2,2.78,2.78,0,0,0-.71-1.17,12.42,12.42,0,0,0,3.41-1.66,6.09,6.09,0,0,0,1.57-1.59H40a6.75,6.75,0,0,1-.55.48A14.69,14.69,0,0,1,36,12.71a3.47,3.47,0,0,0-.8-1.14A11.33,11.33,0,0,0,40.05,8h-.69c-.53,0-1.42,0-1.92.05V6.56c.48,0,1.3,0,1.92,0h6.71c.62,0,1.44,0,1.92,0V8.07c-.5,0-1.39-.05-1.92-.05H41.73c-.16.24-.32.48-.5.7h5.61l.16-.2.93.81a.38.38,0,0,1,.11.23c0,.11-.08.2-.26.27l-.14.05c-.45,2.91-.74,3.81-1.39,4.54-.44.48-1.08.63-2.84.64A7.91,7.91,0,0,0,43,13.43c.37,0,.71,0,1.12,0,.69,0,1-.14,1.22-.58a9,9,0,0,0,.72-2.83ZM40.75,5.87v.44H39.23c0-.39.05-.92.05-1.7V2.21A13.83,13.83,0,0,0,39.23.8c.37,0,.69,0,1.17,0H45c.46,0,.8,0,1.15,0,0,.29,0,.91,0,1.41V4.59c0,.76,0,1.3,0,1.67H44.64V5.87Zm3.89-3.76H40.75v.61h3.89Zm0,1.81H40.75v.66h3.89Z"/><path d="M3.12,30.12a21.84,21.84,0,0,1,3.13,3.27L4.3,34.94a20.55,20.55,0,0,0-2.88-3.29Zm5.43,6.8a51.7,51.7,0,0,1-3.73,7.92c-.32.63-.5.93-.77,1.55v.18c0,.2,0,.35-.2.35s-.15,0-.38-.23L1.7,45.22a44.07,44.07,0,0,0,4.92-9.58ZM5.42,24.5a21.54,21.54,0,0,1,3,3.15l-2,1.52a20.3,20.3,0,0,0-2.73-3.25Zm9.93,4.72c0-2.7-.08-4.37-.15-5L18,24.4c.2,0,.35.12.35.25s-.12.27-.45.47c0,1.1,0,2.25,0,4.1h3.5c1.1,0,1.87,0,2.74,0-.05.45-.07,1.4-.07,2.2v6c0,1.17,0,2,.07,2.6H21.5V38.79H17.85v1.15c0,3.25,0,5.73.12,7.3H15.25c.07-1.62.1-4.07.1-7.3V38.79H11.92v1.48H9.32c0-.58.08-1.43.08-2.65V31.4c0-.8,0-1.75-.08-2.2.88,0,1.65,0,2.75,0Zm-3.43,2.3v5h3.43v-5Zm5.93,5H21.5v-5H17.85Z"/><path d="M29.24,38.34c.2,0,.3.13.3.28s0,.15-.15.25l-.23.17a25.14,25.14,0,0,1-1,6.48,9.58,9.58,0,0,0-2-.85,19.26,19.26,0,0,0,.9-6.33V38Zm-2.78-4,1.75,0c.48-.73,1-1.45,1.45-2.15a22.94,22.94,0,0,0-3.25-2.62l1.08-1.75c.27.17.52.35.77.52a26.62,26.62,0,0,0,1.9-4.2l2,.83a.41.41,0,0,1,.23.32c0,.15-.18.28-.53.35a34.42,34.42,0,0,1-2,3.8c.35.28.7.53,1,.83a24.49,24.49,0,0,0,1.73-3.5l2.12,1a.46.46,0,0,1,.28.35c0,.17-.18.27-.55.37a47.57,47.57,0,0,1-3.73,5.72c.68,0,1.38-.07,2-.12-.15-.35-.35-.7-.57-1.12l1.55-.91a16.69,16.69,0,0,1,2.14,4.08L34,37.12c-.18-.48-.33-.85-.48-1.2-.4.07-.82.12-1.25.2V42c0,2.3,0,4,.08,5.13H29.84c.05-1.1.07-2.83.07-5.13V36.47c-.7.1-1.37.2-2,.27-.2.25-.33.35-.45.35s-.28-.15-.33-.35Zm7.7,3.1a21.49,21.49,0,0,1,1.75,4.93l-1.95,1a24.93,24.93,0,0,0-1.5-5.1Zm4.65-4.55v.6h-2.3c.05-.57.05-1.42.05-2.64V27.35c0-.8,0-1.78-.05-2.23.87,0,1.62.05,2.75.05h6.3c1.12,0,1.9,0,2.75-.05,0,.45-.05,1.43-.05,2.23v3.44c0,1.18,0,2,.05,2.6H46v-.45H43.46v1.23H46c1.12,0,1.87,0,2.75,0,0,.45-.08,1.4-.08,2.2v3.88c0,1.17,0,2,.08,2.6h-2.3v-.45h-3v1.75c0,.67.17.75,2.2.75,1.85,0,2.12-.08,2.25-.48a5.32,5.32,0,0,0,.15-1.45,18.17,18.17,0,0,0,2.3.73c0,1.95-.43,2.82-1.43,3.17a15.73,15.73,0,0,1-4,.23c-3.32,0-3.82-.3-3.82-2.38V42.37h-2.7v1h-2.3c0-.6.08-1.43.08-2.68V36.34c0-.8,0-1.75-.08-2.2.87,0,1.65,0,2.75,0h2.25V32.94Zm2.3,3.23h-2.7v1.2h2.7Zm-2.7,3v1.18h2.7V39.19Zm2.7-12h-2.3v1h2.3ZM38.81,30V31h2.3V30ZM46,28.15v-1H43.46v1ZM43.46,31H46V30H43.46Zm3,6.42v-1.2h-3v1.2Zm-3,3h3V39.19h-3Z"/><path d="M66.43,32h-10c-.85,0-2.18,0-3,0V29.37c.75,0,2,.05,3,.05H67.12c.85,0,1.5,0,2.13,0,0,.8-.08,1.45-.08,4v5.42c0,2,0,3.45.08,4.4H66.43V42H56.3c-.82,0-2.25,0-3,0V39.39c.75,0,2,0,3,0H66.43Z"/><path d="M76.23,28.07a15.23,15.23,0,0,1,5.28,4l-2,2.17a17.11,17.11,0,0,0-5-4Zm-1,14.1a36.36,36.36,0,0,0,8.78-5,35.15,35.15,0,0,0,7.84-8,13.86,13.86,0,0,0,1.73,2.37,42.94,42.94,0,0,1-8.07,8,45.66,45.66,0,0,1-7.85,4.78c-.1.35-.2.52-.38.52a.62.62,0,0,1-.42-.3Z"/><path d="M95.08,35.57a39.8,39.8,0,0,0,5-3.45c1.9-1.5,2.15-1.65,3.07-1.65a3.66,3.66,0,0,1,2,.68c.25.12,1.07.69,8.62,5.69,2,1.35,2.48,1.63,3.88,2.5A12.19,12.19,0,0,0,115.83,42c-1.78-1.4-3.73-2.85-9.53-7-2.17-1.58-2.57-1.8-3-1.8s-.6.08-1.43.75c-.6.47-3.77,3.15-4.57,3.85-.05.45-.15.62-.33.62a.37.37,0,0,1-.32-.2Zm14.47-6.95a16.67,16.67,0,0,1,3.18,2.5l-1.25,1.35a14.52,14.52,0,0,0-3-2.57Zm2-2.27a16.49,16.49,0,0,1,3.18,2.5l-1.25,1.37a15.86,15.86,0,0,0-3-2.6Z"/><path d="M121.6,28.07a15.09,15.09,0,0,1,5.27,4l-2,2.17a17.11,17.11,0,0,0-5-4Zm-.95,14.1a36.48,36.48,0,0,0,8.77-5,35,35,0,0,0,7.85-8A14.32,14.32,0,0,0,139,31.54a42.36,42.36,0,0,1-8.07,8,45.66,45.66,0,0,1-7.85,4.78c-.1.35-.2.52-.37.52a.64.64,0,0,1-.43-.3Z"/><path d="M143.55,31.77a17.69,17.69,0,0,1,4.6,3.35l-1.87,2.22a24.59,24.59,0,0,0-4.3-3.42Zm.35,11.12a42,42,0,0,0,8.77-5.45,43.22,43.22,0,0,0,7.5-7.49,13.75,13.75,0,0,0,1.88,2.17c-4.93,5.75-7.75,8.1-15.55,13-.1.35-.22.52-.4.52a.7.7,0,0,1-.45-.32Zm3.63-16.49A18.23,18.23,0,0,1,152,30l-1.85,2.07a24.73,24.73,0,0,0-4.24-3.64Z"/><path d="M176.9,34.49h-7c-.77,0-1.6,0-2.52.08V32.25c.65,0,1.65,0,2.52,0h7.67c.68,0,1.2,0,1.83,0,0,.87-.05,1.89-.05,3.32v5.3c0,1.62,0,2.7.05,3.65H176.9v-.75h-7.12c-.67,0-1.75,0-2.52,0V41.49c.5,0,2.25,0,2.52,0h7.12V39h-6.39c-.78,0-1.68,0-2.53,0v-2.3l2.53,0h6.39Z"/><path d="M187.07,28.07a15.09,15.09,0,0,1,5.27,4l-2,2.17a17.11,17.11,0,0,0-5-4Zm-.95,14.1a36.48,36.48,0,0,0,8.77-5,35,35,0,0,0,7.85-8,14.32,14.32,0,0,0,1.72,2.37,42.36,42.36,0,0,1-8.07,8,45.66,45.66,0,0,1-7.85,4.78c-.1.35-.2.52-.37.52a.64.64,0,0,1-.43-.3Z"/><path d="M225.09,30.4l.32-.38,1.75,1.7a.73.73,0,0,1,.25.48c0,.22-.18.34-.68.49A20.33,20.33,0,0,1,221.09,39a8.25,8.25,0,0,0-2-2,19.29,19.29,0,0,0,3.58-2.95c.32-.32.65-.7,1-1.09L216,34.37v5c0,1.7.43,2,3.1,2a21.94,21.94,0,0,0,6.6-.78l.7,2.65a28.66,28.66,0,0,1-6.52.6,25.88,25.88,0,0,1-4.45-.2c-1.58-.32-2.1-1.3-2.1-3.92V34.87c-2.65.47-3.78.67-5.85,1.17l-.5-2.77c1.85-.18,4.32-.48,6.35-.8V30.1c0-1.9,0-3-.1-3.75l2.85.17c.27,0,.42.1.42.25s-.1.25-.47.5c0,.73,0,1.28,0,2.83V32Z"/><path d="M233,28.07a15.09,15.09,0,0,1,5.27,4l-2,2.17a17.11,17.11,0,0,0-4.95-4Zm-1,14.1a36.09,36.09,0,0,0,8.77-5,35,35,0,0,0,7.85-8,13.86,13.86,0,0,0,1.73,2.37,42.66,42.66,0,0,1-8.08,8,45.93,45.93,0,0,1-7.84,4.78c-.1.35-.2.52-.38.52a.62.62,0,0,1-.42-.3Z"/><path d="M268.38,29.85c.3.3.3.32.3.47s-.12.33-.55.47c-1.4,4-1.65,4.53-2.57,6.13a23.73,23.73,0,0,1,3,2.37l-1.87,2a21.46,21.46,0,0,0-2.6-2.23c-2.43,3.15-5,5.18-9.55,7.63a9.25,9.25,0,0,0-1.65-2.18c4.35-2.12,6.67-3.9,9-6.85a25.81,25.81,0,0,0-3.67-1.6l1.3-2a33.53,33.53,0,0,1,3.77,1.57A22.48,22.48,0,0,0,265.48,31h-5a26,26,0,0,1-6.35,7.65,7.33,7.33,0,0,0-1.75-1.9,23,23,0,0,0,3.05-2.95,19.51,19.51,0,0,0,4.47-8.4l2.5.83c.23.07.33.17.33.32s-.08.25-.53.43c-.22.57-.37,1-.5,1.3s-.1.25-.15.37h4.78l.35-.45Z"/><path d="M292.61,36.89c-1.18,0-3.15-.07-4.48-.07H277.66c-1.23,0-3.4,0-4.48.07V34.22c1,0,3.2.07,4.48.07h10.47c1.38,0,3.35,0,4.48-.07Z"/><rect class="cls-2" y="61.94" width="300" height="1" transform="translate(300 124.89) rotate(180)"/><rect class="cls-2" y="162.94" width="300" height="1" transform="translate(300 326.89) rotate(180)"/><path d="M9.33,303.5h2.85c1.05,0,1.42,0,1.89,0,0,.29,0,.45,0,1.41v.49l2-.05v1.36c-.66,0-1.3,0-2,0v.89c0,.59,0,.8,0,1.59H12.51v-.56H9.38v.29s0,.09,0,.24c0,.83-.14,1.23-.52,1.5s-.9.4-2.55.4a6,6,0,0,0-.3-1.65,10,10,0,0,0,1.13.07c.61,0,.67-.07.67-.68v-.17H4.11c-.53,0-1.42,0-1.92.05v-1.33l1.92,0H7.82v-.69H4.34c-.88,0-2.33,0-3.19.06v-1.36c.83,0,2.27.07,3.19.07H7.82v-.66H4.11c-.53,0-1.42,0-1.92,0v-1.33c.48,0,1.3.05,1.92.05H7.82v-.77H5v.39H3.52c0-.37,0-.92,0-1.62V301c0-.49,0-1.12,0-1.41.35,0,.67,0,1.15,0H7.82c0-.21,0-.58,0-.76H4.56c-.88,0-2.32,0-3.18.07V297.5c.81,0,2.27,0,3.18,0H7.79a13.11,13.11,0,0,0-.06-1.4l1.68.11c.14,0,.24.08.24.17s-.08.16-.29.31c0,.27,0,.54,0,.81h3.23c1,0,2.37,0,3.18,0v1.44c-.84,0-2.21-.07-3.18-.07H9.35c0,.26,0,.5,0,.76h3.14c.48,0,.8,0,1.16,0,0,.29,0,.92,0,1.41v.42c0,.75,0,1.29,0,1.66H12.12v-.35H9.33Zm-1.51-2.69H5v.74h2.8Zm4.3.74v-.74H9.33v.74Zm.39,3.18H9.33v.66h3.18Zm0,1.89H9.35v.69h3.16Z"/><path d="M23.06,298c-.35.4-.71.78-1.09,1.14s-.63.54-.95.81c.15.18.29.35.42.53l-.74.54h2.09l.2-.3.91.86c.12.1.13.15.13.21s-.09.2-.33.24l-.1,0L23,303.4a6.53,6.53,0,0,1-.52,1.06,6.25,6.25,0,0,0-1.14-.9,13,13,0,0,0,.58-1.18h-.79v3.78c0,1,0,2,0,3,0,.78-.13,1.12-.54,1.37s-1,.36-2.5.36a6.49,6.49,0,0,0-.3-1.64,10.94,10.94,0,0,0,1.17.07c.54,0,.64-.08.64-.59V305a17.68,17.68,0,0,1-2,3.46,4.59,4.59,0,0,0-.83-1.35,18.32,18.32,0,0,0,2.63-4.75H17.17V301c.35,0,.92,0,1.28,0H20.1a13.31,13.31,0,0,0-1.65-1.87l.91-.81c.29.23.56.46.83.72.35-.29.69-.6,1-.92H18.86c-.43,0-.93,0-1.26,0v-1.31l1.26,0h3.51l.21-.26.94.88c.11.11.13.15.13.23s-.08.19-.29.22Zm4.56,8.48a6.58,6.58,0,0,1-1.09,2,7.63,7.63,0,0,1-4,2.53,6.88,6.88,0,0,0-.63-1.34c2-.71,2.71-1.17,3.51-2.26a6.45,6.45,0,0,0,.57-.93h-1.2l-1.58,0v-1.45l1.58,0h1.68a10.86,10.86,0,0,0,.24-1.76l1.43.26c.17,0,.25.09.25.19s-.08.17-.3.25c-.05.39-.09.72-.16,1.06h2.47l.22-.29.91.95c.13.12.15.14.15.2s-.08.16-.28.24l-.16.07c-.2,2-.56,3.31-1.05,3.9s-1,.72-3.08.72H27a7.45,7.45,0,0,0-.2-1.6c.56,0,.78.07,1,.07.92,0,1.19-.11,1.44-.63a7.65,7.65,0,0,0,.52-2.24Zm2.61-7.23a9.75,9.75,0,0,1-1.51,2.32,12.24,12.24,0,0,0,3.41,1.36,5.77,5.77,0,0,0-.64,1.36,10.24,10.24,0,0,1-3.78-1.78,10.28,10.28,0,0,1-3.77,1.91,3.93,3.93,0,0,0-.68-1.28,11,11,0,0,0,3.36-1.57A6.86,6.86,0,0,1,25.55,300a12.28,12.28,0,0,1-1,1.39,7.63,7.63,0,0,0-1-1,11.64,11.64,0,0,0,2.33-4.24l1.24.5c.22.1.25.11.25.21s-.05.14-.32.24c-.14.32-.27.6-.4.86h5.12v1.4H30.23Zm-3.67,0a6.15,6.15,0,0,0,1.07,1.47,5.92,5.92,0,0,0,1-1.47Z"/><path d="M46.52,302.28l.19-.24,1,.82a.24.24,0,0,1,.11.19c0,.11-.06.18-.32.29-.12,4.59-.44,6.24-1.24,6.93-.55.45-1,.56-2.63.61a5.41,5.41,0,0,0-.42-1.75c.52,0,1,0,1.27,0,.54,0,.77-.13.94-.55.27-.67.4-1.89.53-5h-9.6a12.77,12.77,0,0,1-.4,2.66,12.44,12.44,0,0,1-1.32,3.07,6,6,0,0,1-.91,1.17,5.4,5.4,0,0,0-.88-1.38c1.54-2.05,2-4,2-7.78v-3.25c0-.49,0-1.12,0-1.42.56,0,1,0,1.76,0h7.86c.71,0,1.2,0,1.76,0,0,.3,0,.89,0,1.42v1.72c0,.56,0,1.24,0,1.55H44.69v-.48H36.43v1.34Zm-1.83-4.11H36.43v1.36h8.26Zm-5.75,11H37.5c0-.37,0-.91,0-1.69v-1.57a13.36,13.36,0,0,0,0-1.41h6.13c0,.27,0,.89,0,1.41v1.29c0,.75,0,1.3,0,1.67H42.21v-.37H38.94Zm3.27-3.31H38.94v1.3h3.27Z"/><path d="M53.63,308.69c1.19-.24,2.4-.52,3.68-.84l.21,1.35c-2.26.59-3.6.89-6.85,1.5l-.11.18c-.07.11-.13.16-.21.16s-.18-.07-.22-.21l-.53-1.52c.81-.1,1.65-.21,2.5-.35v-4.1h-.47c-.69,0-1.58,0-2.24.05v-1.55c.61,0,1.52,0,2.24,0h.47v-4c0-1.66,0-2.05-.05-2.56.35,0,.88,0,1.36,0h6.67c.66,0,1.44,0,1.92,0v1.49c-.53,0-1.37,0-1.92,0H53.63v.76h5c.66,0,1.65,0,2.24-.05v1.47c-.59,0-1.58-.05-2.24-.05h-5v.75h5c.66,0,1.65,0,2.24,0v1.47c-.59,0-1.58,0-2.24,0h-5v.81h7.72c.64,0,1.68,0,2.24,0v1.55c-.59,0-1.63-.05-2.24-.05H56.61a8.27,8.27,0,0,0,1.58,1.76,17.4,17.4,0,0,0,2.56-1.6l1.3.83a.23.23,0,0,1,.13.18c0,.09-.11.14-.29.14h-.14c-.84.5-1.55.9-2.37,1.32A16.75,16.75,0,0,0,64,309.42a11.44,11.44,0,0,0-.92,1.36,15.52,15.52,0,0,1-5.39-2.8,9,9,0,0,1-2.55-3.12H53.63Z"/><path d="M11.35,335.73V324c0-2.71,0-4.22-.12-5l2.64.17c.24,0,.41.12.41.24s-.14.29-.46.48c0,.46,0,1.08,0,4.1v11.76h5.93v-8c0-2.74,0-4.25-.1-5l2.57.17c.24,0,.38.1.38.24s-.12.27-.43.46c0,.45,0,.89,0,4.13V335c0,2.2,0,3.79.07,4.89H19.73v-1.92H5.45v2.4H3c0-1.08.07-2.71.07-4.92v-7.65c0-2.74,0-4.25-.1-5l2.57.17c.24,0,.41.1.41.24s-.15.27-.46.46c0,.45,0,.89,0,4.13v8Z"/><path d="M36.62,327.69a23.38,23.38,0,0,1-3.79,4.83,33.72,33.72,0,0,1-5.42,4.63,5.49,5.49,0,0,0-1.32-2,32.57,32.57,0,0,0,5.33-4.37,28.18,28.18,0,0,0,4.34-5.62h-4c-1.32,0-3.48.05-4.78.1v-2.4c1.25.07,3.41.1,4.78.1h4.82c0-.8,0-1.61,0-2.4a18.09,18.09,0,0,0-.12-2.33l2.57.17c.21,0,.36.12.36.26s-.12.24-.46.45c0,1.28,0,2.57,0,3.85h4.85c1.51,0,3.55,0,4.77-.1v2.4c-1.27,0-3.31-.1-4.77-.1h-4.2a28.15,28.15,0,0,0,9.79,9.53,7.76,7.76,0,0,0-1.49,2.07,26.55,26.55,0,0,1-6.5-5.76,27.65,27.65,0,0,1-2.45-3.41v5.85h2.42l1.9,0v2.26c-.5,0-1.25,0-1.9,0H38.93c0,1.56,0,3.15.12,4.71H36.53c.07-1.56.09-3.15.09-4.71h-2.4c-.64,0-1.39,0-1.89,0v-2.26l1.89,0h2.4Z"/><path d="M63,328.94a21.92,21.92,0,0,1-1.32,2.59,7.46,7.46,0,0,0-1.44-2.3A35.77,35.77,0,0,0,64.56,318l2.3.88c.22.08.34.2.34.34s-.07.24-.58.41a40.49,40.49,0,0,1-1.89,5.4l.67.05c.24,0,.41.12.41.24s-.15.29-.46.48c0,1.2,0,2.35,0,4.1v5.71c0,2.16,0,3.87.08,4.93H62.93c0-1.08.07-2.72.07-4.93Zm15.29,1.83.26-.34L80,331.7c.19.17.27.27.27.41s-.12.31-.51.43l-.14,0a15.82,15.82,0,0,1-2.71,3.65,23.13,23.13,0,0,0,6.31,2,6.64,6.64,0,0,0-1.06,2.11A20.29,20.29,0,0,1,75,337.68c-.17.12-.38.21-.58.33a27.28,27.28,0,0,1-7.58,2.53,6.31,6.31,0,0,0-.82-2,25.15,25.15,0,0,0,7.2-2.21,12,12,0,0,1-2-2.4,17.17,17.17,0,0,1-3.55,3,9.5,9.5,0,0,0-1.35-1.75,15.24,15.24,0,0,0,6-6.93l2,.79c.29.12.34.17.34.29s-.1.24-.55.33c-.22.39-.44.75-.65,1.11ZM67.15,323c1,0,2.11-.08,3.17-.15A19.94,19.94,0,0,0,72.91,318l2.33.75c.19.07.26.14.26.26s0,.19-.5.36c-1.08,1.78-1.49,2.45-2.09,3.31,1.75-.12,3.51-.26,5.26-.45-.36-.31-.77-.67-1.25-1.11l1.34-1.29a18,18,0,0,1,4.2,4l-1.65,1.47c-.39-.53-.7-1-1-1.35-.82.12-1.64.24-2.48.34v2.33c0,.81,0,.81,1.49.81,1.78,0,2.07-.05,2.23-.29a2.56,2.56,0,0,0,.22-1.39,1.9,1.9,0,0,0,0-.31,11.73,11.73,0,0,0,2.11.74c-.1,3.27-.29,3.41-4.08,3.41-2.79,0-3.39-.09-3.77-.55s-.36-.67-.36-2.06V324.5l-1.8.19c-.31,0-.6.08-.86.1l1,.43c.22.1.32.22.32.34s-.08.19-.51.29a13.45,13.45,0,0,1-5.88,5.4,7.62,7.62,0,0,0-1.27-2c2.66-1.32,4-2.4,5.09-4.35-1.18.12-1.54.17-2.67.32l-.14.21a.42.42,0,0,1-.31.22c-.15,0-.22-.1-.31-.41Zm5.57,9.81a9.66,9.66,0,0,0,2.35,2.38,11.83,11.83,0,0,0,2.14-2.38Z"/><path d="M95.52,329.52c-.07,4.63-.38,6.5-1.18,7.29-.6.63-1.12.75-3.64.75a8.59,8.59,0,0,0-.56-2.4c.56,0,1.25,0,1.59,0,.81,0,1-.15,1.2-.82a19.43,19.43,0,0,0,.38-4.49H89.88a31.09,31.09,0,0,1-.55,4.37A15.5,15.5,0,0,1,87,340a8,8,0,0,0-1.56-1.85c1.63-2.64,2.28-5.64,2.28-10.54v-3.4c0-.75,0-1.68-.07-2.12.81,0,1.6,0,2.64,0h7.27v-.82a22.51,22.51,0,0,0-.14-3l2.56.28c.27,0,.39.12.39.27s-.12.28-.48.48c0,.67,0,1.22,0,2.76h3.39a18.22,18.22,0,0,0-2.14-2.26l1.35-1.37a17.82,17.82,0,0,1,2.64,2.5l-1.16,1.13c1.35,0,2.86-.05,3.87-.1v2.4c-1.25-.05-3.41-.09-4.8-.09H99.89a34,34,0,0,0,.77,6c.14.55.31,1.13.5,1.66a19.49,19.49,0,0,0,2.74-6.48l2.13.81c.22.08.31.17.31.29s-.14.29-.45.39a27.81,27.81,0,0,1-3.6,7.46c1,1.82,2.18,3.14,3,3.14.53,0,1-.93,1.4-3a17.15,17.15,0,0,0,2,.93,10.84,10.84,0,0,1-1.08,3.24,2.12,2.12,0,0,1-2,1.37c-1.68,0-3.43-1.34-4.94-3.79a22.22,22.22,0,0,1-6.89,4.06,8.72,8.72,0,0,0-1.18-2c3.44-1.42,5.36-2.55,6.92-4.23a19.6,19.6,0,0,1-1.3-4.08,38.47,38.47,0,0,1-.55-5.78H90v3.57h4.11l.38-.43,1.39,1.39c.19.19.19.22.19.31s-.14.32-.38.36Z"/><path d="M121.07,323.65a11,11,0,0,0,0,14h-.85a10.22,10.22,0,0,1,0-14Z"/><path d="M125.06,333.45c.77-.2,1.49-.44,2.34-.75l.11.82a36,36,0,0,1-4.34,1.46c-.12.19-.21.28-.3.28a.28.28,0,0,1-.21-.18l-.45-1c.72-.14,1.32-.26,1.88-.39v-3.75h-.72c-.3,0-.68,0-.9,0v-1c.22,0,.6,0,.9,0h.72v-3.47h-.86c-.28,0-.67,0-.9,0v-.93H127v.93c-.23,0-.62,0-.9,0h-1V329H126c.28,0,.66,0,.88,0v1c-.22,0-.6,0-.88,0h-.89Zm4.5-2.67c.2,0,.3.09.3.18s-.07.16-.3.25c0,2.27-.06,2.75-.34,3.51a3.91,3.91,0,0,1-2.09,2.16,7.93,7.93,0,0,1-1.93.75,3.94,3.94,0,0,0-.53-.9,10.56,10.56,0,0,0,2.07-.73,3.23,3.23,0,0,0,1.56-1.74,7.33,7.33,0,0,0,.27-2.19,7,7,0,0,0-.12-1.4Zm1.74-4a16.31,16.31,0,0,1-1.24,2.29c1.35-.07,2.68-.19,4-.34a13.63,13.63,0,0,0-1.16-1.25l.62-.58a11.41,11.41,0,0,1,2.61,3l-.9.63c-.21-.37-.44-.73-.66-1.11-1.25.2-1.83.27-3.38.44l-3.07.33c-.15.18-.21.24-.29.24s-.16-.08-.22-.24l-.33-1,1.66-.08a16.61,16.61,0,0,0,1.26-2.35h-1.69c-.44,0-1.07,0-1.5,0v-1c.43,0,1.06,0,1.5,0h2.32v-1.12c0-.2,0-.65,0-1l1,.1c.19,0,.28.06.28.15s-.09.18-.3.3v1.53h2.82c.43,0,1.07,0,1.49,0v1c-.42,0-1.06,0-1.49,0Zm.45,3.93q.27,0,.27.15c0,.09-.09.18-.28.3,0,.31,0,.75,0,1.41v2.58c0,1,0,1.77,0,2.19h-1c0-.53,0-1.23,0-2.19v-2.58c0-.9,0-1.56-.05-2Zm2.21,5.47c0,.24.09.3.51.3.7,0,.73-.07.76-1.72a4.18,4.18,0,0,0,1,.37c-.1,1.56-.19,1.86-.64,2.12a3.49,3.49,0,0,1-1.28.18c-1,0-1.33-.24-1.33-1v-4.95c0-.36,0-.75,0-1l1,.1c.19,0,.27.06.27.15s-.08.18-.29.3c0,.15,0,.17,0,.41Z"/><path d="M139.43,329.8h-.91l-.9,0v-.94h1.81V326h-2.07V325c.23,0,.6,0,.9,0h3.29c.28,0,.67,0,.9,0V326a8.94,8.94,0,0,0-.9,0h-1.17v2.95h2v.94l-.9,0h-1.09V333a24.19,24.19,0,0,0,2.34-1l.21.87c-1.11.57-3,1.39-4.65,2-.12.26-.17.33-.26.33a.32.32,0,0,1-.24-.15l-.6-1c.71-.18,1.47-.42,2.25-.69Zm7.71,2.42c0,.76,0,2,.05,3.24,0,.25,0,.57,0,.7,0,.63-.13.92-.49,1.11a3.66,3.66,0,0,1-1.94.3,2.33,2.33,0,0,0-.3-1.14c.47,0,.72.05,1.08.05.57,0,.62-.06.62-.62v-2.8c-1,.66-2.1,1.29-3.56,2.1l0,.16c0,.15-.12.21-.23.21a.27.27,0,0,1-.21-.12l-.67-1a29.51,29.51,0,0,0,4.71-2.44v-4.5h-1.68c-.63,0-1.47,0-2.09,0v-1c.57,0,1.43.05,2.09.05h1.68c0-1.47,0-2.4-.09-2.75l1.14.11c.15,0,.22.07.22.15s-.07.16-.27.28c0,.42,0,.51,0,2.21h2c.6,0,1.58,0,2.09-.05v1c-.54,0-1.52,0-2.09,0h-2v.7a17.1,17.1,0,0,0,.66,2.28,14.48,14.48,0,0,0,2.27-1.78l.79.63c.12.09.15.16.15.24s-.07.15-.22.15l-.23,0a18.9,18.9,0,0,1-2.44,1.5,9.29,9.29,0,0,0,.45.89,11.48,11.48,0,0,0,2.86,3.43,2.47,2.47,0,0,0-.84.83,13,13,0,0,1-2.67-3.54,11.82,11.82,0,0,1-.78-1.8Zm-3.45-3.65a11.84,11.84,0,0,1,2,2.3l-.83.63a12,12,0,0,0-1.78-2.31Zm4.77-4.41a8.18,8.18,0,0,1,1.61,1.61l-.75.66a9.66,9.66,0,0,0-1.44-1.64Z"/><path d="M159.77,328.77a12.2,12.2,0,0,0,2.12,4.32,10.82,10.82,0,0,0,4.35,3.37,7.74,7.74,0,0,0-.9.93,12.32,12.32,0,0,1-4.29-3.7,10.6,10.6,0,0,1-1.77-3.77,10,10,0,0,1-.68,2.4,9.15,9.15,0,0,1-3,3.77,12.72,12.72,0,0,1-2.9,1.51,4.07,4.07,0,0,0-.58-.88,10,10,0,0,0,4-2.54,9,9,0,0,0,2.24-5.17,1.57,1.57,0,0,1,0-.24h-2.72c-.82,0-2.17,0-3,.06v-1.05c.76,0,2.11.06,3,.06h2.81c0-.71.06-1.71.07-4l1.08.17c.24,0,.35.1.35.22s-.09.18-.35.27c0,1.32-.06,2.4-.12,3.32H163c.94,0,2.23,0,3-.06v1.05c-.81,0-2.09-.06-3-.06Z"/><path d="M177.28,328.56l.82.75c.12.12.17.18.17.24s-.06.21-.56.3a18.13,18.13,0,0,1-2.89,1.84c0,.24,0,.48,0,.72h3.44c.94,0,2.22,0,3-.06v1c-.79,0-2.07-.05-3-.05h-3.45v1.08c0,.27,0,1.07,0,1.59a1.37,1.37,0,0,1,0,.21c0,1.08-.5,1.34-2.58,1.35a2.56,2.56,0,0,0-.29-1.17c.57.05.87.06,1.26.06s.56-.09.56-.63v-2.49h-3.45c-.83,0-2.18,0-3,.05v-1c.78,0,2.13.06,3,.06h3.45a10.21,10.21,0,0,0-.12-1.66l.94.07a13.4,13.4,0,0,0,1.7-1.11h-4c-.63,0-1.52,0-2.09.05v-1c.57,0,1.46.05,2.09.05h4.8Zm-1.35-1.82a14.11,14.11,0,0,0,1.8-3.09l1,.5c.12.06.17.1.17.16s-.08.17-.3.21a25.5,25.5,0,0,1-1.52,2.22h1c.74,0,1.89,0,2.55-.06,0,.54,0,.81,0,1.14v.38c0,.37,0,.82,0,1.32h-1.11c0-.44,0-1,0-1.32v-.54H168.94v.54c0,.34,0,.88,0,1.32h-1.11c0-.5,0-.95,0-1.32v-.38c0-.33,0-.6,0-1.14.67,0,1.69.06,2.67.06Zm-6-2.89a8.49,8.49,0,0,1,1.73,2.26l-.95.6a12.14,12.14,0,0,0-1.53-2.31Zm3.68-.18a9.33,9.33,0,0,1,1.24,2.44l-1,.42a10.72,10.72,0,0,0-1.11-2.47Z"/><path d="M189.88,324.58c0-.4,0-.73,0-1l1,.11q.27,0,.27.15c0,.09-.09.18-.3.3v1.15h2.28c.93,0,2.22,0,3-.06v1c-.76,0-2.11-.06-3-.06h-7.34v3.45a14.19,14.19,0,0,1-.45,4.25,8.41,8.41,0,0,1-2,3.52,2.9,2.9,0,0,0-.75-.73,7.89,7.89,0,0,0,2.22-5.42,3.85,3.85,0,0,1-.52.38l-1.1.67c-.1.23-.16.3-.24.3s-.16-.07-.21-.18l-.45-.91a17.19,17.19,0,0,0,2.57-1.32c0-.21,0-.44,0-.66v-2.94c0-.45,0-1,0-1.32h5.07Zm-6.69,2a7.4,7.4,0,0,1,1.24,2.21l-.91.46a8.76,8.76,0,0,0-1.1-2.17Zm8.26,4.41a3.75,3.75,0,0,1,0,.48,12.28,12.28,0,0,1,2.73,2.7l-.72.77a11.89,11.89,0,0,0-2.19-2.58,4.27,4.27,0,0,1-.55,1.14,5.58,5.58,0,0,1-2.21,1.84,3.57,3.57,0,0,0-.49-.81,4.55,4.55,0,0,0,2-1.83,4,4,0,0,0,.45-1.71H187.9v3c0,2.3,0,2.9,0,3.53h-1.05c0-.59.05-2,.05-2.91v-2.07c0-1.7,0-2-.05-2.48.59,0,1.46.08,2.25.08h1.35v-1.61h-2.31c-.49,0-1.33,0-1.78.05v-1c.45,0,1.21,0,1.78,0h6c.59,0,1.35,0,1.8,0v1c-.46,0-1.3-.05-1.8-.05h-2.71v1.61h1.62c.78,0,1.63,0,2.22-.08,0,.36-.05.75-.05,2.22v2.12c0,.3,0,1,.05,1.59,0,0,0,.06,0,.19,0,1.07-.48,1.32-2.44,1.35a2.37,2.37,0,0,0-.27-1.14,7.6,7.6,0,0,0,1,.05c.6,0,.66-.06.66-.62V331Z"/><path d="M199,325.33v7.8c0,1.92,0,3.45.06,4.4h-1.11c0-1,.08-2.51.08-4.4v-7.39c0-.47,0-1.05,0-1.32h3l.19-.19.83.64a.3.3,0,0,1,.1.2c0,.09-.06.15-.31.28a35.77,35.77,0,0,1-1.49,3.6,3.95,3.95,0,0,1,1.77,3.38,1.78,1.78,0,0,1-1.24,1.93,4.07,4.07,0,0,1-1.41.14,3.19,3.19,0,0,0-.23-1.14l.71,0c.9,0,1.14-.23,1.14-1.05a3.3,3.3,0,0,0-.78-2.13,7.88,7.88,0,0,0-1-1,38.08,38.08,0,0,0,1.48-3.81Zm6.87,6.95a5.6,5.6,0,0,1-1.42,3.37,7.77,7.77,0,0,1-3.62,2,3.77,3.77,0,0,0-.52-.82,7.08,7.08,0,0,0,3.43-1.82,4.4,4.4,0,0,0,1.14-2.73h-.55c-.5,0-1.34,0-1.8,0v-1c.45,0,1.21.05,1.8.05h4.62c.58,0,1.35,0,1.8-.05v1c-.45,0-1.31,0-1.8,0h-.8v3.54c0,.37.17.45,1,.45.95,0,1.23-.11,1.35-.5a3.46,3.46,0,0,0,.12-1,4.81,4.81,0,0,0,.95.38c-.15,1.21-.23,1.45-.53,1.72s-.87.35-2,.35c-1.34,0-1.82-.26-1.82-1v-3.88Zm.11-7.62c0-.42,0-.75,0-1l1,.09c.21,0,.28.07.28.16s-.07.18-.3.3v1.31H208c1,0,2.19,0,3-.08,0,.54,0,.83,0,1.16v.43c0,.39,0,.83,0,1.32h-1c0-.43,0-1,0-1.32v-.69h-6.83v.69c0,.35,0,.89,0,1.32h-1c0-.49,0-.93,0-1.32v-.43c0-.33,0-.6,0-1.16.77,0,1.95.08,3,.08H206Zm3.78,4.92c-.44,0-1.07,0-1.5,0H205c-.43,0-1.06,0-1.5,0v-1l1.5,0h3.26l1.5,0Z"/><path d="M238.12,336c.9,0,2.22,0,3-.06v1.05c-.78,0-2.1-.06-3-.06h-9v.7h-1c0-.7,0-1.12,0-3.53V328c0-2.44,0-2.88,0-3.39.84.05,1.94.06,3,.06h6.39c.9,0,2.17,0,3-.06v1.07c-.76,0-2.08-.06-3-.06h-8.33V336Zm-5.79-7.59a10.07,10.07,0,0,1-1.49,2,4.57,4.57,0,0,0-.72-.61,10,10,0,0,0,2.22-3.89l1,.32c.11,0,.15.09.15.18s0,.13-.33.21c-.12.33-.25.63-.37.91h4.74c.6,0,1.53,0,2.08,0v1c-.55,0-1.48-.05-2.08-.05h-2v.41a9,9,0,0,1-.17,1.75h3.11c.6,0,1.57,0,2.08,0v1c-.54,0-1.51,0-2.08,0H236a8.3,8.3,0,0,0,4.12,3.19,2.73,2.73,0,0,0-.67.92,9.75,9.75,0,0,1-2.83-2,6.72,6.72,0,0,1-1.53-2.14,6.06,6.06,0,0,1-1.43,2.37,8.61,8.61,0,0,1-3.28,1.9,3.89,3.89,0,0,0-.56-.91,6.57,6.57,0,0,0,3.3-1.88,4.5,4.5,0,0,0,.89-1.48h-2.27c-.63,0-1.47,0-2.1,0v-1c.59,0,1.44,0,2.1,0h2.54a8,8,0,0,0,.18-1.75v-.41Z"/><path d="M253.63,332.65c0,.71,0,1.22,0,1.56h-.94v-.3H251v.59c0,.22.05,1.39.05,1.78,0,1.07-.48,1.32-2.43,1.35a2.38,2.38,0,0,0-.29-1.14,7.89,7.89,0,0,0,1,.05c.58,0,.66-.06.66-.62v-2h-1.64v.29h-.94c0-.36,0-.86,0-1.61v-1.42a12.93,12.93,0,0,1-1.68,1.39,3.33,3.33,0,0,0-.63-.73,14.17,14.17,0,0,0,2-1.62,10.6,10.6,0,0,0-1.49-1.43l.56-.54a9,9,0,0,1,1.57,1.26l.32-.37a9.82,9.82,0,0,0,.76-1.1h-1.35l-1.8,0v-.93c.45,0,1.22,0,1.8,0h1.83a13.15,13.15,0,0,0,.59-1.44h-4.73v4a11.21,11.21,0,0,1-.51,4,8.28,8.28,0,0,1-2.07,3.57,2.79,2.79,0,0,0-.67-.77,8.13,8.13,0,0,0,2.22-5.2L243,332c-.11.23-.17.29-.24.29a.23.23,0,0,1-.21-.17l-.45-.91a19.41,19.41,0,0,0,2.14-1.07,5.62,5.62,0,0,0,0-.58v-3.45c0-.47,0-1.05-.05-1.32h5.43v-.24c0-.4,0-.73,0-1l1,.11c.19,0,.28.06.28.15s-.09.18-.3.3v.64h2.45c.93,0,2.22,0,3-.06v1c-.78,0-2.13-.06-3-.06h-3l.88.33c.18.06.27.15.27.24s0,.15-.4.21c-.12.24-.23.47-.33.66h3.45c.58,0,1.35,0,1.8,0v.93l-1.8,0h-1.68a9.5,9.5,0,0,0,1,1.25,10.17,10.17,0,0,0,1.29-1.16l.86.63a.24.24,0,0,1,.1.17c0,.09-.09.15-.25.15h-.18c-.32.18-.39.22-.89.55l-.3.21a10.2,10.2,0,0,0,2.54,1.35,3.25,3.25,0,0,0-.62.89,13.72,13.72,0,0,1-2.17-1.29Zm-10.77-6.28a7.11,7.11,0,0,1,1.26,2.19l-.93.48a8.68,8.68,0,0,0-1.08-2.18Zm6.06,8.29c.21.11.24.14.24.21s-.11.17-.35.2a13,13,0,0,1-4.27,2.37,6.74,6.74,0,0,0-.51-.86,10.89,10.89,0,0,0,4.23-2.26Zm3.81-3.15v-.79h-4.37v.79Zm-4.37,1.58h4.37v-.8h-4.37Zm4.28-3.2a8.68,8.68,0,0,1-1.37-1.86H250a13,13,0,0,1-1.22,1.73.79.79,0,0,1-.12.13Zm-.32,4.44a20.09,20.09,0,0,0,3.5,2.15,3.56,3.56,0,0,0-.72.81,19.62,19.62,0,0,1-3.42-2.39Z"/><path d="M258.67,326.83a.17.17,0,0,1,.15.18.14.14,0,0,1-.08.12l-.12.08a10.79,10.79,0,0,1-.78,3.79,3.44,3.44,0,0,0-.79-.58,8.76,8.76,0,0,0,.7-3.77Zm1.53-2.89c.13,0,.21.07.21.15s-.08.16-.27.28c0,.53,0,.84,0,3.87v5c0,1.93,0,3.4.06,4.38h-1.09c0-1,.07-2.45.07-4.38v-5c0-2.46,0-3.94-.09-4.41Zm.69,2.38a11.28,11.28,0,0,1,1.41,1.79l-.81.55a16.47,16.47,0,0,0-1.22-1.8Zm8.95-1.05H271v.9c-.32,0-.8,0-1.19,0h-3.3V327H270v.9c-.32,0-.8,0-1.2,0h-2.21v1h3.24c.44,0,1.07,0,1.49,0v.92c-.42,0-1,0-1.49,0h-7.09c-.44,0-1.07,0-1.49,0v-.92c.42,0,1.05,0,1.49,0h2.88v-1h-1.82c-.4,0-.87,0-1.2,0V327h3v-.88H262.9c-.41,0-.89,0-1.2,0v-.9h3.87c0-.76,0-1.21-.05-1.54l1.07.09c.18,0,.25.07.25.15s-.07.18-.28.3c0,.21,0,.84,0,1Zm-6.4,9.53c0,2.22,0,2.28,0,2.85h-1.05c0-.59.05-2,.05-2.93V333.4c0-2.16,0-2.46,0-2.92.58,0,1.44.06,2.23.06h2.91c.78,0,1.64,0,2.22-.06,0,.39,0,.87,0,2.37v1.57c0,.27,0,1.07,0,1.59a1.37,1.37,0,0,1,0,.21c0,1.07-.48,1.32-2.43,1.35a2.63,2.63,0,0,0-.29-1.14c.44,0,.68.05,1,.05.6,0,.66-.06.66-.62V334.8Zm5.37-3.41h-5.37v.86h5.37Zm-5.37,2.6h5.37v-.93h-5.37Z"/><path d="M278.36,329c.12.05.17.09.17.15s0,.12-.35.23c-.37.79-.58,1.2-.81,1.62h1.08a10.88,10.88,0,0,0,1.13,0v.95c-.2,0-.5,0-1.13,0h-2v1.51h2.85v.94l-1.2,0h-1.65V335c0,1.12,0,2.08,0,2.62h-1c0-.58,0-1.41,0-2.62v-.74H274l-1.2,0v-.94h2.64v-1.51h-1.89c-.4,0-.88,0-1.2,0v-.95c.33,0,.87,0,1.2,0h.84a10.83,10.83,0,0,0-1-2l.48-.23h-.36c-.4,0-.88,0-1.2,0v-.95c.33,0,.87,0,1.2,0h1.89v-1.27h-2.64v-.94l1.2,0h1.44v-.42c0-.59,0-1.05,0-1.4l1,.11q.27,0,.27.15c0,.09-.09.18-.28.3v1.26h1.65l1.2,0v.94h-2.85v1.27h2c.36,0,.92,0,1.17,0v.95c-.25,0-.73,0-1.17,0h-.73Zm-4.06-.24a7.69,7.69,0,0,1,.63,1,7.78,7.78,0,0,1,.42.93l-.65.3h1.74a10.59,10.59,0,0,0,.83-2.24Zm10,6a8.13,8.13,0,0,0,2.1,1.77,3.9,3.9,0,0,0-.66.91,8.47,8.47,0,0,1-2-1.77A10.42,10.42,0,0,1,282,337.5a4.92,4.92,0,0,0-.66-.8,8.74,8.74,0,0,0,1.84-1.9l-.13-.23a9.53,9.53,0,0,1-1.16-4.11h-.75V336c0,.69,0,1.27.05,1.6h-1.05c0-.36,0-.85,0-1.6V325.8c0-.48,0-1.05,0-1.32h5.4c0,.25,0,.76,0,1.21v.9c0,.38,0,.75,0,1.25,0,.93-.39,1.15-2.11,1.15h-.12a3.24,3.24,0,0,0-.21-1.12l1,0c.36,0,.45-.07.45-.4v-2.15h-3.39v4.23h3.83l.2-.25.74.64c.09.09.12.14.12.21s-.07.18-.24.23h-.06a13.36,13.36,0,0,1-1.33,4.22Zm-1.54-4.28a9.84,9.84,0,0,0,.93,3.33,13.06,13.06,0,0,0,1-3.33Z"/><path d="M292,329.65a20.92,20.92,0,0,0,1.2-3l1.05.4a.23.23,0,0,1,.14.18c0,.11-.12.17-.41.2-.37.9-.66,1.48-1.06,2.26h1c.57,0,1.34,0,1.79,0v1c-.45,0-1.29,0-1.79,0h-4.72c-.5,0-1.35,0-1.8,0v-1c.45,0,1.21,0,1.8,0ZM291,324.7c0-.22,0-.66,0-1l1,.09c.2,0,.27.08.27.17s-.07.18-.3.3v1.33h1.47c.59,0,1.35,0,1.8,0v1c-.46,0-1.3-.05-1.8-.05h-4c-.49,0-1.33,0-1.8.05v-1c.45,0,1.23,0,1.8,0H291ZM289.75,336v1h-1c0-.36,0-.85,0-1.6V333c0-.48,0-1.07,0-1.34.33,0,.63,0,1.08,0h3.38c.43,0,.75,0,1.08,0,0,.27,0,.86,0,1.34v2c0,.71,0,1.22,0,1.56h-1V336Zm.09-9.39a10.93,10.93,0,0,1,1.05,2.63l-1,.36A12.88,12.88,0,0,0,289,327Zm3.42,6h-3.51v2.5h3.51Zm7.66-7.43c.09.08.14.15.14.21s-.06.17-.48.27c-.33,1-.62,1.68-1.52,3.71a5.19,5.19,0,0,1,2.1,4.26,1.79,1.79,0,0,1-1.33,2,5.17,5.17,0,0,1-1.49.14,2.64,2.64,0,0,0-.24-1.17c.23,0,.72.06,1,.06.72,0,1-.33,1-1.08a4.57,4.57,0,0,0-.92-2.72,6.07,6.07,0,0,0-.84-.91l-.34-.35.39-1c.49-1.18.81-2,1.11-2.92h-2.13v7.62c0,1.92,0,3.43.06,4.38h-1.11c0-1,.07-2.51.07-4.38V326c0-.47,0-1.05,0-1.32h3.45l.21-.28Z"/><path d="M302.56,337.66a11,11,0,0,0,0-14h.85a10.22,10.22,0,0,1,0,14Z"/><path d="M9.84,249.76A6.68,6.68,0,0,0,11.51,251a15.32,15.32,0,0,0,4.72,1.37,5.81,5.81,0,0,0-.58.82c-.25.51-.32.59-.37.69a13.25,13.25,0,0,1-5-1.88,6.8,6.8,0,0,1-1.92-1.85,5.52,5.52,0,0,1-.51.78,10.14,10.14,0,0,1-6.13,3.16A4.66,4.66,0,0,0,1,252.66,11.7,11.7,0,0,0,6,250.77a4.29,4.29,0,0,0,.88-1H4.29c-.8,0-2.2,0-2.88.06v-1.6c.65,0,2.05.05,2.88.05H7.46a8.55,8.55,0,0,0,.17-.88H5.31l-1.92,0v-1.5l1.92,0H7.79c0-.26,0-.51,0-.77H5.21l-2.24,0v-1.5c.63,0,1.54,0,2.24,0H7.82c0-.72,0-1.22-.06-1.65l1.6.17c.21,0,.34.12.34.23s-.1.17-.34.27v1h2.58c.65,0,1.68,0,2.24,0v1.5l-2.24,0H9.36v.16c0,.21,0,.42,0,.61h2.51l1.92,0v1.5l-1.92,0H9.22c0,.29-.1.59-.16.88h3.85c.88,0,2.15,0,2.87-.05v1.6c-.75,0-2-.06-2.87-.06Zm-2-9.56c0-.43,0-.78,0-1l1.62.11c.18,0,.29.06.29.16s-.08.19-.31.32v.9h3c1.09,0,2.34,0,3.17-.08,0,.57,0,.88,0,1.23v.42c0,.35,0,.76.05,1.23H13.92c0-.4.05-.91.05-1.23V242H3.13v.21c0,.32,0,.83.05,1.23H1.52c0-.47.05-.88.05-1.23v-.42c0-.35,0-.64,0-1.23.84,0,2.09.08,3.19.08H7.81Z"/><path d="M19.25,247.77a14.19,14.19,0,0,1-1.38,1.48,6.07,6.07,0,0,0-.94-1.48,14.63,14.63,0,0,0,3.76-5.42l1.36.64c.21.09.25.16.25.27s-.11.18-.43.26c-.43.81-.82,1.6-1.17,2.19.31,0,.39.08.39.18s-.08.17-.31.3c0,.3,0,.77,0,2.75v1.86c0,1.49,0,2.53.06,3.28H19.18c.05-.72.07-1.81.07-3.28Zm2.88-8c.24.15.29.18.29.29s-.05.14-.44.26a13.93,13.93,0,0,1-4,3.44,4.36,4.36,0,0,0-.85-1.35A11.36,11.36,0,0,0,21,239.1Zm6.94,9.46c0,.58,0,1,0,2,0,.26,0,.79,0,1,0,.8-.13,1.16-.55,1.41s-.93.37-2.37.37h-.41a6.26,6.26,0,0,0-.31-1.7c.8,0,1.09.07,1.43.07.53,0,.59-.08.59-.64v-5.84H24.08c-.67,0-1.57,0-2.22,0v-1.54c.6,0,1.52,0,2.22,0h5.71c.65,0,1.69,0,2.25,0v1.54c-.6,0-1.64,0-2.25,0h-.72ZM31,241.74c-.45,0-1.12,0-1.6,0H24.77c-.48,0-1.15,0-1.6,0V240.2c.45,0,1.12,0,1.6,0h4.64c.48,0,1.15,0,1.6,0Z"/><path d="M42.53,243.44a8.53,8.53,0,0,0,1.63,1,15.93,15.93,0,0,0,4,1.4,3.43,3.43,0,0,0-.72,1.39,14.38,14.38,0,0,1-4.21-1.73,9.27,9.27,0,0,1-1.91-1.41c0,1,0,1.78,0,2.26h-1.6c0-.54.05-1.28.05-2.29a17.06,17.06,0,0,1-6.34,3.35,4.31,4.31,0,0,0-.64-1.36,17.79,17.79,0,0,0,5.68-2.61H36.78c-.88,0-2.32,0-3.18.06v-1.41c.83,0,2.27.07,3.18.07h3.06v-.9c-1.41.11-3,.18-4.83.22a3.74,3.74,0,0,0-.44-1.32h.2a42,42,0,0,0,10.06-.95l1,.95c.15.12.16.14.16.2s-.08.16-.22.16h-.32c-1.34.27-2.66.46-4.1.62v1h3c1,0,2.38,0,3.18-.07v1.41c-.85,0-2.21-.06-3.18-.06Zm-5.94,5.82c-.88,0-2.32,0-3.18.07v-1.44c.81,0,2.27.06,3.18.06h1.33a11.82,11.82,0,0,0,1.14-1.82l1.5.68a.29.29,0,0,1,.18.24c0,.16-.13.23-.5.26l-.48.64h4.8c1,0,2.39,0,3.2-.06v1.44c-.86,0-2.22-.07-3.2-.07h0a10.15,10.15,0,0,1-1.73,2l.05,0a21.62,21.62,0,0,1,3.71,1.47l-.85,1.33a26.33,26.33,0,0,0-2.54-1.15c-.61-.23-1.23-.44-1.84-.64a17.23,17.23,0,0,1-7,1.81,4,4,0,0,0-.48-1.43,21.47,21.47,0,0,0,5.53-1c-.74-.19-1.48-.32-2.23-.45-.18.23-.35.44-.53.64L35.39,251a22.69,22.69,0,0,0,1.54-1.7Zm2.16,0q-.36.48-.72.93a25.56,25.56,0,0,1,3.12.58,8.13,8.13,0,0,0,1.59-1.51Z"/><path d="M55.49,251.78c.13.06.19.14.19.24s-.1.2-.51.24a15.11,15.11,0,0,1-5.44,1.84,3.06,3.06,0,0,0-.61-1.48,14.64,14.64,0,0,0,5.14-1.45Zm-2.61-.2H51.23c0-.64.05-1.57.05-2.8v-2.11c0-1,0-2-.05-2.54.64,0,1.25,0,2.15,0h6.46c.93,0,1.59,0,2.24,0,0,.52,0,1.63,0,2.54v2.05c0,1.28,0,2.21,0,2.82H60.43v-.45H52.88Zm.56-7.93H51.87c0-.39.05-.92.05-1.7v-.74c0-.51,0-1.12-.05-1.41.56,0,1.06,0,1.76,0h6c.72,0,1.21,0,1.77,0,0,.29,0,.9,0,1.41V242c0,.76,0,1.3,0,1.67H59.78v-.38H53.44Zm7,1.79H52.88v.73h7.55ZM52.88,248h7.55v-.73H52.88Zm0,1.84h7.55v-.73H52.88Zm6.9-8.85H53.44v1.08h6.34Zm-1.36,10.14a20.3,20.3,0,0,0,5.7,1.45,3.25,3.25,0,0,0-.72,1.49,17.37,17.37,0,0,1-3.06-.69,12.44,12.44,0,0,1-2.85-1.12Z"/><path d="M69.63,251.76c1.19-.24,2.4-.51,3.68-.83l.21,1.34c-2.26.59-3.6.9-6.85,1.51l-.11.17c-.07.12-.13.16-.21.16s-.18-.06-.22-.2l-.53-1.53c.81-.09,1.65-.2,2.5-.35v-4.1h-.47c-.69,0-1.58,0-2.24,0v-1.55c.61,0,1.52,0,2.24,0h.47v-4c0-1.67,0-2,0-2.56.35,0,.88,0,1.36,0h6.67c.66,0,1.44,0,1.92,0v1.49c-.53,0-1.37,0-1.92,0H69.63v.75h5c.66,0,1.65,0,2.24,0v1.48c-.59,0-1.58,0-2.24,0h-5v.75h5c.66,0,1.65,0,2.24-.05v1.47l-2.24,0h-5v.82h7.72c.64,0,1.68,0,2.24,0V248c-.59,0-1.63,0-2.24,0H72.61a8.57,8.57,0,0,0,1.58,1.77,16.58,16.58,0,0,0,2.56-1.61l1.3.84c.08,0,.13.11.13.17s-.11.15-.29.15h-.14c-.84.49-1.55.89-2.37,1.31A16.41,16.41,0,0,0,80,252.5a10.67,10.67,0,0,0-.92,1.36,15.69,15.69,0,0,1-5.39-2.8,9.07,9.07,0,0,1-2.55-3.13H69.63Z"/><path d="M7.85,272.48a25.4,25.4,0,0,1-5.55,6.1,9.46,9.46,0,0,0-1.41-1.92,22,22,0,0,0,5.73-6.5,26.35,26.35,0,0,0,1.56-3H6.26c-1.32,0-3.48.05-4.77.1v-2.4c1.22,0,3.41.1,4.77.1H9c.34-1,.65-2.12,1-3.46l2.23.5c.38.1.58.22.58.44s-.17.36-.72.48c-.22.74-.41,1.41-.63,2h7.4c1.51,0,3.57-.05,4.8-.1v2.4c-1.28-.05-3.34-.1-4.8-.1H10.66c-.32.77-.65,1.52-1,2.26H16.2c1.27,0,2.64,0,3.55-.1,0,.63,0,2.38,0,3.8v5.09c0,1.6,0,2.92,0,3.16,0,1.08-.21,1.61-.81,2s-1.47.53-3.65.53H15.1a12.36,12.36,0,0,0-.46-2.54c.91.07,1.25.09,1.58.09,1,0,1.13-.09,1.13-1v-1.7H10.18V284H7.78c0-.94.07-3.17.07-4.68Zm9.5-.93H10.18V273h7.17Zm0,3.57H10.18v1.44h7.17Z"/><path d="M32.47,265.5a7.36,7.36,0,0,1-1,2.16,11.45,11.45,0,0,1-3.8,3.5,7,7,0,0,0-1.29-1.87,9,9,0,0,0,3.29-2.81,7.1,7.1,0,0,0,.55-1H29c-.65,0-1.42,0-1.92,0v-2c.53,0,1.39,0,1.92,0h1.85c.12-.6.26-1.27.38-2.11l2.14.36a.3.3,0,0,1,.28.29c0,.14-.07.21-.4.36-.1.4-.17.76-.24,1.1h3.31l.45-.55,1.52,1.27a.54.54,0,0,1,.16.34c0,.16-.12.24-.62.43a9.35,9.35,0,0,1-1.27,3.6c-.67.89-1.42,1.08-4.06,1.08h-.19a8.88,8.88,0,0,0-.34-2.21c1,.07,1.11.07,1.49.07,1.23,0,1.66-.29,2.11-2.06Zm4.75,15.6c.2.12.27.19.27.34s-.17.28-.75.28A34.26,34.26,0,0,1,27.53,284a8.15,8.15,0,0,0-.75-2.11,30.68,30.68,0,0,0,8.67-1.75Zm-4.29-.41H30.5c0-1,.05-2.35.05-4.22V274c0-1.44,0-3-.05-3.82.63,0,1.2.05,2,.05H43.15c.84,0,1.42,0,2.07-.05-.07.82-.07,1.54-.07,3.82v2.28c0,1.92,0,3.31.07,4.22H42.77v-.72H32.93Zm9.84-8.54H32.93V273h9.84Zm-9.84,3.33h9.84v-.88H32.93Zm0,2.48h9.84V277H32.93Zm8.21-8.17H38.86c0-.57.07-1.36.07-2.54V264.8c0-.77,0-1.68-.07-2.11.55,0,1,0,1.75,0H46c.7,0,1.2,0,1.73,0,0,.43-.07,1.34-.07,2.11v2.26c0,1.13,0,1.94.07,2.49H45.5v-.47H41.14ZM40.22,280a45.17,45.17,0,0,0,8.84,1.76,6,6,0,0,0-.89,2.13,35.6,35.6,0,0,1-9.27-2.25Zm5.28-15.31H41.14v2.33H45.5Z"/><path d="M63.84,268.79H62.73c-.4,0-1.39,0-1.89,0v-2.26l1.89,0h1.11c0-2.62-.07-4.25-.14-4.85l2.56.17c.22,0,.36.12.36.24s-.12.26-.45.45c0,.87,0,2.4,0,4h1.22c.34,0,1.3,0,1.92,0v2.26c-.48,0-1.32,0-1.92,0H66.12v3.26c1.08-.48,2.06-1,3.19-1.56l.34,2.18c-1.3.7-2.38,1.25-3.53,1.78v.84c0,.89,0,2.47,0,4,0,.41,0,1.06,0,1.39,0,1.28-.1,1.85-.41,2.24-.55.74-1.49,1-4.2,1a9.94,9.94,0,0,0-.53-2.54c.82.07,1.23.09,1.73.09,1,0,1.06-.09,1.06-1v-4.94c-.46.19-1,.41-1.49.62l-.12.29c-.07.19-.17.27-.31.27a.38.38,0,0,1-.34-.27l-1-2.3c1.27-.41,2.35-.77,3.31-1.13Zm12-3.39a24.34,24.34,0,0,1-2.18,6h6.55c.69,0,1.2,0,1.73-.05,0,.43-.08,1.34-.08,2.11v7.18c0,1.13,0,1.94.08,2.49H79.56v-1.75H74v2.23H71.62c0-.57.07-1.36.07-2.56v-6.34A20.69,20.69,0,0,1,67.92,279a10.75,10.75,0,0,0-1.2-2.09,20.68,20.68,0,0,0,6.7-11.52H71.5c-1,0-2.38,0-3.36.07v-2.32c.91,0,2.28.07,3.36.07h8.35c1,0,2.52-.05,3.33-.07v2.32c-.86,0-2.42-.07-3.33-.07Zm3.72,8.14H74v5.74h5.59Z"/><path d="M90.17,279.61c1.1-.21,2.21-.48,3.29-.77-.48-.55-1-1.15-1.68-1.87l1.7-1.39a26.16,26.16,0,0,1,4.68,5.81L96.1,282.8c-.51-.88-.94-1.58-1.35-2.23-2.23.67-5,1.42-7.15,1.9-.19.33-.34.45-.48.45a.45.45,0,0,1-.34-.28l-.91-2.28c.72-.12,1.39-.22,2-.34V266.75a15.73,15.73,0,0,0-.07-2.12c.52,0,1,0,1.72,0h1.8v-1.37c0-.67,0-1.2,0-1.54l2.38.17c.28,0,.43.1.43.24s-.15.29-.48.48v2h1.87c.7,0,1.2,0,1.73,0,0,.44-.07,1.35-.07,2.12V273c0,1.13,0,1.92.07,2.5H94.87V275h-4.7Zm4.7-12.82h-4.7v1.92h4.7Zm0,4.06h-4.7v2h4.7Zm13-6.72a.63.63,0,0,1,.21.43c0,.17,0,.24-.38.34a67.23,67.23,0,0,1-2.45,6.36c2.26,2.21,3,3.7,3,6a4,4,0,0,1-1,3.1,3.54,3.54,0,0,1-2.33.82c-.26,0-.62,0-1.36,0h-.36a9.4,9.4,0,0,0-.32-2.57,9,9,0,0,0,1.18.1c1.25,0,1.68-.39,1.68-1.44a7.07,7.07,0,0,0-1.22-3.67,14.25,14.25,0,0,0-1.8-2.05c.28-.69.5-1.22.64-1.58.8-1.94,1.28-3.29,1.76-4.78h-3.48V277c0,3.07,0,5.5.09,7H99.19c.07-1.58.12-4,.12-7V265.16c0-.74,0-1.68-.07-2.11.55,0,1,0,1.75,0h5.07l.28-.36Z"/><path d="M115.83,274c0-5.89,1.34-10.61,3.39-13.61l.35.89c-1.89,2.84-3.1,7.18-3.1,12.72s1.21,9.87,3.1,12.71l-.35.89C117.17,284.63,115.83,279.91,115.83,274Z"/><path d="M271.5,274c0,5.88-1.33,10.6-3.38,13.6l-.36-.89c1.89-2.84,3.11-7.18,3.11-12.71s-1.22-9.88-3.11-12.72l.36-.89C270.17,263.42,271.5,268.14,271.5,274Z"/><path d="M126.34,267.56a19.58,19.58,0,0,0,2.19-.7l.1.77a34.28,34.28,0,0,1-4,1.36c-.11.19-.2.27-.28.27a.27.27,0,0,1-.2-.17l-.42-.94c.68-.12,1.24-.23,1.75-.36v-3.5h-.67c-.28,0-.63,0-.84,0v-.89c.21,0,.56,0,.84,0h.67v-3.24h-1.64v-.86h4.33v.86h-1.78v3.24h.83c.27,0,.62,0,.83,0v.89c-.21,0-.56,0-.83,0h-.83Zm4.21-2.49c.18,0,.28.09.28.17s-.07.15-.28.24a8.13,8.13,0,0,1-.33,3.28,3.64,3.64,0,0,1-1.94,2,7.22,7.22,0,0,1-1.81.7,4,4,0,0,0-.49-.84,9.52,9.52,0,0,0,1.93-.68,3,3,0,0,0,1.46-1.63,7.08,7.08,0,0,0,.25-2,7,7,0,0,0-.11-1.31Zm1.62-3.78a14.25,14.25,0,0,1-1.16,2.14c1.26-.07,2.51-.18,3.75-.32a11.78,11.78,0,0,0-1.08-1.16l.58-.55a10.51,10.51,0,0,1,2.44,2.82l-.84.59c-.2-.35-.41-.69-.62-1-1.16.18-1.71.25-3.15.4l-2.87.31c-.14.17-.2.23-.27.23s-.15-.07-.21-.23l-.31-.92,1.56-.07a16.54,16.54,0,0,0,1.17-2.2h-1.58c-.41,0-1,0-1.4,0v-.94l1.4,0h2.17v-1.05c0-.19,0-.61,0-.9l1,.1c.18,0,.26.05.26.14s-.08.17-.28.28v1.43h2.64l1.38,0v.94c-.39,0-1,0-1.38,0Zm.42,3.67c.17,0,.25.06.25.14s-.08.17-.26.28c0,.29,0,.7,0,1.32v2.41c0,.93,0,1.65,0,2h-1c0-.49,0-1.15,0-2V266.7c0-.84,0-1.46,0-1.84Zm2.06,5.11c0,.23.09.28.48.28.66,0,.68-.07.71-1.61a3.52,3.52,0,0,0,.95.35c-.09,1.46-.18,1.74-.6,2a3.11,3.11,0,0,1-1.19.16c-.95,0-1.25-.22-1.25-1v-4.62c0-.34,0-.7,0-.9l.94.1c.18,0,.25.06.25.14s-.07.17-.26.28a2,2,0,0,0,0,.38Z"/><path d="M139.76,264.16h-.86c-.26,0-.63,0-.84,0v-.88h1.7v-2.76h-1.1c-.29,0-.68,0-.84,0v-.87h4.75v.87a7.66,7.66,0,0,0-.84,0h-1.09v2.76h1.86v.88c-.21,0-.57,0-.84,0h-1v2.94a22.26,22.26,0,0,0,2.18-1l.2.81c-1,.53-2.77,1.3-4.34,1.92-.11.24-.16.31-.24.31a.3.3,0,0,1-.22-.14l-.56-1c.65-.16,1.37-.39,2.1-.64Zm7.2,2.26c0,.71,0,1.86,0,3,0,.24,0,.53,0,.66,0,.59-.12.86-.46,1a3.55,3.55,0,0,1-1.81.28,2.3,2.3,0,0,0-.28-1.07c.44,0,.67,0,1,0,.53,0,.58-.05.58-.57V267.2c-1,.62-2,1.21-3.32,2l0,.16c0,.14-.11.19-.21.19a.24.24,0,0,1-.19-.11l-.63-.9a26.92,26.92,0,0,0,4.4-2.28V262h-1.57c-.59,0-1.38,0-1.95,0v-.95c.53,0,1.33,0,1.95,0h1.57c0-1.37-.05-2.24-.09-2.56l1.07.09c.14,0,.21.07.21.14s-.07.16-.26.27c0,.39,0,.48,0,2.06h1.89c.56,0,1.47,0,1.95,0v.95c-.51,0-1.42,0-1.95,0H147v.66a15.69,15.69,0,0,0,.61,2.13,14.3,14.3,0,0,0,2.12-1.67l.74.59a.27.27,0,0,1,.14.22c0,.1-.07.14-.21.14h-.21a20,20,0,0,1-2.28,1.4,8,8,0,0,0,.42.82,10.59,10.59,0,0,0,2.67,3.21,2.3,2.3,0,0,0-.78.77,11.85,11.85,0,0,1-2.5-3.3,10.22,10.22,0,0,1-.72-1.68ZM143.73,263a11.28,11.28,0,0,1,1.84,2.15l-.77.58a11.59,11.59,0,0,0-1.67-2.15Zm4.46-4.12a8.19,8.19,0,0,1,1.5,1.5l-.7.62a8.73,8.73,0,0,0-1.35-1.53Z"/><path d="M158.74,263.19a11.3,11.3,0,0,0,2,4,10.13,10.13,0,0,0,4.06,3.15,6.78,6.78,0,0,0-.84.87,11.67,11.67,0,0,1-4-3.46,9.88,9.88,0,0,1-1.65-3.52,9.29,9.29,0,0,1-.63,2.24,8.43,8.43,0,0,1-2.79,3.52,12.18,12.18,0,0,1-2.7,1.42,3.63,3.63,0,0,0-.55-.83,9.44,9.44,0,0,0,3.72-2.37,8.41,8.41,0,0,0,2.08-4.83c0-.09,0-.16,0-.23h-2.53c-.78,0-2,0-2.79.06v-1c.71,0,2,.06,2.79.06h2.61c0-.66.06-1.6.07-3.72l1,.16c.23,0,.32.1.32.21s-.08.17-.32.25c0,1.23,0,2.24-.11,3.1h3.24c.88,0,2.08,0,2.8-.06v1c-.76,0-1.95-.06-2.8-.06Z"/><path d="M175.08,263l.77.7c.11.11.16.17.16.22s-.06.2-.52.28a17,17,0,0,1-2.7,1.73c0,.22,0,.44,0,.67H176c.88,0,2.07,0,2.79-.06v1c-.75,0-1.94,0-2.79,0h-3.22v1c0,.25,0,1,0,1.48,0,0,0,.07,0,.2,0,1-.46,1.24-2.41,1.26a2.34,2.34,0,0,0-.26-1.1,11,11,0,0,0,1.17.06c.45,0,.52-.08.52-.59v-2.32h-3.22c-.77,0-2,0-2.79,0v-1c.73,0,2,.06,2.79.06h3.22a8.42,8.42,0,0,0-.11-1.56l.88.07a12.32,12.32,0,0,0,1.59-1H170.4c-.58,0-1.41,0-1.94,0v-.94c.53,0,1.36,0,1.94,0h4.49Zm-1.26-1.7a12.85,12.85,0,0,0,1.68-2.88l.94.46c.11.06.15.1.15.15s-.06.16-.27.2c-.71,1.09-1,1.54-1.42,2.07h.92c.69,0,1.77,0,2.39-.05,0,.5,0,.75,0,1.06v.35c0,.35,0,.77,0,1.23h-1c0-.4,0-.91,0-1.23v-.5h-9.94v.5c0,.32,0,.83.05,1.23h-1c0-.46,0-.88,0-1.23v-.35c0-.31,0-.56,0-1.06.63,0,1.59.05,2.5.05Zm-5.59-2.7a7.84,7.84,0,0,1,1.61,2.11l-.88.57a10.91,10.91,0,0,0-1.43-2.16Zm3.43-.17a8.76,8.76,0,0,1,1.17,2.28l-.93.4a9.93,9.93,0,0,0-1-2.31Z"/><path d="M186.84,259.29c0-.38,0-.69,0-.9l1,.1c.17,0,.26.05.26.14s-.09.17-.28.28V260h2.12c.87,0,2.08,0,2.79-.06v.95c-.71,0-2-.05-2.79-.05H183v3.22a13.18,13.18,0,0,1-.42,4,7.78,7.78,0,0,1-1.9,3.29,2.84,2.84,0,0,0-.7-.68,7.39,7.39,0,0,0,2.07-5.06,3.36,3.36,0,0,1-.49.35l-1,.63c-.1.21-.15.28-.22.28a.23.23,0,0,1-.2-.17l-.42-.85a15.73,15.73,0,0,0,2.39-1.23c0-.2,0-.41,0-.62v-2.74c0-.42,0-1,0-1.24.47,0,.93,0,1.54,0h3.19Zm-6.25,1.87a6.79,6.79,0,0,1,1.17,2.06l-.86.44a8,8,0,0,0-1-2Zm7.72,4.12a3.29,3.29,0,0,1,0,.45,11.31,11.31,0,0,1,2.55,2.52l-.67.72a11.13,11.13,0,0,0-2-2.41,4,4,0,0,1-.52,1.06,5.19,5.19,0,0,1-2.06,1.72,3.61,3.61,0,0,0-.46-.75,4.32,4.32,0,0,0,1.9-1.71,3.63,3.63,0,0,0,.42-1.6H185v2.77c0,2.15,0,2.71,0,3.3h-1c0-.55,0-1.85,0-2.72V266.7c0-1.59,0-1.89,0-2.32.55.05,1.36.08,2.1.08h1.27V263h-2.16c-.46,0-1.25,0-1.67,0v-.95c.42,0,1.14,0,1.67,0h5.6c.55,0,1.26,0,1.68,0V263c-.43,0-1.22,0-1.68,0h-2.53v1.5h1.51c.73,0,1.53,0,2.07-.08,0,.34,0,.7,0,2.08v2c0,.28,0,1,0,1.49a.83.83,0,0,1,0,.18c0,1-.45,1.23-2.29,1.26a2.18,2.18,0,0,0-.25-1.06,8.45,8.45,0,0,0,1,0c.56,0,.61-.06.61-.58v-4.48Z"/><path d="M195.34,260v7.28c0,1.79,0,3.22,0,4.11h-1c0-.94.07-2.34.07-4.11v-6.9c0-.44,0-1-.05-1.24.31,0,.61,0,1,0h1.75l.19-.19.77.61a.26.26,0,0,1,.09.18c0,.08-.05.14-.29.26a34.21,34.21,0,0,1-1.39,3.37,4.07,4.07,0,0,1,1.39,1.7,4.15,4.15,0,0,1,.27,1.45,1.66,1.66,0,0,1-1.17,1.8,3.79,3.79,0,0,1-1.31.13,3.31,3.31,0,0,0-.21-1.06l.65,0c.84,0,1.07-.21,1.07-1a3.05,3.05,0,0,0-.73-2,8.26,8.26,0,0,0-.95-.92,37.15,37.15,0,0,0,1.39-3.55Zm6.41,6.48a5.22,5.22,0,0,1-1.33,3.15,7.19,7.19,0,0,1-3.38,1.87,2.83,2.83,0,0,0-.49-.76,6.66,6.66,0,0,0,3.21-1.71,4.13,4.13,0,0,0,1.07-2.55h-.52l-1.68,0v-.91c.42,0,1.13,0,1.68,0h4.31c.55,0,1.26,0,1.68,0v.91l-1.68,0h-.74v3.31c0,.35.16.42.9.42s1.15-.1,1.26-.46a3.47,3.47,0,0,0,.11-1,5,5,0,0,0,.88.35c-.14,1.13-.21,1.35-.49,1.61s-.81.32-1.89.32c-1.25,0-1.69-.24-1.69-.94v-3.63Zm.1-7.11q0-.6,0-.9l1,.08c.2,0,.27.07.27.16s-.07.17-.28.28v1.22h1c1,0,2.05,0,2.78-.07,0,.5,0,.77,0,1.08v.4c0,.37,0,.77,0,1.23h-.95c0-.4,0-.91,0-1.23V261h-6.37v.64c0,.32,0,.83,0,1.23h-1c0-.46,0-.86,0-1.23v-.4c0-.31,0-.57,0-1.08.72,0,1.82.07,2.77.07h.72Zm3.53,4.59-1.4,0h-3l-1.4,0v-.9c.4,0,1,0,1.4,0h3c.4,0,1,0,1.4,0Z"/><path d="M128.87,278.23c-.3,0-.73,0-1.11,0H124.9c-.38,0-.82,0-1.12,0v-.93c.31,0,.81,0,1.12,0h2.86c.29,0,.8,0,1.11,0Zm-3.67,9.3h-1c0-.34,0-.77,0-1.5v-1.78c0-.44,0-1,0-1.23h4.27c0,.25,0,.79,0,1.23v1.43c0,.68,0,1.12,0,1.45h-1v-.57H125.2Zm3.06-11.25c-.21,0-.56,0-.84,0h-2.2c-.26,0-.63,0-.84,0v-.9c.21,0,.58,0,.84,0h2.2c.28,0,.63,0,.84,0Zm0,3.72h-3.88v-.89l.84,0h2.2l.84,0Zm0,1.92h-3.88V281h3.88Zm-.77,1.91H125.2v1.93h2.29Zm5.27-8.81c.32.12.39.18.39.31s0,.14-.22.22a8.47,8.47,0,0,0,3.93,3.46,2.08,2.08,0,0,0-.64.84,10.26,10.26,0,0,1-2.54-1.93,7.22,7.22,0,0,1-1.34-1.81,9.33,9.33,0,0,1-1.29,2,10.76,10.76,0,0,1-2.1,2,3.87,3.87,0,0,0-.57-.8,9,9,0,0,0,2.1-2,9.87,9.87,0,0,0,1.44-2.61Zm1,4a.21.21,0,0,1,.14.18c0,.13-.08.15-.44.15a12.06,12.06,0,0,1-4.33,3.06,3,3,0,0,0-.45-.8,10.38,10.38,0,0,0,4.22-3.1Zm2.93,4.72a.23.23,0,0,1,.14.2c0,.12-.11.16-.49.16a13,13,0,0,1-3.29,2.22,17.81,17.81,0,0,1-3.85,1.33,3.29,3.29,0,0,0-.35-.87,13.64,13.64,0,0,0,7-3.59Zm-1.41-2.61c.12.09.18.16.18.24s-.11.17-.34.17H135a13.26,13.26,0,0,1-5.51,3.34,4.4,4.4,0,0,0-.4-.84,11.34,11.34,0,0,0,5.36-3.42Z"/><path d="M148.34,283.07c0,.66,0,1.14,0,1.46h-.88v-.28h-1.64v.54c0,.22,0,1.31,0,1.67,0,1-.45,1.24-2.27,1.26a2.2,2.2,0,0,0-.27-1.06,8.54,8.54,0,0,0,1,0c.54,0,.61-.06.61-.57v-1.88h-1.52v.27h-.89c0-.34.05-.8.05-1.5v-1.33A12.76,12.76,0,0,1,141,283a3.24,3.24,0,0,0-.59-.69,12.92,12.92,0,0,0,1.86-1.51,9.13,9.13,0,0,0-1.38-1.33l.51-.51a8,8,0,0,1,1.47,1.18c.1-.11.2-.22.3-.35a11,11,0,0,0,.71-1h-1.26c-.46,0-1.24,0-1.68,0v-.87l1.68,0h1.71c.21-.44.38-.89.55-1.35h-4.42v3.7A10.79,10.79,0,0,1,140,284a7.74,7.74,0,0,1-1.93,3.33,3,3,0,0,0-.63-.71,7.64,7.64,0,0,0,2.07-4.86l-1.12.68c-.1.21-.16.27-.23.27a.22.22,0,0,1-.19-.15l-.42-.86a18.58,18.58,0,0,0,2-1c0-.18,0-.37,0-.55V277c0-.44,0-1,0-1.23h5.07v-.22c0-.38,0-.69,0-.9l.95.1c.18,0,.27.05.27.14s-.09.17-.28.28v.6h2.28c.87,0,2.07,0,2.8-.06v1c-.73,0-2-.06-2.8-.06H145l.83.31c.17,0,.25.14.25.22s0,.14-.38.2l-.31.62h3.22l1.69,0v.87c-.44,0-1.22,0-1.69,0H147a8.22,8.22,0,0,0,1,1.16,9.53,9.53,0,0,0,1.21-1.08l.8.59a.22.22,0,0,1,.09.15c0,.09-.08.14-.23.14h-.17a9.25,9.25,0,0,0-.83.52l-.28.2A9.4,9.4,0,0,0,151,281.7a3.19,3.19,0,0,0-.58.83,13.84,13.84,0,0,1-2-1.21Zm-10.05-5.87a6.83,6.83,0,0,1,1.17,2.05l-.87.45a7.39,7.39,0,0,0-1-2Zm5.65,7.75c.2.1.23.13.23.2s-.1.15-.32.18a12,12,0,0,1-4,2.21,6.51,6.51,0,0,0-.47-.8,10.21,10.21,0,0,0,4-2.11ZM147.5,282v-.74h-4.07V282Zm-4.07,1.47h4.07v-.74h-4.07Zm4-3a8.05,8.05,0,0,1-1.28-1.74h-1.22a11.77,11.77,0,0,1-1.13,1.61l-.11.13Zm-.3,4.14a18.58,18.58,0,0,0,3.27,2,3.57,3.57,0,0,0-.67.76,18.36,18.36,0,0,1-3.2-2.23Z"/><path d="M153,277.64c.1,0,.14.07.14.17a.15.15,0,0,1-.07.11L153,278a10.24,10.24,0,0,1-.73,3.54,3,3,0,0,0-.74-.54,8.17,8.17,0,0,0,.66-3.52Zm1.43-2.71c.13,0,.2.07.2.14s-.07.16-.25.27c0,.49,0,.78,0,3.61v4.7c0,1.8,0,3.18.06,4.09h-1c0-.91.07-2.29.07-4.09V279c0-2.29,0-3.68-.08-4.11Zm.65,2.23a10.23,10.23,0,0,1,1.31,1.67l-.75.52a13.2,13.2,0,0,0-1.14-1.68Zm8.36-1h1.1V277c-.29,0-.74,0-1.1,0H160.4v.83h2.06c.3,0,.81,0,1.12,0v.84l-1.12,0H160.4v1h3c.41,0,1,0,1.39,0v.86c-.39,0-1,0-1.39,0H156.8c-.41,0-1,0-1.39,0v-.86c.39,0,1,0,1.39,0h2.69v-1h-1.7c-.38,0-.81,0-1.12,0v-.84c.32,0,.83,0,1.12,0h1.7V277H157c-.38,0-.82,0-1.12,0v-.84h3.62c0-.71,0-1.13-.05-1.44l1,.08c.17,0,.24.07.24.14s-.07.17-.27.28c0,.2,0,.79,0,.94Zm-6,8.9c0,2.07,0,2.13,0,2.66h-1c0-.55,0-1.85,0-2.73v-1.24c0-2,0-2.29,0-2.73.55,0,1.35.06,2.09.06h2.72c.72,0,1.52,0,2.07-.06,0,.37,0,.81,0,2.21v1.48c0,.25,0,1,0,1.48,0,0,0,.07,0,.2,0,1-.44,1.23-2.27,1.26a2.45,2.45,0,0,0-.26-1.07c.4,0,.63,0,1,0,.57,0,.62-.05.62-.57v-1Zm5-3.18h-5v.79h5Zm-5,2.42h5v-.87h-5Z"/><path d="M171.43,279.63c.11,0,.15.08.15.14s0,.11-.32.21c-.35.74-.55,1.12-.76,1.51h2.06v.88c-.18,0-.46,0-1.05,0h-1.89v1.42h1.54c.29,0,.81,0,1.12,0v.88c-.29,0-.74,0-1.12,0h-1.54v.69c0,1.05,0,2,0,2.45h-1c0-.54,0-1.31,0-2.45v-.69h-1.35l-1.12,0v-.88c.31,0,.83,0,1.12,0h1.35v-1.42h-1.77c-.37,0-.82,0-1.12,0v-.88h1.91a10,10,0,0,0-.9-1.88l.45-.21h-.34c-.37,0-.82,0-1.12,0v-.89c.31,0,.82,0,1.12,0h1.77v-1.19h-1.35c-.37,0-.82,0-1.12,0v-.89c.31,0,.83,0,1.12,0h1.35v-.39c0-.55,0-1,0-1.3l.95.09c.17,0,.26.06.26.14s-.09.17-.27.28v1.18h1.54c.29,0,.81,0,1.12,0v.89c-.29,0-.74,0-1.12,0h-1.54v1.19h1.89c.34,0,.86,0,1.09,0v.89c-.23,0-.68,0-1.09,0h-.69Zm-3.8-.23a8.62,8.62,0,0,1,.59.94,7.47,7.47,0,0,1,.39.87l-.6.28h1.62a9.21,9.21,0,0,0,.77-2.09ZM177,285a7.53,7.53,0,0,0,2,1.65,3.69,3.69,0,0,0-.61.86,8,8,0,0,1-1.88-1.66,9.17,9.17,0,0,1-1.67,1.73,4.27,4.27,0,0,0-.61-.75,8.06,8.06,0,0,0,1.72-1.77l-.13-.21a9.06,9.06,0,0,1-1.07-3.84H174v5.17c0,.64,0,1.19,0,1.5h-1c0-.34,0-.8,0-1.5v-9.53c0-.45,0-1,0-1.23h5c0,.24,0,.71,0,1.13v.84c0,.35,0,.7,0,1.17,0,.86-.37,1.07-2,1.07H176a3.11,3.11,0,0,0-.2-1c.38,0,.7,0,.94,0s.42-.07.42-.38v-2H174v3.95h3.57l.19-.23.69.6c.08.08.11.13.11.2s-.07.16-.22.21h-.06a12.53,12.53,0,0,1-1.24,3.94Zm-1.44-4a9.37,9.37,0,0,0,.87,3.11,11.87,11.87,0,0,0,.92-3.11Z"/><path d="M185.05,276c.29,0,.8,0,1.12,0v.85c-.31,0-.74,0-1.12,0H183.8a6.76,6.76,0,0,1,.76,1.47l-.9.38a6.83,6.83,0,0,0-.88-1.85H182a11.85,11.85,0,0,1-1.67,1.83,3.52,3.52,0,0,0-.55-.67,9.17,9.17,0,0,0,2.44-3.35l.84.35c.13.06.21.13.21.21s-.07.14-.39.2a6.88,6.88,0,0,1-.36.64Zm6.44,0c.31,0,.81,0,1.12,0v.85c-.29,0-.74,0-1.12,0h-1.78a5.66,5.66,0,0,1,.73,1.41l-.91.38a7.88,7.88,0,0,0-.81-1.79h-1.14a12.39,12.39,0,0,1-1,1l.2,0c.18,0,.25.07.25.14s-.07.17-.27.28c0,.12,0,.45,0,.6h2.65c1,0,2.06,0,2.78-.06,0,.51,0,.77,0,1.08v.52c0,.35,0,.76,0,1.22h-1c0-.41,0-.9,0-1.22v-.67h-9.93v.67c0,.32,0,.81,0,1.22h-1c0-.46,0-.87,0-1.22v-.52c0-.31,0-.57,0-1.08.72.05,1.82.06,2.78.06h2.73v-.21c0-.39,0-.7,0-.9l.66.06a2.15,2.15,0,0,0-.56-.53,8.55,8.55,0,0,0,2-2.72l.84.34c.13,0,.21.12.21.21s-.06.15-.39.19a4,4,0,0,1-.41.7Zm-2.38,8.25h1.54c0,.25,0,.78,0,1.23v.66c0,.66,0,1.13,0,1.46h-1v-.47h-6.33v.59h-1c0-.32,0-.8,0-1.48v-4.39c0-.44,0-1,0-1.24.49,0,.91,0,1.54,0h4.58c.61,0,1.05,0,1.54,0,0,.25,0,.8,0,1.24v.49c0,.66,0,1.12,0,1.46h-1v-.43h-5.66v.89Zm-.14-2.77h-5.66v1H189Zm-5.66,4.8h6.33V285.1h-6.33Z"/><path d="M196.79,283.56a23.93,23.93,0,0,0,2.13-1.27l.25.77c-.82.54-1.38.9-2,1.29l-2.46,1.33c-.09.22-.16.31-.25.31a.3.3,0,0,1-.21-.14l-.56-.86a24.67,24.67,0,0,0,2.27-1v-3.36H194v-.88l.84,0h1v-3h-1.2c-.27,0-.63,0-.83,0v-.89c.2,0,.56,0,.83,0h3.34c.27,0,.62,0,.83,0v.89c-.21,0-.56,0-.83,0h-1.26v3h1l.84,0v.88h-1.84Zm3.5-1.78v.59h-.95c0-.56,0-1.37,0-2.46v-2.09c0-.84,0-1.78,0-2.23.37,0,.7,0,1.19,0h4.3c.49,0,.83,0,1.19,0,0,.45,0,1.53,0,2.23v1.89c0,1.11,0,1.93,0,2.47h-1v-.4h-2v1.82h1.76l1.67,0v.94c-.42,0-1.21,0-1.67,0H203.1v1.92h2.14c.53,0,1.26,0,1.67-.05v1c-.42,0-1.21-.05-1.67-.05h-6.63c-.46,0-1.24,0-1.68.05v-1c.42,0,1.14.05,1.68.05h3.58v-1.92h-1.77c-.46,0-1.25,0-1.67,0v-.94l1.67,0h1.77v-1.82Zm1.9-5.32h-1.9v1.91h1.9Zm-1.9,2.75v1.73h1.9v-1.73Zm4.78-.84v-1.91h-2v1.91Zm-2,2.57h2v-1.73h-2Z"/><path d="M213.06,280.5v3.3c0,1,.23,1.12,1.86,1.12a12.32,12.32,0,0,0,3.4-.39l.23,1a18.28,18.28,0,0,1-3.64.3c-2.42,0-2.83-.26-2.83-1.92v-3.22c-2,.35-2.39.45-3.54.72l-.28-1.07c1.12-.1,2.53-.29,3.82-.5v-1.26c0-1.12,0-1.7-.05-2.12l1.07.1c.16,0,.24.07.24.15s-.05.13-.26.27c0,.34,0,.46,0,1.6v1.09l5.16-.9.14-.16.77.68c.1.1.12.14.12.21s-.07.14-.32.18a10.93,10.93,0,0,1-3.23,3.48,2.48,2.48,0,0,0-.68-.69,9.16,9.16,0,0,0,2.89-2.81Z"/><path d="M224.42,277.26a7.4,7.4,0,0,1,2.53,2l-.8.77a8.54,8.54,0,0,0-2.35-2Zm-.27,7.7a20,20,0,0,0,4.69-2.66,19.11,19.11,0,0,0,4.23-4.28,2.26,2.26,0,0,0,.63.82,22.61,22.61,0,0,1-4.34,4.33,31.16,31.16,0,0,1-4.11,2.56c-.05.2-.11.28-.21.28a.32.32,0,0,1-.23-.16Z"/><path d="M245.21,277.32l.18-.24.78.64c.15.11.19.17.19.25s-.07.19-.31.28a14.74,14.74,0,0,1-1.54,3.55,10.33,10.33,0,0,1,1.59,1.26l-.71.78a14.5,14.5,0,0,0-1.44-1.22,14.45,14.45,0,0,1-5.37,4.33,3.34,3.34,0,0,0-.54-.8,13.08,13.08,0,0,0,5.09-4,13.13,13.13,0,0,0-2.15-1l.5-.75a15.44,15.44,0,0,1,2.19.94,12.34,12.34,0,0,0,1.38-3.11h-3.27a12.82,12.82,0,0,1-3.45,4.21,2.11,2.11,0,0,0-.66-.71,12.43,12.43,0,0,0,3-3.49,10.2,10.2,0,0,0,1.07-2.72l.94.37c.15.05.19.1.19.18s0,.14-.3.24c-.19.52-.27.73-.4,1Z"/><path d="M261.55,281.7c-.66,0-1.77,0-2.51,0h-5.49c-.69,0-1.91,0-2.51,0v-1c.58,0,1.79,0,2.51,0H259c.77,0,1.89,0,2.51,0Z"/></g></g></svg>