<svg xmlns="http://www.w3.org/2000/svg" viewBox="0 0 781.01 79.51"><defs><style>.cls-1{fill:#0050aa;}</style></defs><g id="レイヤー_2" data-name="レイヤー 2"><g id="レイヤー_1-2" data-name="レイヤー 1"><path class="cls-1" d="M23.23,16a30,30,0,0,0-1.46-3.79h-1.2c-1,1.28-2.59,2.92-3.43,3.83h9.48l1.5-1.93A13,13,0,0,1,31.87,17V18.8H30.56v6.09h-.18a13.92,13.92,0,0,1,3.24,2.48v2.08h-1.2c-.29,7.29-1.24,8.2-8.06,8.13l-.8-3.68c3.57.11,4,.11,4.38-.59s.47-2.88.51-3.86H19V39.51h-4V30.94a41.12,41.12,0,0,1-13.2,7.92L.4,36.41c2.08-.91,7-3.13,10.54-7H5.21c-.36,1.09-.4,1.24-.58,1.75l-3.72-1a51.35,51.35,0,0,0,2.66-9.89l3.91,1h7.58V18.8H1.93V16H8.06c-.4-1.39-1-3.1-1.28-3.83H5.36a45.93,45.93,0,0,1-3.21,3.36L0,13.55A24.22,24.22,0,0,0,5,6l4.12.76A21.22,21.22,0,0,1,7.66,9.13h5l1.43-2a13.35,13.35,0,0,1,3.42,2.89v.54A25.15,25.15,0,0,0,19.77,6L24,6.84c-.33.65-.62,1.2-1.28,2.29h6.17L30.34,7.2a14,14,0,0,1,3.65,3v2H25.53c.33.33.58.58,1.71,1.9ZM6.6,24.09c-.11.58-.47,2.18-.58,2.51h9V24.09ZM8.75,16H17L14.7,14.35c.65-.77,1.16-1.39,1.75-2.19h-6.2c.51.48,1,.95,2.19,2.23Zm17.94,5.32V18.8H19v2.51Zm3.21,3.58H26.69v-.8H19V26.6h9.48Z"/><path class="cls-1" d="M38.4,10.69c1.26-2.6,3.77-6.87,12.35-6.87,7.49,0,11.76,3.64,11.76,9.09s-3.85,7.4-8.29,9.58c-5.65,2.76-9.54,4.65-10.59,9.59H62.85v4H38.07c.29-6.48,2.63-11,10-15s9-4.81,9-8.33c0-2.09-1.09-5.36-6.45-5.36s-7.53,3-7.49,9H38.4Z"/><path class="cls-1" d="M91.86,4.83V9.1c-8.67,8.66-9.34,20.46-9.55,27H76.62c.88-13.1,5.19-21,10.13-27.24H76.33c-3.73,0-4.4,1.34-4.56,6.65h-3.6l.54-10.67Z"/><path class="cls-1" d="M101.39,37.76v1.75h-3.9V6.65l4,1.43h22.17l1.57-2A13.85,13.85,0,0,1,129.07,9v2.12h-1.28V39.51h-3.9V37.76Zm0-26.62V34.66h22.5V11.14Zm7.4,18.16V31H105V14.06l3.94,1.38h7.48l1.42-2a13.44,13.44,0,0,1,3.68,3v1.93h-1.28V31h-3.79V29.3Zm0-10.94v8h7.66v-8Z"/><path class="cls-1" d="M148.57,40.49v2.82h-5.12V1l5.36,1.79h21.82l2-2.63a18.88,18.88,0,0,1,4.89,3.9V6.82h-1.65V43.31h-5.12V40.49Zm0-33.67V19.33h22.2V6.82Zm0,16.55V36.49h22.2V23.37Z"/><path class="cls-1" d="M224.48,35.65c-8.89-7-13.26-13.08-16.41-19.66V29.3h2.82l1.93-2.68a18.44,18.44,0,0,1,4.32,3.85v2.68h-9.07V43.31h-5.18V33.15h-8.51V29.3h8.51V18.15c-4.18,7-10.34,12.46-16.93,17.21L183.61,32c6.49-5.18,12.09-10.4,16.74-19.47H184.46v-4h18.43V.42h5.18V8.61h12.36L222.55,6a19.88,19.88,0,0,1,4.8,3.81v2.78H210.7a47,47,0,0,0,17,18.1Z"/><path class="cls-1" d="M237.23,6.73V37.1h29.91l2.25-2.58a17.39,17.39,0,0,1,4.05,3.85v2.69H237.23v2.25H232.1V.94l5.36,1.83h28.36l2-2.53A18,18,0,0,1,272.78,4V6.73Zm27.18,14.1,2.07-2.58a17.19,17.19,0,0,1,4.75,3.81v2.58H258a35.3,35.3,0,0,0,11.85,7.29l-3.38,4.47a34.7,34.7,0,0,1-11.57-10c-1.65,3.53-5.74,8-14,10.63l-2.11-3.29c6.06-2.07,10-5.37,11.52-9.13H239.77V20.83h11.66a44.08,44.08,0,0,0,.56-6h-5.45a49.55,49.55,0,0,1-3.15,5.46l-3.48-1.89A47.3,47.3,0,0,0,243.9,7l5.46.85c-.38,1.13-.56,1.64-1.18,3.24h14l2.07-2.49a17.62,17.62,0,0,1,4.7,3.53v2.77h-11.8a48.43,48.43,0,0,1-.61,6Z"/><path class="cls-1" d="M289.43,14.72c1.6,1,1.84,1.13,3.81,2.45a19.74,19.74,0,0,0,2.16-2.92h-7.94V10.82h9.73c.38-1,.61-1.65.85-2.4l5.26.23a15.25,15.25,0,0,1-.79,2.17h9.59l2-2.45A17.39,17.39,0,0,1,319,11.9v2.35h-3.33l3,1.83c-2,1.51-2.21,1.65-4.14,3a44.82,44.82,0,0,0,5.17,2.68l-2.72,4.42c-2.5-1.55-3.39-2.21-4.57-3.06v9.59h-3.1a94,94,0,0,1,9.45,4.9l-3.57,4.6A93.81,93.81,0,0,0,306,34.85l2-2.17h-.14v-1h-3.58v5.69c0,5.5-1.93,6-8.93,6l-1-4.56c2.3.09,2.82.09,3.34.09,1.88,0,1.88-.75,1.88-2.25V31.65h-3.43v1h-1.41l2.82,1.7A37.43,37.43,0,0,1,288.16,42l-2.44-2.68a32.75,32.75,0,0,0,7.1-6.59h-1.13v-9A38.82,38.82,0,0,1,288,26.1l-1.74-2.49c-.61,4.94-1.41,11.28-7.1,18.9L276,40.07a34.17,34.17,0,0,0,5.12-13.78,32.12,32.12,0,0,1-4,3.1l-1.18-5.74c2.5-.7,3.63-1.08,5.69-1.83.1-1.79.15-2.73.24-6.11l-3,1.83a78.39,78.39,0,0,0-2.73-7.81L279,8c1.46,2.12,2,2.92,2.87,4.28,0-3.43-.05-6.54-.14-9.87L287.13,4h10.2V.42h5.18V4h10.2l2-2.49a15.79,15.79,0,0,1,4.75,3.67V7.85H286.7v5.84c0,4.7-.33,8.84-.42,9.4a40.55,40.55,0,0,0,3.86-2.87c-.9-1.22-1.08-1.46-2.64-3.48Zm6.73,6.68v2.21h11.71V21.4Zm0,4.75v2.4h11.71v-2.4Zm11.09-7.86a23.87,23.87,0,0,1-2.86-4h-3.62a29.09,29.09,0,0,1-3,4Zm1.32-4a21.86,21.86,0,0,0,3.2,3c1-1.31,1.22-1.55,2.21-3Z"/><path class="cls-1" d="M321.18,20.32a51.2,51.2,0,0,0,2.21-12.09l3.1.38a88.52,88.52,0,0,1-1.27,13.21Zm11.1,23h-4.85V.42h4.85Zm31-19.33h-1.6v13.5c0,5.46-1.65,5.83-9.13,5.83l-.94-4.75c1,0,2.12.1,3.11.1,2.07,0,2.07-.66,2.07-2.21V34.94H343.42v8.37h-4.89V19.05l4.89,1.83H356.5l1.78-2.35H336.6V16.79l-2,.7c-.66-3.95-1.17-6.2-1.93-9.21l2.59-.9a79,79,0,0,1,3.24,7.76h9.08V12.65h-9.31V9.59h9.31V7.1H337.4V3.72h10.16V.42h5v3.3h5.55L360,1.22a17.25,17.25,0,0,1,4.71,3.62V7.1H352.55V9.59h4.93l1.93-2.35A17.59,17.59,0,0,1,364,10.77v1.88H352.55v2.49H359l1.93-2.35a17.11,17.11,0,0,1,4.7,3.53v2.21h-6.77a19.45,19.45,0,0,1,4.47,3.29Zm-19.9,0v2.5h13.41V24Zm0,5.51v2.44h13.41V29.49Z"/><path class="cls-1" d="M409.12,43.22a69.59,69.59,0,0,1-5.64-5.41,52.41,52.41,0,0,1-4.8,5.41l-2.58-3v3.05h-4.85V26.15h-9.82V30.8h2.68l2-2.68a15.7,15.7,0,0,1,4,3.81v2.68h-8.65v8.7h-4.8v-8.7h-7V30.8h7V26.15h-7.81V22.29h4.23a47.53,47.53,0,0,0-1.08-5l2.73-.8h-5.88V12.6h7.81V8.51h-7V4.7h7V.42h4.8V4.7H384l2-2.58a16.13,16.13,0,0,1,4.14,3.76V8.51h-8.7V12.6h3.71l2-2.58a16.79,16.79,0,0,1,4.13,3.52V.85l5.65,1.83h8L406.91.09a15.35,15.35,0,0,1,4.8,3.77V6.54H410c-.14,9-1.41,9.64-9.31,9.87L400,12c3.29.05,4.19.09,4.61-.75.33-.66.33-1,.52-4.75h-9V18.48h9.4L407.34,16a14.34,14.34,0,0,1,4.37,3.71v3.06h-1.64a38,38,0,0,1-3.86,10.91A49.26,49.26,0,0,0,412,38.61ZM379.69,22.29c.65-1.64,1.64-4.18,2.21-5.83h-6.63a33.48,33.48,0,0,1,2.63,5.08l-2.68.75Zm11.56-5.83h-7.9l3.3.8a53.12,53.12,0,0,1-3.39,5h2.35l1.88-2.49a15.44,15.44,0,0,1,3.76,3.43Zm4.85,23.75a30.6,30.6,0,0,0,4.65-5.93,41.86,41.86,0,0,1-4.65-9Zm2.73-17.92A38.72,38.72,0,0,0,403,29.91a34.32,34.32,0,0,0,2.17-7.62Z"/><path class="cls-1" d="M442.05,8.32a46.89,46.89,0,0,0,3.34-7.9L450.94,2a47.62,47.62,0,0,1-4.24,6.3h4.71L453.24,6a23.24,23.24,0,0,1,4.56,3.76v3h-2.11a44.43,44.43,0,0,1-3.81,6.07l-3.3-1.65a33.35,33.35,0,0,0,1.79-5H421.26a47.79,47.79,0,0,1-1.55,5.88l-5.27-2a32.94,32.94,0,0,0,3.72-10.25l4,.47c-.14,1.08-.19,1.46-.23,2h4a46,46,0,0,0-2.68-6l3.34-1.6A40.34,40.34,0,0,1,431,6.4l-4.19,1.92Zm8.89,18.39,2.16-2.63a20.5,20.5,0,0,1,4.7,3.81v2.77H438.85V37c0,5.32-2.73,6.35-10.72,6.35l-1.27-5.26c.7,0,2.3.09,3.85.09,3,0,3-.85,3-2.4V30.66H414.91V26.71h18.81V22.76h2.92a29.84,29.84,0,0,0,3-2.77H423.19V16.13h18.67l2-2.16a24.55,24.55,0,0,1,4.71,3.76v2.68h-1.79a76.43,76.43,0,0,1-7.9,4.94v1.36ZM435,8.09a36.86,36.86,0,0,0-2.3-6.73L436.17,0a51.14,51.14,0,0,1,3.95,6Z"/><path class="cls-1" d="M501.5,18.81c-9.36-4.47-15.71-9.26-19.33-13.68-2.4,2.77-7.95,8.13-19.47,13.73l-2-3.29C473,9.17,477.13,3.29,479.16,0l6.16,1c-.52.75-.61.94-.85,1.22,1.79,1.88,7.81,7.38,20,11.52Zm-9.93,10.86A111.73,111.73,0,0,1,503,39l-4.23,4.37c-1.46-1.88-1.93-2.45-3-3.81-14.63,1.51-19.43,2-33,3.15l-.7-5c5.27-.14,5.59-.19,10.2-.33.62-1.56,2.12-5.22,3.34-9.08H461v-4h36l2-2.59a17,17,0,0,1,4.89,3.81v2.82h-22.1a104,104,0,0,1-5.55,8.94c2,0,14.44-.62,16.93-.76-1.74-1.88-3.15-3.29-4.33-4.42Zm-4-14.48,2-2.49a19.34,19.34,0,0,1,4.65,4v2.45H470.46v-4Z"/><path class="cls-1" d="M541.9,27.42V43.31h-5.08V41.53h-17v1.78h-5V25.87a69.41,69.41,0,0,1-5.6,4.27L506.48,27a43.87,43.87,0,0,0,7.9-6.53H507.1V16.65h10.53c.89-1.23,1.36-2,1.88-2.73h-8.75V10.44h10.68c.7-1.46,1-2.12,1.27-2.77H508.93V4.14H524c.56-1.93.7-2.73.94-3.76l5.69.37c-.33,1.13-.52,1.93-1,3.39h11.62L543.4,1.6a18.15,18.15,0,0,1,4.52,3.67v2.4H528.35c-.37.94-1,2.35-1.22,2.77h12.32L541.57,8a19.78,19.78,0,0,1,4.32,3.53v2.35H535.5c1,1.27,1.74,2.12,2.26,2.73h5.55l2.07-2.49a19.23,19.23,0,0,1,4.6,3.62v2.68h-8.13a38.41,38.41,0,0,0,8.23,5.31l-3,4.56a35.83,35.83,0,0,1-4.37-2.91Zm-4.52-4.71c-.89-.94-1.17-1.22-2.12-2.25H520.45c-.66.7-1.41,1.5-2.54,2.63l3.06.8h15.38Zm-17.54,4.71v3.43h17V27.42Zm0,6.72v3.72h17V34.14ZM532.4,16.65a30.14,30.14,0,0,1-1.6-2.73h-5.46c-.89,1.41-1.36,2.12-1.78,2.73Z"/><path class="cls-1" d="M593.87,25.44c-10.58-4.32-15-9.12-16.84-11.28v6.39H572V14.63a46.16,46.16,0,0,1-9.22,6.86H580l1.93-2a25.4,25.4,0,0,1,4.61,3.71v2.73h-2.59a42.54,42.54,0,0,1-6.86,3.76v.24H589.3l2.12-2.49a20.44,20.44,0,0,1,4.66,3.66v2.78h-19v3.67c0,5-1.7,5.78-9.88,5.78l-1.32-4.75c1.42,0,2.59.1,3.86.1,2.12,0,2.12-.8,2.12-2.12V33.86H553.19V29.91h18.67V27.28h3.38c1.65-1.41,1.79-1.56,2.12-1.84h-15.8V22.15a63.49,63.49,0,0,1-6.59,3.1l-2.16-3.38a40.09,40.09,0,0,0,13-8.28H553.19V9.64H572V6.3c-8.18.38-9.07.43-15.28.57l-1.08-3.95c8.13,0,25.2-.76,34-2.54l2.82,4.23c-5.5.66-6.35.75-15.38,1.36V9.64h12.09l2.25-2.54a19.6,19.6,0,0,1,4.71,3.76v2.73H582a42.87,42.87,0,0,0,14.34,6.91Z"/><path class="cls-1" d="M626.41,8.32a46.07,46.07,0,0,0,3.34-7.9L635.3,2a47,47,0,0,1-4.23,6.3h4.7L637.61,6a23.24,23.24,0,0,1,4.56,3.76v3h-2.12a43.48,43.48,0,0,1-3.81,6.07L633,17.21a33.35,33.35,0,0,0,1.79-5H605.63a47.79,47.79,0,0,1-1.55,5.88l-5.27-2a32.9,32.9,0,0,0,3.71-10.25l4.05.47c-.14,1.08-.19,1.46-.24,2h4a49,49,0,0,0-2.68-6L611,.75a41.14,41.14,0,0,1,4.28,5.65l-4.19,1.92Zm8.89,18.39,2.17-2.63a20.5,20.5,0,0,1,4.7,3.81v2.77H623.22V37c0,5.32-2.73,6.35-10.73,6.35l-1.27-5.26c.71,0,2.31.09,3.86.09,3,0,3-.85,3-2.4V30.66H599.28V26.71h18.81V22.76H621A31,31,0,0,0,624,20H607.56V16.13h18.67l2-2.16a24.48,24.48,0,0,1,4.7,3.76v2.68h-1.78a77.51,77.51,0,0,1-7.9,4.94v1.36ZM619.36,8.09a37.63,37.63,0,0,0-2.3-6.73L620.54,0a51.14,51.14,0,0,1,4,6Z"/><path class="cls-1" d="M680,17.87h-5.12V14.48H667.8V43.31h-4.7V14.48h-5.41V11.8a45.58,45.58,0,0,1-4.09,7V43.31h-4.7V24.5c-.94.94-1.13,1.18-2.4,2.45l-2.26-3.15A44.65,44.65,0,0,0,653,9.88l4.65,1.69v-1h5.41V.42h4.7V10.53h1.93l1.32-2a41.63,41.63,0,0,0-3.15-5.36l2.25-1.74a42,42,0,0,1,5.08,4.47V2.68h6.4L683.37.24a14.86,14.86,0,0,1,4.14,3.62V6.63H675.7l-3,2.4a13.74,13.74,0,0,1,2.49,2.54v2.35h7.1l2-2.63a16.29,16.29,0,0,1,4.23,3.81v2.77h-3.85V37.34c0,5.36-2,6-8.33,6l-.94-5.12c1.37,0,2.26.09,2.78.09,1.78,0,1.78-.85,1.78-2.21ZM644.52,11c3.72-3.8,5.65-6.11,7.9-10.91l4.9,1.74a48.79,48.79,0,0,1-10.35,12Zm9.79,24.32c2-5.69,2.72-10.63,3.48-17.26l4.42.66c-1.41,9-2.45,13.07-4.71,18.43Zm18-.1a141.48,141.48,0,0,0-3.1-16.31l3.15-.9c1.74,4.28,4.23,12.51,5,15.19Z"/><path class="cls-1" d="M731.81,43.36C723,37,717,30.29,713.28,20.13c-1.36,4.94-4.09,14.72-20.17,23.23l-2.35-3.53c16.13-9.22,17.77-20.55,18.34-24.12H691.46V11.66h18c.1-1.31.14-2.91.14-3.76V.42h5.27V7.76c0,.85-.09,2.77-.19,3.9h12.8L729.55,9a17.92,17.92,0,0,1,4.8,3.86v2.82H715.87C718,21.87,722.5,31.08,735,38.33Z"/><path class="cls-1" d="M778,18.81c-9.35-4.47-15.7-9.26-19.32-13.68-2.4,2.77-8,8.13-19.47,13.73l-2-3.29C749.59,9.17,753.68,3.29,755.71,0l6.16,1c-.52.75-.61.94-.85,1.22,1.79,1.88,7.81,7.38,20,11.52Zm-9.92,10.86A112.83,112.83,0,0,1,779.5,39l-4.23,4.37c-1.46-1.88-1.93-2.45-3-3.81-14.63,1.51-19.43,2-33,3.15l-.7-5c5.27-.14,5.59-.19,10.2-.33.61-1.56,2.12-5.22,3.34-9.08H737.55v-4h36l2-2.59a17.12,17.12,0,0,1,4.89,3.81v2.82h-22.1c-1.51,2.68-3.57,6.16-5.55,8.94,2,0,14.44-.62,16.93-.76-1.74-1.88-3.15-3.29-4.33-4.42Zm-4-14.48,2-2.49a19.53,19.53,0,0,1,4.65,4v2.45H747v-4Z"/><path class="cls-1" d="M150.05,68.86a33,33,0,0,0-7.81-4.65L143.41,62a41.8,41.8,0,0,1,8.51,3.48ZM145.63,75a27.51,27.51,0,0,0,12.67-6.09,25.8,25.8,0,0,0,6.75-9.8l2.55,1.76C162.16,74.1,152,77.2,143.93,79.25l-1.28-4.6,2-.9Zm7.31-13.78a36.25,36.25,0,0,0-8.16-4.56L146,54.38a49.08,49.08,0,0,1,8.81,3.43Z"/><path class="cls-1" d="M174.7,75c3.75-1,14-3.78,19.43-15.89l2.48,1.82a28.82,28.82,0,0,1-8.8,11.49c-5.18,4.13-9.77,5.47-15,7l-1.2-5,2.11-.82ZM180.9,64a33.53,33.53,0,0,0-8.83-7.29l1.64-2.16a45.4,45.4,0,0,1,9.68,6.26Z"/><path class="cls-1" d="M200.06,74.27A30.06,30.06,0,0,0,205.5,64.1l3.31,1a33,33,0,0,1-6.59,11ZM211.53,57.1c0-.81-.09-2-.18-2.8h3.54c-.06.76-.15,2-.15,2.8v2.58h6.82l.61-.76a3.26,3.26,0,0,1-2.72-3.19A3.22,3.22,0,1,1,224,58.65a10.16,10.16,0,0,1,1.9,1.73v1.93H214.74v13c0,3.63-1.43,4-6.87,4L207.31,76c.68.06,2.23.09,2.93.09,1.29,0,1.29-.47,1.29-1.41V62.31h-6.91c-.14,0-2.28.06-3.77.15V59.53c.58,0,3.13.15,3.77.15h6.91Zm12.22,18.78a50.35,50.35,0,0,0-6.26-10.53l2.17-1.46a56.08,56.08,0,0,1,7.19,9.83Zm-2.81-20.15A1.73,1.73,0,1,0,222.67,54,1.74,1.74,0,0,0,220.94,55.73Z"/><path class="cls-1" d="M237.79,68.92A31.88,31.88,0,0,0,230,64.27L231.15,62a43.64,43.64,0,0,1,8.51,3.48ZM233.37,75c6.61-1.58,14.48-4.57,19.34-15.51l2.51,1.76c-5.5,12.52-14.65,15.76-23.54,18l-1.29-4.63,2.05-.87Zm7.32-13.81a35.88,35.88,0,0,0-8.17-4.56l1.26-2.23a48.19,48.19,0,0,1,8.81,3.42Zm7.07-1.38a19,19,0,0,0-2.45-5.23l1.69-.91a21.42,21.42,0,0,1,3.19,4.86Zm4-1.11a17.5,17.5,0,0,0-2.78-5l1.61-.91a18.48,18.48,0,0,1,3.54,4.48Z"/><path class="cls-1" d="M262.59,76.53C274,75,278.44,70.15,279.38,61.43H263.67V65c0,.94.09,1.87.18,2.81h-3.63c.06-.94.15-1.87.15-2.81V60.38c0-.94-.09-1.87-.15-2.81l3.66,1.2h6.17V56.93c0-.94-.09-1.87-.15-2.81h3.66c-.09.94-.15,1.87-.15,2.81v1.84h5.91L280.67,57A10.81,10.81,0,0,1,284,59.71v2h-1.17c-1.34,13.16-11.14,16.2-19.1,17.55Z"/><path class="cls-1" d="M306.55,65.24a76.57,76.57,0,0,1,7.64,12.46l-3.31,1.81c-.44-1.11-1.23-3-1.35-3.28a174.86,174.86,0,0,1-20.85,2.23l-.35-3.37,3.24-.11a108,108,0,0,0,5.94-17.88l-1.37-1.05.85-2,4.79.91a112.83,112.83,0,0,1-7,19.86c5.59-.2,12-.91,13.57-1.08a57.56,57.56,0,0,0-4.15-7.11Z"/><path class="cls-1" d="M317.72,60.06c.88-1.81,2.63-4.8,8.63-4.8,5.24,0,8.22,2.55,8.22,6.35s-2.69,5.18-5.79,6.7c-3.95,1.93-6.67,3.24-7.4,6.7H334.8v2.8H317.49c.2-4.53,1.84-7.69,7-10.47s6.26-3.36,6.26-5.82c0-1.46-.76-3.74-4.51-3.74S321,59.85,321,64.07h-3.31Z"/><path class="cls-1" d="M346.62,55.26c6.81,0,8.66,5.59,8.66,11.64,0,4.22-.82,11.62-8.66,11.62-7.55,0-8.66-6.82-8.66-11.62C338,63.07,338.54,55.26,346.62,55.26Zm0,20.77c4.8,0,4.91-6.26,4.91-9.13s-.09-9.12-4.91-9.12S341.7,64,341.7,66.9C341.7,69.65,341.76,76,346.62,76Z"/><path class="cls-1" d="M358.9,60.06c.88-1.81,2.63-4.8,8.63-4.8,5.24,0,8.22,2.55,8.22,6.35s-2.69,5.18-5.79,6.7c-3.95,1.93-6.67,3.24-7.4,6.7H376v2.8H358.67c.2-4.53,1.84-7.69,7-10.47S372,64,372,61.52c0-1.46-.76-3.74-4.51-3.74s-5.26,2.07-5.23,6.29H358.9Z"/><path class="cls-1" d="M379.75,59.71c2.08-4,5.94-4.45,8.4-4.45,5.59,0,7.87,2.93,7.87,6.14a4.93,4.93,0,0,1-4,5.06A5.5,5.5,0,0,1,396.57,72c0,3.34-2.34,6.5-8.51,6.5-6.35,0-8.22-3.51-8.8-4.6V70.18h3.39c0,1.67.15,5.85,5.38,5.85,3.31,0,4.89-1.81,4.89-4.27,0-1.46-.82-3.92-4.8-3.92H385.9V65.32h1.63c1.06,0,4.83,0,4.83-3.89,0-2.57-2.11-3.65-4.47-3.65-4.63,0-4.83,3.51-4.89,5.47h-3.25Z"/></g></g></svg>