<svg xmlns="http://www.w3.org/2000/svg" viewBox="0 0 273.07 46.98"><defs><style>.cls-1{fill:#fff;}.cls-2,.cls-4,.cls-5{fill:none;stroke-miterlimit:10;}.cls-2,.cls-5{stroke:#fff;}.cls-2,.cls-4{stroke-width:0.76px;}.cls-3{fill:#3599bd;}.cls-4{stroke:#3599bd;}.cls-5{stroke-width:1.53px;}</style></defs><g id="レイヤー_2" data-name="レイヤー 2"><g id="レイヤー_1-2" data-name="レイヤー 1"><path class="cls-1" d="M4.09,43.5c-1.2.88-1.71,1.28-2,2.07H6.38V46.7H.74c.18-2,.54-2.39,2.65-4,1.4-1.09,1.76-1.46,1.76-2.22a1.33,1.33,0,0,0-1.47-1.37c-1.43,0-1.48,1.27-1.5,1.9H1a3.56,3.56,0,0,1,.55-2A2.69,2.69,0,0,1,3.76,38a2.49,2.49,0,0,1,2.66,2.51C6.42,41.72,5.78,42.26,4.09,43.5Z"/><path class="cls-1" d="M12.68,45.72A2.23,2.23,0,0,1,10.5,47a2.22,2.22,0,0,1-2.19-1.26,7.14,7.14,0,0,1-.67-3.26,7.31,7.31,0,0,1,.67-3.26A2.22,2.22,0,0,1,10.5,38a2.21,2.21,0,0,1,2.18,1.25,7.34,7.34,0,0,1,.67,3.26A7.1,7.1,0,0,1,12.68,45.72ZM10.5,39c-1.37,0-1.63,1.56-1.63,3.45s.2,3.45,1.63,3.45,1.62-1.55,1.62-3.45S11.91,39,10.5,39Z"/><path class="cls-1" d="M17.93,43.5c-1.2.88-1.71,1.28-2,2.07h4.28V46.7H14.58c.18-2,.54-2.39,2.65-4C18.64,41.58,19,41.21,19,40.45a1.33,1.33,0,0,0-1.48-1.37c-1.43,0-1.47,1.27-1.5,1.9H14.79a3.65,3.65,0,0,1,.55-2A2.69,2.69,0,0,1,17.6,38a2.49,2.49,0,0,1,2.66,2.51C20.26,41.72,19.62,42.26,17.93,43.5Z"/><path class="cls-1" d="M24.29,47a2.63,2.63,0,0,1-2.85-2.77h1.2a1.53,1.53,0,0,0,1.63,1.7,1.49,1.49,0,0,0,1.59-1.64,1.36,1.36,0,0,0-.38-1.08,2,2,0,0,0-1.35-.48l-.45,0V41.68a3.29,3.29,0,0,0,.47,0,1.35,1.35,0,0,0,1.46-1.42A1.22,1.22,0,0,0,24.28,39a1.5,1.5,0,0,0-1.52,1.68H21.65A2.55,2.55,0,0,1,24.35,38a2.34,2.34,0,0,1,2.56,2.33,2,2,0,0,1-1.07,1.81,2.1,2.1,0,0,1,1.33,2.11A2.68,2.68,0,0,1,24.29,47Z"/><path class="cls-1" d="M28.85,46.7V45.32h1.38V46.7Z"/><path class="cls-1" d="M9.91,31.44C2.13,31.44,0,23.9,0,18.09c0-3,.27-15.94,10.37-15.94a8.59,8.59,0,0,1,6,2.36C18,6,18.42,7.22,18.92,9.77H13.81a3.48,3.48,0,0,0-3.56-3.33c-4.14,0-4.76,5-5.22,8.75a6.5,6.5,0,0,1,5.77-3c4.72,0,8.55,3.91,8.55,9.13C19.35,26,16.1,31.44,9.91,31.44Zm0-15c-3.06,0-4.65,2.71-4.65,5.34,0,2.94,1.82,5.07,4.45,5.07,2.36,0,4.37-1.82,4.37-5.11C14.08,18.71,12.46,16.43,9.91,16.43Z"/><path class="cls-1" d="M40.35,2.72,25.07,32.17H23.16L38.45,2.72Z"/><path class="cls-1" d="M44.15,46c1.11-8,3.89-12.86,14.1-20.35,6.62-4.82,8.6-7.29,8.6-11.25,0-4.27-3-7.48-7-7.48-6.25,0-6.44,6.49-6.5,9.83H45.45C45.57,12.68,46.07,0,60,0c9.28,0,15.28,6.43,15.28,14.35,0,7.23-5.13,11.32-11,15.4-6.06,4.2-7.61,5.93-9.52,9.71h20.9V46Z"/><path class="cls-1" d="M93.13,46.82A13.89,13.89,0,0,1,83.55,43c-2.48-2.35-3.28-4.33-4-8.47h8.16A5.52,5.52,0,0,0,93.32,40c6.68,0,7.67-8,8.41-14-2.41,4.08-6.8,4.89-9.22,4.89-7.6,0-13.66-6.31-13.66-14.66C78.85,8.78,84,0,93.87,0c12.5,0,15.9,12,15.9,21.34C109.77,26,109.27,46.82,93.13,46.82ZM94.25,7.36c-3.84,0-7,2.84-7,8.16,0,4.77,2.59,8.41,6.61,8.41,4.95,0,7.49-4.33,7.49-8.53C101.36,10.7,98.45,7.36,94.25,7.36Z"/><path class="cls-1" d="M185.18,18.21a41.82,41.82,0,0,0-2.9,12.69H176.9a36.07,36.07,0,0,1,2.67-11.61c2.64-7,5.19-9.44,8.09-12.23l-1.74.2H172.07V2.65h20.66V7.26A28.78,28.78,0,0,0,185.18,18.21Z"/><path class="cls-1" d="M208.09,3.11,192.81,32.56H190.9L206.19,3.11Z"/><path class="cls-1" d="M227.61,46V14.53H215.36V8.66H219A10.08,10.08,0,0,0,228.78.8h6.68V46Z"/><path class="cls-1" d="M131.45,32.79c0,1.83,0,3.19.07,4.09h-1c0-.92.06-2.29.06-4.09V28.85a15.9,15.9,0,0,1-2.36,3.39,17.81,17.81,0,0,1-3.3,2.94,3,3,0,0,0-.56-.78,18.84,18.84,0,0,0,3.32-3,17.48,17.48,0,0,0,2.52-3.74h-2.49c-.78,0-2,0-2.79,0v-1c.71,0,2,0,2.79,0h2.87c0-.49,0-1,0-1.47a10.33,10.33,0,0,0-.07-1.36l1.07.1c.12,0,.21.07.21.14s-.07.16-.25.27c0,.77,0,1.55,0,2.32h2.9c.88,0,2.07,0,2.78,0v1c-.74,0-1.93,0-2.78,0h-2.52A12.64,12.64,0,0,0,134,31,14,14,0,0,0,137.5,34a3.27,3.27,0,0,0-.79.82,16.37,16.37,0,0,1-3.46-3.13,11.82,11.82,0,0,1-1.8-3Z"/><rect class="cls-2" x="121.26" y="21.14" width="19.62" height="19.62" transform="translate(60.28 -83.62) rotate(45)"/><path class="cls-3" d="M258.23,29.86h-2.69c-.73,0-1.64,0-2.23,0v-1c.59,0,1.5,0,2.23,0h2.69V27c0-1.39,0-2.12-.06-2.52l1.08.1c.15,0,.24.06.24.13s-.09.17-.28.29v4h2.7c.65,0,1.64,0,2.24,0v1c-.6,0-1.59,0-2.24,0h-2.7V35h3.21c.88,0,2.07,0,2.78-.06v1c-.74,0-1.93-.06-2.78-.06h-7.37c-.77,0-2,0-2.79.06V35c.73,0,2,.06,2.79.06h3.18Z"/><rect class="cls-4" x="248.84" y="21.14" width="19.62" height="19.62" transform="translate(97.65 -173.83) rotate(45)"/><line class="cls-5" x1="149.75" y1="25.88" x2="163.68" y2="25.88"/><polyline class="cls-5" points="156.61 32.94 163.68 25.88 156.61 18.81"/><path class="cls-1" d="M118.82,2.76l1.8,7.62,1.84-7.62h1.24l1.83,7.62,1.83-7.62h1.33l-2.33,9.38h-1.61l-1.69-6.66-1.68,6.66h-1.61l-2.31-9.38Z"/><path class="cls-1" d="M135.48,6.65V7.89h-3.76v3h4.22v1.24h-5.67V2.76h5.54V4h-4.09V6.65Z"/><path class="cls-1" d="M140.29,2.76a4.42,4.42,0,0,1,3.34,1A4.91,4.91,0,0,1,145,7.43a4.82,4.82,0,0,1-1.57,3.83,4.58,4.58,0,0,1-3.25.85h-2.36V2.76Zm.27,8.11a2.58,2.58,0,0,0,2.18-.82,4.15,4.15,0,0,0,.75-2.64,3.65,3.65,0,0,0-1-2.77A3,3,0,0,0,140.24,4h-1v6.87Z"/><path class="cls-3" d="M252.37,5.35a1.53,1.53,0,0,0-1.67-1.51c-.87,0-1.52.51-1.52,1.2a1,1,0,0,0,.51.88,16.07,16.07,0,0,0,1.6.75c1.54.65,1.77.8,2.13,1.18A2.38,2.38,0,0,1,254,9.51c0,1.68-1.27,2.77-3.22,2.77A3.32,3.32,0,0,1,248,11a3.31,3.31,0,0,1-.55-1.94h1.4a1.87,1.87,0,0,0,2,1.95c1,0,1.7-.53,1.7-1.3a1.23,1.23,0,0,0-.62-1,7.11,7.11,0,0,0-1.53-.75,7,7,0,0,1-1.93-1.06,2.19,2.19,0,0,1-.75-1.69,2.72,2.72,0,0,1,3-2.61,3,3,0,0,1,2.54,1.16,2.85,2.85,0,0,1,.48,1.61Z"/><path class="cls-3" d="M259.7,2.73l3.2,9.38h-1.5l-.69-2.19H257.3l-.7,2.19h-1.49l3.19-9.38ZM259,4.46l-1.32,4.22h2.65Z"/><path class="cls-3" d="M270.27,2.75V4h-2.63v8.11h-1.45V4h-2.61V2.75Z"/></g></g></svg>