<?xml version="1.0" encoding="utf-8"?>
<!-- Generator: Adobe Illustrator 25.4.8, SVG Export Plug-In . SVG Version: 6.00 Build 0)  -->
<svg version="1.1" id="レイヤー_1" xmlns="http://www.w3.org/2000/svg" xmlns:xlink="http://www.w3.org/1999/xlink" x="0px"
	 y="0px" viewBox="0 0 273.1 47" style="enable-background:new 0 0 273.1 47;" xml:space="preserve">
<style type="text/css">
	.st0{fill:#FFFFFF;}
	.st1{fill:none;stroke:#FFFFFF;stroke-width:0.76;stroke-miterlimit:10;}
	.st2{fill:#3599BD;}
	.st3{fill:none;stroke:#3599BD;stroke-width:0.76;stroke-miterlimit:10;}
	.st4{fill:none;stroke:#FFFFFF;stroke-width:1.53;stroke-miterlimit:10;}
</style>
<g id="レイヤー_2_00000046314470664288616270000018212513138575225019_">
	<g id="レイヤー_1-2">
		<path class="st0" d="M4.1,43.5c-1.2,0.9-1.7,1.3-2,2.1h4.3v1.1H0.7c0.2-2,0.5-2.4,2.7-4c1.4-1.1,1.8-1.5,1.8-2.2
			c0-0.7-0.5-1.4-1.3-1.4c-0.1,0-0.1,0-0.2,0c-1.4,0-1.5,1.3-1.5,1.9H1c0-0.7,0.2-1.4,0.5-2c0.5-0.7,1.4-1,2.2-1
			c1.4-0.1,2.6,0.9,2.7,2.3c0,0.1,0,0.1,0,0.2C6.4,41.7,5.8,42.3,4.1,43.5z"/>
		<path class="st0" d="M12.7,45.7c-0.4,0.8-1.3,1.3-2.2,1.3c-0.9,0.1-1.8-0.4-2.2-1.3c-0.5-1-0.7-2.1-0.7-3.3c0-1.1,0.2-2.2,0.7-3.3
			c0.4-0.8,1.3-1.3,2.2-1.2c0.9-0.1,1.8,0.4,2.2,1.2c0.5,1,0.7,2.1,0.7,3.3C13.4,43.6,13.2,44.7,12.7,45.7z M10.5,39
			c-1.4,0-1.6,1.6-1.6,3.5s0.2,3.5,1.6,3.5s1.6-1.5,1.6-3.5S11.9,39,10.5,39z"/>
		<path class="st0" d="M17.9,43.5c-1.2,0.9-1.7,1.3-2,2.1h4.3v1.1h-5.6c0.2-2,0.5-2.4,2.6-4c1.4-1.1,1.8-1.5,1.8-2.2
			c0-0.7-0.5-1.4-1.3-1.4c-0.1,0-0.1,0-0.2,0c-1.4,0-1.5,1.3-1.5,1.9h-1.2c0-0.7,0.2-1.4,0.6-2c0.6-0.7,1.4-1,2.3-1
			c1.4-0.1,2.6,0.9,2.7,2.3c0,0.1,0,0.1,0,0.2C20.3,41.7,19.6,42.3,17.9,43.5z"/>
		<path class="st0" d="M24.3,47c-1.4,0.1-2.7-0.9-2.8-2.4c0-0.1,0-0.2,0-0.4h1.2c-0.1,0.8,0.5,1.6,1.3,1.7c0.1,0,0.2,0,0.3,0
			c0.8,0.1,1.5-0.6,1.6-1.4c0-0.1,0-0.2,0-0.3c0-0.4-0.1-0.8-0.4-1.1c-0.4-0.3-0.9-0.5-1.4-0.5h-0.5v-1c0.2,0,0.3,0,0.5,0
			c0.7,0.1,1.4-0.5,1.5-1.2c0-0.1,0-0.1,0-0.2c0-0.7-0.5-1.2-1.2-1.3c-0.1,0-0.1,0-0.2,0c-0.8,0-1.5,0.6-1.5,1.5c0,0.1,0,0.1,0,0.2
			h-1.1c-0.1-1.4,1-2.6,2.4-2.7c0.1,0,0.2,0,0.3,0c1.3-0.1,2.4,0.8,2.5,2.1c0,0.1,0,0.1,0,0.2c0,0.8-0.4,1.5-1.1,1.8
			c0.9,0.3,1.4,1.2,1.3,2.1c0,1.5-1.1,2.7-2.6,2.8C24.5,47,24.4,47,24.3,47z"/>
		<path class="st0" d="M28.9,46.7v-1.4h1.4v1.4H28.9z"/>
		<path class="st0" d="M9.9,31.4C2.1,31.4,0,23.9,0,18.1c0-3,0.3-15.9,10.4-15.9c2.2,0,4.4,0.8,6,2.4C18,6,18.4,7.2,18.9,9.8h-5.1
			c-0.1-1.9-1.7-3.4-3.6-3.3c-4.1,0-4.8,5-5.2,8.8c1.2-2,3.4-3.1,5.8-3c4.7,0,8.6,3.9,8.6,9.1C19.4,26,16.1,31.4,9.9,31.4z
			 M9.9,16.4c-3.1,0-4.7,2.7-4.7,5.3c0,2.9,1.8,5.1,4.4,5.1c2.4,0,4.4-1.8,4.4-5.1C14.1,18.7,12.5,16.4,9.9,16.4L9.9,16.4z"/>
		<path class="st0" d="M40.3,2.7L25.1,32.2h-1.9L38.5,2.7H40.3z"/>
		<path class="st0" d="M44.2,46c1.1-8,3.9-12.9,14.1-20.4c6.6-4.8,8.6-7.3,8.6-11.2c0-4.3-3-7.5-7-7.5c-6.2,0-6.4,6.5-6.5,9.8h-7.9
			C45.6,12.7,46.1,0,60,0c9.3,0,15.3,6.4,15.3,14.4c0,7.2-5.1,11.3-11,15.4c-6.1,4.2-7.6,5.9-9.5,9.7h20.9V46H44.2z"/>
		<path class="st0" d="M93.1,46.8c-3.6,0-7-1.4-9.6-3.8c-2.5-2.3-3.3-4.3-4-8.5h8.2c0,3,2.5,5.5,5.6,5.5c0,0,0,0,0,0
			c6.7,0,7.7-8,8.4-14c-2.4,4.1-6.8,4.9-9.2,4.9c-7.6,0-13.7-6.3-13.7-14.7C78.8,8.8,84,0,93.9,0c12.5,0,15.9,12,15.9,21.3
			C109.8,26,109.3,46.8,93.1,46.8z M94.2,7.4c-3.8,0-7,2.8-7,8.2c0,4.8,2.6,8.4,6.6,8.4c4.9,0,7.5-4.3,7.5-8.5
			C101.4,10.7,98.4,7.4,94.2,7.4z"/>
		<path class="st0" d="M185.2,18.2c-1.6,4.1-2.6,8.3-2.9,12.7h-5.4c0.2-4,1.1-7.9,2.7-11.6c2.6-7,5.2-9.4,8.1-12.2l-1.7,0.2h-13.8
			V2.7h20.7v4.6C189.4,10.3,186.8,14,185.2,18.2z"/>
		<path class="st0" d="M208.1,3.1l-15.3,29.5h-1.9l15.3-29.5H208.1z"/>
		<path class="st0" d="M227.6,46V14.5h-12.2V8.7h3.6c4.7,0,8.7-3.3,9.8-7.9h6.7V46H227.6z"/>
		<path class="st0" d="M131.4,32.8c0,1.8,0,3.2,0.1,4.1h-1c0-0.9,0.1-2.3,0.1-4.1v-3.9c-0.6,1.2-1.4,2.4-2.4,3.4
			c-1,1.1-2.1,2.1-3.3,2.9c-0.1-0.3-0.3-0.6-0.6-0.8c1.2-0.9,2.3-1.9,3.3-3c1-1.1,1.8-2.4,2.5-3.7h-2.5c-0.8,0-2,0-2.8,0v-1
			c0.7,0,2,0,2.8,0h2.9c0-0.5,0-1,0-1.5c0-0.5,0-0.9-0.1-1.4l1.1,0.1c0.1,0,0.2,0.1,0.2,0.1s-0.1,0.2-0.2,0.3c0,0.8,0,1.5,0,2.3h2.9
			c0.9,0,2.1,0,2.8,0v1c-0.7,0-1.9,0-2.8,0h-2.5c0.5,1.2,1.2,2.3,2.1,3.3c1,1.2,2.2,2.2,3.5,3c-0.3,0.2-0.6,0.5-0.8,0.8
			c-1.3-0.9-2.5-1.9-3.5-3.1c-0.7-0.9-1.4-1.9-1.8-3V32.8z"/>
		
			<rect x="121.3" y="21.1" transform="matrix(0.7071 -0.7071 0.7071 0.7071 16.5094 101.7481)" class="st1" width="19.6" height="19.6"/>
		<path class="st2" d="M258.2,29.9h-2.7c-0.7,0-1.6,0-2.2,0v-1c0.6,0,1.5,0,2.2,0h2.7V27c0-1.4,0-2.1-0.1-2.5l1.1,0.1
			c0.1,0,0.2,0.1,0.2,0.1s-0.1,0.2-0.3,0.3v4h2.7c0.6,0,1.6,0,2.2,0v1c-0.6,0-1.6,0-2.2,0h-2.7v5h3.2c0.9,0,2.1,0,2.8-0.1v1
			c-0.7,0-1.9-0.1-2.8-0.1H255c-0.8,0-2,0-2.8,0.1V35c0.7,0,2,0.1,2.8,0.1h3.2L258.2,29.9z"/>
		
			<rect x="248.8" y="21.1" transform="matrix(0.7071 -0.7071 0.7071 0.7071 53.8756 191.9635)" class="st3" width="19.6" height="19.6"/>
		<line class="st4" x1="149.8" y1="25.9" x2="163.7" y2="25.9"/>
		<polyline class="st4" points="156.6,32.9 163.7,25.9 156.6,18.8 		"/>
		<path class="st2" d="M252.4,5.3c0-0.8-0.7-1.5-1.5-1.5c0,0-0.1,0-0.1,0c-0.9,0-1.5,0.5-1.5,1.2c0,0.4,0.2,0.7,0.5,0.9
			c0.5,0.3,1.1,0.5,1.6,0.8c1.5,0.7,1.8,0.8,2.1,1.2c0.4,0.5,0.6,1.1,0.6,1.7c0,1.7-1.3,2.8-3.2,2.8c-1.1,0.1-2.1-0.4-2.8-1.3
			c-0.4-0.6-0.6-1.3-0.6-1.9h1.4c0,1,0.8,1.9,1.8,2c0.1,0,0.1,0,0.2,0c1,0,1.7-0.5,1.7-1.3c0-0.4-0.3-0.8-0.6-1
			c-0.5-0.3-1-0.6-1.5-0.8c-0.7-0.2-1.3-0.6-1.9-1.1c-0.5-0.4-0.8-1-0.8-1.7c0.1-1.5,1.3-2.7,2.8-2.6c0.1,0,0.1,0,0.2,0
			c1-0.1,1.9,0.4,2.5,1.2c0.3,0.5,0.5,1,0.5,1.6L252.4,5.3z"/>
		<path class="st2" d="M259.7,2.7l3.2,9.4h-1.5l-0.7-2.2h-3.4l-0.7,2.2h-1.5l3.2-9.4L259.7,2.7z M259,4.5l-1.3,4.2h2.6L259,4.5z"/>
		<path class="st2" d="M270.3,2.8V4h-2.6v8.1h-1.5V4h-2.6V2.8H270.3z"/>
	</g>
</g>
<g>
	<path class="st0" d="M125.8,2.8V4h-2.6v7.9h-1.4V4h-2.6V2.8H125.8z"/>
	<path class="st0" d="M132.8,6.5V2.8h1.4v9.2h-1.4V7.7h-3.9v4.2h-1.4V2.8h1.4v3.8H132.8z"/>
	<path class="st0" d="M138,2.8v5.3c0,1.1,0,1.4,0.2,1.8c0.3,0.6,0.9,1,1.8,1c0.9,0,1.6-0.4,1.9-1.2c0.1-0.3,0.1-0.6,0.1-1.6V2.8h1.4
		v5.3c0,1.4,0,1.7-0.3,2.3c-0.5,1.1-1.7,1.7-3.1,1.7c-1.5,0-2.7-0.6-3.2-1.7c-0.3-0.5-0.3-0.9-0.3-2.3V2.8H138z"/>
</g>
</svg>
