<svg xmlns="http://www.w3.org/2000/svg" viewBox="0 0 306.19 309.33"><defs><style>.cls-1{stroke:#000;stroke-linecap:round;stroke-linejoin:round;stroke-width:0.25px;}.cls-2{opacity:0.9;}</style></defs><g id="レイヤー_2" data-name="レイヤー 2"><g id="レイヤー_1-2" data-name="レイヤー 1"><path d="M10,88.17a12.58,12.58,0,0,0,2.17,4.45c1.18,1.55,2.28,2.4,4.9,3.83a5.82,5.82,0,0,0-1.21,1.41,14.09,14.09,0,0,1-5-4.18A11.56,11.56,0,0,1,9.12,90.3,10.11,10.11,0,0,1,8.56,92a10.25,10.25,0,0,1-3.43,4.27A15,15,0,0,1,1.8,98a4.18,4.18,0,0,0-.87-1.48,11.39,11.39,0,0,0,4.49-2.84,9.11,9.11,0,0,0,2.36-5.46H5c-.93,0-2.46,0-3.38.07V86.52c.87,0,2.41.07,3.38.07h3c0-.75,0-1.85.06-4.25l1.75.19c.24,0,.4.13.4.27s-.11.19-.4.29c0,1.36-.06,2.51-.11,3.5h3.62c1.07,0,2.51,0,3.38-.07v1.72c-.9,0-2.35-.07-3.38-.07Z"/><path d="M29.64,89.46l-1.7,0H24.15l-1.7,0V88a27.81,27.81,0,0,1-3.69,2.35,5.12,5.12,0,0,0-.93-1.67A16.22,16.22,0,0,0,25.38,82l1.65.57c.22.07.32.18.32.29s-.07.17-.34.28A11.08,11.08,0,0,0,29.81,86a19.56,19.56,0,0,0,4.49,2.35,6.18,6.18,0,0,0-1,1.73,26,26,0,0,1-3.62-2Zm2.21,8.09c-.39-.49-.76-1-1.19-1.46-1.65.31-2.7.46-4.84.7l-3.4.34-2.28.24c-.13.2-.25.3-.35.3s-.19-.12-.23-.22l-.47-1.78h.54c.61,0,1.21,0,1.82-.07A19,19,0,0,0,22.52,94c.26-.44.48-.89.72-1.33H22.13c-.83,0-2.31,0-3,0V91c.7,0,2.17.07,3,.07h8c.93,0,2.27,0,3-.07v1.68c-.8,0-2.14,0-3,0h-5c-.16.26-.28.48-.38.65-.66,1.07-.95,1.54-1.43,2.19l1.33-.1c2-.15,3.35-.29,4.74-.49-.44-.39-.92-.73-1.39-1.11l1.09-1a17.24,17.24,0,0,1,4.14,3.69Zm-3.91-9.67c.5,0,1,0,1.47,0-.28-.19-.53-.39-.77-.58A11.52,11.52,0,0,1,26,84.33a16.81,16.81,0,0,1-2.71,3c-.2.18-.41.36-.61.51.51,0,1,0,1.51,0Z"/><path d="M40,95.5c1.25-.26,2.55-.55,3.91-.89L44.08,96c-2.4.63-3.83.95-7.28,1.6l-.12.19c-.06.12-.13.17-.22.17s-.18-.07-.24-.23l-.56-1.61c.87-.1,1.75-.22,2.65-.37V91.43h-.49c-.73,0-1.68,0-2.38.06V89.84c.65,0,1.62,0,2.38,0h.49V85.67c0-1.76,0-2.17-.05-2.72.38,0,.94,0,1.45,0H46.8c.69,0,1.53,0,2,0v1.58c-.56,0-1.46,0-2,0H40v.8h5.28c.7,0,1.75,0,2.38,0v1.56c-.63,0-1.68-.05-2.38-.05H40v.8h5.28c.7,0,1.75,0,2.38-.05v1.57c-.63,0-1.68,0-2.38,0H40v.87h8.19c.68,0,1.78,0,2.38,0v1.65c-.63,0-1.73-.06-2.38-.06h-5a8.81,8.81,0,0,0,1.68,1.88,19,19,0,0,0,2.72-1.71l1.38.89a.24.24,0,0,1,.13.19c0,.1-.12.15-.3.15h-.16c-.88.53-1.64,1-2.51,1.39a17.34,17.34,0,0,0,4.86,2.06,12,12,0,0,0-1,1.44,16.68,16.68,0,0,1-5.73-3,9.53,9.53,0,0,1-2.7-3.32H40Z"/><path class="cls-1" d="M19.27,132.81c0,2.59,0,4.76.07,6h-3.6c.07-1.33.1-3.23.1-6v-5.67H8.63c-1.87,0-4.93.07-6.76.13v-3.4c1.76.07,4.82.14,6.76.14h7.21V112H10c-1.87,0-4.93.07-6.8.14v-3.4c1.77.07,4.83.14,6.8.14H25.22c2.14,0,5.07-.07,6.8-.14v3.4c-1.83-.1-4.72-.14-6.8-.14H19.27v12h7.24c2.15,0,5-.07,6.77-.14v3.4c-1.8-.1-4.69-.13-6.77-.13H19.27ZM7.68,112.89a50.33,50.33,0,0,1,5.41,8.37L9.92,123c-2.48-5-2.78-5.55-4.86-8.44Zm13.57,8.88a43.46,43.46,0,0,0,5-9.08l3.3,1.56a.47.47,0,0,1,.31.41c0,.24-.28.37-.92.41a69,69,0,0,1-5.1,8.23Z"/><path class="cls-1" d="M40.8,138.12H37.36q.11-2,.1-6.33V115.2c0-2.78,0-4.28-.1-5.4.92,0,1.74.07,2.89.07H61c1.19,0,2,0,2.89-.07,0,1.09-.11,3.36-.11,5.4v16.12c0,2.85,0,4.66.11,6H60.41v-2.38H40.8ZM49,113H40.8v7.52H49ZM40.8,123.64v8.15H49v-8.15Zm19.61-3.13V113H52.22v7.52Zm-8.19,11.28h8.19v-8.15H52.22Z"/><path class="cls-1" d="M86.87,116.43c1.93-.38,3.87-.78,5.88-1.26l.13,3c-2.27.58-3.12.82-6,1.33,0,.81.06,1.29.06,2.21,0,.34.07,1.12.07,1.56,0,2-1.15,2.72-6.29,2.72h-.24a13.25,13.25,0,0,0-.64-3.5,21.54,21.54,0,0,0,2.21.14c1.5,0,1.63-.14,1.63-1.43v-1.12l-4.18.74-.24.31a.5.5,0,0,1-.44.27c-.27,0-.34-.13-.44-.54l-.72-3.2q3-.25,6-.71v-3.06H80.85c-.92,0-2,0-2.72.07v-3.06c.75,0,2,.07,2.72.07h2.82a19.07,19.07,0,0,0-.27-3.54l3.7.27c.28,0,.48.14.48.34s-.17.41-.61.65a16.38,16.38,0,0,0-.1,2.28h3c.75,0,2,0,2.72-.07V114c-.72,0-1.8-.07-2.72-.07h-3Zm-1.23,22.2H82.31c.07-.82.07-1.94.07-3.61V130c0-1.09,0-2.42-.07-3,1.19.07,2.21.07,3.74.07h15.06c1.5,0,2.55,0,3.74-.07-.07.61-.1,1.94-.1,3v4.79c0,1.6,0,2.76.1,3.54h-3.33V137.2H85.64Zm15.88-4.56v-3.94H85.64v3.94ZM104,121c0,2.21,0,3.91.1,5h-3.44c.07-1.19.11-2.83.11-5v-3.5H97.1a9.21,9.21,0,0,1-5.41,8.33,12.64,12.64,0,0,0-1.83-2.89c3.4-2,4-3.47,4-9.14,0-2-.06-4.12-.17-4.93l2.32.71a41.92,41.92,0,0,0,9.55-2l2.34,2.18a.48.48,0,0,1,.17.34c0,.2-.2.34-.51.34h-.54A83.81,83.81,0,0,1,97.2,112v2.45h9.15c.74,0,2,0,2.72,0v3.09c-.72,0-1.81-.07-2.72-.07H104Z"/><path class="cls-1" d="M125.18,127h-2.89c-1.87,0-4.93.07-6.76.14V123.7c1.77.07,4.83.14,6.76.14h2.89V118.2h-7.75c-.13.37-.3.71-.47,1.12a26,26,0,0,1-3.91,6.73,22.46,22.46,0,0,0-2.52-2.48c3.23-4.52,4.76-8.16,6.09-14.55l3.19.88c.55.14.82.37.82.65s-.24.44-.95.68a37.47,37.47,0,0,1-1.06,3.8h6.56v-2.65c0-2.72,0-4.14-.1-5.1l3.57.21c.38,0,.58.17.58.34s-.17.41-.65.68V115h4.9c2,0,5-.06,6.8-.13v3.43c-1.77-.07-4.76-.13-6.8-.13h-4.9v5.64h3.2c2.14,0,5,0,6.76-.14v3.44c-1.8-.07-4.69-.14-6.76-.14h-3.2v7h6.87c2.14,0,5.07-.06,6.8-.13v3.43c-1.84-.1-4.73-.13-6.8-.13H117.6c-1.87,0-4.93.06-6.76.13v-3.43c1.73.07,4.82.13,6.76.13h7.58Z"/><path d="M6.35,147.52a11,11,0,0,0,0,14H5.5a10.22,10.22,0,0,1,0-14Z"/><path d="M10.34,157.32c.77-.2,1.49-.44,2.34-.75l.11.82a36.41,36.41,0,0,1-4.33,1.46c-.13.19-.21.28-.3.28A.25.25,0,0,1,8,159l-.45-1c.71-.14,1.32-.26,1.87-.39v-3.75H8.65c-.3,0-.67,0-.9,0v-1c.23,0,.6,0,.9,0h.72v-3.47H8.51c-.28,0-.67,0-.89,0v-.93h4.63v.93c-.22,0-.62,0-.9,0h-1v3.47h.89c.28,0,.66,0,.89,0v1c-.23,0-.61,0-.89,0h-.89Zm4.5-2.67c.2,0,.3.09.3.18s-.07.16-.3.25c0,2.27-.05,2.75-.34,3.51a3.92,3.92,0,0,1-2.08,2.16,8.05,8.05,0,0,1-1.94.75,4.29,4.29,0,0,0-.52-.9,10.86,10.86,0,0,0,2.07-.73,3.25,3.25,0,0,0,1.55-1.74,7.33,7.33,0,0,0,.27-2.19,7.87,7.87,0,0,0-.11-1.4Zm1.74-4.05a16.31,16.31,0,0,1-1.24,2.29c1.35-.07,2.68-.19,4-.34a15.07,15.07,0,0,0-1.15-1.25l.61-.58a11.23,11.23,0,0,1,2.61,3l-.9.63c-.21-.37-.44-.73-.66-1.11-1.25.2-1.83.27-3.37.44l-3.08.33c-.15.18-.21.24-.29.24s-.16-.08-.22-.24l-.33-1,1.67-.08a17.63,17.63,0,0,0,1.25-2.35H13.81c-.43,0-1.06,0-1.5,0v-1c.44,0,1.07,0,1.5,0h2.32v-1.12c0-.2,0-.65,0-1l1.05.1c.2,0,.29.06.29.15s-.09.18-.3.3v1.53H20c.44,0,1.07,0,1.49,0v1c-.42,0-1.05,0-1.49,0Zm.46,3.93c.17,0,.26.06.26.15s-.09.18-.28.3c0,.31,0,.75,0,1.41V159c0,1,0,1.77,0,2.19H16c0-.53,0-1.23,0-2.19v-2.58c0-.9,0-1.56-.05-2Zm2.2,5.47c0,.24.09.3.51.3.71,0,.73-.07.76-1.72a4.18,4.18,0,0,0,1,.37c-.1,1.56-.19,1.86-.64,2.12a3.49,3.49,0,0,1-1.28.18c-1,0-1.33-.24-1.33-1v-4.95c0-.36,0-.75,0-1l1,.1c.19,0,.27.06.27.15s-.08.18-.29.3c0,.15,0,.17,0,.41Z"/><path d="M24.71,153.67H23.8l-.9,0v-.94h1.81v-3H22.65v-.93c.22,0,.6,0,.89,0h3.29c.29,0,.67,0,.9,0v.93a8.94,8.94,0,0,0-.9,0H25.66v3h2v.94l-.91,0H25.66v3.15a23.15,23.15,0,0,0,2.34-1l.21.87c-1.11.57-3,1.39-4.65,2.05-.12.26-.16.33-.26.33a.28.28,0,0,1-.23-.15l-.61-1c.71-.18,1.48-.42,2.25-.69Zm7.71,2.42c0,.76,0,2,0,3.24,0,.25,0,.57,0,.7,0,.63-.13.92-.49,1.11a3.66,3.66,0,0,1-1.94.3,2.33,2.33,0,0,0-.3-1.14c.47,0,.72,0,1.08,0,.58,0,.62-.06.62-.62v-2.8c-1,.66-2.1,1.29-3.56,2.1l0,.16c-.05.15-.12.21-.23.21a.24.24,0,0,1-.2-.12l-.68-1a29.08,29.08,0,0,0,4.71-2.44v-4.5H29.77c-.63,0-1.47,0-2.09,0v-1c.57,0,1.43,0,2.09,0h1.68c0-1.47,0-2.4-.09-2.75l1.14.11c.15,0,.22.07.22.15s-.07.16-.26.28c0,.42,0,.51,0,2.21h2c.6,0,1.58,0,2.09,0v1c-.54,0-1.52,0-2.09,0h-2v.7a17.1,17.1,0,0,0,.66,2.28,14.48,14.48,0,0,0,2.27-1.78l.79.63c.12.09.15.16.15.24s-.07.15-.22.15l-.23,0a18.9,18.9,0,0,1-2.44,1.5c.14.3.28.59.45.89a11.48,11.48,0,0,0,2.86,3.43,2.35,2.35,0,0,0-.83.83,12.61,12.61,0,0,1-2.67-3.54,11,11,0,0,1-.79-1.8ZM29,152.44a11.84,11.84,0,0,1,2,2.3l-.82.63a12.4,12.4,0,0,0-1.79-2.31ZM33.75,148a8.42,8.42,0,0,1,1.6,1.61l-.75.66a9.66,9.66,0,0,0-1.44-1.64Z"/><path d="M45.05,152.64A12.2,12.2,0,0,0,47.17,157a10.82,10.82,0,0,0,4.35,3.37,8.6,8.6,0,0,0-.9.93,12.41,12.41,0,0,1-4.29-3.7,10.6,10.6,0,0,1-1.77-3.77,10,10,0,0,1-.68,2.4,9.15,9.15,0,0,1-3,3.77,12.51,12.51,0,0,1-2.9,1.51,4.07,4.07,0,0,0-.58-.88,10,10,0,0,0,4-2.54,9,9,0,0,0,2.23-5.17,1.57,1.57,0,0,1,0-.24H41c-.83,0-2.18,0-3,.06v-1c.77,0,2.12.06,3,.06h2.8c0-.71.06-1.71.08-4l1.08.17c.23,0,.34.1.34.22s-.09.18-.34.27c0,1.32-.07,2.4-.12,3.32h3.46c.94,0,2.23,0,3-.06v1c-.81,0-2.08-.06-3-.06Z"/><path d="M62.56,152.43l.82.75c.12.12.17.18.17.24s-.06.21-.55.3a18.68,18.68,0,0,1-2.9,1.84c0,.24,0,.48,0,.72h3.44c.94,0,2.22,0,3-.06v1c-.79,0-2.07,0-3,0H60.07v1.08c0,.27,0,1.07,0,1.59,0,0,0,.08,0,.21,0,1.08-.5,1.34-2.58,1.35a2.56,2.56,0,0,0-.29-1.17c.57,0,.87.06,1.27.06s.55-.09.55-.63v-2.49H55.63c-.83,0-2.17,0-3,0v-1c.77,0,2.13.06,3,.06h3.45a10.21,10.21,0,0,0-.12-1.66l.95.07a14,14,0,0,0,1.69-1.11H57.55c-.63,0-1.51,0-2.09,0v-1c.58,0,1.46,0,2.09,0h4.8Zm-1.35-1.82a14.11,14.11,0,0,0,1.8-3.09l1,.5c.12.06.17.1.17.16s-.08.17-.3.21c-.75,1.17-1.07,1.65-1.51,2.22h1c.74,0,1.9,0,2.55-.06,0,.54,0,.81,0,1.14v.38c0,.37,0,.82,0,1.32H64.81c0-.44,0-1,0-1.32v-.54H54.22v.54c0,.34,0,.88,0,1.32h-1.1c0-.5,0-.95,0-1.32v-.38c0-.33,0-.6,0-1.14.67,0,1.7.06,2.67.06Zm-6-2.89A8.29,8.29,0,0,1,57,150l-1,.6a12.19,12.19,0,0,0-1.52-2.31Zm3.68-.18A9.33,9.33,0,0,1,60.14,150l-1,.42A11.17,11.17,0,0,0,58,147.93Z"/><path d="M75.16,148.45c0-.4,0-.73,0-1l1,.11q.27,0,.27.15c0,.09-.09.18-.3.3v1.15h2.28c.93,0,2.22,0,3-.06v1c-.77,0-2.12-.06-3-.06H71.09v3.45a14.59,14.59,0,0,1-.44,4.25,8.63,8.63,0,0,1-2,3.52,3.08,3.08,0,0,0-.75-.73,8,8,0,0,0,2.22-5.42,4.7,4.7,0,0,1-.53.38l-1.09.67c-.11.23-.17.3-.25.3s-.16-.07-.21-.18l-.44-.91a17.07,17.07,0,0,0,2.56-1.32c0-.21,0-.44,0-.66v-2.94c0-.45,0-1,0-1.32h5.07Zm-6.69,2a7,7,0,0,1,1.24,2.21l-.91.46A9.12,9.12,0,0,0,67.71,151Zm8.26,4.41c0,.17,0,.32,0,.48a12.44,12.44,0,0,1,2.72,2.7l-.72.77a11.62,11.62,0,0,0-2.19-2.58,4,4,0,0,1-.55,1.14,5.58,5.58,0,0,1-2.21,1.84,3.57,3.57,0,0,0-.49-.81,4.49,4.49,0,0,0,2-1.83,4,4,0,0,0,.45-1.71H73.18v3c0,2.3,0,2.9,0,3.53h-1c0-.59,0-2,0-2.91v-2.07c0-1.7,0-2,0-2.48.59.05,1.46.08,2.25.08h1.35v-1.61H73.46c-.49,0-1.33,0-1.78.05v-1c.45,0,1.21,0,1.78,0h6c.59,0,1.35,0,1.8,0v1c-.46,0-1.3-.05-1.8-.05H76.75V154h1.62c.78,0,1.63,0,2.22-.08,0,.36,0,.75,0,2.22v2.12c0,.3,0,1,0,1.59,0,0,0,.06,0,.19,0,1.07-.48,1.32-2.44,1.35a2.37,2.37,0,0,0-.27-1.14,7.68,7.68,0,0,0,1,0c.6,0,.66-.06.66-.62v-4.8Z"/><path d="M84.26,149.2V157c0,1.92,0,3.45.07,4.4H83.21c.05-1,.08-2.51.08-4.4v-7.39c0-.47,0-1.05,0-1.32h3l.2-.19.82.64a.31.31,0,0,1,.11.2c0,.09-.07.15-.32.28a37.83,37.83,0,0,1-1.48,3.6,4,4,0,0,1,1.76,3.38,1.77,1.77,0,0,1-1.24,1.93,4,4,0,0,1-1.41.14,3.44,3.44,0,0,0-.22-1.14l.7,0c.9,0,1.14-.23,1.14-1a3.3,3.3,0,0,0-.78-2.13,7.88,7.88,0,0,0-1-1A38.94,38.94,0,0,0,86,149.2Zm6.87,7a5.6,5.6,0,0,1-1.42,3.37,7.77,7.77,0,0,1-3.62,2,3,3,0,0,0-.52-.81A7.16,7.16,0,0,0,89,158.88a4.35,4.35,0,0,0,1.14-2.73h-.55c-.5,0-1.34,0-1.8,0v-1c.45,0,1.21.05,1.8.05h4.62c.58,0,1.35,0,1.8-.05v1c-.45,0-1.3,0-1.8,0h-.79v3.54c0,.37.16.45,1,.45s1.22-.11,1.34-.5a3.46,3.46,0,0,0,.12-1,4.81,4.81,0,0,0,1,.38c-.15,1.21-.23,1.45-.53,1.72s-.87.35-2,.35c-1.34,0-1.82-.26-1.82-1v-3.88Zm.11-7.62c0-.42,0-.75,0-1l1,.09c.21,0,.28.07.28.16s-.07.18-.3.3v1.31h1.07c1,0,2.19,0,3-.08,0,.54,0,.83,0,1.16v.43c0,.39,0,.83,0,1.32h-1c0-.43,0-1,0-1.32v-.69H88.46v.69c0,.35,0,.89.05,1.32h-1c0-.49.05-.93.05-1.32v-.43c0-.33,0-.6,0-1.16.77.05,2,.08,3,.08h.77ZM95,153.45c-.44,0-1.06,0-1.5,0H90.26c-.43,0-1.06,0-1.5,0v-1l1.5,0h3.26l1.5,0Z"/><path d="M118,151.33c-.31,0-.78,0-1.18,0H113.8l-1.2,0v-1c.33,0,.87,0,1.2,0h3.06c.31,0,.85,0,1.18,0Zm-3.92,10h-1.07c0-.36,0-.82,0-1.6v-1.91c0-.46,0-1.05,0-1.32.35,0,.65,0,1.1,0h2.39c.44,0,.75,0,1.08,0,0,.27,0,.86,0,1.32v1.53c0,.74,0,1.2,0,1.56h-1v-.61h-2.46Zm3.28-12c-.23,0-.6,0-.9,0h-2.35c-.29,0-.68,0-.9,0v-1l.9,0h2.35l.9,0Zm0,4c-.23,0-.6,0-.9,0h-2.35c-.29,0-.68,0-.9,0v-1l.9,0h2.35l.9,0Zm0,2h-4.15v-1c.22,0,.61,0,.9,0h2.35c.3,0,.67,0,.9,0Zm-.82,2h-2.46v2.07h2.46Zm5.63-9.43c.35.13.42.19.42.33s0,.15-.24.24a9.11,9.11,0,0,0,4.22,3.7,2.19,2.19,0,0,0-.69.9,10.63,10.63,0,0,1-2.71-2.07,7.62,7.62,0,0,1-1.45-1.93,10.13,10.13,0,0,1-1.38,2.14,11.42,11.42,0,0,1-2.25,2.15,3.83,3.83,0,0,0-.61-.86,9.27,9.27,0,0,0,2.25-2.14,10.08,10.08,0,0,0,1.54-2.79Zm1.07,4.3a.27.27,0,0,1,.15.2c0,.13-.09.16-.48.16a12.87,12.87,0,0,1-4.63,3.27,3.1,3.1,0,0,0-.49-.85,11,11,0,0,0,4.52-3.32Zm3.14,5.06a.29.29,0,0,1,.14.21c0,.13-.12.18-.52.18a13.66,13.66,0,0,1-3.53,2.37,18.32,18.32,0,0,1-4.12,1.42,3.42,3.42,0,0,0-.38-.93,14.59,14.59,0,0,0,7.49-3.84Zm-1.52-2.79c.13.09.19.16.19.25s-.12.18-.36.18h-.13a14.13,14.13,0,0,1-5.89,3.58,4,4,0,0,0-.44-.9,12.12,12.12,0,0,0,5.74-3.66Z"/><path d="M138.91,156.52a15.19,15.19,0,0,0,.05,1.56h-1v-.3h-1.76v.59c0,.22.05,1.39.05,1.78,0,1.07-.48,1.32-2.43,1.35a2.38,2.38,0,0,0-.29-1.14,7.89,7.89,0,0,0,1,0c.59,0,.66-.06.66-.62v-2h-1.64v.29h-.94c0-.36.05-.86.05-1.61V155a12.93,12.93,0,0,1-1.68,1.39,3.41,3.41,0,0,0-.64-.73,13.11,13.11,0,0,0,2-1.62,10.53,10.53,0,0,0-1.48-1.43l.55-.54a9.5,9.5,0,0,1,1.58,1.26c.1-.12.21-.24.31-.37a11.47,11.47,0,0,0,.77-1.1H132.8l-1.8,0V151c.46,0,1.22,0,1.8,0h1.83a13.15,13.15,0,0,0,.59-1.44H130.5v4a11.45,11.45,0,0,1-.51,4,8.28,8.28,0,0,1-2.07,3.57,3,3,0,0,0-.68-.77,8.08,8.08,0,0,0,2.22-5.2l-1.2.73c-.1.23-.17.29-.24.29s-.16-.06-.21-.17l-.45-.91A18.57,18.57,0,0,0,129.5,154a5.62,5.62,0,0,0,0-.58V150c0-.47,0-1.05,0-1.32h5.43v-.24c0-.4,0-.73,0-1l1,.11c.19,0,.28.06.28.15s-.09.18-.3.3v.64h2.45c.93,0,2.22,0,3-.06v1c-.78,0-2.13-.06-3-.06h-3l.88.33c.19.06.27.15.27.24s0,.15-.4.21c-.12.24-.23.47-.33.66h3.45c.58,0,1.35,0,1.8,0v.93l-1.8,0H137.5a8.84,8.84,0,0,0,1,1.25,10.81,10.81,0,0,0,1.28-1.16l.86.63a.24.24,0,0,1,.1.17c0,.09-.09.15-.25.15h-.18c-.32.18-.39.22-.89.55l-.29.21a9.91,9.91,0,0,0,2.53,1.35,3.25,3.25,0,0,0-.62.89,13.72,13.72,0,0,1-2.17-1.29Zm-10.77-6.28a6.92,6.92,0,0,1,1.26,2.19l-.93.48a8.36,8.36,0,0,0-1.08-2.18Zm6.06,8.29c.21.11.24.14.24.21s-.11.17-.35.2a12.91,12.91,0,0,1-4.27,2.37,6.74,6.74,0,0,0-.51-.86,10.89,10.89,0,0,0,4.23-2.26Zm3.81-3.15v-.79h-4.37v.79ZM133.64,157H138v-.8h-4.37Zm4.28-3.2a8.68,8.68,0,0,1-1.37-1.86h-1.3a12.88,12.88,0,0,1-1.21,1.73l-.12.13Zm-.32,4.44a20.09,20.09,0,0,0,3.5,2.15,3.56,3.56,0,0,0-.72.81,20,20,0,0,1-3.42-2.39Z"/><path d="M144,150.7a.17.17,0,0,1,.15.18.15.15,0,0,1-.07.12l-.12.08a11,11,0,0,1-.79,3.79,3.06,3.06,0,0,0-.79-.58,8.75,8.75,0,0,0,.71-3.77Zm1.53-2.89c.14,0,.21.07.21.15s-.07.16-.27.28c0,.53,0,.84,0,3.87v5c0,1.93,0,3.4.05,4.38h-1.09c0-1,.08-2.45.08-4.38v-5c0-2.46,0-3.94-.09-4.41Zm.69,2.38a10.74,10.74,0,0,1,1.41,1.79l-.81.55a15.14,15.14,0,0,0-1.22-1.8Zm9-1.05h1.19v.9c-.31,0-.8,0-1.19,0h-3.29v.88h3.4v.9c-.31,0-.8,0-1.2,0h-2.2v1h3.23c.44,0,1.07,0,1.49,0v.92c-.42,0-1.05,0-1.49,0H148c-.43,0-1.06,0-1.48,0v-.92c.42,0,1,0,1.48,0h2.88v-1H149c-.41,0-.87,0-1.21,0v-.9h3V150h-2.67c-.4,0-.89,0-1.2,0v-.9h3.87c0-.76,0-1.21,0-1.54l1.07.09c.18,0,.25.07.25.15s-.07.18-.28.3c0,.21,0,.84,0,1Zm-6.4,9.53c0,2.22,0,2.28,0,2.85h-1c0-.59,0-2,0-2.93v-1.32c0-2.16,0-2.46,0-2.92.59,0,1.44.06,2.23.06h2.92c.77,0,1.63,0,2.21-.06,0,.39,0,.87,0,2.37v1.57c0,.27,0,1.07,0,1.59a1.37,1.37,0,0,1,0,.21c0,1.07-.48,1.32-2.43,1.35a2.63,2.63,0,0,0-.29-1.14c.44,0,.68,0,1,0,.6,0,.66-.06.66-.62v-1.06Zm5.37-3.41h-5.37v.86h5.37Zm-5.37,2.6h5.37v-.93h-5.37Z"/><path d="M163.64,152.83c.12,0,.17.09.17.15s0,.12-.35.23c-.37.79-.58,1.2-.8,1.62h1.08a10.6,10.6,0,0,0,1.12,0v.95c-.19,0-.49,0-1.12,0h-2v1.51h2.85v.94l-1.2,0h-1.65v.74c0,1.12,0,2.08,0,2.62h-1.05c0-.58.05-1.41.05-2.62v-.74h-1.45l-1.2,0v-.94h2.65v-1.51h-1.9c-.4,0-.88,0-1.19,0v-.95c.33,0,.86,0,1.19,0h.85a11.51,11.51,0,0,0-1-2l.48-.23h-.37c-.4,0-.88,0-1.19,0v-1c.33,0,.86,0,1.19,0h1.9v-1.27h-2.65v-.94l1.2,0h1.45v-.42c0-.59,0-1,0-1.4l1,.11c.19,0,.28.06.28.15s-.09.18-.29.3v1.26h1.65l1.2,0v.94h-2.85v1.27h2c.35,0,.91,0,1.17,0v1c-.26,0-.74,0-1.17,0H163Zm-4.06-.24a7.69,7.69,0,0,1,.63,1,6.46,6.46,0,0,1,.42.93l-.64.3h1.73a10.59,10.59,0,0,0,.83-2.24Zm10,6a8.13,8.13,0,0,0,2.1,1.77,3.9,3.9,0,0,0-.66.91,8.25,8.25,0,0,1-2-1.77,10.42,10.42,0,0,1-1.78,1.85,4.92,4.92,0,0,0-.66-.8,9.06,9.06,0,0,0,1.85-1.9l-.14-.23a9.53,9.53,0,0,1-1.16-4.11h-.74v5.54c0,.69,0,1.27,0,1.6h-1c0-.36,0-.85,0-1.6v-10.2c0-.48,0-1,0-1.32h5.4c0,.25,0,.76,0,1.21v.9c0,.38,0,.75,0,1.25,0,.93-.39,1.15-2.11,1.15h-.12a3.24,3.24,0,0,0-.21-1.12l1,0c.36,0,.45-.07.45-.4v-2.15h-3.38v4.23h3.82l.21-.25.73.64c.09.09.12.14.12.21s-.07.18-.24.23H171a13.36,13.36,0,0,1-1.33,4.22ZM168,154.33a9.84,9.84,0,0,0,.93,3.33,13.06,13.06,0,0,0,1-3.33Z"/><path d="M178.24,149c.31,0,.85,0,1.2,0v.9l-1.2,0h-1.33a7.08,7.08,0,0,1,.8,1.58l-1,.4a7,7,0,0,0-.94-2H175a12.22,12.22,0,0,1-1.79,2,4.12,4.12,0,0,0-.58-.72,9.91,9.91,0,0,0,2.6-3.59l.9.38c.14.06.23.13.23.22s-.07.15-.42.21a6.75,6.75,0,0,1-.39.69Zm6.9,0c.33,0,.87,0,1.2,0v.9l-1.2,0h-1.91a6,6,0,0,1,.78,1.52l-1,.4a8.6,8.6,0,0,0-.87-1.92H181a12.81,12.81,0,0,1-1.1,1.11l.21,0c.19,0,.27.07.27.15s-.08.18-.29.3c0,.13,0,.48,0,.64h2.84c1,0,2.2,0,3-.06,0,.54,0,.83,0,1.16v.55c0,.38,0,.81,0,1.31h-1.1c0-.44,0-1,0-1.31V153H174.19v.72c0,.35,0,.87.05,1.31h-1.08c0-.5,0-.93,0-1.31v-.55c0-.33,0-.62,0-1.16.77,0,2,.06,3,.06h2.92v-.22c0-.42,0-.75,0-1l.7.06a2.62,2.62,0,0,0-.59-.57,9.19,9.19,0,0,0,2.15-2.91l.9.36c.14.06.23.13.23.22s-.06.17-.42.21a4,4,0,0,1-.44.75Zm-2.55,8.84c.66,0,1.12,0,1.65,0,0,.27-.05.84-.05,1.32v.71c0,.7,0,1.21.05,1.56h-1.08v-.5h-6.78v.63h-1.06c0-.34,0-.85,0-1.59v-4.69c0-.48,0-1.07,0-1.34.52,0,1,0,1.64,0h4.91c.66,0,1.13,0,1.65,0,0,.27-.05.86-.05,1.34v.52c0,.71,0,1.2.05,1.56h-1.08v-.46h-6.06v1Zm-.15-3h-6.06v1.11h6.06ZM176.38,160h6.78V158.7h-6.78Z"/><path d="M190.83,157.05a24.86,24.86,0,0,0,2.27-1.37l.28.83c-.89.58-1.49,1-2.21,1.38l-2.63,1.42c-.1.24-.17.33-.26.33a.31.31,0,0,1-.23-.15l-.6-.91c.81-.3,1.62-.66,2.43-1.05v-3.6h-2V153l.89,0h1.13V149.8h-1.29l-.88,0v-.94h5.35v.94l-.89,0h-1.34V153h1.06l.9,0v.94h-2Zm3.75-1.91v.63h-1c0-.6,0-1.47,0-2.64V150.9c0-.9,0-1.91,0-2.39.4,0,.75,0,1.28,0h4.6c.53,0,.89,0,1.28,0,0,.48,0,1.64,0,2.39v2c0,1.19,0,2.07,0,2.64h-1v-.42h-2.11v2h1.88c.57,0,1.35,0,1.79,0v1c-.45,0-1.29,0-1.79,0h-1.88v2.05h2.29c.57,0,1.35,0,1.78,0v1c-.44,0-1.29,0-1.78,0h-7.09c-.5,0-1.34,0-1.81,0v-1c.45,0,1.22,0,1.81,0h3.82V158h-1.89c-.5,0-1.33,0-1.79,0v-1c.44,0,1.22,0,1.79,0h1.89v-2Zm2-5.7h-2v2h2Zm-2,2.94v1.86h2v-1.86Zm5.11-.9v-2h-2.11v2Zm-2.11,2.76h2.11v-1.86h-2.11Z"/><path d="M208.25,153.76v3.54c0,1,.25,1.2,2,1.2a13.12,13.12,0,0,0,3.63-.42l.25,1a19.14,19.14,0,0,1-3.89.33c-2.6,0-3-.29-3-2.06v-3.45c-2.09.38-2.57.48-3.8.77l-.3-1.14c1.2-.11,2.72-.32,4.1-.54v-1.35a22.1,22.1,0,0,0-.07-2.27l1.16.11c.16,0,.25.07.25.16s-.05.14-.28.29c0,.36,0,.49,0,1.71v1.17l5.52-1,.15-.18.83.73c.1.11.13.15.13.23s-.07.15-.34.19a11.78,11.78,0,0,1-3.46,3.72,2.66,2.66,0,0,0-.73-.73,9.71,9.71,0,0,0,3.09-3Z"/><path d="M220.42,150.3a7.91,7.91,0,0,1,2.71,2.16l-.85.82a9.26,9.26,0,0,0-2.52-2.17Zm-.29,8.25a22.11,22.11,0,0,0,5-2.85,20.8,20.8,0,0,0,4.53-4.59,2.38,2.38,0,0,0,.67.88,24.4,24.4,0,0,1-4.65,4.64,33.84,33.84,0,0,1-4.39,2.74c-.06.21-.12.3-.23.3s-.16-.06-.25-.18Z"/><path d="M242.69,150.36l.2-.26.84.69c.15.12.19.18.19.27s-.07.2-.33.3a15.36,15.36,0,0,1-1.65,3.8,10.63,10.63,0,0,1,1.71,1.35l-.76.84a13,13,0,0,0-1.55-1.31,15.51,15.51,0,0,1-5.74,4.64,3.41,3.41,0,0,0-.59-.86,14,14,0,0,0,5.46-4.33,13.44,13.44,0,0,0-2.3-1.05l.54-.81a17.67,17.67,0,0,1,2.33,1,12.43,12.43,0,0,0,1.49-3.33H239a13.59,13.59,0,0,1-3.69,4.52,2.16,2.16,0,0,0-.71-.77,13.24,13.24,0,0,0,3.23-3.73,11.38,11.38,0,0,0,1.14-2.91l1,.39c.16.06.21.1.21.19s-.05.15-.33.26c-.2.55-.29.78-.42,1.11Z"/><path d="M260.2,155.05c-.7,0-1.89,0-2.69,0h-5.88c-.73,0-2,0-2.68,0V154c.62,0,1.92,0,2.68,0h5.88c.83,0,2,0,2.69,0Z"/><path d="M262.84,161.53a10.93,10.93,0,0,0,0-14h.86a10.24,10.24,0,0,1,0,14Z"/><path d="M13.22,199.36l1.46,1.19a.38.38,0,0,1,.17.27c0,.14-.12.23-.42.33a14.49,14.49,0,0,1-2.81,5.64c-1.63,2-3.46,3.25-6.8,4.76A3.31,3.31,0,0,0,3.6,210c3.38-1.43,5.12-2.58,6.65-4.43a11.77,11.77,0,0,0,2.17-4.13l-4.26.3c-2.3.17-4,.26-4.81.34l-.19-1.89h.49c.31,0,.68,0,1.39,0L6.49,200,8.12,200l4.81-.27Zm4-1.2a1.75,1.75,0,1,1-1.74-1.74A1.74,1.74,0,0,1,17.2,198.16Zm-2.65,0a.91.91,0,0,0,1.82,0,.91.91,0,1,0-1.82,0Z"/><path d="M23,209.63H21.11c0-.63.05-1.63.05-3v-3.59c0-1.6,0-2.16-.05-2.7.46,0,.87,0,1.44,0H29.7c.57,0,1,0,1.44,0,0,.54-.05,1.68-.05,2.7v3.59c0,1.41,0,2.32.05,3H29.29v-.8H23Zm6.33-2.46v-5.1H23v5.1Z"/><path d="M44.18,198.26c.22.1.24.12.24.22s-.05.17-.38.29c-.13.27-.37.69-.71,1.29h3.35l.27-.31,1.34,1.13c.21.17.22.18.22.29s-.06.18-.4.33a16.26,16.26,0,0,1-4.56,7.25,22.45,22.45,0,0,1-4.13,2.87,3.65,3.65,0,0,0-1.19-1.48c4.33-2.28,6.46-4.56,7.9-8.47H42.39a18.47,18.47,0,0,1-3.94,4.12,4.28,4.28,0,0,0-1.24-1.34,14.55,14.55,0,0,0,3.89-4,12.22,12.22,0,0,0,1.48-2.94Zm3.79-.33a12.39,12.39,0,0,1,2.16,1.7l-.85.94a9.94,9.94,0,0,0-2.06-1.77Zm1.32-1.54a10.86,10.86,0,0,1,2.15,1.7l-.84.93a10.71,10.71,0,0,0-2.05-1.75Z"/><path d="M54.55,201.52c.53,0,1.19,0,1.7,0H64l.26-.29,1.32,1.19c.14.12.17.17.17.25s-.11.22-.4.31a13.34,13.34,0,0,1-2.88,5.13A16.27,16.27,0,0,1,56.86,212a6.49,6.49,0,0,0-1.09-1.6A13.36,13.36,0,0,0,62,205.86a10,10,0,0,0,1.36-2.6H56.25c-.46,0-1.14,0-1.7,0Zm9.62-1.77-1.7,0H57.74l-1.7,0V198l1.7,0h4.73l1.7,0Z"/><path d="M70,208c1.66,0,1.9-.05,2.82-.1A52.14,52.14,0,0,0,76,198.65l2,.8c.17.07.22.12.22.22s0,.2-.46.37a59.23,59.23,0,0,1-3.08,7.72c1.89-.19,3-.29,3.4-.34.63-.07,1.36-.19,2.19-.32a13.17,13.17,0,0,0-1.85-2.52l1.33-1a22.18,22.18,0,0,1,4,6l-1.81.94c-.37-.9-.52-1.26-.88-2-1.48.29-2,.37-4.42.69-2.21.29-2.36.29-3.37.43s-1.24.15-2,.27c-.11.17-.21.25-.31.25s-.2-.13-.25-.28Z"/><path d="M97.68,201.13a8.94,8.94,0,0,0,1.73,1.07,17,17,0,0,0,4.29,1.48,3.89,3.89,0,0,0-.77,1.48,15.38,15.38,0,0,1-4.47-1.84,9.79,9.79,0,0,1-2-1.49c0,1,0,1.88,0,2.39h-1.7c0-.57,0-1.36,0-2.43a18.09,18.09,0,0,1-6.73,3.56,4.62,4.62,0,0,0-.68-1.45,19,19,0,0,0,6-2.77H91.58c-.94,0-2.47,0-3.39.07v-1.5c.89,0,2.42.07,3.39.07h3.24v-1c-1.49.12-3.16.19-5.13.24a3.82,3.82,0,0,0-.46-1.41h.2a45,45,0,0,0,10.69-1l1.08,1c.15.13.17.15.17.22s-.09.17-.24.17a2.06,2.06,0,0,1-.34,0c-1.43.29-2.82.49-4.35.66v1.09h3.21c1.07,0,2.53,0,3.38-.07v1.5c-.9,0-2.34-.07-3.38-.07Zm-6.31,6.19c-.93,0-2.46,0-3.38.07v-1.53c.87,0,2.41.06,3.38.06h1.41A12,12,0,0,0,94,204l1.6.73a.27.27,0,0,1,.18.25c0,.17-.13.24-.52.27l-.51.68h5.1c1.07,0,2.53,0,3.4-.06v1.53c-.92,0-2.37-.07-3.4-.07h0A11.39,11.39,0,0,1,98,209.41l0,0A23.34,23.34,0,0,1,102,211l-.9,1.41c-.88-.44-1.78-.87-2.7-1.22-.65-.24-1.31-.46-2-.68A18.3,18.3,0,0,1,89,212.42a4.14,4.14,0,0,0-.51-1.52,22.27,22.27,0,0,0,5.87-1c-.78-.2-1.56-.34-2.36-.47l-.56.68-1.31-1c.57-.56,1.1-1.17,1.63-1.8Zm2.3,0c-.26.34-.51.66-.77,1a26.94,26.94,0,0,1,3.32.62,8.8,8.8,0,0,0,1.68-1.6Z"/><path d="M111.45,210a.29.29,0,0,1,.2.25c0,.17-.1.22-.54.26a16,16,0,0,1-5.78,1.95,3.16,3.16,0,0,0-.65-1.56,15.65,15.65,0,0,0,5.46-1.55Zm-2.77-.21h-1.75c0-.68,0-1.66,0-3v-2.25c0-1,0-2.15,0-2.7.68,0,1.32,0,2.28,0h6.86c1,0,1.68,0,2.38,0,0,.56,0,1.74,0,2.7v2.18c0,1.36,0,2.35,0,3H116.7v-.47h-8Zm.59-8.43h-1.66c0-.41,0-1,0-1.8v-.78c0-.55,0-1.19,0-1.5.59,0,1.12,0,1.87,0h6.32c.76,0,1.29,0,1.89,0a15,15,0,0,0-.06,1.5v.8c0,.8,0,1.37.06,1.76H116v-.4h-6.73Zm7.43,1.91h-8V204h8Zm-8,2.73h8v-.78h-8Zm0,2h8v-.78h-8Zm7.32-9.4h-6.73v1.14H116Zm-1.44,10.76a21.49,21.49,0,0,0,6,1.54,3.53,3.53,0,0,0-.76,1.58,18.43,18.43,0,0,1-3.25-.73,13.47,13.47,0,0,1-3-1.19Z"/><path d="M126.48,210c1.25-.26,2.55-.54,3.91-.88l.22,1.42c-2.4.63-3.83,1-7.28,1.6l-.12.19c-.07.12-.13.17-.22.17s-.19-.07-.24-.22l-.56-1.62c.87-.1,1.75-.22,2.65-.37v-4.35h-.49c-.73,0-1.68,0-2.38.05v-1.65c.65,0,1.62.05,2.38.05h.49v-4.22c0-1.76,0-2.17,0-2.72.38,0,.94,0,1.45,0h7.09c.69,0,1.53,0,2-.05V199c-.57,0-1.47,0-2,0h-6.85v.79h5.28c.7,0,1.75,0,2.38-.05v1.57c-.63,0-1.68-.05-2.38-.05h-5.28V202h5.28c.7,0,1.75,0,2.38,0v1.57c-.63,0-1.68,0-2.38,0h-5.28v.87h8.19c.68,0,1.79,0,2.38-.05V206c-.63,0-1.73-.05-2.38-.05h-5a9,9,0,0,0,1.68,1.87,19.07,19.07,0,0,0,2.72-1.7l1.38.88a.24.24,0,0,1,.13.19c0,.1-.12.15-.3.15h-.16c-.88.53-1.64.95-2.51,1.4a17.67,17.67,0,0,0,4.86,2.05,11.38,11.38,0,0,0-1,1.45,16.68,16.68,0,0,1-5.73-3,9.59,9.59,0,0,1-2.7-3.31h-1.56Z"/><path d="M11.42,229.41a23.33,23.33,0,0,1-3.79,4.82,33.22,33.22,0,0,1-5.42,4.63,5.58,5.58,0,0,0-1.32-2,32.57,32.57,0,0,0,5.33-4.37,28.42,28.42,0,0,0,4.34-5.61h-4c-1.32,0-3.48,0-4.78.09v-2.4c1.25.08,3.41.1,4.78.1h4.82c0-.79,0-1.61,0-2.4a18.19,18.19,0,0,0-.12-2.33l2.57.17c.21,0,.36.12.36.26s-.12.24-.46.46c0,1.27,0,2.57,0,3.84h4.85c1.51,0,3.55,0,4.77-.1V227c-1.27,0-3.31-.09-4.77-.09h-4.2a28.33,28.33,0,0,0,9.79,9.53,7.57,7.57,0,0,0-1.49,2.06,26.55,26.55,0,0,1-6.5-5.76,26.91,26.91,0,0,1-2.45-3.41v5.86h2.42l1.9,0v2.26c-.51,0-1.25,0-1.9,0H13.73c0,1.56,0,3.14.12,4.7H11.33c.07-1.56.09-3.14.09-4.7H9c-.64,0-1.39,0-1.89,0v-2.26l1.89,0h2.4Z"/><path d="M45,223.91a22.75,22.75,0,0,1-4.56,4.59A26.87,26.87,0,0,1,34,232.05a50,50,0,0,1-6.51,1.85,6.44,6.44,0,0,0-1-2.07c4.63-1,6.74-1.66,9.26-3a14.72,14.72,0,0,0-2.23-2.16,26,26,0,0,1-5,2.81,7.92,7.92,0,0,0-1.15-2,20.06,20.06,0,0,0,5.78-3.32A14.22,14.22,0,0,0,37,219.71l2.09.84c.26.1.34.19.34.31s-.1.24-.65.43c-.15.2-.27.39-.41.58h5.11l.44-.45,1.65,1.65c.17.17.19.22.19.31s-.09.24-.38.36Zm2.93,9.24a23.53,23.53,0,0,1-5,4.56c-3.87,2.62-7.54,3.77-15,4.73a9.69,9.69,0,0,0-.82-2.18c5.26-.63,8-1.25,11.11-2.62a4.13,4.13,0,0,0,.53-.24,15.7,15.7,0,0,0-2.4-2.21,45.41,45.41,0,0,1-7.56,2.86,8.69,8.69,0,0,0-1-2.07c4.8-1.41,6.58-2.11,9-3.48a19.2,19.2,0,0,0,5.76-4.73l1.9.87c.31.14.34.19.34.34s-.08.24-.65.4c-.6.6-1.13,1.13-1.61,1.59h4.13l.45-.53,1.68,1.7a.71.71,0,0,1,.24.48c0,.22-.14.31-.52.41ZM36.7,224c-.46.45-.92.89-1.4,1.29a9.53,9.53,0,0,1,1.61,1.23,12.46,12.46,0,0,1,1,1.05A20.54,20.54,0,0,0,42,224Zm3.16,9.09c-.52.36-1,.7-1.6,1a10.62,10.62,0,0,1,2.56,2.21,22.77,22.77,0,0,0,4-3.22Z"/><path d="M64.92,230.92c0-1.9,0-2.91-.07-3.6l2.49.17c.27,0,.41.09.41.24s-.12.26-.46.48v10.73h4.13V223.69H66.21c-1.17,0-3.26.05-4.29.1v-2.37c1,0,3.07.07,4.29.07H77.86c1.32,0,3.24,0,4.29-.07v2.37c-1.13,0-3-.1-4.29-.1H73.8v6.05h4.58c.51,0,1.4,0,1.92-.05V232c-.5,0-1.27,0-1.92,0H73.8v7h4.49c1.51,0,3.55-.05,4.77-.1v2.38c-1.27-.05-3.31-.1-4.77-.1H65.66c-1.32,0-3.48,0-4.77.1v-2.38c1,0,2.71.07,4,.1Z"/><path d="M96,224.58H92.54c-1.2,0-3.29,0-4.32.08V222.3c1,0,3.07.07,4.32.07H96v-.24c0-.93,0-1.68,0-2.2l2.37.14c.29,0,.44.12.44.24s-.12.29-.46.48v1.58h3.62c1.32,0,3.24,0,4.32-.07v2.36c-1.12,0-3-.08-4.32-.08H98.28v1.64h5.06c1.52,0,3.58,0,4.78-.08v2.38c-1.27-.05-3.31-.1-4.78-.1h-1.68l1.23.43c.21.08.29.15.29.27s-.08.24-.44.36c-.33.69-.64,1.34-1,2h1.58c1.52,0,3.58,0,4.78-.1v2.4c-1.27-.05-3.31-.09-4.78-.09H98.28v1.75h4.22c1.32,0,3.24,0,4.3-.08v2.36c-1.13,0-3-.07-4.3-.07H98.28V238c0,1.82,0,3.36.07,4.22H95.93c0-.93,0-2.28,0-4.22v-.38H91.9c-1.18,0-3.29,0-4.32.07v-2.36c1,0,3.07.08,4.32.08H96v-1.75H91c-1.32,0-3.48,0-4.78.09v-2.4c1.25.07,3.41.1,4.78.1h1.73A12.4,12.4,0,0,0,91.42,229l1.15-.6H91c-1.32,0-3.48.05-4.78.1v-2.38c1.25.05,3.41.08,4.78.08h5Zm-2.43,3.84A12,12,0,0,1,95,230.85l-1.22.6h5.59a23.86,23.86,0,0,0,1.2-3Z"/><path d="M121.07,223.85a11,11,0,0,0,0,14h-.85a10.22,10.22,0,0,1,0-14Z"/><path d="M128.62,231.68a8.07,8.07,0,0,0,1.8,2.23,16.78,16.78,0,0,0,2.74-1.77l.9.63a.2.2,0,0,1,.11.17c0,.07-.08.13-.21.13h-.2c-1,.55-1.69.93-2.67,1.39a14.42,14.42,0,0,0,4.94,2.27,6.53,6.53,0,0,0-.68.91,14.54,14.54,0,0,1-5-2.62,9,9,0,0,1-2.6-3.33h-1.29v4.23c1.19-.26,2.36-.56,3.45-.9l.08.85a63.46,63.46,0,0,1-6.18,1.56l-.11.17c-.06.1-.12.15-.19.15s-.17-.06-.21-.2l-.38-1c.84-.11,1.68-.24,2.54-.41v-4.42h-.75c-.65,0-1.49,0-2.1,0v-1l2.1,0h.75V227c0-1.28,0-1.92,0-2.4.35,0,.83,0,1.28,0h5.94c.61,0,1.35,0,1.8,0v1c-.5,0-1.29,0-1.8,0h-6.17v1.12h5.13c.6,0,1.53,0,2.09,0v1c-.56,0-1.49,0-2.09,0h-5.13v1.17h5.13c.6,0,1.53,0,2.09-.05v1c-.56,0-1.49,0-2.09,0h-5.13v1.14h7.35l2.1,0v1c-.55,0-1.53,0-2.1,0Z"/><path d="M138.65,234.09v1.68h-1c0-.58,0-1.42,0-2.64v-3.84c0-1.47,0-2.25-.06-2.68l1,.1c.16,0,.25.06.25.14s-.07.18-.28.3c0,.27,0,1.3,0,2.14v3.93h.81v-7.66c0-.69,0-.87,0-1.4l1,.09c.18,0,.27.08.27.17s-.09.16-.29.3v8.5h.92v-3.93c0-1.47,0-2.25-.06-2.68l1,.1c.17,0,.26.06.26.14s-.08.18-.29.3c0,.27,0,1.2,0,2.14v2.87c0,1.14,0,2.1,0,2.64h-1v-.71Zm11.07-.79c0,.58,0,1.38,0,2.35,0,.2,0,.56,0,.72,0,1.07-.51,1.37-2.37,1.4a1.87,1.87,0,0,0-.5-1.17c.47,0,1,0,1.2,0,.53,0,.62-.09.62-.58V231H144.1l-1.49,0v-1l1.49,0h5.64l1.5,0v1c-.51,0-1,0-1.52,0Zm-5.17-6.68c-.44,0-1.07,0-1.5,0v-.93c.43,0,1.06,0,1.5,0h1.89a15.89,15.89,0,0,0,.1-1.8l1.08.21c.12,0,.2.09.2.2s0,.1-.32.27c0,.42-.06.79-.1,1.12h1.89c.43,0,1.06,0,1.48,0v.93c-.42,0-1.05,0-1.48,0h-2.06c0,.12-.07.23-.1.33a12.49,12.49,0,0,1,3.22,2l-.69.79a12.12,12.12,0,0,0-2.91-2.05,3.24,3.24,0,0,1-.24.31,6.07,6.07,0,0,1-2.8,1.77,2.51,2.51,0,0,0-.51-.82c1.54-.54,2.19-.93,2.67-1.64a2.58,2.58,0,0,0,.37-.72Zm.09,9.51h-1c0-.34,0-.85,0-1.59v-1.47c0-.48,0-1,0-1.32.34,0,.64,0,1.09,0h1.55c.43,0,.75,0,1.08,0,0,.27-.05.84-.05,1.32v1.08c0,.71,0,1.22.05,1.56h-1v-.61h-1.75Zm1.75-3.49h-1.75v1.6h1.75Z"/><path d="M159.77,229a12,12,0,0,0,2.12,4.32,10.83,10.83,0,0,0,4.35,3.38,6.5,6.5,0,0,0-.9.93,12.24,12.24,0,0,1-4.29-3.71,10.47,10.47,0,0,1-1.77-3.76,10.16,10.16,0,0,1-.68,2.4,9.06,9.06,0,0,1-3,3.76,12.69,12.69,0,0,1-2.9,1.52,4.14,4.14,0,0,0-.58-.89,10.07,10.07,0,0,0,4-2.53,9,9,0,0,0,2.24-5.18,1.75,1.75,0,0,1,0-.24h-2.72c-.82,0-2.17,0-3,.06V228c.76,0,2.11.06,3,.06h2.81c0-.7.06-1.71.07-4l1.08.16c.24,0,.35.11.35.23s-.09.18-.35.27c0,1.32-.06,2.4-.12,3.31H163c.94,0,2.23,0,3-.06V229c-.81,0-2.09-.06-3-.06Z"/><path d="M177.28,228.75l.82.75c.12.12.17.18.17.24s-.06.21-.56.3a18.19,18.19,0,0,1-2.89,1.85c0,.24,0,.48,0,.72h3.44c.94,0,2.22,0,3-.06v1c-.79,0-2.07,0-3,0h-3.45v1.08c0,.27,0,1.06,0,1.59a1.21,1.21,0,0,1,0,.21c0,1.08-.5,1.33-2.58,1.35a2.5,2.5,0,0,0-.29-1.17c.57,0,.87.06,1.26.06s.56-.09.56-.63v-2.49h-3.45c-.83,0-2.18,0-3,0v-1c.78,0,2.13.06,3,.06h3.45a10.26,10.26,0,0,0-.12-1.67l.94.08a13.4,13.4,0,0,0,1.7-1.11h-4c-.63,0-1.52,0-2.09,0v-1c.57,0,1.46,0,2.09,0h4.8Zm-1.35-1.81a14.59,14.59,0,0,0,1.8-3.09l1,.49c.12.06.17.11.17.17s-.08.16-.3.21a25.5,25.5,0,0,1-1.52,2.22h1c.74,0,1.89,0,2.55-.06,0,.54,0,.81,0,1.14v.37c0,.38,0,.83,0,1.32h-1.11c0-.43,0-1,0-1.32v-.54H168.94v.54c0,.35,0,.89,0,1.32h-1.11c0-.49,0-.94,0-1.32V228c0-.33,0-.6,0-1.14.67,0,1.69.06,2.67.06Zm-6-2.9a8.55,8.55,0,0,1,1.73,2.27l-.95.6a12.14,12.14,0,0,0-1.53-2.31Zm3.68-.18a9.56,9.56,0,0,1,1.24,2.45l-1,.42a10.8,10.8,0,0,0-1.11-2.48Z"/><path d="M189.88,224.78c0-.41,0-.74,0-1l1,.1c.18,0,.27.06.27.15s-.09.18-.3.3v1.16h2.28c.93,0,2.22,0,3-.06v1c-.76,0-2.11-.06-3-.06h-7.34v3.45a14.16,14.16,0,0,1-.45,4.24,8.38,8.38,0,0,1-2,3.53,2.77,2.77,0,0,0-.75-.74,7.88,7.88,0,0,0,2.22-5.41,3.77,3.77,0,0,1-.52.37l-1.1.68c-.1.22-.16.3-.24.3s-.16-.08-.21-.18l-.45-.92a16.3,16.3,0,0,0,2.57-1.32c0-.21,0-.43,0-.66v-2.94c0-.45,0-1,0-1.32.51,0,1,0,1.65,0h3.42Zm-6.69,2a7.35,7.35,0,0,1,1.24,2.2l-.91.47a9,9,0,0,0-1.1-2.18Zm8.26,4.41a4,4,0,0,1,0,.48,12.07,12.07,0,0,1,2.73,2.7l-.72.76a12.13,12.13,0,0,0-2.19-2.58,4,4,0,0,1-.55,1.14,5.59,5.59,0,0,1-2.21,1.85,3.37,3.37,0,0,0-.49-.81,4.6,4.6,0,0,0,2-1.83,4,4,0,0,0,.45-1.71H187.9v3c0,2.29,0,2.89,0,3.52h-1.05c0-.58.05-2,.05-2.91v-2.07c0-1.69,0-2-.05-2.47.59,0,1.46.07,2.25.07h1.35v-1.6h-2.31c-.49,0-1.33,0-1.78,0v-1c.45,0,1.21.05,1.78.05h6c.59,0,1.35,0,1.8-.05v1c-.46,0-1.3,0-1.8,0h-2.71v1.6h1.62c.78,0,1.63,0,2.22-.07,0,.36-.05.75-.05,2.22v2.11c0,.3,0,1,.05,1.59,0,0,0,.06,0,.2,0,1.06-.48,1.32-2.44,1.35a2.37,2.37,0,0,0-.27-1.14,9.49,9.49,0,0,0,1,0c.6,0,.66-.06.66-.61v-4.8Z"/><path d="M199,225.53v7.8c0,1.92,0,3.45.06,4.39h-1.11c0-1,.08-2.5.08-4.39v-7.4c0-.46,0-1.05,0-1.32.33,0,.65,0,1.08,0h1.88l.19-.2.83.65a.26.26,0,0,1,.1.19c0,.09-.06.15-.31.29a35.77,35.77,0,0,1-1.49,3.6,3.94,3.94,0,0,1,1.77,3.37,1.79,1.79,0,0,1-1.24,1.94,4.44,4.44,0,0,1-1.41.13,3.23,3.23,0,0,0-.23-1.14c.17,0,.51,0,.71,0,.9,0,1.14-.22,1.14-1.05a3.32,3.32,0,0,0-.78-2.13,7.8,7.8,0,0,0-1-1,38.08,38.08,0,0,0,1.48-3.81Zm6.87,6.94a5.63,5.63,0,0,1-1.42,3.38,7.68,7.68,0,0,1-3.62,2,3.74,3.74,0,0,0-.52-.81,7.16,7.16,0,0,0,3.43-1.83,4.38,4.38,0,0,0,1.14-2.73h-.55l-1.8,0v-1c.45,0,1.21,0,1.8,0h4.62c.58,0,1.35,0,1.8,0v1l-1.8,0h-.8V236c0,.38.17.45,1,.45.95,0,1.23-.1,1.35-.49a3.51,3.51,0,0,0,.12-1.05,4.83,4.83,0,0,0,.95.37c-.15,1.22-.23,1.46-.53,1.73s-.87.34-2,.34c-1.34,0-1.82-.25-1.82-1v-3.89Zm.11-7.62c0-.42,0-.75,0-1l1,.09c.21,0,.28.08.28.17s-.07.18-.3.3v1.3H208c1,0,2.19,0,3-.07,0,.54,0,.82,0,1.15v.44c0,.39,0,.82,0,1.32h-1c0-.44,0-1,0-1.32v-.69h-6.83v.69c0,.34,0,.88,0,1.32h-1c0-.5,0-.93,0-1.32v-.44c0-.33,0-.6,0-1.15.77,0,1.95.07,3,.07H206Zm3.78,4.92-1.5,0H205l-1.5,0v-1c.44,0,1.07,0,1.5,0h3.26c.43,0,1.06,0,1.5,0Z"/><path d="M238.12,236.15c.9,0,2.22,0,3-.06v1c-.78,0-2.1-.06-3-.06h-9v.7h-1c0-.7,0-1.12,0-3.54v-6c0-2.45,0-2.88,0-3.39.84,0,1.94.06,3,.06h6.39c.9,0,2.17,0,3-.06v1.06c-.76,0-2.08-.06-3-.06h-8.33v10.34Zm-5.79-7.59a10.07,10.07,0,0,1-1.49,2,4.22,4.22,0,0,0-.72-.62,10,10,0,0,0,2.22-3.88l1,.31c.11.05.15.09.15.18s0,.14-.33.21c-.12.33-.25.63-.37.92h4.74c.6,0,1.53,0,2.08,0v1c-.55,0-1.48,0-2.08,0h-2v.4a9.06,9.06,0,0,1-.17,1.76h3.11c.6,0,1.57,0,2.08-.05v1c-.54,0-1.51-.05-2.08-.05H236a8.37,8.37,0,0,0,4.12,3.2,2.69,2.69,0,0,0-.67.91,9.74,9.74,0,0,1-2.83-2,6.88,6.88,0,0,1-1.53-2.15,6,6,0,0,1-1.43,2.37,8.61,8.61,0,0,1-3.28,1.91,4,4,0,0,0-.56-.92,6.57,6.57,0,0,0,3.3-1.87,4.55,4.55,0,0,0,.89-1.49h-2.27c-.63,0-1.47,0-2.1.05v-1c.59,0,1.44.05,2.1.05h2.54a8.13,8.13,0,0,0,.18-1.76v-.4Z"/><path d="M253.63,232.85c0,.7,0,1.21,0,1.56h-.94v-.3H251v.58c0,.23.05,1.4.05,1.79,0,1.06-.48,1.32-2.43,1.35a2.38,2.38,0,0,0-.29-1.14,9.85,9.85,0,0,0,1,0c.58,0,.66-.06.66-.61v-2h-1.64v.28h-.94c0-.36,0-.85,0-1.6v-1.43a13,13,0,0,1-1.68,1.4,3.15,3.15,0,0,0-.63-.74,14.17,14.17,0,0,0,2-1.62,10,10,0,0,0-1.49-1.42l.56-.54a9,9,0,0,1,1.57,1.26c.11-.12.21-.24.32-.38a10.72,10.72,0,0,0,.76-1.09h-1.35c-.49,0-1.33,0-1.8,0v-.93l1.8,0h1.83a15,15,0,0,0,.59-1.44h-4.73v4a11.19,11.19,0,0,1-.51,4,8.22,8.22,0,0,1-2.07,3.57,2.76,2.76,0,0,0-.67-.76,8.15,8.15,0,0,0,2.22-5.21l-1.2.74c-.11.22-.17.28-.24.28a.23.23,0,0,1-.21-.16l-.45-.92a19.34,19.34,0,0,0,2.14-1.06,5.82,5.82,0,0,0,0-.59v-3.45c0-.46,0-1-.05-1.32.51,0,1,0,1.67,0h3.76v-.24c0-.41,0-.74,0-1l1,.1c.19,0,.28.06.28.15s-.09.18-.3.3V225h2.45c.93,0,2.22,0,3-.06v1c-.78,0-2.13-.06-3-.06h-3l.88.33c.18.06.27.15.27.24s0,.15-.4.21l-.33.66h3.45l1.8,0v.93c-.47,0-1.31,0-1.8,0h-1.68a9.41,9.41,0,0,0,1,1.24,9.39,9.39,0,0,0,1.29-1.15l.86.63a.2.2,0,0,1,.1.16c0,.09-.09.15-.25.15h-.18c-.32.18-.39.23-.89.56-.12.07-.21.15-.3.21a10.2,10.2,0,0,0,2.54,1.35,3.35,3.35,0,0,0-.62.88,13.72,13.72,0,0,1-2.17-1.29Zm-10.77-6.29a7.23,7.23,0,0,1,1.26,2.19l-.93.48a8.43,8.43,0,0,0-1.08-2.17Zm6.06,8.3c.21.1.24.13.24.21s-.11.16-.35.19a13,13,0,0,1-4.27,2.37,7.34,7.34,0,0,0-.51-.85,10.91,10.91,0,0,0,4.23-2.27Zm3.81-3.15v-.8h-4.37v.8Zm-4.37,1.57h4.37v-.79h-4.37Zm4.28-3.19a9.2,9.2,0,0,1-1.37-1.86H250a12.88,12.88,0,0,1-1.22,1.72.94.94,0,0,1-.12.14Zm-.32,4.44a20,20,0,0,0,3.5,2.14,3.79,3.79,0,0,0-.72.81,19,19,0,0,1-3.42-2.38Z"/><path d="M258.67,227a.16.16,0,0,1,.15.18.15.15,0,0,1-.08.12l-.12.07a10.9,10.9,0,0,1-.78,3.8,3.23,3.23,0,0,0-.79-.59,8.71,8.71,0,0,0,.7-3.76Zm1.53-2.9c.13,0,.21.08.21.15s-.08.17-.27.29c0,.52,0,.84,0,3.87v5c0,1.94,0,3.41.06,4.38h-1.09c0-1,.07-2.44.07-4.38v-5c0-2.46,0-3.95-.09-4.41Zm.69,2.39a10.71,10.71,0,0,1,1.41,1.78l-.81.56a15.56,15.56,0,0,0-1.22-1.8Zm8.95-1.05c.32,0,.86,0,1.19,0v.9l-1.19,0h-3.3v.89h2.21c.33,0,.87,0,1.2,0v.9l-1.2,0h-2.21v1h3.24l1.49,0V230l-1.49,0h-7.09l-1.49,0v-.91l1.49,0h2.88v-1h-1.82l-1.2,0v-.9c.35,0,.89,0,1.2,0h1.82v-.89H262.9c-.41,0-.89,0-1.2,0v-.9c.33,0,.87,0,1.2,0h2.67c0-.77,0-1.22-.05-1.55l1.07.09c.18,0,.25.08.25.15s-.07.18-.28.3c0,.21,0,.84,0,1Zm-6.4,9.52c0,2.22,0,2.28,0,2.85h-1.05c0-.58.05-2,.05-2.92V233.6c0-2.16,0-2.46,0-2.93.58.05,1.44.06,2.23.06h2.91c.78,0,1.64,0,2.22-.06,0,.39,0,.87,0,2.37v1.58c0,.27,0,1.06,0,1.59a1.21,1.21,0,0,1,0,.21c0,1.06-.48,1.32-2.43,1.35a2.63,2.63,0,0,0-.29-1.14c.44,0,.68,0,1,0,.6,0,.66-.06.66-.61V235Zm5.37-3.4h-5.37v.85h5.37Zm-5.37,2.59h5.37v-.93h-5.37Z"/><path d="M278.36,229.16c.12,0,.17.09.17.15s0,.12-.35.22c-.37.8-.58,1.2-.81,1.62h2.21v.94c-.2,0-.5,0-1.13,0h-2v1.52h1.65c.31,0,.87,0,1.2,0v.95c-.32,0-.8,0-1.2,0h-1.65v.73c0,1.13,0,2.09,0,2.63h-1c0-.59,0-1.41,0-2.63v-.73H274c-.4,0-.88,0-1.2,0v-.95c.33,0,.89,0,1.2,0h1.44v-1.52h-1.89l-1.2,0v-.94h2a11.15,11.15,0,0,0-1-2l.48-.22h-1.56V228l1.2,0h1.89v-1.28H274c-.4,0-.88,0-1.2,0v-.95c.33,0,.89,0,1.2,0h1.44v-.42c0-.58,0-1,0-1.39l1,.1c.18,0,.27.06.27.15s-.09.18-.28.3v1.26h1.65c.31,0,.87,0,1.2,0v.95c-.32,0-.8,0-1.2,0h-1.65V228h2l1.17,0v.94h-1.9Zm-4.06-.24a8.31,8.31,0,0,1,.63,1,8.56,8.56,0,0,1,.42.93l-.65.3h1.74a10.5,10.5,0,0,0,.83-2.23Zm10,6a7.93,7.93,0,0,0,2.1,1.77,4,4,0,0,0-.66.92,8.69,8.69,0,0,1-2-1.77,10.07,10.07,0,0,1-1.78,1.84,4.85,4.85,0,0,0-.66-.79,8.76,8.76,0,0,0,1.84-1.91l-.13-.22a9.57,9.57,0,0,1-1.16-4.11h-.75v5.53c0,.69,0,1.28.05,1.61h-1.05c0-.36,0-.86,0-1.61V226c0-.48,0-1.05,0-1.32.33,0,.63,0,1.08,0h3.24c.45,0,.75,0,1.08,0,0,.26,0,.77,0,1.22v.9c0,.37,0,.75,0,1.24,0,.93-.39,1.16-2.11,1.16h-.12a3.29,3.29,0,0,0-.21-1.13c.4,0,.75.05,1,.05s.45-.08.45-.41v-2.14h-3.39v4.23h3.83l.2-.26.74.65c.09.09.12.13.12.21s-.07.18-.24.22l-.06,0a13.21,13.21,0,0,1-1.33,4.21Zm-1.54-4.27a9.84,9.84,0,0,0,.93,3.33,13.18,13.18,0,0,0,1-3.33Z"/><path d="M292,229.85a20.61,20.61,0,0,0,1.2-3l1.05.41a.23.23,0,0,1,.14.18c0,.1-.12.16-.41.19-.37.9-.66,1.49-1.06,2.27h1l1.79,0v1l-1.79,0h-4.72l-1.8,0v-1l1.8,0ZM291,224.9c0-.23,0-.66,0-1l1,.09c.2,0,.27.07.27.16s-.07.18-.3.3v1.34h1.47c.59,0,1.35,0,1.8-.05v1c-.46,0-1.3,0-1.8,0h-4c-.49,0-1.33,0-1.8,0v-1c.45,0,1.23.05,1.8.05H291Zm-1.29,11.28v1h-1c0-.36,0-.86,0-1.61v-2.34c0-.48,0-1.06,0-1.33.33,0,.63,0,1.08,0h3.38c.43,0,.75,0,1.08,0,0,.27,0,.85,0,1.33v2c0,.7,0,1.21,0,1.56h-1v-.6Zm.09-9.39a11,11,0,0,1,1.05,2.62l-1,.36a13,13,0,0,0-.93-2.62Zm3.42,6h-3.51v2.51h3.51Zm7.66-7.42a.31.31,0,0,1,.14.21c0,.12-.06.16-.48.27-.33,1-.62,1.68-1.52,3.7a5.7,5.7,0,0,1,1.76,2.33,5.55,5.55,0,0,1,.34,1.93,1.8,1.8,0,0,1-1.33,2,5.29,5.29,0,0,1-1.49.13,2.67,2.67,0,0,0-.24-1.17c.23,0,.72.06,1,.06.72,0,1-.33,1-1.08a4.54,4.54,0,0,0-.92-2.71,6,6,0,0,0-.84-.92l-.34-.34c.16-.41.31-.77.39-1,.49-1.19.81-2,1.11-2.93h-2.13v7.62c0,1.92,0,3.44.06,4.38h-1.11c0-1,.07-2.5.07-4.38V226.2c0-.46,0-1,0-1.32.33,0,.64,0,1.08,0h2.37l.21-.29Z"/><path d="M302.56,237.86a11,11,0,0,0,0-14h.85a10.22,10.22,0,0,1,0,14Z"/><path d="M10.42,269.42a6.6,6.6,0,0,0,1.76,1.3,16.48,16.48,0,0,0,5,1.46,5.3,5.3,0,0,0-.61.87c-.27.54-.34.62-.39.73a14.21,14.21,0,0,1-5.31-2,7.26,7.26,0,0,1-2-2,7,7,0,0,1-.54.83C7,272.26,4.76,273.44,1.8,274a5.54,5.54,0,0,0-.75-1.5,12.54,12.54,0,0,0,5.24-2,4.9,4.9,0,0,0,.93-1.08H4.52c-.85,0-2.33,0-3.06.07v-1.7c.7,0,2.17,0,3.06,0H7.88a7,7,0,0,0,.19-.93H5.61l-2,0v-1.6c.51,0,1.37,0,2,0H8.24c0-.27,0-.55,0-.82H5.5c-.71,0-1.66,0-2.38,0V263c.67,0,1.64.05,2.38.05H8.28c0-.76,0-1.29-.07-1.75l1.7.19c.22,0,.35.11.35.23s-.1.19-.35.29v1h2.73c.7,0,1.79,0,2.38-.05v1.6c-.63,0-1.71,0-2.38,0H9.91v.17c0,.22,0,.44,0,.65h2.67c.65,0,1.53,0,2,0v1.6l-2,0H9.75a7.58,7.58,0,0,1-.17.93h4.1c.94,0,2.28,0,3,0v1.7c-.8,0-2.14-.07-3-.07ZM8.26,259.28c0-.46,0-.84,0-1.09l1.72.12c.19,0,.3.07.3.17s-.08.2-.32.34v.95h3.2c1.15,0,2.48,0,3.36-.09,0,.62,0,.94,0,1.31v.44c0,.38,0,.82.05,1.32H14.75c0-.43.05-1,.05-1.32v-.22H3.29v.22c0,.34,0,.89.06,1.32H1.58c0-.5,0-.94,0-1.32V261c0-.37,0-.68,0-1.31.89.06,2.21.09,3.39.09H8.26Z"/><path d="M20.41,267.32A12.92,12.92,0,0,1,19,268.88a6.35,6.35,0,0,0-1-1.56,15.51,15.51,0,0,0,4-5.77l1.45.68c.22.11.27.17.27.29s-.12.19-.46.28c-.46.86-.87,1.7-1.24,2.32.32,0,.41.09.41.19s-.09.19-.32.32c0,.33,0,.82,0,2.93v2c0,1.58,0,2.69.07,3.48H20.35c0-.76.06-1.92.06-3.48Zm3.06-8.5c.26.15.31.18.31.3s-.05.16-.46.28a14.91,14.91,0,0,1-4.23,3.65,4.64,4.64,0,0,0-.9-1.43,12.16,12.16,0,0,0,4.06-3.52Zm7.38,10c0,.62,0,1.06,0,2.16,0,.27,0,.83,0,1,0,.85-.13,1.23-.57,1.5s-1,.39-2.52.39h-.44a7,7,0,0,0-.32-1.8c.85.05,1.15.06,1.51.06.56,0,.63-.08.63-.68v-6.2H25.55l-2.37,0v-1.63c.65,0,1.62,0,2.37,0h6.07c.68,0,1.78,0,2.38,0v1.63l-2.38,0h-.77Zm2.06-7.95c-.48,0-1.19,0-1.7,0H26.28c-.51,0-1.23,0-1.7,0v-1.63l1.7,0h4.93l1.7,0Z"/><path d="M45.15,262.71a8.94,8.94,0,0,0,1.73,1.07,17,17,0,0,0,4.29,1.48,3.82,3.82,0,0,0-.77,1.48,15.66,15.66,0,0,1-4.47-1.84,9.79,9.79,0,0,1-2-1.49c0,1,0,1.88,0,2.39h-1.7c0-.57,0-1.36,0-2.43a18.09,18.09,0,0,1-6.73,3.56,4.62,4.62,0,0,0-.68-1.45,19,19,0,0,0,6-2.77H39.05c-.94,0-2.47,0-3.39.07v-1.5c.89,0,2.42.07,3.39.07h3.24v-1c-1.49.12-3.16.18-5.13.24a3.71,3.71,0,0,0-.46-1.41h.2a45.11,45.11,0,0,0,10.7-1l1.07,1c.15.13.17.15.17.22s-.09.17-.24.17a2.06,2.06,0,0,1-.34,0c-1.43.29-2.82.49-4.35.66v1.09h3.21c1.07,0,2.53,0,3.38-.07v1.5c-.9,0-2.34-.07-3.38-.07Zm-6.31,6.19c-.93,0-2.46,0-3.38.07v-1.53c.87,0,2.41.06,3.38.06h1.41a12,12,0,0,0,1.21-1.93l1.6.73a.27.27,0,0,1,.18.25c0,.17-.13.24-.52.27l-.51.68h5.1c1.07,0,2.53,0,3.4-.06V269c-.92,0-2.37-.07-3.4-.07h0A11.39,11.39,0,0,1,45.44,271h.05a24.14,24.14,0,0,1,3.94,1.57l-.9,1.41c-.88-.44-1.78-.87-2.7-1.22-.65-.24-1.31-.46-2-.68A18.34,18.34,0,0,1,36.45,274a4.55,4.55,0,0,0-.51-1.52,22.26,22.26,0,0,0,5.86-1c-.78-.2-1.56-.34-2.36-.47l-.56.68-1.31-1c.57-.56,1.1-1.17,1.63-1.8Zm2.3,0c-.26.34-.51.66-.77,1a26.94,26.94,0,0,1,3.32.62,8.8,8.8,0,0,0,1.68-1.6Z"/><path d="M58.92,271.57a.29.29,0,0,1,.2.25c0,.17-.1.22-.54.26A16,16,0,0,1,52.8,274a3.16,3.16,0,0,0-.65-1.56,15.65,15.65,0,0,0,5.46-1.55Zm-2.77-.21H54.4c0-.68.05-1.66.05-3v-2.25c0-1,0-2.15-.05-2.7.68,0,1.32,0,2.27,0h6.87c1,0,1.68,0,2.38,0,0,.56,0,1.73,0,2.7v2.18c0,1.36,0,2.35,0,3H64.17v-.48h-8Zm.59-8.43H55.08c0-.41.05-1,.05-1.8v-.78c0-.55,0-1.19-.05-1.5.59,0,1.12,0,1.87,0h6.32c.77,0,1.29,0,1.89,0,0,.31,0,.95,0,1.5v.8c0,.8,0,1.37,0,1.77H63.47v-.41H56.74Zm7.43,1.9h-8v.79h8Zm-8,2.74h8v-.78h-8Zm0,2h8v-.78h-8Zm7.32-9.4H56.74v1.13h6.73ZM62,270.89a21.49,21.49,0,0,0,6,1.54,3.53,3.53,0,0,0-.76,1.58,18.43,18.43,0,0,1-3.25-.73,13.47,13.47,0,0,1-3-1.19Z"/><path d="M74,271.55c1.25-.26,2.55-.55,3.91-.88l.22,1.42c-2.4.63-3.83,1-7.28,1.6l-.12.19c-.06.12-.13.17-.22.17s-.18-.07-.24-.22l-.56-1.62c.87-.1,1.75-.22,2.65-.37v-4.35h-.49c-.73,0-1.68,0-2.38.05v-1.65c.65,0,1.62.05,2.38.05h.49v-4.22c0-1.76,0-2.17,0-2.72.38,0,.94,0,1.45,0H80.8c.69,0,1.53,0,2-.05v1.58c-.56,0-1.46,0-2,0H74v.8h5.28c.7,0,1.75,0,2.38-.05v1.57c-.63,0-1.68-.05-2.38-.05H74v.79h5.28c.7,0,1.75,0,2.38,0v1.57c-.63,0-1.68,0-2.38,0H74v.87h8.19c.68,0,1.78,0,2.38-.05v1.65c-.63,0-1.73-.05-2.38-.05h-5a9,9,0,0,0,1.68,1.87,19.07,19.07,0,0,0,2.72-1.7l1.38.88a.24.24,0,0,1,.13.19c0,.1-.12.15-.3.15h-.16c-.88.53-1.64.95-2.51,1.39a17.34,17.34,0,0,0,4.86,2.06,11.38,11.38,0,0,0-1,1.45,16.68,16.68,0,0,1-5.73-3,9.59,9.59,0,0,1-2.7-3.31H74Z"/><path d="M7.85,292.33a25.58,25.58,0,0,1-5.55,6.1,9.46,9.46,0,0,0-1.41-1.92A21.89,21.89,0,0,0,6.62,290a25.45,25.45,0,0,0,1.56-3H6.26c-1.32,0-3.48.05-4.77.1v-2.4c1.22.05,3.41.09,4.77.09H9c.34-1,.65-2.11,1-3.45l2.23.5c.38.1.58.22.58.43s-.17.36-.72.48c-.22.75-.41,1.42-.63,2h7.4c1.51,0,3.57,0,4.8-.09v2.4c-1.28-.05-3.34-.1-4.8-.1H10.66c-.32.77-.65,1.51-1,2.26H16.2c1.27,0,2.64,0,3.55-.1,0,.63,0,2.38,0,3.8V298c0,1.61,0,2.93,0,3.17,0,1.08-.21,1.61-.81,2s-1.47.53-3.65.53H15.1a12.6,12.6,0,0,0-.46-2.55c.91.08,1.25.1,1.58.1,1,0,1.13-.1,1.13-1v-1.7H10.18v5.28H7.78c0-.94.07-3.17.07-4.68Zm9.5-.94H10.18v1.44h7.17Zm0,3.58H10.18v1.44h7.17Z"/><path d="M32.47,285.35a7.36,7.36,0,0,1-1,2.16,11.45,11.45,0,0,1-3.8,3.5,6.85,6.85,0,0,0-1.29-1.87,9,9,0,0,0,3.29-2.81,7.1,7.1,0,0,0,.55-1H29c-.65,0-1.42,0-1.92,0v-2c.53,0,1.39.05,1.92.05h1.85c.12-.6.26-1.27.38-2.11l2.14.36a.3.3,0,0,1,.28.28c0,.15-.07.22-.4.36-.1.41-.17.77-.24,1.11h3.31l.45-.55,1.52,1.27a.49.49,0,0,1,.16.33c0,.17-.12.24-.62.44a9.35,9.35,0,0,1-1.27,3.6c-.67.88-1.42,1.08-4.06,1.08h-.19a8.8,8.8,0,0,0-.34-2.21c1,.07,1.11.07,1.49.07,1.23,0,1.66-.29,2.11-2.06ZM37.22,301c.2.12.27.19.27.33s-.17.29-.75.29a34.26,34.26,0,0,1-9.21,2.26,8.15,8.15,0,0,0-.75-2.11A30.63,30.63,0,0,0,35.45,300Zm-4.29-.41H30.5c0-1,.05-2.35.05-4.22v-2.45c0-1.44,0-3.05-.05-3.82.63,0,1.2.05,2,.05H43.15c.84,0,1.42,0,2.07-.05-.07.82-.07,1.54-.07,3.82v2.28c0,1.92,0,3.31.07,4.22H42.77v-.72H32.93ZM42.77,292H32.93v.88h9.84Zm-9.84,3.33h9.84v-.89H32.93Zm0,2.47h9.84v-.91H32.93Zm8.21-8.16H38.86c0-.57.07-1.37.07-2.54v-2.45c0-.77,0-1.68-.07-2.11.55,0,1,0,1.75,0H46c.7,0,1.2,0,1.73,0,0,.43-.07,1.34-.07,2.11v2.26c0,1.12,0,1.94.07,2.49H45.5v-.48H41.14Zm-.92,10.25a44.5,44.5,0,0,0,8.84,1.75,6.11,6.11,0,0,0-.89,2.14,35.57,35.57,0,0,1-9.27-2.26Zm5.28-15.31H41.14v2.33H45.5Z"/><path d="M63.84,288.63H62.73c-.4,0-1.39.05-1.89,0V286.4l1.89,0h1.11c0-2.62-.07-4.25-.14-4.85l2.56.17c.22,0,.36.12.36.24s-.12.26-.45.45c0,.87,0,2.4,0,4h1.22c.34,0,1.3,0,1.92,0v2.26c-.48,0-1.32,0-1.92,0H66.12v3.27c1.08-.48,2.06-1,3.19-1.56l.34,2.18c-1.3.7-2.38,1.25-3.53,1.78v.84c0,.89,0,2.47,0,4,0,.41,0,1.06,0,1.39,0,1.27-.1,1.85-.41,2.23-.55.75-1.49,1-4.2,1a10,10,0,0,0-.53-2.55,16,16,0,0,0,1.73.1c1,0,1.06-.1,1.06-1v-4.94l-1.49.62-.12.29c-.07.19-.17.26-.31.26a.37.37,0,0,1-.34-.26l-1-2.3c1.27-.41,2.35-.77,3.31-1.13Zm12-3.38a24.12,24.12,0,0,1-2.18,6h6.55c.69,0,1.2,0,1.73,0,0,.43-.08,1.34-.08,2.11v7.18c0,1.12,0,1.94.08,2.49H79.56v-1.75H74v2.23H71.62c0-.57.07-1.37.07-2.57v-6.33a20.69,20.69,0,0,1-3.77,4.27,10.75,10.75,0,0,0-1.2-2.09,20.71,20.71,0,0,0,6.7-11.52H71.5c-1,0-2.38,0-3.36.07V283c.91.05,2.28.08,3.36.08h8.35c1,0,2.52-.05,3.33-.08v2.33c-.86-.05-2.42-.07-3.33-.07Zm3.72,8.14H74v5.73h5.59Z"/><path d="M90.17,299.46c1.1-.22,2.21-.48,3.29-.77-.48-.55-1-1.15-1.68-1.87l1.7-1.39a25.93,25.93,0,0,1,4.68,5.81l-2.06,1.41c-.51-.89-.94-1.58-1.35-2.23-2.23.67-5,1.42-7.15,1.9-.19.33-.34.45-.48.45a.45.45,0,0,1-.34-.29l-.91-2.28c.72-.12,1.39-.21,2-.33V286.59a15.63,15.63,0,0,0-.07-2.11c.52,0,1,0,1.72,0h1.8v-1.37c0-.67,0-1.2,0-1.54l2.38.17c.28,0,.43.1.43.24s-.15.29-.48.48v2h1.87c.7,0,1.2,0,1.73,0,0,.43-.07,1.35-.07,2.11v6.22c0,1.13,0,1.92.07,2.5H94.87v-.48h-4.7Zm4.7-12.82h-4.7v1.92h4.7Zm0,4.06h-4.7v2h4.7Zm13-6.72a.63.63,0,0,1,.21.43c0,.17,0,.24-.38.34a67.23,67.23,0,0,1-2.45,6.36c2.26,2.2,3,3.69,3,6a4,4,0,0,1-1,3.1,3.49,3.49,0,0,1-2.33.81c-.26,0-.62,0-1.36,0h-.36a9.4,9.4,0,0,0-.32-2.57,9,9,0,0,0,1.18.1c1.25,0,1.68-.39,1.68-1.44a7.1,7.1,0,0,0-1.22-3.68,13.81,13.81,0,0,0-1.8-2c.28-.69.5-1.22.64-1.58.8-1.95,1.28-3.29,1.76-4.78h-3.48v11.74c0,3.07,0,5.5.09,7H99.19c.07-1.59.12-4,.12-7V285c0-.74,0-1.68-.07-2.11.55,0,1,0,1.75,0h5.07l.28-.36Z"/><path d="M122,278.17A44,44,0,0,0,122,309h-.94a40.48,40.48,0,0,1,0-30.83Z"/><path d="M271.42,309a44.13,44.13,0,0,0,0-30.83h.94a40.48,40.48,0,0,1,0,30.83Z"/><path d="M130.63,286.41a19.45,19.45,0,0,0,2.18-.7l.1.77a33.66,33.66,0,0,1-4,1.36c-.11.18-.19.27-.28.27a.24.24,0,0,1-.19-.17L128,287c.67-.12,1.23-.24,1.75-.36v-3.51h-.67l-.84,0v-.88h1.51v-3.23h-1.64v-.87l.84,0h2.65c.21,0,.6,0,.84,0v.87h-1.78v3.23h1.65v.88l-.82,0h-.83Zm4.2-2.49c.18,0,.28.08.28.17s-.07.15-.28.24c0,2.11-.05,2.56-.32,3.27a3.67,3.67,0,0,1-1.95,2,7.64,7.64,0,0,1-1.81.7,3.28,3.28,0,0,0-.49-.84,9.18,9.18,0,0,0,1.94-.69,3,3,0,0,0,1.45-1.62,7.74,7.74,0,0,0,.14-3.35Zm1.63-3.78a15.27,15.27,0,0,1-1.17,2.14c1.26-.07,2.51-.18,3.76-.32a11.88,11.88,0,0,0-1.08-1.17l.57-.54a10.3,10.3,0,0,1,2.44,2.81l-.84.59c-.2-.35-.41-.68-.62-1-1.16.18-1.71.25-3.15.4l-2.87.31c-.14.17-.2.22-.27.22s-.15-.07-.21-.22l-.3-.92,1.55-.07a17.25,17.25,0,0,0,1.18-2.2h-1.59c-.4,0-1,0-1.4,0v-.94l1.4,0H136V278.2c0-.18,0-.6,0-.89l1,.1c.18,0,.27,0,.27.14s-.09.16-.28.28v1.42h2.63l1.39,0v.94c-.39,0-1,0-1.39,0Zm.42,3.67c.16,0,.25.05.25.14s-.09.17-.27.28c0,.29,0,.7,0,1.31V288c0,.94,0,1.66,0,2.05h-1c0-.49,0-1.15,0-2.05v-2.41c0-.84,0-1.45,0-1.83Zm2.06,5.11c0,.22.08.28.47.28.66,0,.69-.07.72-1.61a4,4,0,0,0,1,.35c-.1,1.46-.18,1.74-.6,2a3.1,3.1,0,0,1-1.19.17c-1,0-1.25-.22-1.25-.95v-4.62c0-.34,0-.7,0-.9l.94.1c.19,0,.26.05.26.14s-.07.17-.27.28a3.78,3.78,0,0,0,0,.38Z"/><path d="M144,283h-.85c-.27,0-.63,0-.84,0v-.89c.21,0,.57,0,.84,0H144v-2.76h-1.93v-.87c.21,0,.56,0,.84,0H146c.26,0,.63,0,.84,0v.87a7.78,7.78,0,0,0-.84,0h-1.1v2.76h1c.26,0,.63,0,.84,0V283c-.21,0-.58,0-.84,0h-1V286a21.19,21.19,0,0,0,2.19-1l.19.82c-1,.53-2.77,1.3-4.34,1.91-.11.24-.15.31-.24.31a.3.3,0,0,1-.22-.14l-.56-.95c.66-.17,1.37-.39,2.1-.64Zm7.2,2.25c0,.72,0,1.87,0,3,0,.24,0,.53,0,.66,0,.59-.13.85-.47,1a3.42,3.42,0,0,1-1.8.28,2.29,2.29,0,0,0-.28-1.06c.43,0,.67,0,1,0,.53,0,.57-.05.57-.57v-2.62c-1,.61-2,1.2-3.32,2l0,.15c0,.14-.11.2-.21.2a.27.27,0,0,1-.2-.11l-.63-.9a26.52,26.52,0,0,0,4.4-2.28v-4.2h-1.57c-.59,0-1.37,0-1.95,0v-1c.54,0,1.33,0,1.95,0h1.57c0-1.38,0-2.24-.08-2.57l1.06.1c.14,0,.21.07.21.14s-.07.16-.25.27c0,.39,0,.47,0,2.06h1.9c.56,0,1.47,0,1.94,0v1c-.5,0-1.41,0-1.94,0h-1.91v.65a14.93,14.93,0,0,0,.62,2.13A13.53,13.53,0,0,0,154,282l.74.58c.12.09.14.16.14.23s-.07.14-.21.14l-.21,0a18.79,18.79,0,0,1-2.28,1.41c.13.28.27.54.42.82a10.6,10.6,0,0,0,2.68,3.21,2.33,2.33,0,0,0-.79.77,11.86,11.86,0,0,1-2.49-3.31,10,10,0,0,1-.73-1.68Zm-3.22-3.4a10.87,10.87,0,0,1,1.83,2.14l-.77.59a11.65,11.65,0,0,0-1.66-2.16Zm4.45-4.12a7.35,7.35,0,0,1,1.5,1.5l-.7.62a8.71,8.71,0,0,0-1.34-1.53Z"/><path d="M163,282a11.38,11.38,0,0,0,2,4,10.2,10.2,0,0,0,4.06,3.15,6.81,6.81,0,0,0-.84.87,11.64,11.64,0,0,1-4-3.46,9.71,9.71,0,0,1-1.65-3.52,9.91,9.91,0,0,1-.64,2.24,8.55,8.55,0,0,1-2.78,3.52,11.91,11.91,0,0,1-2.71,1.41,3.89,3.89,0,0,0-.54-.82,9.58,9.58,0,0,0,3.71-2.37,8.41,8.41,0,0,0,2.09-4.83c0-.09,0-.16,0-.23h-2.53c-.77,0-2,0-2.79.06v-1c.72,0,2,.05,2.79.05h2.62c0-.65.05-1.59.07-3.71l1,.16c.22,0,.32.09.32.21s-.09.16-.32.25c0,1.23-.06,2.24-.11,3.09H166c.88,0,2.09,0,2.8-.05v1c-.75,0-1.94-.06-2.8-.06Z"/><path d="M179.37,281.85l.77.7c.11.11.15.16.15.22s0,.2-.52.28a16.91,16.91,0,0,1-2.7,1.72c0,.23,0,.45,0,.68h3.2c.89,0,2.08,0,2.79-.06v1c-.74,0-1.93-.05-2.79-.05H177v1c0,.26,0,1,0,1.49a1.13,1.13,0,0,1,0,.19c0,1-.47,1.25-2.41,1.26a2.44,2.44,0,0,0-.27-1.09c.53,0,.81.06,1.18.06s.52-.09.52-.59v-2.33h-3.23c-.77,0-2,0-2.78.05v-1c.73,0,2,.06,2.78.06h3.23a9,9,0,0,0-.12-1.56l.89.07a12.29,12.29,0,0,0,1.58-1h-3.78c-.59,0-1.42,0-1.95.05V282c.53,0,1.36,0,1.95,0h4.48Zm-1.26-1.7a13.92,13.92,0,0,0,1.68-2.88l.94.46c.11,0,.15.1.15.15s-.07.16-.28.2a23.63,23.63,0,0,1-1.42,2.07h.93c.68,0,1.76,0,2.38-.06,0,.51,0,.76,0,1.07v.35c0,.35,0,.77,0,1.23h-1c0-.4,0-.91,0-1.23V281h-9.93v.5c0,.32,0,.83,0,1.23h-1c0-.46,0-.88,0-1.23v-.35c0-.31,0-.56,0-1.07.63,0,1.58.06,2.49.06Zm-5.59-2.7a8.27,8.27,0,0,1,1.61,2.11l-.88.56a11.38,11.38,0,0,0-1.43-2.15Zm3.43-.17a9.05,9.05,0,0,1,1.16,2.28l-.92.4a10.47,10.47,0,0,0-1-2.32Z"/><path d="M191.12,278.13c0-.37,0-.68,0-.89l1,.1c.17,0,.25.05.25.14s-.08.16-.28.28v1.07h2.13c.87,0,2.07,0,2.79-.05v1c-.72,0-2-.06-2.79-.06h-6.85v3.23a13.18,13.18,0,0,1-.42,4,7.87,7.87,0,0,1-1.91,3.29,2.68,2.68,0,0,0-.7-.68,7.47,7.47,0,0,0,2.08-5.06,5,5,0,0,1-.49.35l-1,.63c-.09.21-.15.28-.22.28s-.15-.07-.2-.17l-.42-.85a15.85,15.85,0,0,0,2.4-1.23c0-.2,0-.41,0-.62v-2.75c0-.42,0-1,0-1.23h4.73ZM184.88,280a6.76,6.76,0,0,1,1.16,2.06l-.85.43a8.72,8.72,0,0,0-1-2Zm7.72,4.12c0,.15,0,.29,0,.45a11.52,11.52,0,0,1,2.55,2.52l-.67.71a11.74,11.74,0,0,0-2-2.41,3.65,3.65,0,0,1-.52,1.07,5.12,5.12,0,0,1-2.06,1.72,3.5,3.5,0,0,0-.46-.76,4.23,4.23,0,0,0,1.91-1.7,3.81,3.81,0,0,0,.42-1.6h-2.41v2.77c0,2.15,0,2.71,0,3.29h-1c0-.54,0-1.84,0-2.71v-1.94c0-1.58,0-1.89,0-2.31.54,0,1.36.07,2.1.07h1.26v-1.5h-2.16c-.46,0-1.24,0-1.66.05v-1c.42,0,1.13.05,1.66.05h5.61c.54,0,1.26,0,1.68-.05v1c-.44,0-1.22-.05-1.68-.05h-2.54v1.5h1.51c.73,0,1.53,0,2.08-.07,0,.34,0,.7,0,2.08v2c0,.28,0,1,0,1.49a1.41,1.41,0,0,1,0,.18c0,1-.45,1.23-2.28,1.26a2.2,2.2,0,0,0-.26-1.07,6.77,6.77,0,0,0,1,.05c.56,0,.62-.06.62-.58v-4.48Z"/><path d="M199.62,278.83v7.29c0,1.79,0,3.22.06,4.1h-1c0-.94.07-2.34.07-4.1v-6.91c0-.43,0-1,0-1.23h2.76l.18-.18.77.6a.28.28,0,0,1,.1.19c0,.08-.06.14-.3.26a32.37,32.37,0,0,1-1.38,3.36,4,4,0,0,1,1.38,1.71,4.15,4.15,0,0,1,.27,1.45,1.66,1.66,0,0,1-1.16,1.8,3.9,3.9,0,0,1-1.32.13,3.12,3.12,0,0,0-.21-1.07c.15,0,.48,0,.66,0,.84,0,1.06-.21,1.06-1a3,3,0,0,0-.73-2,7.45,7.45,0,0,0-.95-.91,36,36,0,0,0,1.39-3.56Zm6.42,6.49a5.28,5.28,0,0,1-1.33,3.15,7.25,7.25,0,0,1-3.38,1.86,3.07,3.07,0,0,0-.49-.75,6.8,6.8,0,0,0,3.21-1.71,4.13,4.13,0,0,0,1.06-2.55h-.52c-.46,0-1.24,0-1.68,0v-.91c.42,0,1.14,0,1.68,0h4.32c.54,0,1.26,0,1.68,0v.91c-.42,0-1.22,0-1.68,0h-.74v3.31c0,.35.15.42.89.42s1.15-.1,1.26-.47a3.37,3.37,0,0,0,.11-1,3.93,3.93,0,0,0,.89.35c-.14,1.14-.21,1.36-.49,1.61s-.82.33-1.89.33c-1.25,0-1.7-.24-1.7-.94v-3.63Zm.09-7.12c0-.39,0-.7,0-.89l.95.08c.19,0,.26.07.26.16s-.07.16-.28.28V279h1c1,0,2,0,2.77-.07,0,.51,0,.78,0,1.08v.41c0,.36,0,.77.05,1.23h-1c0-.4,0-.91,0-1.23v-.65h-6.38v.65c0,.32,0,.83,0,1.23h-1c0-.46,0-.87,0-1.23v-.41c0-.3,0-.56,0-1.08.71,0,1.82.07,2.77.07h.71Zm3.53,4.6c-.4,0-1,0-1.4,0h-3c-.4,0-1,0-1.4,0v-.9c.41,0,1,0,1.4,0h3c.41,0,1,0,1.4,0Z"/><path d="M133.15,299.82c-.29,0-.73,0-1.11,0h-2.85c-.38,0-.83,0-1.12,0v-.92l1.12,0H132l1.11,0Zm-3.67,9.3h-1c0-.33,0-.77,0-1.49v-1.78c0-.44,0-1,0-1.24.32,0,.6,0,1,0h2.24c.41,0,.7,0,1,0,0,.26,0,.8,0,1.24v1.43c0,.68,0,1.12,0,1.45h-1v-.57h-2.3Zm3.07-11.24c-.21,0-.56,0-.84,0h-2.2c-.27,0-.63,0-.84,0V297l.84,0h2.2l.84,0Zm0,3.72h-3.88v-.89l.84,0h2.2l.84,0Zm0,1.92h-3.88v-.9c.21,0,.57,0,.84,0h2.2c.28,0,.63,0,.84,0Zm-.77,1.91h-2.3v1.93h2.3Zm5.26-8.81c.33.12.4.18.4.3s0,.14-.23.23a8.55,8.55,0,0,0,3.94,3.46,2.06,2.06,0,0,0-.65.84,10.21,10.21,0,0,1-2.53-1.93,7,7,0,0,1-1.35-1.81,9.33,9.33,0,0,1-1.29,2,10.43,10.43,0,0,1-2.1,2,3.44,3.44,0,0,0-.57-.79,8.81,8.81,0,0,0,2.1-2,9.28,9.28,0,0,0,1.44-2.6Zm1,4a.21.21,0,0,1,.14.18c0,.12-.09.15-.45.15A12,12,0,0,1,133.4,304a3,3,0,0,0-.45-.8,10.31,10.31,0,0,0,4.22-3.1Zm2.93,4.72a.26.26,0,0,1,.14.19c0,.13-.12.17-.49.17a12.72,12.72,0,0,1-3.3,2.21,16.46,16.46,0,0,1-3.85,1.33,3.22,3.22,0,0,0-.35-.86,13.75,13.75,0,0,0,7-3.59Zm-1.42-2.61c.13.08.18.16.18.24s-.11.17-.33.17a.37.37,0,0,1-.13,0,13.21,13.21,0,0,1-5.5,3.35,3.46,3.46,0,0,0-.41-.84,11.37,11.37,0,0,0,5.37-3.42Z"/><path d="M152.63,304.67c0,.66,0,1.13,0,1.46h-.88v-.28h-1.64v.54c0,.21,0,1.31,0,1.67,0,1-.45,1.23-2.27,1.26a2.2,2.2,0,0,0-.27-1.06,8.63,8.63,0,0,0,1,0c.55,0,.62-.06.62-.58v-1.87h-1.53v.26h-.88c0-.33,0-.8,0-1.5v-1.33a12,12,0,0,1-1.57,1.31,3,3,0,0,0-.59-.69,13,13,0,0,0,1.87-1.51,9.18,9.18,0,0,0-1.39-1.33l.52-.51a8.74,8.74,0,0,1,1.47,1.18c.1-.11.19-.23.29-.35a9.49,9.49,0,0,0,.72-1h-1.26l-1.68,0v-.86l1.68,0h1.7a14.46,14.46,0,0,0,.55-1.34h-4.41v3.7a10.47,10.47,0,0,1-.48,3.74,7.7,7.7,0,0,1-1.93,3.33,2.58,2.58,0,0,0-.63-.71,7.59,7.59,0,0,0,2.07-4.86c-.17.09-.46.28-1.12.68-.1.21-.15.27-.22.27a.22.22,0,0,1-.2-.16l-.42-.85a17.76,17.76,0,0,0,2-1,4.87,4.87,0,0,0,0-.54v-3.22c0-.44,0-1,0-1.24.47,0,1,0,1.55,0h3.52v-.23c0-.37,0-.68,0-.89l1,.1c.18,0,.26.05.26.14s-.08.16-.28.28v.6h2.28c.87,0,2.08,0,2.81-.06v.95c-.73,0-2-.05-2.81-.05h-2.82l.82.31c.17.05.25.14.25.22s0,.14-.37.2c-.12.22-.21.43-.31.61h3.22l1.68,0v.86l-1.68,0h-1.57a8.9,8.9,0,0,0,1,1.16,10.18,10.18,0,0,0,1.2-1.08l.8.59a.2.2,0,0,1,.1.15c0,.09-.09.14-.24.14H154c-.29.17-.36.21-.82.52a2.6,2.6,0,0,0-.28.2,9.78,9.78,0,0,0,2.36,1.26,3.11,3.11,0,0,0-.57.82,12.18,12.18,0,0,1-2-1.2Zm-10.06-5.87a6.65,6.65,0,0,1,1.18,2.05l-.87.44a8,8,0,0,0-1-2Zm5.66,7.75c.19.1.22.12.22.19s-.1.16-.32.18a12.1,12.1,0,0,1-4,2.22,5.46,5.46,0,0,0-.48-.8,10,10,0,0,0,4-2.12Zm3.56-2.94v-.75h-4.08v.75Zm-4.08,1.47h4.08v-.75h-4.08Zm4-3a8.29,8.29,0,0,1-1.27-1.73h-1.22a12.72,12.72,0,0,1-1.13,1.61,1.33,1.33,0,0,1-.12.12Zm-.29,4.15a18.53,18.53,0,0,0,3.26,2,3.57,3.57,0,0,0-.67.76,17.92,17.92,0,0,1-3.19-2.23Z"/><path d="M157.33,299.24a.14.14,0,0,1,.14.16.15.15,0,0,1-.07.12l-.12.06a10.26,10.26,0,0,1-.72,3.55,2.92,2.92,0,0,0-.75-.55,8.09,8.09,0,0,0,.66-3.51Zm1.42-2.71c.13,0,.2.07.2.14s-.07.16-.25.27c0,.49,0,.78,0,3.61v4.69c0,1.81,0,3.18.06,4.09h-1c0-.91.07-2.28.07-4.09v-4.69c0-2.3,0-3.68-.09-4.12Zm.65,2.23a9.71,9.71,0,0,1,1.32,1.67l-.76.51a16,16,0,0,0-1.13-1.68Zm8.36-1c.3,0,.8,0,1.11,0v.84l-1.11,0h-3.08v.82h3.18v.84c-.29,0-.74,0-1.12,0h-2.06v1h3l1.38,0V302l-1.38,0h-6.63l-1.39,0v-.85l1.39,0h2.69v-1h-1.69c-.38,0-.82,0-1.13,0v-.84h2.82v-.82h-2.49l-1.12,0v-.84c.3,0,.81,0,1.12,0h2.49c0-.72,0-1.14,0-1.44l1,.08c.17,0,.24.07.24.14s-.07.17-.27.28c0,.2,0,.78,0,.94Zm-6,8.89c0,2.08,0,2.13,0,2.66h-1c0-.54,0-1.84,0-2.73v-1.23c0-2,0-2.3,0-2.73.54,0,1.34.06,2.08.06h2.72c.73,0,1.53,0,2.07-.06,0,.36,0,.81,0,2.21v1.47c0,.26,0,1,0,1.49a1.13,1.13,0,0,1,0,.19c0,1-.45,1.24-2.27,1.26a2.31,2.31,0,0,0-.27-1.06c.41,0,.63,0,1,0,.56,0,.61-.05.61-.57v-1Zm5-3.18h-5v.8h5Zm-5,2.43h5v-.87h-5Z"/><path d="M175.71,301.22c.11,0,.15.09.15.14s0,.12-.32.21c-.35.75-.54,1.13-.75,1.52h1a9.31,9.31,0,0,0,1.05,0V304c-.18,0-.46,0-1.05,0H173.9v1.41h2.67v.88c-.3,0-.75,0-1.13,0H173.9v.69c0,1.05,0,1.95,0,2.45h-1c0-.55,0-1.32,0-2.45v-.69h-1.34c-.38,0-.83,0-1.12,0v-.88H173v-1.41h-1.76c-.38,0-.83,0-1.12,0v-.89c.31,0,.81,0,1.12,0H172a10.74,10.74,0,0,0-.89-1.88l.44-.21h-1.45v-.88c.31,0,.81,0,1.12,0H173V299h-2.46v-.88l1.12,0H173v-.39c0-.55,0-1,0-1.31l1,.1c.17,0,.25.06.25.14s-.08.17-.27.28v1.18h1.54l1.13,0V299H173.9v1.19h1.89c.34,0,.86,0,1.1,0V301h-1.78Zm-3.8-.22a7.32,7.32,0,0,1,.59.94,5.64,5.64,0,0,1,.39.87l-.6.28h1.63a10.27,10.27,0,0,0,.77-2.09Zm9.35,5.62a7.53,7.53,0,0,0,2,1.65,3.53,3.53,0,0,0-.62.85,7.7,7.7,0,0,1-1.87-1.65,9.83,9.83,0,0,1-1.67,1.72,4.68,4.68,0,0,0-.62-.74,7.94,7.94,0,0,0,1.73-1.78l-.13-.21a8.82,8.82,0,0,1-1.08-3.84h-.7v5.17c0,.65,0,1.19,0,1.5h-1c0-.33,0-.8,0-1.5v-9.52c0-.45,0-1,0-1.23h5c0,.23,0,.71,0,1.13V299c0,.35,0,.7,0,1.16,0,.87-.36,1.08-2,1.08h-.12a2.89,2.89,0,0,0-.19-1.05l.93,0c.34,0,.43-.07.43-.37v-2h-3.17v3.95h3.57l.2-.24.68.61c.09.08.12.12.12.19s-.07.17-.23.21l0,0a12.44,12.44,0,0,1-1.25,3.93Zm-1.45-4a9.24,9.24,0,0,0,.87,3.11,11.52,11.52,0,0,0,.93-3.11Z"/><path d="M189.33,297.61c.3,0,.8,0,1.12,0v.84c-.31,0-.74,0-1.12,0h-1.24a6.83,6.83,0,0,1,.75,1.48l-.89.37a6.85,6.85,0,0,0-.89-1.85h-.77a11.44,11.44,0,0,1-1.66,1.84,3.94,3.94,0,0,0-.55-.67,9.4,9.4,0,0,0,2.44-3.35l.84.35c.12.06.21.13.21.21s-.07.14-.4.2a6.88,6.88,0,0,1-.36.64Zm6.45,0c.3,0,.81,0,1.12,0v.84l-1.12,0H194a6.5,6.5,0,0,1,.73,1.42l-.92.38a8.17,8.17,0,0,0-.81-1.8h-1.13a10.11,10.11,0,0,1-1,1l.2,0c.18,0,.25.07.25.13s-.07.17-.26.29a5.62,5.62,0,0,0,0,.6h2.65c1,0,2.06,0,2.79-.06,0,.51,0,.77,0,1.08V302c0,.35,0,.75,0,1.22h-1c0-.41,0-.9,0-1.22v-.67h-9.93V302c0,.32,0,.81,0,1.22h-1c0-.47,0-.87,0-1.22v-.52c0-.31,0-.57,0-1.08.71,0,1.82.06,2.77.06h2.73v-.21c0-.39,0-.7,0-.9l.66.06a2.83,2.83,0,0,0-.56-.54,8.52,8.52,0,0,0,2-2.71l.84.33c.13.06.21.13.21.21s-.05.16-.39.2a5.14,5.14,0,0,1-.4.7Zm-2.39,8.25h1.55c0,.25-.05.78-.05,1.23v.66c0,.66,0,1.13.05,1.45h-1v-.46H187.6v.59h-1c0-.32,0-.8,0-1.48v-4.39c0-.45,0-1,0-1.24.49,0,.91,0,1.54,0h4.58c.62,0,1.05,0,1.54,0,0,.25,0,.79,0,1.24v.49c0,.66,0,1.12,0,1.46h-1V305H187.6v.9Zm-.14-2.77H187.6v1h5.65Zm-5.65,4.8h6.33V306.7H187.6Z"/><path d="M201.08,305.16c.73-.39,1.44-.81,2.13-1.27l.25.77c-.83.54-1.39.89-2.06,1.28L199,307.28c-.1.22-.17.3-.25.3a.26.26,0,0,1-.21-.14l-.56-.85c.75-.28,1.51-.62,2.26-1v-3.36H198.3v-.88l.84,0h1.05v-3H199l-.83,0v-.88h5v.88l-.82,0h-1.26v3h1l.84,0v.88h-1.83Zm3.5-1.78V304h-1c0-.56,0-1.37,0-2.47v-2.08c0-.84,0-1.78,0-2.23.36,0,.7,0,1.19,0h4.3c.49,0,.82,0,1.19,0,0,.45,0,1.53,0,2.23v1.89c0,1.11,0,1.93,0,2.46h-.95v-.39h-2v1.82h1.77c.53,0,1.26,0,1.66,0v.94l-1.66,0h-1.77V308h2.14c.54,0,1.26,0,1.67,0v1c-.42,0-1.2,0-1.67,0H202.9c-.46,0-1.25,0-1.68,0v-1c.42,0,1.13,0,1.68,0h3.57v-1.92h-1.76l-1.67,0v-.94c.4,0,1.13,0,1.67,0h1.76v-1.82Zm1.89-5.32h-1.89V300h1.89Zm-1.89,2.74v1.74h1.89V300.8Zm4.78-.84v-1.9h-2V300Zm-2,2.58h2V300.8h-2Z"/><path d="M217.35,302.09v3.31c0,1,.22,1.12,1.86,1.12a12.3,12.3,0,0,0,3.39-.39l.24,1a17.52,17.52,0,0,1-3.64.31c-2.43,0-2.83-.26-2.83-1.92v-3.22c-2,.35-2.4.45-3.55.71l-.28-1.06c1.12-.1,2.54-.29,3.83-.5v-1.26c0-1.12,0-1.7-.06-2.12l1.08.1c.15,0,.24.07.24.15s-.06.13-.27.27c0,.33,0,.46,0,1.6v1.09l5.15-.9.14-.17.77.69c.1.1.13.14.13.21s-.07.14-.32.18a11.07,11.07,0,0,1-3.24,3.48,2.46,2.46,0,0,0-.67-.69,9,9,0,0,0,2.88-2.82Z"/><path d="M228.7,298.86a7.4,7.4,0,0,1,2.53,2l-.79.77a8.93,8.93,0,0,0-2.36-2Zm-.27,7.7a20.33,20.33,0,0,0,4.69-2.66,19.41,19.41,0,0,0,4.24-4.29,2.21,2.21,0,0,0,.63.83,23.22,23.22,0,0,1-4.35,4.33,32,32,0,0,1-4.1,2.56c-.06.2-.11.28-.21.28a.32.32,0,0,1-.24-.17Z"/><path d="M249.49,298.91l.18-.24.79.65c.14.11.18.17.18.25s-.07.18-.31.28a14.74,14.74,0,0,1-1.54,3.55,10.23,10.23,0,0,1,1.6,1.26l-.72.78a12.34,12.34,0,0,0-1.44-1.22,14.5,14.5,0,0,1-5.36,4.33,3,3,0,0,0-.55-.8,13.12,13.12,0,0,0,5.1-4.05,14.3,14.3,0,0,0-2.16-1l.51-.75a14.63,14.63,0,0,1,2.18.94,12.25,12.25,0,0,0,1.39-3.12h-3.28a12.6,12.6,0,0,1-3.44,4.22,2.22,2.22,0,0,0-.66-.71,12.57,12.57,0,0,0,3-3.49,10.71,10.71,0,0,0,1.06-2.72l.94.37c.15.05.2.09.2.18s0,.14-.31.24c-.18.51-.27.72-.39,1Z"/><path d="M265.83,303.3c-.66,0-1.76-.05-2.51-.05h-5.49c-.68,0-1.9,0-2.5.05v-1c.57,0,1.79.05,2.5.05h5.49c.77,0,1.9,0,2.51-.05Z"/><path d="M12.64,7.5c-.49,0-1.2,0-1.7,0H7.15c-.49,0-1.2,0-1.7,0V6A26.8,26.8,0,0,1,1.76,8.38,5.12,5.12,0,0,0,.83,6.71,16.22,16.22,0,0,0,8.38,0L10,.58c.22.07.32.17.32.29s-.07.17-.34.27A11.08,11.08,0,0,0,12.81,4,19.17,19.17,0,0,0,17.3,6.36a6.33,6.33,0,0,0-1,1.73,26,26,0,0,1-3.62-2Zm2.21,8.09c-.39-.5-.76-1-1.19-1.47-1.65.31-2.7.46-4.84.7-.63.07-.78.09-3.4.34l-2.28.24c-.13.2-.25.31-.35.31s-.19-.12-.23-.22L2.09,13.7h.54c.61,0,1.21,0,1.82-.07A17.59,17.59,0,0,0,5.52,12c.26-.44.48-.88.72-1.33H5.13c-.83,0-2.31,0-3,.06V9c.7,0,2.17.07,3,.07h8c.93,0,2.27,0,3-.07v1.69c-.8,0-2.14-.06-3-.06h-5c-.16.26-.28.48-.38.65-.66,1.07-1,1.55-1.43,2.19l1.33-.1c2-.15,3.35-.29,4.74-.49-.44-.39-.92-.73-1.39-1.11l1.09-1a17.24,17.24,0,0,1,4.14,3.69ZM10.94,5.92c.5,0,1,0,1.47,0-.28-.19-.53-.39-.77-.58A11.52,11.52,0,0,1,9,2.36a16.47,16.47,0,0,1-2.71,3,6.87,6.87,0,0,1-.61.51c.51,0,1,0,1.51,0Z"/><path d="M37.21,6H36.5c-.46,0-1,0-1.36,0V4.42c.37,0,1,0,1.36,0h.71V3.26c0-1.34,0-2-.05-2.55l1.73.12c.19,0,.29.07.29.17s-.08.21-.3.34c0,.39,0,.85,0,1.92V4.45h.59c.36,0,1,0,1.35,0V6L39.45,6h-.59V9.23a17.4,17.4,0,0,0,1.85-.6l.14,1.47a39.36,39.36,0,0,1-4.66,1.56c-.15.26-.22.32-.34.32a.28.28,0,0,1-.24-.2L35,10.08c.71-.1,1.46-.26,2.19-.43ZM48,10.67a9,9,0,0,1-2,3,8.92,8.92,0,0,1-3.57,2.31,3.52,3.52,0,0,0-.79-1.17,9.09,9.09,0,0,0,3.2-2,8.55,8.55,0,0,0,1.5-2.11H45.28a8.84,8.84,0,0,1-2.21,2.55,13.73,13.73,0,0,1-4,2.15,3,3,0,0,0-.75-1.25A13.39,13.39,0,0,0,42,12.36a6.55,6.55,0,0,0,1.67-1.69H42.48a7.53,7.53,0,0,1-.58.51,15.53,15.53,0,0,1-3.7,2.32,4,4,0,0,0-.85-1.21,12,12,0,0,0,5.16-3.77h-.73c-.56,0-1.51,0-2,.05V7c.51,0,1.38,0,2,0H48.9c.67,0,1.53,0,2,0v1.6c-.52,0-1.47-.05-2-.05H44.3c-.17.25-.34.51-.53.74h5.95L49.89,9l1,.87a.39.39,0,0,1,.12.24c0,.12-.09.22-.28.29l-.15.05c-.48,3.09-.78,4-1.48,4.83-.46.51-1.14.66-3,.68a8.42,8.42,0,0,0-.39-1.74c.39,0,.75,0,1.19,0,.73,0,1.06-.15,1.29-.61a9.09,9.09,0,0,0,.77-3ZM43.26,6.24V6.7H41.65c0-.41.05-1,.05-1.8V2.35c0-.53,0-1.19-.05-1.5.39,0,.73,0,1.24,0h4.88c.49,0,.85,0,1.22,0,0,.31-.05,1-.05,1.5V4.88c0,.8,0,1.37.05,1.77h-1.6V6.24Zm4.13-4H43.26v.65h4.13Zm0,1.92H43.26v.7h4.13Z"/><path d="M3.12,31a21.37,21.37,0,0,1,3.13,3.27L4.3,35.79a21.09,21.09,0,0,0-2.88-3.3Zm5.43,6.8a51.7,51.7,0,0,1-3.73,7.92c-.32.62-.5.92-.77,1.55v.17c0,.2,0,.35-.2.35s-.15,0-.38-.22L1.7,46.06a43.74,43.74,0,0,0,4.92-9.57ZM5.42,25.34a21.54,21.54,0,0,1,3,3.15L6.4,30a19.87,19.87,0,0,0-2.73-3.25Zm9.93,4.73c0-2.7-.08-4.38-.15-5l2.77.17c.2,0,.35.13.35.25s-.12.28-.45.48c0,1.1,0,2.25,0,4.1h3.5c1.1,0,1.87,0,2.74,0-.05.45-.07,1.4-.07,2.2v6c0,1.17,0,2,.07,2.6H21.5V39.64H17.85v1.15c0,3.25,0,5.72.12,7.3H15.25c.07-1.63.1-4.08.1-7.3V39.64H11.92v1.48H9.32c0-.58.08-1.43.08-2.65V32.24c0-.8,0-1.75-.08-2.2.88,0,1.65,0,2.75,0Zm-3.43,2.3v5h3.43v-5Zm5.93,5H21.5v-5H17.85Z"/><path d="M29.24,39.19c.2,0,.3.13.3.28s0,.15-.15.25l-.23.17a25,25,0,0,1-1,6.47,9.58,9.58,0,0,0-2-.85,19.2,19.2,0,0,0,.9-6.32v-.35Zm-2.78-3.95,1.75,0c.48-.73,1-1.45,1.45-2.15a23,23,0,0,0-3.25-2.63l1.08-1.75.77.53a27,27,0,0,0,1.9-4.2l2,.82a.42.42,0,0,1,.23.33c0,.15-.18.27-.53.35a35.36,35.36,0,0,1-2,3.8c.35.27.7.52,1,.82a24,24,0,0,0,1.73-3.5l2.12,1A.49.49,0,0,1,35,29c0,.18-.18.28-.55.38a47.57,47.57,0,0,1-3.73,5.72c.68,0,1.38-.07,2-.12-.15-.35-.35-.7-.57-1.13l1.55-.9A16.69,16.69,0,0,1,35.88,37L34,38c-.18-.48-.33-.85-.48-1.2-.4.07-.82.12-1.25.2v5.87c0,2.3,0,4,.08,5.12H29.84c.05-1.1.07-2.82.07-5.12V37.32c-.7.1-1.37.2-2,.27-.2.25-.33.35-.45.35s-.28-.15-.33-.35Zm7.7,3.1a21.59,21.59,0,0,1,1.75,4.92l-1.95,1a24.93,24.93,0,0,0-1.5-5.1Zm4.65-4.55v.6h-2.3c.05-.57.05-1.42.05-2.65V28.19c0-.8,0-1.77-.05-2.22.87,0,1.62.05,2.75.05h6.3c1.12,0,1.9,0,2.75-.05,0,.45-.05,1.42-.05,2.22v3.45c0,1.18,0,2,.05,2.6H46v-.45H43.46V35H46c1.12,0,1.87,0,2.75,0,0,.45-.08,1.4-.08,2.2v3.88c0,1.17,0,2,.08,2.6h-2.3v-.46h-3V45c0,.68.17.75,2.2.75,1.85,0,2.12-.07,2.25-.47a5.38,5.38,0,0,0,.15-1.45,18,18,0,0,0,2.3.72c0,2-.43,2.83-1.43,3.18a16.55,16.55,0,0,1-4,.22c-3.32,0-3.82-.3-3.82-2.37V43.21h-2.7v1h-2.3c0-.59.08-1.42.08-2.67V37.19c0-.8,0-1.75-.08-2.2.87,0,1.65,0,2.75,0h2.25V33.79ZM41.11,37h-2.7v1.2h2.7Zm-2.7,3v1.18h2.7V40Zm2.7-12h-2.3v1h2.3Zm-2.3,2.82v.95h2.3v-.95ZM46,29V28H43.46v1Zm-2.57,2.8H46v-.95H43.46Zm3,6.43V37h-3v1.2Zm-3,3h3V40h-3Z"/><path d="M66.43,32.84h-10c-.85,0-2.18,0-3,0V30.22c.75,0,2,.05,3,.05H67.12c.85,0,1.5,0,2.13,0,0,.8-.08,1.45-.08,4v5.42c0,2,0,3.45.08,4.4H66.43V42.87H56.3c-.82,0-2.25,0-3,.05V40.24c.75,0,2,0,3,0H66.43Z"/><path d="M76.23,28.92a15.23,15.23,0,0,1,5.28,3.95l-2,2.17a17,17,0,0,0-5-4.05Zm-1,14.1a36.36,36.36,0,0,0,8.78-5,35.15,35.15,0,0,0,7.84-8,14.69,14.69,0,0,0,1.73,2.37,42.94,42.94,0,0,1-8.07,8,45.66,45.66,0,0,1-7.85,4.78c-.1.34-.2.52-.38.52a.66.66,0,0,1-.42-.3Z"/><path d="M95.08,36.42a39.8,39.8,0,0,0,5-3.45c1.9-1.5,2.15-1.65,3.07-1.65a3.71,3.71,0,0,1,2,.67c.25.13,1.07.7,8.62,5.7,2,1.35,2.48,1.63,3.88,2.5a12.19,12.19,0,0,0-1.85,2.63c-1.78-1.4-3.73-2.85-9.53-7-2.17-1.58-2.57-1.8-3-1.8s-.6.07-1.43.75c-.6.47-3.77,3.15-4.57,3.85-.05.45-.15.62-.33.62a.37.37,0,0,1-.32-.2Zm14.47-7a15.91,15.91,0,0,1,3.18,2.5l-1.25,1.35a14.58,14.58,0,0,0-3-2.58Zm2-2.28a17.32,17.32,0,0,1,3.18,2.5l-1.25,1.38a15.18,15.18,0,0,0-3-2.6Z"/><path d="M121.6,28.92a15.09,15.09,0,0,1,5.27,3.95l-2,2.17A17,17,0,0,0,120,31ZM120.65,43a36.48,36.48,0,0,0,8.77-5,35,35,0,0,0,7.85-8A15.21,15.21,0,0,0,139,32.39a42.36,42.36,0,0,1-8.07,8,45.66,45.66,0,0,1-7.85,4.78c-.1.34-.2.52-.37.52a.67.67,0,0,1-.43-.3Z"/><path d="M143.55,32.62a17.69,17.69,0,0,1,4.6,3.35l-1.87,2.22a24.59,24.59,0,0,0-4.3-3.42Zm.35,11.12a42,42,0,0,0,8.77-5.45,43.27,43.27,0,0,0,7.5-7.5A13.78,13.78,0,0,0,162.05,33c-4.93,5.75-7.75,8.1-15.55,12.94-.1.35-.22.53-.4.53a.73.73,0,0,1-.45-.33Zm3.63-16.5A18.52,18.52,0,0,1,152,30.87l-1.85,2.07a24.38,24.38,0,0,0-4.24-3.65Z"/><path d="M176.9,35.34h-7c-.77,0-1.6,0-2.52.08V33.09c.65,0,1.65,0,2.52,0h7.67c.68,0,1.2,0,1.83,0,0,.88-.05,1.9-.05,3.33v5.3c0,1.62,0,2.7.05,3.64H176.9v-.74h-7.12c-.67,0-1.75,0-2.52.05V42.34c.5,0,2.25,0,2.52,0h7.12V39.87h-6.39c-.78,0-1.68,0-2.53.05v-2.3l2.53.05h6.39Z"/><path d="M187.07,28.92a15.09,15.09,0,0,1,5.27,3.95l-2,2.17a17,17,0,0,0-5-4.05ZM186.12,43a36.48,36.48,0,0,0,8.77-5,35,35,0,0,0,7.85-8,15.21,15.21,0,0,0,1.72,2.37,42.36,42.36,0,0,1-8.07,8,45.66,45.66,0,0,1-7.85,4.78c-.1.34-.2.52-.37.52a.67.67,0,0,1-.43-.3Z"/><path d="M225.09,31.24l.32-.37,1.75,1.7a.73.73,0,0,1,.25.47c0,.23-.18.35-.68.5a20.33,20.33,0,0,1-5.64,6.33,8.25,8.25,0,0,0-2-2,19.29,19.29,0,0,0,3.58-3,13.55,13.55,0,0,0,1-1.1L216,35.22v5c0,1.7.43,2,3.1,2a21.94,21.94,0,0,0,6.6-.78l.7,2.65a28.66,28.66,0,0,1-6.52.6,25.88,25.88,0,0,1-4.45-.2c-1.58-.32-2.1-1.3-2.1-3.92V35.72c-2.65.47-3.78.67-5.85,1.17l-.5-2.77c1.85-.18,4.32-.48,6.35-.8V30.94c0-1.9,0-3-.1-3.75l2.85.18c.27,0,.42.1.42.25s-.1.25-.47.5c0,.72,0,1.27,0,2.82v1.9Z"/><path d="M233,28.92a15.09,15.09,0,0,1,5.27,3.95l-2,2.17A17,17,0,0,0,231.31,31ZM232,43a36.09,36.09,0,0,0,8.77-5,35,35,0,0,0,7.85-8,14.69,14.69,0,0,0,1.73,2.37,42.66,42.66,0,0,1-8.08,8,45.93,45.93,0,0,1-7.84,4.78c-.1.34-.2.52-.38.52a.66.66,0,0,1-.42-.3Z"/><path d="M268.38,30.69c.3.3.3.33.3.48s-.12.32-.55.47c-1.4,4-1.65,4.53-2.57,6.13a23.73,23.73,0,0,1,3,2.37l-1.87,2a21.46,21.46,0,0,0-2.6-2.23c-2.43,3.15-5,5.17-9.55,7.62a9,9,0,0,0-1.65-2.17c4.35-2.13,6.67-3.9,9-6.85a25.81,25.81,0,0,0-3.67-1.6l1.3-2a33.53,33.53,0,0,1,3.77,1.57,22.48,22.48,0,0,0,2.15-4.72h-5a26,26,0,0,1-6.35,7.65,7.33,7.33,0,0,0-1.75-1.9,23,23,0,0,0,3.05-3,19.51,19.51,0,0,0,4.47-8.4l2.5.82c.23.08.33.18.33.33s-.08.25-.53.42c-.22.58-.37,1-.5,1.3s-.1.25-.15.38h4.78l.35-.45Z"/><path d="M292.61,37.74c-1.18,0-3.15-.07-4.48-.07H277.66c-1.23,0-3.4,0-4.48.07V35.07c1,0,3.2.07,4.48.07h10.47c1.38,0,3.35,0,4.48-.07Z"/><rect class="cls-2" y="65.79" width="300" height="1" transform="translate(300 132.58) rotate(180)"/><rect class="cls-2" y="178.79" width="300" height="1" transform="translate(300 358.58) rotate(180)"/></g></g></svg>