<svg xmlns="http://www.w3.org/2000/svg" viewBox="0 0 498.35 69.35"><defs><style>.cls-1{fill:#fff;}</style></defs><g id="レイヤー_2" data-name="レイヤー 2"><g id="レイヤー_1-2" data-name="レイヤー 1"><path class="cls-1" d="M3.67,19.66c1.21-.23,2.61-.47,4.71-.94l1.83-6.66H6.07L7.6,6.5h4.13L13.5.08h5.59L17.33,6.5h3.39l-1.33,4.85h9l.8-2.92H21.49l1.45-5.28h7.72L31.5.08h6l-.84,3.07h8.11L43.28,8.43H35.16l-.8,2.92h9.18L42,16.94H38.54l-.7,2.53H41L39.45,25.1H36.29l-2.45,8.95a5,5,0,0,1-4.49,3.42H21.83L22.49,32l-3,1.57c-1-3.82-1.51-4.84-2.73-6.42L21,25.1H16.2l1.55-5.63H32l.69-2.53H17.85l1.34-4.88H15.8l-1.39,5.08c.73-.24,1.42-.43,3.33-1.1l-1.37,5.59c-1.19.44-2.07.79-3.55,1.3L9.77,34.05a5,5,0,0,1-4.85,3.42H0l.93-6.1H3.84c.71,0,1.07,0,1.34-1l1.55-5.63c-1.32.35-2.37.59-4,.94ZM23.1,25.1a20.38,20.38,0,0,1,2.53,5.28l-2.26,1.18h4A1.43,1.43,0,0,0,29,30.38l1.45-5.28Z"/><path class="cls-1" d="M46.91,23.6a71.37,71.37,0,0,1-4.5,11.82l-3.09-2.67c1.49-2.57,2.23-4.26,3.88-9.54Zm10.92-2.28-3.2.87c0-.48.12-1.15.14-1.38-.24,0-.89.11-1.54.15L48.71,37.43H44.1l4.37-15.91c-.89.07-4.78.47-5.38.51l1-5.36c.83,0,1.5,0,2.3,0,.85-.83,1.94-1.93,2.54-2.52a15,15,0,0,0-3.2-4.57l3.68-5.09c.44.44.51.59.7.79A49.93,49.93,0,0,0,54,0l4.63,1.06a60.49,60.49,0,0,1-6.19,7.33c.22.36.39.59.8,1.26a69.7,69.7,0,0,0,5-5.79l3.42,1.62.85-3.08h8.35L71.49.12h5.63L76.49,2.4h9L84.05,7.45H75.11l-.53,1.93h7.64L81,14H60.44l1.25-4.57h7.25l.53-1.93H61.12l.21-.75a114.84,114.84,0,0,1-9.47,9.65c.64,0,2.64-.15,3.13-.19a10.45,10.45,0,0,0-.13-2.41l3.8-1.22a24.19,24.19,0,0,1,.4,4.3l.31-1.15H81l-2.26,8.24H73.5l1-3.71H63.13l-.42,1.54h4.1c-2.5,8.51-4.94,12.26-12.26,15.8l-2.1-4.84c4.75-1.66,7.09-4.14,8.52-8.79H57.11ZM57,22.89a68.21,68.21,0,0,1-1.27,8.2l-3.93.71a48.11,48.11,0,0,0,1.65-8.31Zm11.26-1.14h5.32l-2.49,9.06c-.24.91-.1,1,.38,1h1c.47,0,.68-.2.86-.71.3-.79,1.15-3.74,1.23-4l3.89,1.3c-1.64,6.27-2.84,8.79-5.88,8.79H67.08c-3.07,0-2.37-2.56-2.13-3.43Z"/><path class="cls-1" d="M103.5,28.88h-20l5.3-19.3h20Zm8.58,4.77a5.11,5.11,0,0,1-5,3.78H97.8l.51-6.14h7.33a1.47,1.47,0,0,0,1.44-1.22l6.35-23.13h-27L88,1.22h37.11l-1.57,5.72h-4.09ZM101.64,14.86H93.09l-2.37,8.63h8.55Z"/><path class="cls-1" d="M125.53,12.81h16.12l-5.89,21.43a4.08,4.08,0,0,1-3.55,3.19h-5.4l.41-5.24h3a.9.9,0,0,0,.88-.78l.56-2.05h-5.12l-2.22,8.07h-5.55ZM139,12.29c0-.55,0-.9-.15-1.89-4.76.67-9.52,1.11-14.2,1.34l.89-5.08h2.12A52.13,52.13,0,0,0,131.9.08l5.88.55a57.14,57.14,0,0,1-4.66,5.91c.83,0,2.61,0,4.92-.27a26.36,26.36,0,0,0-.9-3.16l5.2-1.73a34,34,0,0,1,2.34,9Zm-10.7,10.84-.63,2.29h5.13l.62-2.29Zm1.63-5.91-.61,2.21h5.12l.61-2.21Zm12.63,1.5h5.83l-1.05,3.82a31.66,31.66,0,0,0,8.44-3.78l2.44,4.33a47.53,47.53,0,0,1-12.25,4.41l-.86,3.16c-.15.55-.08,1.14.79,1.14h3.27c1,0,1.46-.32,3-5l5.29,1.38c-2,5.32-3.26,8.87-7.16,8.87h-9c-1.66,0-3.74-.16-2.74-3.82ZM153.45.08l-1.13,4.14A33.14,33.14,0,0,0,161.18.63L163.32,5C160,7,154.76,8.39,151,9.06l-.68,2.45c-.27,1,.25,1,.72,1h3.59c.7,0,1.41,0,2.67-4.41l5.25,1.38c-1.58,5.2-3.35,8.19-6.58,8.19h-9c-4,0-3.79-1.81-3.2-4L147.54.08Z"/><path class="cls-1" d="M186.32,6l-1.62,5.91h-7.65a180.57,180.57,0,0,1-11.16,19.7l-5.79-2.28a93,93,0,0,0,10.61-17.42h-5L167.29,6h6.07c.9-2.29,1.21-3.11,1.59-4.37l6.52.23c-.71,1.7-.92,2.17-1.73,4.14Zm4.05,16.24a22.32,22.32,0,0,1,5.72,5L191,33.14a21.39,21.39,0,0,0-3-4c-1.93,6.58-8.63,6.58-10.05,6.58-5.79,0-8.71-3-7.44-7.6,1.05-3.83,5-8,11.82-8a15.67,15.67,0,0,1,2.39.19l1.8-7.13h6.22Zm-7.07,3.66a5.52,5.52,0,0,0-2.57-.55c-1.93,0-4.19.75-4.7,2.64-.21.75-.24,2.44,3,2.44a3.46,3.46,0,0,0,3.75-2.6ZM196.88,14.7a47,47,0,0,0-10-5.36L191,4a41.08,41.08,0,0,1,10.11,5.2Z"/><path class="cls-1" d="M237.11,16.55l-1.36,5h-9.62c1.52,2.52,5.43,3.78,9.22,4.17l-4.2,5.24h3.94l-1.49,5.44H197.87l9.65-35.15h34.9l-1.49,5.44H218.59l4.45.59a21.77,21.77,0,0,1-1.29,1.81h16.08L236.48,14h-9.62a22.65,22.65,0,0,1-.82,2.56Zm-28.23,5,1.36-5h2.84l-2.66-3.39a24,24,0,0,0,7.11-6.5h-5.75l-6.67,24.27h3.94l-1.62-5.28c5.62-.67,8.36-2.32,10.12-4.13Zm21.88,9.41c-4.22-1.26-8.45-3.39-9.39-7a26.14,26.14,0,0,1-12,7ZM220.6,16.55a15.11,15.11,0,0,0,.86-2.56h-4.13c-1.31,1.18-2,1.77-3,2.56Z"/><path class="cls-1" d="M271.82,29h-2.75a11.88,11.88,0,0,0,5.56,3.82l-4.18,4.5a22.11,22.11,0,0,1-6.19-5.44l4-2.88H264l-1.58,5.75a3.64,3.64,0,0,1-3.92,2.68H253l.21-4.06a36.38,36.38,0,0,1-7.33,3.87l-1.46-4a27.49,27.49,0,0,1-3.83,4.45L237,33.89A25.66,25.66,0,0,0,243.35,25a40.2,40.2,0,0,1-4.41,1.85l.88-6.22c1.49-.4,3.11-.83,5.89-1.77l1.41-5.17-3.45,2.41a27.81,27.81,0,0,0-.78-7.65l4.79-3.66c.33,1.22.62,2.17.92,3.54l1.58-5.75H262.9l.68-2.48h5.8l-.69,2.48h13.63l-1.26,4.61H268.93c-.45.75-.51.83-1.07,1.74h12.57l-1.06,3.86h-3.43l2.61,2c-.75.71-1.84,1.69-2.7,2.36a11.87,11.87,0,0,0,2.62,1.22l-3.55,4.89c-.68-.4-.84-.51-1.29-.75Zm-19.67-6.26c-.28.15-.41.19-.92.47L250.58,20a50,50,0,0,1-5.66,12.61A23.24,23.24,0,0,0,252.44,29h-2Zm3.36-9.93a15.09,15.09,0,0,1,1.46,2,26.34,26.34,0,0,0,2.46-2.09h-6l1.06-3.86h8.08c.29-.48.56-.91,1-1.74h-9.42l-3,11c1.27-.6,1.87-.91,2.42-1.23a11.53,11.53,0,0,0-1.33-1.89Zm1.24,19.74c.63,0,.67-.16.83-.75l.77-2.8h-5l2.44,2.44c-.63.56-.73.63-1.33,1.11Zm.56-8.51-.46,1.69h10.52l.46-1.69Zm1.29-4.69L258.14,21h10.52l.46-1.65ZM267.71,16a15,15,0,0,1-1.31-3.27h-1.49A38,38,0,0,1,261.72,16Zm4-3.27A7.75,7.75,0,0,0,273.31,15c.94-.82,1.1-1,2.35-2.24Z"/><path class="cls-1" d="M294.81,18.8a8.33,8.33,0,0,1-7.53,5.91c-3.27,0-5.19-2.64-4.29-5.91a8.32,8.32,0,0,1,7.54-5.91C293.76,12.89,295.72,15.49,294.81,18.8Z"/><path class="cls-1" d="M315.45,14l-2,7.45a26.34,26.34,0,0,1-5.71,10.44,29,29,0,0,1-8.39,5.75l-2.48-5.32c3.75-1.77,8.48-4.06,10.37-11l2-7.37Zm14.46,0A23.46,23.46,0,0,1,322.2,5c-4.95,4.69-12.92,9.34-19.63,11.83l-1.16-6A48.17,48.17,0,0,0,320.56.08h6.18C329.69,6,335.3,9.38,340,11l-4.78,6.23A33.07,33.07,0,0,1,330.05,14l-6.44,23.44h-6.34L323.72,14Z"/><path class="cls-1" d="M354.62,28.57h-5.08l1-3.51h22.11l-1,3.51a37.17,37.17,0,0,1-5.85,3.94,22.36,22.36,0,0,0,3.83.27c1.42,0,2.42-.07,3.51-.15l-2.78,5a36.72,36.72,0,0,1-11.56-2.13,47.41,47.41,0,0,1-11.28,2.21l-.41-4.1L346.17,37h-11l3.4-12.37h11l-2.28,8.27a32,32,0,0,0,6.08-.31,9.56,9.56,0,0,1-2.44-2.72Zm-3.44-9.85-1.26,4.57h-11l1.26-4.57Zm8.25-11.11.3-1.11h-4.41l1.2-4.37h4.42L361.47.2h4.92l-.53,1.93h6L372.38.2h5.2l-.53,1.93h4l-1.2,4.37h-4L375.44,8h-3.27c-.38.51-.82,1-1.22,1.42h7.29l-.81,2.95h-7.92l-.35,1.26h7.13l-.61,2.25h-7.14l-.33,1.22h7.13l-.64,2.33h-7.13l-.34,1.26h8.51l-.89,3.23H352l1.72-6.27c-.33.2-.53.36-1.28.79l-.61-2.09-.29,1.07h-11l1.27-4.61h11l-.1.39a29.62,29.62,0,0,0,5.73-5.67ZM344.39,29h-2.6l-.92,3.35h2.6Zm10.83-22.1-1.29,4.72H341.12l1.3-4.72ZM356.05,1l-1.26,4.57h-11L345.06,1Zm.46,27.58a8.6,8.6,0,0,0,3.41,2.36,20.53,20.53,0,0,0,4.87-2.36ZM363,19.31h-4.69L358,20.69h4.69Zm1-3.55h-4.69L359,17.1h4.69Zm1-3.51h-4.69l-.38,1.38h4.69Zm1-2.83c.42-.55.73-.95,1.27-1.77l3,.23.38-1.38h-6L364.25,8h-.83c-.27.39-.53.79-1,1.42Z"/><path class="cls-1" d="M393.79,29.44c5.3-.4,12.28-2.68,14.65-11.31,1.88-6.86-1.65-9.22-5.52-9.62-.79,2.44-8,23.76-18.74,23.76-5.83,0-6.46-6.46-5-11.82A24.47,24.47,0,0,1,402.67,2.52c11.47,0,14.66,7.33,12.31,15.88a23.71,23.71,0,0,1-9.14,13.2,25.09,25.09,0,0,1-11.67,3.9Zm-8.57-8.83c-.37,1.34-1,4.89,1.1,4.89,2.21,0,6.2-4.93,10.47-16.63C391.49,10.09,386.82,14.78,385.22,20.61Z"/><path class="cls-1" d="M434.7,14.3H424.26l.66-2.4H421l2.56-9.3h14.49L438.7.32h6L444.1,2.6h14.7l-2.56,9.3h-4.17l-.66,2.4h-11L440,16h12.49l-1.16,4.21h-12.8c-.13.32-.25.63-.79,1.74h16.7L453,27.07H440.57c.79,1.3,2.32,3.63,11.41,4.65l-4,5.87c-3.63-.71-11.72-2.52-13.87-9.61a21.69,21.69,0,0,1-2.6,2.72c-4.9,3.94-10.75,5.87-16.52,6.93l-.82-5.75c2.45-.32,10.47-1.26,14.32-4.81H415.83L417.24,22H432c.21-.47.37-.75.79-1.74H421.22L422.38,16h11.86Zm1.85-6.73h-8.62l-.61,2.2H436Zm5.11,2.2H451l.6-2.2h-9.33Z"/><path class="cls-1" d="M454.34,27.9a31.39,31.39,0,0,0,4.57-.87l2.2-8h-3.27l1.48-5.4h3.27l1.72-6.26h-3.82L462,1.85h12.77l-1.52,5.52h-3.43l-1.72,6.26H471L469.5,19h-2.88l-1.74,6.35c1.64-.52,2.64-.87,3.78-1.3l-1.06,5.16a102.37,102.37,0,0,1-14,4.69Zm22-26.72h22.06l-6.29,22.94h-6.27l-1.71,6.22c0,.12-.33,1.22.53,1.22h1.23c.43,0,.72-.47.88-.79a37,37,0,0,0,1.4-4.09l4.47.94c-2.22,6.66-3.24,9.5-6.35,9.5h-5.91c-1.3,0-3.62,0-2.77-3.11l2.72-9.89H478.5c-3.46,8.74-8.94,11.62-15.56,13.63l-1.65-5.48c6.56-1.65,10.37-4.17,11.85-8.15H470Zm1,16.39-.55,2h10.84l.55-2Zm1.57-5.71-.54,2h10.84l.54-2Zm1.58-5.75L480,8H490.8l.53-1.93Z"/><path class="cls-1" d="M76.82,59.39a8.87,8.87,0,0,1-6,2.6c-1.67,0-2.5-.57-3.9-1.49a5.18,5.18,0,0,0-3.25-1.21,6.13,6.13,0,0,0-4.47,2l-1-1.21a8.71,8.71,0,0,1,6-2.57,6.65,6.65,0,0,1,4,1.49,5.09,5.09,0,0,0,3.11,1.21,6.82,6.82,0,0,0,4.52-2Z"/><path class="cls-1" d="M99,50.92l-.54,2H83l-3.8,13.83h16l-.53,2H76.46l4.88-17.77ZM96,59l-.51,1.87h-5.3c.37,1.49,2.35,2.72,4.93,3.22l-1.63,1.93c-3.75-1.1-4.84-2.84-5.16-4.41a13.23,13.23,0,0,1-7,4.33L80.6,64.1c1.15-.24,4.3-.86,6.07-3.2h-5L82.13,59h5.64a10.85,10.85,0,0,0,.76-2.12H85.61a20.62,20.62,0,0,1-2.12,1.74l-1.25-1.39a13.66,13.66,0,0,0,4.24-4l2,.36c-.42.59-.65.89-1.1,1.45h9.08L96,56.91h-5.4A15.36,15.36,0,0,1,89.81,59Z"/><path class="cls-1" d="M104.19,60.84l-.83.44-.53-1.37c-1.93,5.48-3.27,7.21-5.31,9.24l-1.29-1.27A14.51,14.51,0,0,0,100,62.27c-1.07.46-1.44.6-2.42,1l.15-2c1.65-.42,2-.52,3-.84.2-.57.45-1.41.57-1.84l1.83-6.66h6.81l.42-1.53h2.07L112,51.86h7.39l-.48,1.75H104.62l-1.36,5c-.12.45-.22.73-.31,1a18.06,18.06,0,0,0,1.66-.74,4.75,4.75,0,0,0-.66-.91l1.37-1,.75,1a13.46,13.46,0,0,0,1.85-1.39h-3.61l.43-1.55h4.57a12.53,12.53,0,0,0,.78-1.15l2,.23c-.37.48-.51.68-.71.92h7.17l-.43,1.55H113.7a5.66,5.66,0,0,0,1.14,1.57c.86-.72,1.21-1,1.5-1.29l1.15.79c-.64.58-1.32,1.09-1.63,1.33a6.47,6.47,0,0,0,1.52.7l-1.33,1.61a11.27,11.27,0,0,1-1.06-.62l-1.22,4.45h-4.45l-.75,2.74a1.56,1.56,0,0,1-1.73,1.3h-2.4l.12-1.81h1.75c.32,0,.42-.06.49-.3l.53-1.93H103Zm-2.82-7.47a9,9,0,0,1,.14,3.65l-1.92.82a13.32,13.32,0,0,0,0-3.68Zm3.92,13.15a17.36,17.36,0,0,1-4.87,2.41l-.58-1.71a10.51,10.51,0,0,0,4.34-1.93Zm.26-4-.33,1.21h7.13l.33-1.21Zm.65-2.38-.29,1H113l.29-1Zm6.67-1.4a9,9,0,0,1-1.29-2.14H110a19.24,19.24,0,0,1-2.46,2.14Zm1,10.3a12.21,12.21,0,0,1-3.6-2.45l1.66-1.33a6.62,6.62,0,0,0,3.5,2.07Z"/><path class="cls-1" d="M118.33,59.35a15.8,15.8,0,0,0,1.94-4.93h1.57c-1,3.8-1.61,5-2.1,5.8Zm6.21-2.76a13.19,13.19,0,0,0-.11-1.93l-4,14.55h-2.1l5.2-18.94h2.1l-1,3.77,1.35-.51a12,12,0,0,1,.26,2.42Zm12.11,2.58L134.49,67c-.52,1.89-.9,2.17-2.8,2.17h-2.13l.08-1.83H132c.48,0,.55-.26.67-.68l.25-.91h-7.11l-.94,3.42h-1.94l2.76-10Zm2.22-6.12h-5.05l-.3,1.09h4.69l-.41,1.49h-4.69l-.29,1h5.48l-.44,1.61H125l.44-1.61h5.42l.28-1h-4.47l.41-1.49h4.47l.3-1.09h-5l.44-1.63h5l.31-1.15h2l-.32,1.15h5.06Zm-12.4,10.16-.3,1.09h7.12l.29-1.09Zm.69-2.51-.28,1H134l.28-1Z"/><path class="cls-1" d="M145,50.29h2l-.41,1.47h3.29l-.52,1.87h-3.28l-.51,1.83h3.85L149,57.34h-1.21c-.23.54-1.1,2.23-1.31,2.63H148l-.51,1.88h-3.65l-.54,2h3.28l-.52,1.89h-3.28l-.95,3.44h-2l.94-3.44h-3.34l.52-1.89h3.34l.55-2h-3.63l.52-1.88h1.59a15,15,0,0,0,.16-2.63H139.3l.51-1.88h3.81l.5-1.83h-3.34l.51-1.87h3.35Zm-2.6,7.05a26.36,26.36,0,0,1-.22,2.63h2.34a24.06,24.06,0,0,0,1.17-2.63Zm10.28,3.14c.11.7.25,1.59.49,2.55a19.24,19.24,0,0,0,1.62-2.92h-4.17l-2.48,9.06h-2l5-18.25h8a30.19,30.19,0,0,1-1.94,5.37,2.07,2.07,0,0,1-1.87,1.09H152.8l.18-1.87h2.09c.67,0,.93,0,1.76-2.68h-4.17l-1.49,5.43h6.35A26.33,26.33,0,0,1,154,65a12,12,0,0,0,1.78,2.23l-1.6,2a9.39,9.39,0,0,1-1.81-2.37,25,25,0,0,1-2.76,2.37l-.76-1.71a13.1,13.1,0,0,0,2.76-2.37A10.92,10.92,0,0,1,150.8,61Z"/><path class="cls-1" d="M166.37,65.91c2.19-.2,6.88-.92,8.36-6.32.61-2.23.6-5.55-3.85-5.78-3.09,9-6.79,12.69-9.57,12.69-2.33,0-3.09-2.68-2.24-5.78a12.31,12.31,0,0,1,11.85-9c6.27,0,7.21,4.19,6.17,8-2.09,7.61-9.11,8.29-10.57,8.44Zm-5.14-5.13c-.32,1.17-.48,3.3.83,3.3.76,0,1.51-.68,2.24-1.57a27.85,27.85,0,0,0,4.35-8.59A9.42,9.42,0,0,0,161.23,60.78Z"/><path class="cls-1" d="M197.74,54.2l-2.3,8.37h-7.35A13.25,13.25,0,0,1,186,65.35c2.28,1.21,6.3,1.55,9.91,1.53l-1.48,2.21c-5.15-.1-8.15-1.12-10.23-2.27a16,16,0,0,1-7,2.37l-.37-2.13a18,18,0,0,0,5.65-1.41,6.77,6.77,0,0,1-1.67-2.05l2-1a8.1,8.1,0,0,0,1.65,1.75,7.54,7.54,0,0,0,1.52-1.79h-6.28L182,54.2h6.86l.39-1.39h-8.28l.51-1.87H200.1l-.51,1.87h-8.36l-.38,1.39Zm-10.83,6.58a14.2,14.2,0,0,0,.55-1.63h-4.84l-.45,1.63Zm1-3.28.42-1.55H183.5l-.43,1.55Zm1.58,1.65a13,13,0,0,1-.55,1.63h5l.44-1.63Zm.88-3.2-.43,1.55h4.86l.42-1.55Z"/><path class="cls-1" d="M211.39,53.53l-.58,2.12h-4.37A66,66,0,0,1,200.26,66l-2-.9a43,43,0,0,0,5.95-9.42H201l.58-2.12h3.53c.39-.9.67-1.57,1-2.51l2.35.08c-.53,1.26-.7,1.69-1.05,2.43Zm1.55,8.07a10.11,10.11,0,0,1,3.29,2.92l-1.9,2.06a7.16,7.16,0,0,0-2.21-2.52l-.17.63a4.92,4.92,0,0,1-5,3.52c-3.08,0-4.15-1.69-3.61-3.65.45-1.67,2.36-3.84,5.83-3.84a8,8,0,0,1,1.78.18l1-4.11h2.23ZM210.39,63a4.33,4.33,0,0,0-1.79-.34c-1.76,0-2.93.83-3.22,1.89-.1.36-.37,1.77,2.05,1.77a2.4,2.4,0,0,0,2.63-2.09ZM217,57.12a19.91,19.91,0,0,0-4.79-2.64l1.44-1.89a21.53,21.53,0,0,1,4.93,2.53Z"/><path class="cls-1" d="M235,53.37c-1.93,1.19-4.27,2.74-6.4,4.11a11.59,11.59,0,0,1,3.19-.55c2.82,0,5,1.55,4,5.18-1.08,3.94-5,6.1-9,6.1-3.46,0-4.86-1.57-4.35-3.44a4.51,4.51,0,0,1,4.38-3,3.58,3.58,0,0,1,3.82,3.7,5.25,5.25,0,0,0,2.87-3.32c.4-1.47.19-3.4-3.14-3.4s-6.45,2-10,4.61l-.77-1.9c.7-.42,5.13-3.22,11.59-7.81-2.45.18-4,.25-7.4.33l.6-2.2c4.64,0,6.6,0,11-.24Zm-8.65,10.19a1.88,1.88,0,0,0-1.86,1.13c-.24.86.56,1.75,2.7,1.75a9.27,9.27,0,0,0,1.47-.17C228.62,64.77,228,63.56,226.32,63.56Z"/><path class="cls-1" d="M241.87,69.19h-2.08l2.13-7.77A18.93,18.93,0,0,1,239,63.3l-.32-2.06a19.55,19.55,0,0,0,7.09-5.88h-5.19l.54-2h3l.86-3.14h2.08l-.87,3.14h2.36l-.54,2a22.52,22.52,0,0,1-3,3.41,9.43,9.43,0,0,0,2.14,2.47l-1.49,1.91A9.56,9.56,0,0,1,244.1,61Zm12.06-18.94h2.12L254.48,56h4.31l-.59,2.15h-4.31l-2.27,8.27h4.78l-.6,2.16h-12l.59-2.16h5.08l2.27-8.27h-4.21l.59-2.15h4.21Z"/><path class="cls-1" d="M273,69.33A9.37,9.37,0,0,0,272.5,68c-2.83.29-7.43.61-14.5.75l.27-2.09c.43,0,2.26,0,2.89,0a42.47,42.47,0,0,0,3.24-4.69h-5.18l.54-2h18.15l-.54,2H266.88c-1.14,1.63-2.39,3.34-3.43,4.63,3.79-.08,4.22-.1,8.3-.31a16.85,16.85,0,0,0-1.58-2.87l2-1.05a21.14,21.14,0,0,1,3.08,5.8Zm-8.5-12.76a26.65,26.65,0,0,1-3.8,1.73L260,56.37a27,27,0,0,0,10.43-6.2h2.31c.84,2.3,3.46,4.57,7,6.12l-1.85,2a22.61,22.61,0,0,1-2.75-1.79l-.31,1.15h-10.7Zm9.79-.82a16,16,0,0,1-3.13-3.83,31.22,31.22,0,0,1-5.2,3.83Z"/><path class="cls-1" d="M295.08,69.23A11.86,11.86,0,0,1,289.24,67l1.59-1.33H284.1l.87,1.37a29.19,29.19,0,0,1-7.28,2.19l-.45-1.91a19.38,19.38,0,0,0,6.58-1.65h-4l2.56-9.32H297.6L295,65.71h-3.87a10.75,10.75,0,0,0,5.38,1.55Zm4.12-16.7h-7.11l-.33,1.2h8.4l-.46,1.67H280.75l.46-1.67h8.54l.33-1.2h-7.15l.45-1.65h16.28Zm-5.4,10.36H282.52l-.34,1.23h11.28Zm.67-2.45H283.19l-.31,1.14h11.28Zm.67-2.44H283.86l-.31,1.15h11.28Z"/><path class="cls-1" d="M315.87,57.74c-.79,6,.4,8.31,1.17,9.6l-1.94,1.87c-1-1.59-1.58-3.48-1-8.63-1.9,4.73-3.47,7.06-5.33,8.77l-.92-2-.13.46A1.7,1.7,0,0,1,306,69.21h-1.86l.25-2.07h1.43c.32,0,.4-.22.46-.42l2.56-9.34h-6l-3.25,11.83h-1.79l3.76-13.69h3.76l.48-1.75h-4.45l.52-1.87h4.45l.45-1.65h1.89l-.45,1.65h4.63l-.51,1.87h-4.63l-.48,1.75h3.9l-3.23,11.8c1.15-1,3.33-3,5.77-9.58h-2.58l.55-2h2.68l1.5-5.48h2l-1.5,5.48h3.46l-.55,2Zm-13.3,2.52h.69a11.64,11.64,0,0,0,.09-2l1.53-.24a19.23,19.23,0,0,1-.29,2.26h.88a15.19,15.19,0,0,0,1-2.28l1.37.22a22.7,22.7,0,0,1-1.13,2.06h.73L307,62h-1.59L305,63.5h1.59l-.48,1.73h-1.59l-1,3.62H301.8l1-3.62h-1.59l.47-1.73h1.6L303.7,62h-1.6Zm17.11-9.55a31.81,31.81,0,0,1,.48,3.53l-2,.72a27,27,0,0,0-.45-3.58Z"/><path class="cls-1" d="M338.18,52.91l-.53,2H329a20.91,20.91,0,0,1-1.86,2.54,7,7,0,0,1,3.23-1c1.67,0,2.5.65,2.54,2.19,1-.36,3.59-1.26,5.34-1.77l-.06,2.14c-3,.72-5.22,1.47-5.51,1.57a20.72,20.72,0,0,1-.5,2.17,13.23,13.23,0,0,1-.46,1.47h-2.15a16.07,16.07,0,0,0,.82-2.8c-2.38,1-4,2-4.32,3.2-.44,1.61,1.53,1.61,3.75,1.61a49.57,49.57,0,0,0,5.29-.28L334.54,68c-1.41.08-3.13.16-4.7.16-2.39,0-7.09,0-6.16-3.39.78-2.81,5-4.64,6.94-5.39,0-.66-.14-1.25-1.24-1.25a7.63,7.63,0,0,0-4.12,1.79c-.11.09-3.32,3.2-4,3.75l-1.09-1.61a25.65,25.65,0,0,0,6.53-7.21h-3.93l.54-2h4.51a19.23,19.23,0,0,0,1-2.14l2.35.11c-.35.76-.56,1.16-1,2Z"/><path class="cls-1" d="M359.72,51.1,354.9,68.65H339l4.82-17.55Zm-17.06,12-1,3.49h11.6l1-3.49ZM344.07,58l-.89,3.24h11.6l.89-3.24Zm.51-1.85h11.6l.84-3.06h-11.6Z"/><path class="cls-1" d="M367.06,60.76c-1,.44-1.6.66-2.64,1L363,67.12a2.48,2.48,0,0,1-2.59,2.09h-2.43l.33-2.09h2.05c.39,0,.61,0,.73-.46l1.15-4.17c-1.4.38-1.93.5-2.87.69l.26-2c.94-.2,1.46-.3,3.17-.74L364,55.81h-2.81l.51-1.87h2.82l1-3.63h2l-1,3.63h2.12l-.52,1.87h-2.11l-1.1,4c1.11-.38,1.62-.56,2.46-.88Zm8.62,8.07H365.61l2.55-9.32h10.07Zm-1-3.86h-6l-.57,2.09h6Zm5.59-12.65a27.92,27.92,0,0,1-9,2.1l-.23.86c-.18.65.21.71.73.71h5.26c.68,0,.88,0,1.78-2.52l1.94.63c-1.37,3.66-2.08,3.9-3.71,3.9h-6.43c-1.77,0-2.25-.52-1.84-2l1.56-5.68h2.07l-.62,2.26a26.64,26.64,0,0,0,7.95-2Zm-4.57,8.94h-6l-.57,2.05h6.05Z"/><path class="cls-1" d="M388.6,51.32c-1.36,4.27-2.68,8.73-3,9.84-.67,2.46-1.14,4.83,2.32,4.83,5,0,6.65-3.68,7.95-6.52l1.88.89c-1.76,3.74-4.36,7.79-10.38,7.79-5.48,0-5.06-3.51-4.08-7.07.42-1.55,2.4-8.39,2.8-9.78Z"/><path class="cls-1" d="M419.68,54.38c-.76,0-1.37-.08-1.92-.08a7.35,7.35,0,0,0-2.2.24c-3.1.89-7.7,4-8.6,7.27-.69,2.51,1.12,3.18,3,3.54a24.28,24.28,0,0,0,4.91.3l-1.07,2.42c-4-.13-10.78-.35-9.19-6.12,1.06-3.87,5.38-6.43,7.45-7.51-2.17.14-7.42.5-9.36.72l.51-2.43c1.29,0,7.08-.34,8.25-.41,3.12-.14,5.44-.18,8.83-.24Z"/><path class="cls-1" d="M439.28,59.39a8.84,8.84,0,0,1-6,2.6c-1.67,0-2.5-.57-3.9-1.49a5.16,5.16,0,0,0-3.25-1.21,6.13,6.13,0,0,0-4.47,2l-1-1.21a8.71,8.71,0,0,1,6-2.57,6.65,6.65,0,0,1,4,1.49,5.09,5.09,0,0,0,3.11,1.21,6.79,6.79,0,0,0,4.52-2Z"/></g></g></svg>