<svg id="レイヤー_1" data-name="レイヤー 1" xmlns="http://www.w3.org/2000/svg" viewBox="0 0 807 144"><defs><style>.cls-1{fill:#fff;}.cls-2,.cls-3,.cls-4{fill:none;stroke:#fff;stroke-miterlimit:10;}.cls-2{stroke-width:1.73px;}.cls-3{stroke-width:1.87px;}.cls-4{stroke-width:1.18px;}</style></defs><path class="cls-1" d="M46,134.39c0,1.83-.55,3.1-1.66,3.82a7.76,7.76,0,0,1-4.2.89H8.19q-5.85,0-5.85-4.71V91.7Q2.34,87,8.57,87H39.5a9.74,9.74,0,0,1,4.45.76,4.07,4.07,0,0,1,2,4ZM41.85,92q0-2.6-3.69-2.6h-28q-3.69,0-3.69,2.41V111H41.85Zm0,42.19V113.52H6.47V134.2a2.07,2.07,0,0,0,1.09,2.1,6.67,6.67,0,0,0,2.48.32H38.29a6.74,6.74,0,0,0,2.48-.32,2.08,2.08,0,0,0,1.08-2.1"/><path class="cls-2" d="M46,134.39c0,1.83-.55,3.1-1.66,3.82a7.76,7.76,0,0,1-4.2.89H8.19q-5.85,0-5.85-4.71V91.7Q2.34,87,8.57,87H39.5a9.74,9.74,0,0,1,4.45.76,4.07,4.07,0,0,1,2,4ZM41.85,92q0-2.6-3.69-2.6h-28q-3.69,0-3.69,2.41V111H41.85Zm0,42.19V113.52H6.47V134.2a2.07,2.07,0,0,0,1.09,2.1,6.67,6.67,0,0,0,2.48.32H38.29a6.74,6.74,0,0,0,2.48-.32A2.08,2.08,0,0,0,41.85,134.2Z"/><path class="cls-1" d="M116.36,124.79a1.94,1.94,0,0,1-.86,1.65,2.94,2.94,0,0,1-1.81.64,7.49,7.49,0,0,1-3.88-1.91,72.91,72.91,0,0,1-15.4-16.1,60.06,60.06,0,0,1-6.17-12v27h12.21c.94,0,1.4.41,1.4,1.21s-.46,1.21-1.4,1.21H88.24v11.9c0,1.23-.68,1.85-2,1.85s-2-.62-2-1.85v-11.9H71.06c-.81,0-1.21-.38-1.21-1.14s.4-1.28,1.21-1.28H84.23V97.74q-1.78,6.06-8,13.81a67.92,67.92,0,0,1-17.44,16,1.07,1.07,0,0,1-.51.13q-1,0-1-1.08a.94.94,0,0,1,.39-.76q1.84-1.53,5.53-4.78a72.33,72.33,0,0,0,11-13,55.09,55.09,0,0,0,5.85-11.77H59.35c-.81,0-1.21-.38-1.21-1.15a1.07,1.07,0,0,1,1.21-1.21H84.23V84.7c0-1.19.68-1.78,2-1.78s2,.59,2,1.78v9.16h24.81c.89,0,1.34.41,1.34,1.21s-.45,1.15-1.34,1.15H90.21a48.25,48.25,0,0,0,5.6,9.8,67.42,67.42,0,0,0,19.47,17.24,1.8,1.8,0,0,1,1.08,1.53"/><path class="cls-2" d="M116.36,124.79a1.94,1.94,0,0,1-.86,1.65,2.94,2.94,0,0,1-1.81.64,7.49,7.49,0,0,1-3.88-1.91,72.91,72.91,0,0,1-15.4-16.1,60.06,60.06,0,0,1-6.17-12v27h12.21c.94,0,1.4.41,1.4,1.21s-.46,1.21-1.4,1.21H88.24v11.9c0,1.23-.68,1.85-2,1.85s-2-.62-2-1.85v-11.9H71.06c-.81,0-1.21-.38-1.21-1.14s.4-1.28,1.21-1.28H84.23V97.74q-1.78,6.06-8,13.81a67.92,67.92,0,0,1-17.44,16,1.07,1.07,0,0,1-.51.13q-1,0-1-1.08a.94.94,0,0,1,.39-.76q1.84-1.53,5.53-4.78a72.33,72.33,0,0,0,11-13,55.09,55.09,0,0,0,5.85-11.77H59.35c-.81,0-1.21-.38-1.21-1.15a1.07,1.07,0,0,1,1.21-1.21H84.23V84.7c0-1.19.68-1.78,2-1.78s2,.59,2,1.78v9.16h24.81c.89,0,1.34.41,1.34,1.21s-.45,1.15-1.34,1.15H90.21a48.25,48.25,0,0,0,5.6,9.8,67.42,67.42,0,0,0,19.47,17.24A1.8,1.8,0,0,1,116.36,124.79Z"/><path class="cls-1" d="M131.89,101q0,2.55-3.31,10.5a103,103,0,0,1-4.71,10.31,28.79,28.79,0,0,1-2.74,4.26,1,1,0,0,1-.82.38c-.85,0-1.28-.38-1.28-1.14a25.09,25.09,0,0,1,1.09-2.42c.8-1.74,1.22-2.65,1.27-2.74a139.43,139.43,0,0,0,6.17-19.34c.3-1.19.91-1.78,1.84-1.78a5,5,0,0,1,1,.12,1.76,1.76,0,0,1,1.47,1.85m19.21,32c0,2.5-.47,4.24-1.43,5.21a5.92,5.92,0,0,1-4.42,1.47,57.92,57.92,0,0,1-9-.89,1,1,0,0,1-.89-1.15c0-.93.38-1.4,1.14-1.4s1.91.17,3.69.38a37,37,0,0,0,3.76.26q3,0,3-3.63V87.18c0-1.69.7-2.52,2.1-2.48s2,.83,2,2.48Zm27.74-9.55a2.93,2.93,0,0,1-.89,2.13,2.8,2.8,0,0,1-2.1.93,1.57,1.57,0,0,1-1.59-1.28,115.62,115.62,0,0,0-4.77-13.3s-.87-2-2.61-5.91c-1.52-3.57-2.29-5.39-2.29-5.48,0-.72.47-1.08,1.4-1.08a1,1,0,0,1,.89.38,98,98,0,0,1,11.77,22.47,3.5,3.5,0,0,1,.19,1.14"/><path class="cls-2" d="M131.89,101q0,2.55-3.31,10.5a103,103,0,0,1-4.71,10.31,28.79,28.79,0,0,1-2.74,4.26,1,1,0,0,1-.82.38c-.85,0-1.28-.38-1.28-1.14a25.09,25.09,0,0,1,1.09-2.42c.8-1.74,1.22-2.65,1.27-2.74a139.43,139.43,0,0,0,6.17-19.34c.3-1.19.91-1.78,1.84-1.78a5,5,0,0,1,1,.12A1.76,1.76,0,0,1,131.89,101Zm19.21,32c0,2.5-.47,4.24-1.43,5.21a5.92,5.92,0,0,1-4.42,1.47,57.92,57.92,0,0,1-9-.89,1,1,0,0,1-.89-1.15c0-.93.38-1.4,1.14-1.4s1.91.17,3.69.38a37,37,0,0,0,3.76.26q3,0,3-3.63V87.18c0-1.69.7-2.52,2.1-2.48s2,.83,2,2.48Zm27.74-9.55a2.93,2.93,0,0,1-.89,2.13,2.8,2.8,0,0,1-2.1.93,1.57,1.57,0,0,1-1.59-1.28,115.62,115.62,0,0,0-4.77-13.3s-.87-2-2.61-5.91c-1.52-3.57-2.29-5.39-2.29-5.48,0-.72.47-1.08,1.4-1.08a1,1,0,0,1,.89.38,98,98,0,0,1,11.77,22.47A3.5,3.5,0,0,1,178.84,123.45Z"/><path class="cls-1" d="M205.44,117.53a22,22,0,0,1-.32,2.86,19.83,19.83,0,0,1-3.5,8.53,26.57,26.57,0,0,1-10.81,8.78q-2.35,1.08-4.71,1.91a19.25,19.25,0,0,1-3.37,1,1,1,0,0,1-1.09-1.09c0-.42.28-.74.83-.95s1.44-.57,2.67-1.08,2.3-1,3.19-1.47a29.61,29.61,0,0,0,4.7-3q7.07-5.53,8.15-16.1c.72-.72,1.14-1.08,1.27-1.08A5.71,5.71,0,0,1,204,116c.93.3,1.4.81,1.4,1.53m-14-5.09c0,1.53-.61,2.29-1.84,2.29s-2-.76-2-2.29V87.88c0-1.53.65-2.29,2-2.29s1.84.76,1.84,2.29Zm44.29-3.88q0,4.2-5.22,4.2H205.38q-5.22,0-5.22-4.2V90q0-4.2,5.22-4.2h25.13q5.22,0,5.22,4.2Zm-3.82-10.82V90.49c0-1-.23-1.6-.7-1.88a5.17,5.17,0,0,0-2.42-.41H206.71a4.42,4.42,0,0,0-2.1.32c-.46.29-.7,1-.7,2v7.25Zm0,10.25V100.1h-28v7.7c0,1.69,1,2.54,2.87,2.54h22c2.08,0,3.12-.78,3.12-2.35m9.74,21.06q0,5.22-1.59,7.63-1.84,2.81-6.18,2.8h-13a7.46,7.46,0,0,1-3.94-.76c-1.1-.72-1.66-2.16-1.66-4.33v-17.3c0-1.11.68-1.66,2-1.66s2,.55,2,1.66v16.22c0,1.66.47,2.61,1.4,2.87a6.08,6.08,0,0,0,1.72.19H234.2a3.8,3.8,0,0,0,4-2.61,25.37,25.37,0,0,0,.63-4.9c.05-.6.58-.89,1.59-.89.85,0,1.28.36,1.28,1.08"/><path class="cls-2" d="M205.44,117.53a22,22,0,0,1-.32,2.86,19.83,19.83,0,0,1-3.5,8.53,26.57,26.57,0,0,1-10.81,8.78q-2.35,1.08-4.71,1.91a19.25,19.25,0,0,1-3.37,1,1,1,0,0,1-1.09-1.09c0-.42.28-.74.83-.95s1.44-.57,2.67-1.08,2.3-1,3.19-1.47a29.61,29.61,0,0,0,4.7-3q7.07-5.53,8.15-16.1c.72-.72,1.14-1.08,1.27-1.08A5.71,5.71,0,0,1,204,116C205,116.3,205.44,116.81,205.44,117.53Zm-14-5.09c0,1.53-.61,2.29-1.84,2.29s-2-.76-2-2.29V87.88c0-1.53.65-2.29,2-2.29s1.84.76,1.84,2.29Zm44.29-3.88q0,4.2-5.22,4.2H205.38q-5.22,0-5.22-4.2V90q0-4.2,5.22-4.2h25.13q5.22,0,5.22,4.2Zm-3.82-10.82V90.49c0-1-.23-1.6-.7-1.88a5.17,5.17,0,0,0-2.42-.41H206.71a4.42,4.42,0,0,0-2.1.32c-.46.29-.7,1-.7,2v7.25Zm0,10.25V100.1h-28v7.7c0,1.69,1,2.54,2.87,2.54h22C230.87,110.34,231.91,109.56,231.91,108Zm9.74,21.06q0,5.22-1.59,7.63-1.84,2.81-6.18,2.8h-13a7.46,7.46,0,0,1-3.94-.76c-1.1-.72-1.66-2.16-1.66-4.33v-17.3c0-1.11.68-1.66,2-1.66s2,.55,2,1.66v16.22c0,1.66.47,2.61,1.4,2.87a6.08,6.08,0,0,0,1.72.19H234.2a3.8,3.8,0,0,0,4-2.61,25.37,25.37,0,0,0,.63-4.9c.05-.6.58-.89,1.59-.89C241.22,128,241.65,128.33,241.65,129.05Z"/><path class="cls-1" d="M273.91,107.8c0,.76-.43,1.14-1.28,1.14H251.06a6.15,6.15,0,0,1-3.05-.5c-.76-.51-1.15-1.6-1.15-3.25V89.92c0-1.57.41-2.61,1.21-3.12a6.36,6.36,0,0,1,3.06-.51h21.38c.63,0,.95.36.95,1.08s-.32,1.15-.95,1.15h-9.36v4.71h7.26c2.2,0,3.31.8,3.31,2.42v3.11c0,2-1.11,3.06-3.31,3.06h-7.26v4.9h9.36c.93,0,1.4.36,1.4,1.08M259.27,93.23V88.52h-7.38a1.18,1.18,0,0,0-1.34,1.34v3.37Zm10.63,5.41V96.15c0-.59-.36-.89-1.08-.89H250.55v4.46h18.27a1,1,0,0,0,1.08-1.08m-10.63,8.08v-4.9h-8.72v3.56c0,.89.49,1.34,1.47,1.34Zm35.38,29.46q0,4.51-5.66,4.52a63.19,63.19,0,0,1-6.88-.45c-1.14-.13-1.71-.53-1.71-1.21,0-.89.36-1.33,1.08-1.33.42,0,1.57.06,3.43.19,1.36.12,2.49.19,3.38.19,1.65,0,2.48-.87,2.48-2.61v-5.09H256.41v8.72c0,1.52-.66,2.29-2,2.29s-1.85-.77-1.85-2.29l-.06-21.83q0-4.4,5.21-4.39h31.69q5.22,0,5.22,4.39Zm-3.88-15.85v-2.86c0-.93-.24-1.53-.7-1.78a5.39,5.39,0,0,0-2.42-.38H259.46a6.91,6.91,0,0,0-2.35.25,2.13,2.13,0,0,0-.7,1.91v2.86Zm0,2.36H256.41V128h34.36Zm12.34-15.46a2,2,0,0,1-.63,1.49,2.07,2.07,0,0,1-1.47.61,5.78,5.78,0,0,1-2-.51,57.53,57.53,0,0,1-6.3-3.12q-2.43-1.4-3.88-2.42a48.66,48.66,0,0,1-8.91,4.58A25.13,25.13,0,0,1,276,109.2q-.9,0-.9-1a.91.91,0,0,1,.51-.89q1.28-.51,3.69-1.53a38.11,38.11,0,0,0,7.19-4.26,25.59,25.59,0,0,1-8.39-13h-2.23a1.15,1.15,0,1,1,0-2.29h21.38c1.95,0,2.93.85,2.93,2.54a2.79,2.79,0,0,1-.26,1.15,27.06,27.06,0,0,1-8.33,11.39c.5.3,1.42.76,2.73,1.4q1.59.77,7.7,3.37c.72.3,1.08.68,1.08,1.15m-7.32-18.07c0-.43-.25-.64-.76-.64H279.82a24.44,24.44,0,0,0,9.23,11,20.64,20.64,0,0,0,6.62-9.87,1.11,1.11,0,0,0,.12-.5"/><path class="cls-2" d="M273.91,107.8c0,.76-.43,1.14-1.28,1.14H251.06a6.15,6.15,0,0,1-3.05-.5c-.76-.51-1.15-1.6-1.15-3.25V89.92c0-1.57.41-2.61,1.21-3.12a6.36,6.36,0,0,1,3.06-.51h21.38c.63,0,.95.36.95,1.08s-.32,1.15-.95,1.15h-9.36v4.71h7.26c2.2,0,3.31.8,3.31,2.42v3.11c0,2-1.11,3.06-3.31,3.06h-7.26v4.9h9.36C273.44,106.72,273.91,107.08,273.91,107.8ZM259.27,93.23V88.52h-7.38a1.18,1.18,0,0,0-1.34,1.34v3.37Zm10.63,5.41V96.15c0-.59-.36-.89-1.08-.89H250.55v4.46h18.27A1,1,0,0,0,269.9,98.64Zm-10.63,8.08v-4.9h-8.72v3.56c0,.89.49,1.34,1.47,1.34Zm35.38,29.46q0,4.51-5.66,4.52a63.19,63.19,0,0,1-6.88-.45c-1.14-.13-1.71-.53-1.71-1.21,0-.89.36-1.33,1.08-1.33.42,0,1.57.06,3.43.19,1.36.12,2.49.19,3.38.19,1.65,0,2.48-.87,2.48-2.61v-5.09H256.41v8.72c0,1.52-.66,2.29-2,2.29s-1.85-.77-1.85-2.29l-.06-21.83q0-4.4,5.21-4.39h31.69q5.22,0,5.22,4.39Zm-3.88-15.85v-2.86c0-.93-.24-1.53-.7-1.78a5.39,5.39,0,0,0-2.42-.38H259.46a6.91,6.91,0,0,0-2.35.25,2.13,2.13,0,0,0-.7,1.91v2.86Zm0,2.36H256.41V128h34.36Zm12.34-15.46a2,2,0,0,1-.63,1.49,2.07,2.07,0,0,1-1.47.61,5.78,5.78,0,0,1-2-.51,57.53,57.53,0,0,1-6.3-3.12q-2.43-1.4-3.88-2.42a48.66,48.66,0,0,1-8.91,4.58A25.13,25.13,0,0,1,276,109.2q-.9,0-.9-1a.91.91,0,0,1,.51-.89q1.28-.51,3.69-1.53a38.11,38.11,0,0,0,7.19-4.26,25.59,25.59,0,0,1-8.39-13h-2.23a1.15,1.15,0,1,1,0-2.29h21.38c1.95,0,2.93.85,2.93,2.54a2.79,2.79,0,0,1-.26,1.15,27.06,27.06,0,0,1-8.33,11.39c.5.3,1.42.76,2.73,1.4q1.59.77,7.7,3.37C302.75,106.38,303.11,106.76,303.11,107.23Zm-7.32-18.07c0-.43-.25-.64-.76-.64H279.82a24.44,24.44,0,0,0,9.23,11,20.64,20.64,0,0,0,6.62-9.87A1.11,1.11,0,0,0,295.79,89.16Z"/><path class="cls-1" d="M324.05,133.57q0,6.17-4.14,6.17c-.55,0-2.08-.15-4.58-.45a1.05,1.05,0,0,1-1.08-1.14c0-.81.32-1.21.95-1.21a11.08,11.08,0,0,1,1.62.16,12.67,12.67,0,0,0,1.56.16c1.19,0,1.78-1,1.78-3.06V118.8h-6.1A51.43,51.43,0,0,1,311.32,135c-1.15,3.26-2.06,4.9-2.74,4.9-.85,0-1.27-.32-1.27-1,0-.13.28-1.12.83-3,.59-2,.93-3.24,1-3.63a67.63,67.63,0,0,0,1.14-12.91V89.6a6.63,6.63,0,0,1,.45-3.06,3,3,0,0,1,2.61-1h7.06a3.82,3.82,0,0,1,2.89.83,5,5,0,0,1,.74,3.18Zm-3.89-32.77V89c0-.51-.07-.81-.22-.92a2.1,2.1,0,0,0-1.05-.16h-3.82c-.68,0-1,.45-1,1.34V100.8Zm0,2.22h-6.1v13.56h6.1Zm44.48,27.56a18.35,18.35,0,0,1-.76,4.26q-1.53,5.66-3.69,5.66c-1.28,0-2.48-.93-3.63-2.8a28.9,28.9,0,0,1-2.86-6.3,49.75,49.75,0,0,1-7.83,9.17,1,1,0,0,1-.64.25c-.55,0-.82-.3-.82-.89a1.24,1.24,0,0,1,.19-.64c.68-.72,1.33-1.48,2-2.29h-9.86a2.19,2.19,0,0,1-2.67-2.67V110.15a3.85,3.85,0,0,1,.5-2.32,2.64,2.64,0,0,1,2-.61h12.09c.47,0,.7.34.7,1s-.23,1-.7,1h-4.13v6.55h2.22c1.66,0,2.48.92,2.48,2.74v5a4.59,4.59,0,0,1-.57,2.8,2.48,2.48,0,0,1-1.91.63h-2.22v7.89h3.69a72.62,72.62,0,0,0,4.51-7.12,59.19,59.19,0,0,1-1.27-9.36q-.32-5.65-.32-12.72v-3.63H333.4a1.89,1.89,0,0,0-1.91,1,5.07,5.07,0,0,0-.32,2.17v13.49a64.22,64.22,0,0,1-1.46,14.06c-1,4.62-2.1,6.94-3.25,6.94a.89.89,0,0,1-1-1,2.26,2.26,0,0,1,.12-.64,23.49,23.49,0,0,0,1-3.75,72.56,72.56,0,0,0,.89-13.17V104.68a6.22,6.22,0,0,1,.76-3.63c.68-.8,2-1.21,4-1.21h18.9V97.49A1.64,1.64,0,0,1,353,95.64a1.66,1.66,0,0,1,1.91,1.85v2.35h4.39a30.23,30.23,0,0,0-1.4-3.43,1.81,1.81,0,0,1-.26-.89c0-.64.26-1,.77-1a1.91,1.91,0,0,1,1.14.7,18,18,0,0,1,4.26,6,4.35,4.35,0,0,1,.19,1.27,3.52,3.52,0,0,1-.44,1.72,1.34,1.34,0,0,1-1.21.83c-.76,0-1.51-1-2.23-3h-5.21l-.07,9.48q0,7.7.38,11.14A59.3,59.3,0,0,0,359.3,111c.34-1.61.95-2.42,1.84-2.42,1.28,0,1.91.58,1.91,1.72a6.08,6.08,0,0,1-.19,1.34,54.11,54.11,0,0,1-6.81,16.1,33,33,0,0,0,2,6.58q1.16,2.58,2.1,2.58c.43,0,.87-1,1.34-2.86a38.72,38.72,0,0,0,.83-3.82c.08-.64.51-1,1.27-1s1.08.43,1.08,1.28m-.76-41.17c0,.8-.34,1.21-1,1.21h-9.74V93c0,1.49-.63,2.23-1.9,2.23s-1.85-.74-1.85-2.23V90.62h-9.48v3c0,1.49-.64,2.23-1.91,2.23s-1.84-.74-1.84-2.23v-3h-9c-.68,0-1-.41-1-1.21s.33-1.15,1-1.15h9v-2.8c0-1.53.61-2.29,1.84-2.29s1.91.76,1.91,2.29v2.8h9.48v-2.8c0-1.53.61-2.29,1.85-2.29s1.9.76,1.9,2.29v2.8h9.74c.68,0,1,.38,1,1.15m-22.72,26.4v-6.55h-2.67c-.72,0-1.08.47-1.08,1.4v5.15Zm4.71,7.58v-4.27c0-.85-.34-1.27-1-1.27h-7.44v7.06h7.44c.68,0,1-.51,1-1.52m-4.71,11.51V127h-3.75v6.56c0,.89.36,1.33,1.08,1.33Z"/><path class="cls-2" d="M324.05,133.57q0,6.17-4.14,6.17c-.55,0-2.08-.15-4.58-.45a1.05,1.05,0,0,1-1.08-1.14c0-.81.32-1.21.95-1.21a11.08,11.08,0,0,1,1.62.16,12.67,12.67,0,0,0,1.56.16c1.19,0,1.78-1,1.78-3.06V118.8h-6.1A51.43,51.43,0,0,1,311.32,135c-1.15,3.26-2.06,4.9-2.74,4.9-.85,0-1.27-.32-1.27-1,0-.13.28-1.12.83-3,.59-2,.93-3.24,1-3.63a67.63,67.63,0,0,0,1.14-12.91V89.6a6.63,6.63,0,0,1,.45-3.06,3,3,0,0,1,2.61-1h7.06a3.82,3.82,0,0,1,2.89.83,5,5,0,0,1,.74,3.18Zm-3.89-32.77V89c0-.51-.07-.81-.22-.92a2.1,2.1,0,0,0-1.05-.16h-3.82c-.68,0-1,.45-1,1.34V100.8Zm0,2.22h-6.1v13.56h6.1Zm44.48,27.56a18.35,18.35,0,0,1-.76,4.26q-1.53,5.66-3.69,5.66c-1.28,0-2.48-.93-3.63-2.8a28.9,28.9,0,0,1-2.86-6.3,49.75,49.75,0,0,1-7.83,9.17,1,1,0,0,1-.64.25c-.55,0-.82-.3-.82-.89a1.24,1.24,0,0,1,.19-.64c.68-.72,1.33-1.48,2-2.29h-9.86a2.19,2.19,0,0,1-2.67-2.67V110.15a3.85,3.85,0,0,1,.5-2.32,2.64,2.64,0,0,1,2-.61h12.09c.47,0,.7.34.7,1s-.23,1-.7,1h-4.13v6.55h2.22c1.66,0,2.48.92,2.48,2.74v5a4.59,4.59,0,0,1-.57,2.8,2.48,2.48,0,0,1-1.91.63h-2.22v7.89h3.69a72.62,72.62,0,0,0,4.51-7.12,59.19,59.19,0,0,1-1.27-9.36q-.32-5.65-.32-12.72v-3.63H333.4a1.89,1.89,0,0,0-1.91,1,5.07,5.07,0,0,0-.32,2.17v13.49a64.22,64.22,0,0,1-1.46,14.06c-1,4.62-2.1,6.94-3.25,6.94a.89.89,0,0,1-1-1,2.26,2.26,0,0,1,.12-.64,23.49,23.49,0,0,0,1-3.75,72.56,72.56,0,0,0,.89-13.17V104.68a6.22,6.22,0,0,1,.76-3.63c.68-.8,2-1.21,4-1.21h18.9V97.49A1.64,1.64,0,0,1,353,95.64a1.66,1.66,0,0,1,1.91,1.85v2.35h4.39a30.23,30.23,0,0,0-1.4-3.43,1.81,1.81,0,0,1-.26-.89c0-.64.26-1,.77-1a1.91,1.91,0,0,1,1.14.7,18,18,0,0,1,4.26,6,4.35,4.35,0,0,1,.19,1.27,3.52,3.52,0,0,1-.44,1.72,1.34,1.34,0,0,1-1.21.83c-.76,0-1.51-1-2.23-3h-5.21l-.07,9.48q0,7.7.38,11.14A59.3,59.3,0,0,0,359.3,111c.34-1.61.95-2.42,1.84-2.42,1.28,0,1.91.58,1.91,1.72a6.08,6.08,0,0,1-.19,1.34,54.11,54.11,0,0,1-6.81,16.1,33,33,0,0,0,2,6.58q1.16,2.58,2.1,2.58c.43,0,.87-1,1.34-2.86a38.72,38.72,0,0,0,.83-3.82c.08-.64.51-1,1.27-1S364.64,129.73,364.64,130.58Zm-.76-41.17c0,.8-.34,1.21-1,1.21h-9.74V93c0,1.49-.63,2.23-1.9,2.23s-1.85-.74-1.85-2.23V90.62h-9.48v3c0,1.49-.64,2.23-1.91,2.23s-1.84-.74-1.84-2.23v-3h-9c-.68,0-1-.41-1-1.21s.33-1.15,1-1.15h9v-2.8c0-1.53.61-2.29,1.84-2.29s1.91.76,1.91,2.29v2.8h9.48v-2.8c0-1.53.61-2.29,1.85-2.29s1.9.76,1.9,2.29v2.8h9.74C363.54,88.26,363.88,88.64,363.88,89.41Zm-22.72,26.4v-6.55h-2.67c-.72,0-1.08.47-1.08,1.4v5.15Zm4.71,7.58v-4.27c0-.85-.34-1.27-1-1.27h-7.44v7.06h7.44C345.53,124.91,345.87,124.4,345.87,123.39Zm-4.71,11.51V127h-3.75v6.56c0,.89.36,1.33,1.08,1.33Z"/><path class="cls-1" d="M426.62,90.94c0,.84-.41,1.27-1.21,1.27H385.64a4.8,4.8,0,0,0-2.48.44c-.43.3-.64,1-.64,2.1V110.6a69.58,69.58,0,0,1-1,13.23,30.84,30.84,0,0,1-4.26,11q-3.37,5.28-4.71,5.28a.91.91,0,0,1-.57-.19,1,1,0,0,1-.57-.89,1.55,1.55,0,0,1,.38-.95q6.3-8.4,6.81-23c-1,1.11-2.54,2.58-4.55,4.43s-3.32,2.77-3.92,2.77c-.76,0-1.33-.47-1.71-1.4a2.74,2.74,0,0,1-.13-.77c0-.51.38-1,1.14-1.33a70.9,70.9,0,0,0,9.23-6.3c0-.6.06-1.23.06-1.91V94.69c0-1.74.36-3,1.09-3.63.89-.85,2.64-1.27,5.28-1.27H400V85.34c0-1.53.65-2.3,2-2.3H402c1.4,0,2.1.77,2.1,2.3v4.45h21.32c.8,0,1.21.38,1.21,1.15m-49.57,14.12a2.31,2.31,0,0,1-.67,1.66,2.18,2.18,0,0,1-1.62.7c-.81,0-1.34-.64-1.59-1.91a49.8,49.8,0,0,0-3.25-9.17,2.11,2.11,0,0,1-.32-1,.79.79,0,0,1,.9-.89c.38,0,.93.4,1.65,1.21a34,34,0,0,1,4.45,7.51,4.61,4.61,0,0,1,.45,1.84m48.55-5q0,1.14-1.08,1.14H408v6.49c0,.6,0,1.17-.07,1.72h11q5.28,0,5.28,4.2V134a8.12,8.12,0,0,1-1,4.49,4.51,4.51,0,0,1-3.28,1.75,14.49,14.49,0,0,1-1.46.06,27.87,27.87,0,0,1-6.43-.63c-.81-.17-1.21-.51-1.21-1,0-.85.32-1.27,1-1.27a16.36,16.36,0,0,1,2.42.25,16.49,16.49,0,0,0,2.42.25q3.69,0,3.69-3.75V114c0-1.1-.25-1.78-.76-2a6.3,6.3,0,0,0-2.29-.26h-9.61a20,20,0,0,1-1.46,4.71,63.6,63.6,0,0,1,6.1,3.63,48.1,48.1,0,0,1,5,3.43,3.77,3.77,0,0,1,1.52,2.74c0,1.32-.55,2-1.65,2a2.63,2.63,0,0,1-2-1.27,36.25,36.25,0,0,0-6.17-6q-1.08-.82-3.69-2.67a23.06,23.06,0,0,1-7.32,7.5,40.92,40.92,0,0,1-4.07,2.42,1.19,1.19,0,0,1-.64.19c-.63,0-.95-.29-.95-.89a.92.92,0,0,1,.45-.76q9.41-6,11.07-15h-9.36a6.3,6.3,0,0,0-2.29.26c-.51.25-.76.93-.76,2V138.4c0,1.49-.64,2.23-1.91,2.23s-1.84-.74-1.84-2.23V113.65c0-2.8,1.73-4.2,5.21-4.2h11.27c0-.76.06-1.55.06-2.35v-5.86H387.29q-1.08,0-1.08-1.14c0-.77.36-1.15,1.08-1.15h37.23c.72,0,1.08.38,1.08,1.15"/><path class="cls-2" d="M426.62,90.94c0,.84-.41,1.27-1.21,1.27H385.64a4.8,4.8,0,0,0-2.48.44c-.43.3-.64,1-.64,2.1V110.6a69.58,69.58,0,0,1-1,13.23,30.84,30.84,0,0,1-4.26,11q-3.37,5.28-4.71,5.28a.91.91,0,0,1-.57-.19,1,1,0,0,1-.57-.89,1.55,1.55,0,0,1,.38-.95q6.3-8.4,6.81-23c-1,1.11-2.54,2.58-4.55,4.43s-3.32,2.77-3.92,2.77c-.76,0-1.33-.47-1.71-1.4a2.74,2.74,0,0,1-.13-.77c0-.51.38-1,1.14-1.33a70.9,70.9,0,0,0,9.23-6.3c0-.6.06-1.23.06-1.91V94.69c0-1.74.36-3,1.09-3.63.89-.85,2.64-1.27,5.28-1.27H400V85.34c0-1.53.65-2.3,2-2.3H402c1.4,0,2.1.77,2.1,2.3v4.45h21.32C426.21,89.79,426.62,90.17,426.62,90.94Zm-49.57,14.12a2.31,2.31,0,0,1-.67,1.66,2.18,2.18,0,0,1-1.62.7c-.81,0-1.34-.64-1.59-1.91a49.8,49.8,0,0,0-3.25-9.17,2.11,2.11,0,0,1-.32-1,.79.79,0,0,1,.9-.89c.38,0,.93.4,1.65,1.21a34,34,0,0,1,4.45,7.51A4.61,4.61,0,0,1,377.05,105.06Zm48.55-5q0,1.14-1.08,1.14H408v6.49c0,.6,0,1.17-.07,1.72h11q5.28,0,5.28,4.2V134a8.12,8.12,0,0,1-1,4.49,4.51,4.51,0,0,1-3.28,1.75,14.49,14.49,0,0,1-1.46.06,27.87,27.87,0,0,1-6.43-.63c-.81-.17-1.21-.51-1.21-1,0-.85.32-1.27,1-1.27a16.36,16.36,0,0,1,2.42.25,16.49,16.49,0,0,0,2.42.25q3.69,0,3.69-3.75V114c0-1.1-.25-1.78-.76-2a6.3,6.3,0,0,0-2.29-.26h-9.61a20,20,0,0,1-1.46,4.71,63.6,63.6,0,0,1,6.1,3.63,48.1,48.1,0,0,1,5,3.43,3.77,3.77,0,0,1,1.52,2.74c0,1.32-.55,2-1.65,2a2.63,2.63,0,0,1-2-1.27,36.25,36.25,0,0,0-6.17-6q-1.08-.82-3.69-2.67a23.06,23.06,0,0,1-7.32,7.5,40.92,40.92,0,0,1-4.07,2.42,1.19,1.19,0,0,1-.64.19c-.63,0-.95-.29-.95-.89a.92.92,0,0,1,.45-.76q9.41-6,11.07-15h-9.36a6.3,6.3,0,0,0-2.29.26c-.51.25-.76.93-.76,2V138.4c0,1.49-.64,2.23-1.91,2.23s-1.84-.74-1.84-2.23V113.65c0-2.8,1.73-4.2,5.21-4.2h11.27c0-.76.06-1.55.06-2.35v-5.86H387.29q-1.08,0-1.08-1.14c0-.77.36-1.15,1.08-1.15h37.23C425.24,99,425.6,99.33,425.6,100.1Z"/><path class="cls-1" d="M490.37,120.4c0,.81-.36,1.21-1.08,1.21H464.35a26,26,0,0,1,2,9.73q-.06,9.22-10.88,9.23a33.81,33.81,0,0,1-5.73-.45c-1.27-.25-1.91-.65-1.91-1.2a2.3,2.3,0,0,1,.13-.58,1,1,0,0,1,1-.89,19,19,0,0,1,2,.26,27.9,27.9,0,0,0,4,.31,7.85,7.85,0,0,0,5.5-1.87,6.81,6.81,0,0,0,2.07-5.32,21.69,21.69,0,0,0-2.42-9.22H432c-.72,0-1.08-.4-1.08-1.21s.36-1.21,1.08-1.21h26.79q-.69-1.27-2.48-4.33a2.56,2.56,0,0,1-.38-1.14,1.36,1.36,0,0,1,.67-1.12,2.28,2.28,0,0,1,1.3-.47,1.47,1.47,0,0,1,.83.25q9.93-3.75,12.34-5.92a.5.5,0,0,0,.26-.38q0-.51-1-.51H443.92c-.85,0-1.27-.38-1.27-1.14s.42-1.21,1.27-1.21h31.31c1.91,0,2.86.64,2.86,1.91a2.48,2.48,0,0,1-1.4,2q-4.45,2.86-16.48,7.07a49.94,49.94,0,0,1,3.06,5h26c.72,0,1.08.4,1.08,1.21m-2.8-15.08c0,1.48-.63,2.23-1.91,2.23s-2-.75-2-2.23v-5.6a3.09,3.09,0,0,0-.67-2.29,3.53,3.53,0,0,0-2.45-.64H440.74a3.55,3.55,0,0,0-2.45.64,3.13,3.13,0,0,0-.67,2.29v5.6c0,1.53-.65,2.29-2,2.29s-1.91-.76-1.91-2.29V99.91a5.28,5.28,0,0,1,1.4-3.85A5.11,5.11,0,0,1,439,94.63h7.25a3.24,3.24,0,0,1-.76-1.08,29.47,29.47,0,0,0-2.16-3.31c-1.32-1.91-2.44-3.42-3.38-4.52a1.13,1.13,0,0,1-.25-.7.79.79,0,0,1,.89-.89.91.91,0,0,1,.57.19,36.73,36.73,0,0,1,3.79,2.77,21.24,21.24,0,0,1,3,2.7,5.43,5.43,0,0,1,1.33,3,2.09,2.09,0,0,1-.95,1.78l-.06.07h22.33A103.46,103.46,0,0,0,477,85.08a2.05,2.05,0,0,1,1.78-1.27,2.43,2.43,0,0,1,1.56.7,2.08,2.08,0,0,1,.79,1.59,2.75,2.75,0,0,1-.83,1.72,44.62,44.62,0,0,1-7.31,6.81h9.41a5.1,5.1,0,0,1,3.82,1.43,5.24,5.24,0,0,1,1.4,3.85ZM463.9,92a2.15,2.15,0,0,1-1.4,2.1,1.64,1.64,0,0,1-.76.19c-.93,0-1.53-.57-1.78-1.72a34.72,34.72,0,0,0-3.69-8.65,1.07,1.07,0,0,1-.13-.51.79.79,0,0,1,.89-.89,1.07,1.07,0,0,1,.7.25,42.52,42.52,0,0,1,3.12,3.41,17.76,17.76,0,0,1,2.29,3.15A6.77,6.77,0,0,1,463.9,92"/><path class="cls-2" d="M490.37,120.4c0,.81-.36,1.21-1.08,1.21H464.35a26,26,0,0,1,2,9.73q-.06,9.22-10.88,9.23a33.81,33.81,0,0,1-5.73-.45c-1.27-.25-1.91-.65-1.91-1.2a2.3,2.3,0,0,1,.13-.58,1,1,0,0,1,1-.89,19,19,0,0,1,2,.26,27.9,27.9,0,0,0,4,.31,7.85,7.85,0,0,0,5.5-1.87,6.81,6.81,0,0,0,2.07-5.32,21.69,21.69,0,0,0-2.42-9.22H432c-.72,0-1.08-.4-1.08-1.21s.36-1.21,1.08-1.21h26.79q-.69-1.27-2.48-4.33a2.56,2.56,0,0,1-.38-1.14,1.36,1.36,0,0,1,.67-1.12,2.28,2.28,0,0,1,1.3-.47,1.47,1.47,0,0,1,.83.25q9.93-3.75,12.34-5.92a.5.5,0,0,0,.26-.38q0-.51-1-.51H443.92c-.85,0-1.27-.38-1.27-1.14s.42-1.21,1.27-1.21h31.31c1.91,0,2.86.64,2.86,1.91a2.48,2.48,0,0,1-1.4,2q-4.45,2.86-16.48,7.07a49.94,49.94,0,0,1,3.06,5h26C490,119.19,490.37,119.59,490.37,120.4Zm-2.8-15.08c0,1.48-.63,2.23-1.91,2.23s-2-.75-2-2.23v-5.6a3.09,3.09,0,0,0-.67-2.29,3.53,3.53,0,0,0-2.45-.64H440.74a3.55,3.55,0,0,0-2.45.64,3.13,3.13,0,0,0-.67,2.29v5.6c0,1.53-.65,2.29-2,2.29s-1.91-.76-1.91-2.29V99.91a5.28,5.28,0,0,1,1.4-3.85A5.11,5.11,0,0,1,439,94.63h7.25a3.24,3.24,0,0,1-.76-1.08,29.47,29.47,0,0,0-2.16-3.31c-1.32-1.91-2.44-3.42-3.38-4.52a1.13,1.13,0,0,1-.25-.7.79.79,0,0,1,.89-.89.91.91,0,0,1,.57.19,36.73,36.73,0,0,1,3.79,2.77,21.24,21.24,0,0,1,3,2.7,5.43,5.43,0,0,1,1.33,3,2.09,2.09,0,0,1-.95,1.78l-.06.07h22.33A103.46,103.46,0,0,0,477,85.08a2.05,2.05,0,0,1,1.78-1.27,2.43,2.43,0,0,1,1.56.7,2.08,2.08,0,0,1,.79,1.59,2.75,2.75,0,0,1-.83,1.72,44.62,44.62,0,0,1-7.31,6.81h9.41a5.1,5.1,0,0,1,3.82,1.43,5.24,5.24,0,0,1,1.4,3.85ZM463.9,92a2.15,2.15,0,0,1-1.4,2.1,1.64,1.64,0,0,1-.76.19c-.93,0-1.53-.57-1.78-1.72a34.72,34.72,0,0,0-3.69-8.65,1.07,1.07,0,0,1-.13-.51.79.79,0,0,1,.89-.89,1.07,1.07,0,0,1,.7.25,42.52,42.52,0,0,1,3.12,3.41,17.76,17.76,0,0,1,2.29,3.15A6.77,6.77,0,0,1,463.9,92Z"/><path class="cls-1" d="M552.92,103.21a2,2,0,0,1-.51,1.34,3.34,3.34,0,0,1-2.22,1.21,7.27,7.27,0,0,1-2.68-.83A93.13,93.13,0,0,1,529.7,94a33.49,33.49,0,0,1-6.05-5.92A58,58,0,0,1,514,96.79a71.75,71.75,0,0,1-19.15,9.54,1.52,1.52,0,0,1-.45.07c-.72,0-1.08-.39-1.08-1.15a.8.8,0,0,1,.51-.83q17-7,26.47-19.21A3.52,3.52,0,0,1,523,83.55a1.62,1.62,0,0,1,1,.32c.76.51,1.15,1,1.15,1.53a1.73,1.73,0,0,1-.26.83,28.8,28.8,0,0,0,5.92,5.15,74.78,74.78,0,0,0,20.36,9.93c1.19.38,1.78,1,1.78,1.9m-1.46,14.13c0,.81-.38,1.21-1.15,1.21H518.75A125.22,125.22,0,0,1,509,135.47l7.63-.57q7.71-.63,21.32-1.84c-.64-.77-1.64-1.91-3-3.44q-.9-1-5-4.77a.82.82,0,0,1-.32-.7.79.79,0,0,1,.89-.89,1.35,1.35,0,0,1,.76.25,68.4,68.4,0,0,1,10.44,7.77q3.18,2.73,3.43,3.05,2.35,2.29,2.36,3.69a2.83,2.83,0,0,1-.64,1.72,1.88,1.88,0,0,1-1.53.83c-.72,0-1.55-.57-2.48-1.69s-2.1-2.49-3.5-4.1q-6.67,1.4-10.31,1.78-5.14.69-16.54,2.16l-10.31,1.15a15.71,15.71,0,0,1-2.22.06,1.86,1.86,0,0,1-1.78-2c0-1.19.78-1.82,2.35-1.91,1.06,0,2.82-.14,5.28-.31a114.19,114.19,0,0,0,7.76-17.12H495.72c-.76,0-1.15-.4-1.15-1.21s.39-1.21,1.15-1.21h54.59c.77,0,1.15.4,1.15,1.21m-10.69-12.79c0,.81-.38,1.21-1.15,1.21H506.41c-.76,0-1.15-.4-1.15-1.21s.39-1.21,1.15-1.21h33.21c.77,0,1.15.41,1.15,1.21"/><path class="cls-2" d="M552.92,103.21a2,2,0,0,1-.51,1.34,3.34,3.34,0,0,1-2.22,1.21,7.27,7.27,0,0,1-2.68-.83A93.13,93.13,0,0,1,529.7,94a33.49,33.49,0,0,1-6.05-5.92A58,58,0,0,1,514,96.79a71.75,71.75,0,0,1-19.15,9.54,1.52,1.52,0,0,1-.45.07c-.72,0-1.08-.39-1.08-1.15a.8.8,0,0,1,.51-.83q17-7,26.47-19.21A3.52,3.52,0,0,1,523,83.55a1.62,1.62,0,0,1,1,.32c.76.51,1.15,1,1.15,1.53a1.73,1.73,0,0,1-.26.83,28.8,28.8,0,0,0,5.92,5.15,74.78,74.78,0,0,0,20.36,9.93C552.33,101.69,552.92,102.32,552.92,103.21Zm-1.46,14.13c0,.81-.38,1.21-1.15,1.21H518.75A125.22,125.22,0,0,1,509,135.47l7.63-.57q7.71-.63,21.32-1.84c-.64-.77-1.64-1.91-3-3.44q-.9-1-5-4.77a.82.82,0,0,1-.32-.7.79.79,0,0,1,.89-.89,1.35,1.35,0,0,1,.76.25,68.4,68.4,0,0,1,10.44,7.77q3.18,2.73,3.43,3.05,2.35,2.29,2.36,3.69a2.83,2.83,0,0,1-.64,1.72,1.88,1.88,0,0,1-1.53.83c-.72,0-1.55-.57-2.48-1.69s-2.1-2.49-3.5-4.1q-6.67,1.4-10.31,1.78-5.14.69-16.54,2.16l-10.31,1.15a15.71,15.71,0,0,1-2.22.06,1.86,1.86,0,0,1-1.78-2c0-1.19.78-1.82,2.35-1.91,1.06,0,2.82-.14,5.28-.31a114.19,114.19,0,0,0,7.76-17.12H495.72c-.76,0-1.15-.4-1.15-1.21s.39-1.21,1.15-1.21h54.59C551.08,116.13,551.46,116.53,551.46,117.34Zm-10.69-12.79c0,.81-.38,1.21-1.15,1.21H506.41c-.76,0-1.15-.4-1.15-1.21s.39-1.21,1.15-1.21h33.21C540.39,103.34,540.77,103.75,540.77,104.55Z"/><path class="cls-1" d="M619.24,120.39c0,.81-.36,1.21-1.08,1.21H593.22a26.06,26.06,0,0,1,2,9.74q-.06,9.22-10.88,9.23a33.81,33.81,0,0,1-5.73-.45c-1.27-.25-1.91-.66-1.91-1.21a1.82,1.82,0,0,1,.13-.57,1,1,0,0,1,1-.89,17.82,17.82,0,0,1,2,.25,28,28,0,0,0,4,.32,7.88,7.88,0,0,0,5.5-1.88,6.8,6.8,0,0,0,2.07-5.31A21.88,21.88,0,0,0,589,121.6H560.89c-.72,0-1.08-.4-1.08-1.21s.36-1.2,1.08-1.2h26.79c-.47-.85-1.29-2.3-2.48-4.33a2.51,2.51,0,0,1-.38-1.15,1.36,1.36,0,0,1,.67-1.11,2.2,2.2,0,0,1,1.3-.48,1.48,1.48,0,0,1,.83.26q9.92-3.76,12.34-5.92a.54.54,0,0,0,.26-.38q0-.51-1-.51H572.79c-.85,0-1.27-.38-1.27-1.15s.42-1.21,1.27-1.21H604.1c1.91,0,2.86.64,2.86,1.91a2.49,2.49,0,0,1-1.4,2q-4.45,2.86-16.48,7.06a48,48,0,0,1,3,5h26q1.08,0,1.08,1.2m-2.8-15.08c0,1.49-.64,2.23-1.91,2.23s-2-.74-2-2.23v-5.6a3.1,3.1,0,0,0-.67-2.29,3.59,3.59,0,0,0-2.45-.63H569.61a3.61,3.61,0,0,0-2.45.63,3.1,3.1,0,0,0-.67,2.29v5.6c0,1.53-.66,2.29-2,2.29s-1.91-.76-1.91-2.29v-5.4a5.26,5.26,0,0,1,1.4-3.85,5.07,5.07,0,0,1,3.82-1.44h7.25a2.93,2.93,0,0,1-.76-1.08,31.27,31.27,0,0,0-2.17-3.31c-1.31-1.91-2.44-3.41-3.37-4.51a1.11,1.11,0,0,1-.25-.7.79.79,0,0,1,.89-.9.92.92,0,0,1,.57.2,36.37,36.37,0,0,1,3.79,2.76,21.75,21.75,0,0,1,3,2.71,5.41,5.41,0,0,1,1.33,3,2.14,2.14,0,0,1-1,1.78l-.07.06h22.34a99.84,99.84,0,0,0,6.42-9.54,2,2,0,0,1,1.79-1.27,2.42,2.42,0,0,1,1.56.7A2.09,2.09,0,0,1,610,86.1a2.8,2.8,0,0,1-.83,1.72,44.59,44.59,0,0,1-7.31,6.8h9.41A5.08,5.08,0,0,1,615,96.06a5.26,5.26,0,0,1,1.4,3.85ZM592.77,92a2.18,2.18,0,0,1-1.4,2.1,1.78,1.78,0,0,1-.76.19c-.94,0-1.53-.58-1.78-1.72a34.76,34.76,0,0,0-3.69-8.66,1,1,0,0,1-.13-.5.79.79,0,0,1,.89-.9,1.1,1.1,0,0,1,.7.26,42.1,42.1,0,0,1,3.12,3.4A18.54,18.54,0,0,1,592,89.34a6.85,6.85,0,0,1,.76,2.68"/><path class="cls-2" d="M619.24,120.39c0,.81-.36,1.21-1.08,1.21H593.22a26.06,26.06,0,0,1,2,9.74q-.06,9.22-10.88,9.23a33.81,33.81,0,0,1-5.73-.45c-1.27-.25-1.91-.66-1.91-1.21a1.82,1.82,0,0,1,.13-.57,1,1,0,0,1,1-.89,17.82,17.82,0,0,1,2,.25,28,28,0,0,0,4,.32,7.88,7.88,0,0,0,5.5-1.88,6.8,6.8,0,0,0,2.07-5.31A21.88,21.88,0,0,0,589,121.6H560.89c-.72,0-1.08-.4-1.08-1.21s.36-1.2,1.08-1.2h26.79c-.47-.85-1.29-2.3-2.48-4.33a2.51,2.51,0,0,1-.38-1.15,1.36,1.36,0,0,1,.67-1.11,2.2,2.2,0,0,1,1.3-.48,1.48,1.48,0,0,1,.83.26q9.92-3.76,12.34-5.92a.54.54,0,0,0,.26-.38q0-.51-1-.51H572.79c-.85,0-1.27-.38-1.27-1.15s.42-1.21,1.27-1.21H604.1c1.91,0,2.86.64,2.86,1.91a2.49,2.49,0,0,1-1.4,2q-4.45,2.86-16.48,7.06a48,48,0,0,1,3,5h26Q619.24,119.19,619.24,120.39Zm-2.8-15.08c0,1.49-.64,2.23-1.91,2.23s-2-.74-2-2.23v-5.6a3.1,3.1,0,0,0-.67-2.29,3.59,3.59,0,0,0-2.45-.63H569.61a3.61,3.61,0,0,0-2.45.63,3.1,3.1,0,0,0-.67,2.29v5.6c0,1.53-.66,2.29-2,2.29s-1.91-.76-1.91-2.29v-5.4a5.26,5.26,0,0,1,1.4-3.85,5.07,5.07,0,0,1,3.82-1.44h7.25a2.93,2.93,0,0,1-.76-1.08,31.27,31.27,0,0,0-2.17-3.31c-1.31-1.91-2.44-3.41-3.37-4.51a1.11,1.11,0,0,1-.25-.7.79.79,0,0,1,.89-.9.92.92,0,0,1,.57.2,36.37,36.37,0,0,1,3.79,2.76,21.75,21.75,0,0,1,3,2.71,5.41,5.41,0,0,1,1.33,3,2.14,2.14,0,0,1-1,1.78l-.07.06h22.34a99.84,99.84,0,0,0,6.42-9.54,2,2,0,0,1,1.79-1.27,2.42,2.42,0,0,1,1.56.7A2.09,2.09,0,0,1,610,86.1a2.8,2.8,0,0,1-.83,1.72,44.59,44.59,0,0,1-7.31,6.8h9.41A5.08,5.08,0,0,1,615,96.06a5.26,5.26,0,0,1,1.4,3.85ZM592.77,92a2.18,2.18,0,0,1-1.4,2.1,1.78,1.78,0,0,1-.76.19c-.94,0-1.53-.58-1.78-1.72a34.76,34.76,0,0,0-3.69-8.66,1,1,0,0,1-.13-.5.79.79,0,0,1,.89-.9,1.1,1.1,0,0,1,.7.26,42.1,42.1,0,0,1,3.12,3.4A18.54,18.54,0,0,1,592,89.34,6.85,6.85,0,0,1,592.77,92Z"/><path class="cls-1" d="M638.2,101.5a4,4,0,0,1-.76,2c-1.66,2.55-3.2,4.75-4.65,6.62v28.63c0,1.19-.63,1.79-1.91,1.79s-1.9-.6-1.9-1.79v-25a29.14,29.14,0,0,1-5.86,4.64.74.74,0,0,1-.44.13q-1,0-1-1.08a.53.53,0,0,1,.19-.45,46.86,46.86,0,0,0,6.81-7.38,56.4,56.4,0,0,0,5.35-8.33,2.46,2.46,0,0,1,2.16-1.6,2.08,2.08,0,0,1,1.37.51,1.62,1.62,0,0,1,.6,1.28M637.44,88a2.87,2.87,0,0,1-.83,1.84,55.13,55.13,0,0,1-7.44,6.94c-1,.8-2.51,1.91-4.58,3.31a.84.84,0,0,1-.45.12c-.6,0-.89-.34-.89-1a.68.68,0,0,1,.25-.58,57.26,57.26,0,0,0,10.06-11.51c.51-.77,1-1.15,1.59-1.15a2.33,2.33,0,0,1,1.56.64,1.86,1.86,0,0,1,.73,1.4m7.7,21.06a6.18,6.18,0,0,1-.07.89,38.94,38.94,0,0,1-1.08,5.28q-.32,1.33-1.78,6.3a46.39,46.39,0,0,1-2.86,7.64,1,1,0,0,1-1,.5.84.84,0,0,1-.95-1,18.43,18.43,0,0,1,.57-2.93c.21-1,.45-2,.7-3Q639.1,121,640,117c.47-2.25.89-4.73,1.28-7.45.21-1.52.89-2.29,2-2.29a1.64,1.64,0,0,1,1.85,1.85m18.39-10.56q0,1.08-1.53,1.08h-8.46v39.19c0,1.19-.64,1.79-1.91,1.79s-1.91-.6-1.91-1.79V99.59h-7.83c-1,0-1.52-.36-1.52-1.08s.5-1.15,1.52-1.15h7.83V85.46c0-1.19.64-1.78,1.91-1.78s1.91.59,1.91,1.78v11.9H662c1,0,1.53.38,1.53,1.15M662.89,92a1.67,1.67,0,0,1-.73,1.24,2.29,2.29,0,0,1-1.43.6c-.64,0-1.15-.42-1.53-1.27a39.21,39.21,0,0,0-2.67-5.09,2.15,2.15,0,0,1-.38-1,.67.67,0,0,1,.76-.76,3.11,3.11,0,0,1,1.84,1.14,38.19,38.19,0,0,1,3.31,3.31,3.3,3.3,0,0,1,.83,1.85m3.37,33.72c0,1.36-.49,2.16-1.46,2.42a2.56,2.56,0,0,1-.76.12c-1.07,0-1.74-.67-2-2q-.71-2.81-2-8.34c-.76-3-1.55-5.81-2.35-8.52a4.84,4.84,0,0,1-.26-1.34c0-.72.41-1.08,1.21-1.08a1.62,1.62,0,0,1,1.34.89,77.74,77.74,0,0,1,3.18,7.7q2.42,6.56,3.06,9.1a4.7,4.7,0,0,1,.12,1.08m16.16-19.54c0,.81-.36,1.21-1.08,1.21H678V134c0,2.37-.46,4-1.37,5a5.69,5.69,0,0,1-4.23,1.4,38.09,38.09,0,0,1-7.44-.83,1,1,0,0,1-.77-1.14c0-.85.36-1.27,1.08-1.27a23.07,23.07,0,0,1,3.12.31,21.88,21.88,0,0,0,3.12.32,2.36,2.36,0,0,0,2.1-.83,5.48,5.48,0,0,0,.38-2.41V107.41H664.1c-.72,0-1.08-.4-1.08-1.21s.36-1.2,1.08-1.2h17.24q1.08,0,1.08,1.2m-.89-16c0,.81-.38,1.21-1.14,1.21H666.2c-.72,0-1.08-.4-1.08-1.21S665.48,89,666.2,89h14.19c.76,0,1.14.4,1.14,1.21"/><path class="cls-2" d="M638.2,101.5a4,4,0,0,1-.76,2c-1.66,2.55-3.2,4.75-4.65,6.62v28.63c0,1.19-.63,1.79-1.91,1.79s-1.9-.6-1.9-1.79v-25a29.14,29.14,0,0,1-5.86,4.64.74.74,0,0,1-.44.13q-1,0-1-1.08a.53.53,0,0,1,.19-.45,46.86,46.86,0,0,0,6.81-7.38,56.4,56.4,0,0,0,5.35-8.33,2.46,2.46,0,0,1,2.16-1.6,2.08,2.08,0,0,1,1.37.51A1.62,1.62,0,0,1,638.2,101.5ZM637.44,88a2.87,2.87,0,0,1-.83,1.84,55.13,55.13,0,0,1-7.44,6.94c-1,.8-2.51,1.91-4.58,3.31a.84.84,0,0,1-.45.12c-.6,0-.89-.34-.89-1a.68.68,0,0,1,.25-.58,57.26,57.26,0,0,0,10.06-11.51c.51-.77,1-1.15,1.59-1.15a2.33,2.33,0,0,1,1.56.64A1.86,1.86,0,0,1,637.44,88Zm7.7,21.06a6.18,6.18,0,0,1-.07.89,38.94,38.94,0,0,1-1.08,5.28q-.32,1.33-1.78,6.3a46.39,46.39,0,0,1-2.86,7.64,1,1,0,0,1-1,.5.84.84,0,0,1-.95-1,18.43,18.43,0,0,1,.57-2.93c.21-1,.45-2,.7-3Q639.1,121,640,117c.47-2.25.89-4.73,1.28-7.45.21-1.52.89-2.29,2-2.29A1.64,1.64,0,0,1,645.14,109.07Zm18.39-10.56q0,1.08-1.53,1.08h-8.46v39.19c0,1.19-.64,1.79-1.91,1.79s-1.91-.6-1.91-1.79V99.59h-7.83c-1,0-1.52-.36-1.52-1.08s.5-1.15,1.52-1.15h7.83V85.46c0-1.19.64-1.78,1.91-1.78s1.91.59,1.91,1.78v11.9H662C663,97.36,663.53,97.74,663.53,98.51ZM662.89,92a1.67,1.67,0,0,1-.73,1.24,2.29,2.29,0,0,1-1.43.6c-.64,0-1.15-.42-1.53-1.27a39.21,39.21,0,0,0-2.67-5.09,2.15,2.15,0,0,1-.38-1,.67.67,0,0,1,.76-.76,3.11,3.11,0,0,1,1.84,1.14,38.19,38.19,0,0,1,3.31,3.31A3.3,3.3,0,0,1,662.89,92Zm3.37,33.72c0,1.36-.49,2.16-1.46,2.42a2.56,2.56,0,0,1-.76.12c-1.07,0-1.74-.67-2-2q-.71-2.81-2-8.34c-.76-3-1.55-5.81-2.35-8.52a4.84,4.84,0,0,1-.26-1.34c0-.72.41-1.08,1.21-1.08a1.62,1.62,0,0,1,1.34.89,77.74,77.74,0,0,1,3.18,7.7q2.42,6.56,3.06,9.1A4.7,4.7,0,0,1,666.26,125.74Zm16.16-19.54c0,.81-.36,1.21-1.08,1.21H678V134c0,2.37-.46,4-1.37,5a5.69,5.69,0,0,1-4.23,1.4,38.09,38.09,0,0,1-7.44-.83,1,1,0,0,1-.77-1.14c0-.85.36-1.27,1.08-1.27a23.07,23.07,0,0,1,3.12.31,21.88,21.88,0,0,0,3.12.32,2.36,2.36,0,0,0,2.1-.83,5.48,5.48,0,0,0,.38-2.41V107.41H664.1c-.72,0-1.08-.4-1.08-1.21s.36-1.2,1.08-1.2h17.24Q682.42,105,682.42,106.2Zm-.89-16c0,.81-.38,1.21-1.14,1.21H666.2c-.72,0-1.08-.4-1.08-1.21S665.48,89,666.2,89h14.19C681.15,89,681.53,89.36,681.53,90.17Z"/><path class="cls-1" d="M744,134.52a2.32,2.32,0,0,1-.66,1.65,2.16,2.16,0,0,1-1.63.7q-1.53,0-5.79-1.78A72.4,72.4,0,0,1,723.78,129a28.79,28.79,0,0,1-7.25-6.1v15.91c0,1.18-.64,1.78-1.91,1.78s-1.91-.6-1.91-1.78V123.07q-6.87,8.2-21.12,12.53c-3.86,1.19-5.84,1.78-5.92,1.78a1,1,0,0,1-1.08-1.08.91.91,0,0,1,.63-1,49,49,0,0,0,5.73-2q11.13-4.51,17.24-11H687.45q-1.53,0-1.53-1.2c0-.77.51-1.15,1.53-1.15h25.26v-5.16H694.83q-3.37,0-3.37-3.17V95.83q-4.71,4-5.41,4c-.72,0-1.08-.4-1.08-1.21a.59.59,0,0,1,.19-.44q6-5,11.64-14.32c.55-.85,1.13-1.27,1.72-1.27a2.44,2.44,0,0,1,1.59.73,2,2,0,0,1,.83,1.49,1.83,1.83,0,0,1-.45,1.09A48.6,48.6,0,0,1,696.87,90h16.54c.42-1.32,1.08-3.39,2-6.24a1.43,1.43,0,0,1,1.53-1.08,3.47,3.47,0,0,1,1,.19c1.23.34,1.84.92,1.84,1.72a1.32,1.32,0,0,1-.19.7c-.46.85-1.4,2.42-2.8,4.71h21.51q1.08,0,1.08,1.14c0,.77-.36,1.15-1.08,1.15H716.53v5.09h20.23q1.08,0,1.08,1.14c0,.77-.36,1.15-1.08,1.15H716.53v5h20.23c.72,0,1.08.37,1.08,1.14s-.36,1.15-1.08,1.15H716.53v5.66H738c.84,0,1.27.34,1.27,1s-.43,1.2-1.27,1.2H716.53V120h25c1,0,1.53.38,1.53,1.15s-.51,1.2-1.53,1.2H718.37q6.81,5.48,19.16,9.16l5.34,1.72a1.38,1.38,0,0,1,1.08,1.34m-31.24-22v-5.66h-17.5l-.06,4.06c0,1.07.72,1.6,2.16,1.6Zm0-20.3h-17.5v5.09h17.5Zm0,7.38h-17.5v5h17.5Z"/><path class="cls-2" d="M744,134.52a2.32,2.32,0,0,1-.66,1.65,2.16,2.16,0,0,1-1.63.7q-1.53,0-5.79-1.78A72.4,72.4,0,0,1,723.78,129a28.79,28.79,0,0,1-7.25-6.1v15.91c0,1.18-.64,1.78-1.91,1.78s-1.91-.6-1.91-1.78V123.07q-6.87,8.2-21.12,12.53c-3.86,1.19-5.84,1.78-5.92,1.78a1,1,0,0,1-1.08-1.08.91.91,0,0,1,.63-1,49,49,0,0,0,5.73-2q11.13-4.51,17.24-11H687.45q-1.53,0-1.53-1.2c0-.77.51-1.15,1.53-1.15h25.26v-5.16H694.83q-3.37,0-3.37-3.17V95.83q-4.71,4-5.41,4c-.72,0-1.08-.4-1.08-1.21a.59.59,0,0,1,.19-.44q6-5,11.64-14.32c.55-.85,1.13-1.27,1.72-1.27a2.44,2.44,0,0,1,1.59.73,2,2,0,0,1,.83,1.49,1.83,1.83,0,0,1-.45,1.09A48.6,48.6,0,0,1,696.87,90h16.54c.42-1.32,1.08-3.39,2-6.24a1.43,1.43,0,0,1,1.53-1.08,3.47,3.47,0,0,1,1,.19c1.23.34,1.84.92,1.84,1.72a1.32,1.32,0,0,1-.19.7c-.46.85-1.4,2.42-2.8,4.71h21.51q1.08,0,1.08,1.14c0,.77-.36,1.15-1.08,1.15H716.53v5.09h20.23q1.08,0,1.08,1.14c0,.77-.36,1.15-1.08,1.15H716.53v5h20.23c.72,0,1.08.37,1.08,1.14s-.36,1.15-1.08,1.15H716.53v5.66H738c.84,0,1.27.34,1.27,1s-.43,1.2-1.27,1.2H716.53V120h25c1,0,1.53.38,1.53,1.15s-.51,1.2-1.53,1.2H718.37q6.81,5.48,19.16,9.16l5.34,1.72A1.38,1.38,0,0,1,744,134.52Zm-31.24-22v-5.66h-17.5l-.06,4.06c0,1.07.72,1.6,2.16,1.6Zm0-20.3h-17.5v5.09h17.5Zm0,7.38h-17.5v5h17.5Z"/><path class="cls-1" d="M806.5,103.21a2,2,0,0,1-.51,1.34,3.34,3.34,0,0,1-2.23,1.21,7.29,7.29,0,0,1-2.67-.83A93.13,93.13,0,0,1,783.28,94a33.16,33.16,0,0,1-6-5.92,58,58,0,0,1-9.67,8.72,71.75,71.75,0,0,1-19.15,9.54,1.52,1.52,0,0,1-.45.07c-.72,0-1.08-.39-1.08-1.15a.8.8,0,0,1,.51-.83q17-7,26.47-19.21a3.52,3.52,0,0,1,2.74-1.66,1.64,1.64,0,0,1,.95.32q1.14.76,1.14,1.53a1.7,1.7,0,0,1-.25.83,28.8,28.8,0,0,0,5.92,5.15,74.78,74.78,0,0,0,20.36,9.93c1.19.38,1.78,1,1.78,1.9M805,117.34c0,.81-.39,1.21-1.15,1.21H772.33a125.22,125.22,0,0,1-9.73,16.92l7.63-.57q7.69-.63,21.32-1.84c-.64-.77-1.64-1.91-3-3.44-.6-.64-2.25-2.23-5-4.77a.84.84,0,0,1-.31-.7.79.79,0,0,1,.89-.89,1.35,1.35,0,0,1,.76.25,68.4,68.4,0,0,1,10.44,7.77q3.18,2.73,3.43,3.05,2.36,2.29,2.36,3.69a2.83,2.83,0,0,1-.64,1.72,1.89,1.89,0,0,1-1.53.83c-.72,0-1.55-.57-2.48-1.69s-2.1-2.49-3.5-4.1q-6.68,1.4-10.31,1.78-5.15.69-16.54,2.16l-10.31,1.15a15.86,15.86,0,0,1-2.23.06,1.87,1.87,0,0,1-1.78-2c0-1.19.79-1.82,2.36-1.91,1.06,0,2.82-.14,5.28-.31a114.19,114.19,0,0,0,7.76-17.12H749.3c-.77,0-1.15-.4-1.15-1.21s.38-1.21,1.15-1.21h54.59c.76,0,1.15.4,1.15,1.21m-10.69-12.79c0,.81-.38,1.21-1.15,1.21H760c-.77,0-1.15-.4-1.15-1.21s.38-1.21,1.15-1.21H793.2c.77,0,1.15.41,1.15,1.21"/><path class="cls-2" d="M806.5,103.21a2,2,0,0,1-.51,1.34,3.34,3.34,0,0,1-2.23,1.21,7.29,7.29,0,0,1-2.67-.83A93.13,93.13,0,0,1,783.28,94a33.16,33.16,0,0,1-6-5.92,58,58,0,0,1-9.67,8.72,71.75,71.75,0,0,1-19.15,9.54,1.52,1.52,0,0,1-.45.07c-.72,0-1.08-.39-1.08-1.15a.8.8,0,0,1,.51-.83q17-7,26.47-19.21a3.52,3.52,0,0,1,2.74-1.66,1.64,1.64,0,0,1,.95.32q1.14.76,1.14,1.53a1.7,1.7,0,0,1-.25.83,28.8,28.8,0,0,0,5.92,5.15,74.78,74.78,0,0,0,20.36,9.93C805.91,101.69,806.5,102.32,806.5,103.21ZM805,117.34c0,.81-.39,1.21-1.15,1.21H772.33a125.22,125.22,0,0,1-9.73,16.92l7.63-.57q7.69-.63,21.32-1.84c-.64-.77-1.64-1.91-3-3.44-.6-.64-2.25-2.23-5-4.77a.84.84,0,0,1-.31-.7.79.79,0,0,1,.89-.89,1.35,1.35,0,0,1,.76.25,68.4,68.4,0,0,1,10.44,7.77q3.18,2.73,3.43,3.05,2.36,2.29,2.36,3.69a2.83,2.83,0,0,1-.64,1.72,1.89,1.89,0,0,1-1.53.83c-.72,0-1.55-.57-2.48-1.69s-2.1-2.49-3.5-4.1q-6.68,1.4-10.31,1.78-5.15.69-16.54,2.16l-10.31,1.15a15.86,15.86,0,0,1-2.23.06,1.87,1.87,0,0,1-1.78-2c0-1.19.79-1.82,2.36-1.91,1.06,0,2.82-.14,5.28-.31a114.19,114.19,0,0,0,7.76-17.12H749.3c-.77,0-1.15-.4-1.15-1.21s.38-1.21,1.15-1.21h54.59C804.65,116.13,805,116.53,805,117.34Zm-10.69-12.79c0,.81-.38,1.21-1.15,1.21H760c-.77,0-1.15-.4-1.15-1.21s.38-1.21,1.15-1.21H793.2C794,103.34,794.35,103.75,794.35,104.55Z"/><path class="cls-3" d="M.5,68.13a65.53,65.53,0,1,1,131.05,0"/><path class="cls-1" d="M37.38,54.41c-.11.44-.27,1-.5,1.76a2,2,0,0,1-.9,1.08,4.11,4.11,0,0,1-1.77.28c-.73,0-1.45,0-2.15-.09-.42,0-.62-.18-.62-.44a.9.9,0,0,1,.06-.36c.05-.09.17-.14.38-.14a6.64,6.64,0,0,0,1.16.09h1.08a1.51,1.51,0,0,0,1.49-.84A7.23,7.23,0,0,0,36,54.14a6,6,0,0,0,.17-1.32c0-.25-.15-.38-.46-.38H28.64v6.1c0,.41-.22.62-.67.62s-.67-.21-.67-.62V53.42a19.53,19.53,0,0,1-6.36,3.44,13.48,13.48,0,0,1-2.86.83q-.33,0-.33-.36A.29.29,0,0,1,18,57a21,21,0,0,0,2.37-.87,20.31,20.31,0,0,0,6-3.71H19.89a1.37,1.37,0,0,1-.67-.12c-.13-.08-.2-.27-.2-.57a3.06,3.06,0,0,1,0-.47L19.4,49a1,1,0,0,1,.42-.78,1.74,1.74,0,0,1,.78-.13h6.7V45.76H19.85c-.38,0-.56-.12-.56-.38s.18-.42.56-.42h15.2a2.58,2.58,0,0,1,1,.13.86.86,0,0,1,.38.83v1.9a1,1,0,0,1-.33.87,1.9,1.9,0,0,1-1.06.22H28.64v2.66H36q1.68,0,1.68.87a9.78,9.78,0,0,1-.29,2m-9.32-13c0,.26-.18.4-.53.4H23.64a6.68,6.68,0,0,1,1.12,1.36,1.08,1.08,0,0,1,.09.4.56.56,0,0,1-.28.48,1.06,1.06,0,0,1-.62.19.49.49,0,0,1-.49-.38c-.32-1-.57-1.66-.73-2.05H20.87a13.42,13.42,0,0,1-2.25,2.28.45.45,0,0,1-.2,0c-.23,0-.34-.11-.34-.33a.21.21,0,0,1,.07-.18,12.66,12.66,0,0,0,2.52-4.11c.11-.29.28-.43.52-.43a1.52,1.52,0,0,1,.51.12q.42.2.42.51A2.94,2.94,0,0,1,21.45,41h6.08c.35,0,.53.14.53.41M27.3,51.57V48.91H21.23q-.45,0-.51.54l-.25,1.63v.18c0,.21.16.31.47.31ZM38.09,41.39c0,.26-.18.4-.54.4h-4a5.71,5.71,0,0,1,1.07,1.32,1,1,0,0,1,.09.4.55.55,0,0,1-.28.49,1.09,1.09,0,0,1-.61.18.5.5,0,0,1-.49-.38q-.47-1.41-.72-2H30.7a13,13,0,0,1-2.26,2.28.39.39,0,0,1-.18,0c-.23,0-.35-.11-.35-.33A.2.2,0,0,1,28,43.6a10.72,10.72,0,0,0,1.09-1.39,14.86,14.86,0,0,0,1.41-2.72.58.58,0,0,1,.53-.43,1.38,1.38,0,0,1,.5.12c.29.13.44.3.44.51A3.1,3.1,0,0,1,31.3,41h6.25c.36,0,.54.12.54.38m-3,6.25V46.08c0-.21-.14-.32-.41-.32h-6v2.35h6c.27,0,.41-.16.41-.47"/><path class="cls-4" d="M37.38,54.41c-.11.44-.27,1-.5,1.76a2,2,0,0,1-.9,1.08,4.11,4.11,0,0,1-1.77.28c-.73,0-1.45,0-2.15-.09-.42,0-.62-.18-.62-.44a.9.9,0,0,1,.06-.36c.05-.09.17-.14.38-.14a6.64,6.64,0,0,0,1.16.09h1.08a1.51,1.51,0,0,0,1.49-.84A7.23,7.23,0,0,0,36,54.14a6,6,0,0,0,.17-1.32c0-.25-.15-.38-.46-.38H28.64v6.1c0,.41-.22.62-.67.62s-.67-.21-.67-.62V53.42a19.53,19.53,0,0,1-6.36,3.44,13.48,13.48,0,0,1-2.86.83q-.33,0-.33-.36A.29.29,0,0,1,18,57a21,21,0,0,0,2.37-.87,20.31,20.31,0,0,0,6-3.71H19.89a1.37,1.37,0,0,1-.67-.12c-.13-.08-.2-.27-.2-.57a3.06,3.06,0,0,1,0-.47L19.4,49a1,1,0,0,1,.42-.78,1.74,1.74,0,0,1,.78-.13h6.7V45.76H19.85c-.38,0-.56-.12-.56-.38s.18-.42.56-.42h15.2a2.58,2.58,0,0,1,1,.13.86.86,0,0,1,.38.83v1.9a1,1,0,0,1-.33.87,1.9,1.9,0,0,1-1.06.22H28.64v2.66H36q1.68,0,1.68.87A9.78,9.78,0,0,1,37.38,54.41Zm-9.32-13c0,.26-.18.4-.53.4H23.64a6.68,6.68,0,0,1,1.12,1.36,1.08,1.08,0,0,1,.09.4.56.56,0,0,1-.28.48,1.06,1.06,0,0,1-.62.19.49.49,0,0,1-.49-.38c-.32-1-.57-1.66-.73-2.05H20.87a13.42,13.42,0,0,1-2.25,2.28.45.45,0,0,1-.2,0c-.23,0-.34-.11-.34-.33a.21.21,0,0,1,.07-.18,12.66,12.66,0,0,0,2.52-4.11c.11-.29.28-.43.52-.43a1.52,1.52,0,0,1,.51.12q.42.2.42.51A2.94,2.94,0,0,1,21.45,41h6.08C27.88,41,28.06,41.12,28.06,41.39ZM27.3,51.57V48.91H21.23q-.45,0-.51.54l-.25,1.63v.18c0,.21.16.31.47.31ZM38.09,41.39c0,.26-.18.4-.54.4h-4a5.71,5.71,0,0,1,1.07,1.32,1,1,0,0,1,.09.4.55.55,0,0,1-.28.49,1.09,1.09,0,0,1-.61.18.5.5,0,0,1-.49-.38q-.47-1.41-.72-2H30.7a13,13,0,0,1-2.26,2.28.39.39,0,0,1-.18,0c-.23,0-.35-.11-.35-.33A.2.2,0,0,1,28,43.6a10.72,10.72,0,0,0,1.09-1.39,14.86,14.86,0,0,0,1.41-2.72.58.58,0,0,1,.53-.43,1.38,1.38,0,0,1,.5.12c.29.13.44.3.44.51A3.1,3.1,0,0,1,31.3,41h6.25C37.91,41,38.09,41.13,38.09,41.39Zm-3,6.25V46.08c0-.21-.14-.32-.41-.32h-6v2.35h6C34.94,48.11,35.08,48,35.08,47.64Z"/><path class="cls-1" d="M63,56.17c0,2.34-.61,4-1.81,4.92s-2.82,1.28-5.21,1.28H48.08q-6.09,0-6.09-6.2c0-.94.4-1.42,1.21-1.42a1.33,1.33,0,0,1,1,.32,1.72,1.72,0,0,1,.27,1.1,6,6,0,0,0,.81,3.61c.61.8,1.76,1.21,3.44,1.21h7.36c1.77,0,3-.49,3.61-1.46a7.55,7.55,0,0,0,.78-4V51a4.06,4.06,0,0,0-1.34-3.43,5.82,5.82,0,0,0-3.65-.92H49.75a5.82,5.82,0,0,0-3.26.78,6.21,6.21,0,0,0-1.38,1.38,1.62,1.62,0,0,1-1.28.74,1.08,1.08,0,0,1-1.2-1.24V37.44c0-1.23.67-1.84,2-1.84H61c.71,0,1.07.27,1.07.81s-.36.74-1.07.74H46.35a1.12,1.12,0,0,0-1.28,1.24v7.76a9.16,9.16,0,0,1,4.68-1.06h6.9A7.8,7.8,0,0,1,61,46.18a4.4,4.4,0,0,1,2,3.9Z"/><path class="cls-4" d="M63,56.17c0,2.34-.61,4-1.81,4.92s-2.82,1.28-5.21,1.28H48.08q-6.09,0-6.09-6.2c0-.94.4-1.42,1.21-1.42a1.33,1.33,0,0,1,1,.32,1.72,1.72,0,0,1,.27,1.1,6,6,0,0,0,.81,3.61c.61.8,1.76,1.21,3.44,1.21h7.36c1.77,0,3-.49,3.61-1.46a7.55,7.55,0,0,0,.78-4V51a4.06,4.06,0,0,0-1.34-3.43,5.82,5.82,0,0,0-3.65-.92H49.75a5.82,5.82,0,0,0-3.26.78,6.21,6.21,0,0,0-1.38,1.38,1.62,1.62,0,0,1-1.28.74,1.08,1.08,0,0,1-1.2-1.24V37.44c0-1.23.67-1.84,2-1.84H61c.71,0,1.07.27,1.07.81s-.36.74-1.07.74H46.35a1.12,1.12,0,0,0-1.28,1.24v7.76a9.16,9.16,0,0,1,4.68-1.06h6.9A7.8,7.8,0,0,1,61,46.18a4.4,4.4,0,0,1,2,3.9Z"/><path class="cls-1" d="M89,36.8a1.26,1.26,0,0,1-.18.63L76.23,62.19a1.09,1.09,0,0,1-1.06.63,1.19,1.19,0,0,1-.87-.37,1.21,1.21,0,0,1-.37-.87,1.6,1.6,0,0,1,.14-.63l12.12-23.8H68.51c-.7,0-1.06-.26-1.06-.78s.32-.78,1-.78H87c1.3,0,2,.4,2,1.21"/><path class="cls-4" d="M89,36.8a1.26,1.26,0,0,1-.18.63L76.23,62.19a1.09,1.09,0,0,1-1.06.63,1.19,1.19,0,0,1-.87-.37,1.21,1.21,0,0,1-.37-.87,1.6,1.6,0,0,1,.14-.63l12.12-23.8H68.51c-.7,0-1.06-.26-1.06-.78s.32-.78,1-.78H87C88.33,35.59,89,36,89,36.8Z"/><path class="cls-1" d="M111.51,56.26a2,2,0,0,1-.49,1.45,2,2,0,0,1-1.54.61H95.18a2,2,0,0,1-1.48-.58,2.1,2.1,0,0,1-.55-1.48v-14a2,2,0,0,1,.52-1.45,2,2,0,0,1,1.51-.56h14.3a2,2,0,0,1,1.48.57,2,2,0,0,1,.55,1.44Zm-1.38.16V42.22c0-.69-.39-1-1.17-1H95.68c-.78,0-1.17.34-1.17,1v14.2c0,.68.39,1,1.17,1H109c.78,0,1.17-.35,1.17-1M107,52.13a1.61,1.61,0,0,1-1.83,1.81H99.47a1.61,1.61,0,0,1-1.83-1.81V46.21a1.58,1.58,0,0,1,1.79-1.78h5.8A1.57,1.57,0,0,1,107,46.21Zm-1.34,0V46.26a1.06,1.06,0,0,0-.23-.8,1.44,1.44,0,0,0-.84-.19H100a1.44,1.44,0,0,0-.84.19,1.06,1.06,0,0,0-.23.8v5.87a1,1,0,0,0,.23.78,1.29,1.29,0,0,0,.84.2h4.58a1.29,1.29,0,0,0,.84-.2,1,1,0,0,0,.23-.78"/><path class="cls-4" d="M111.51,56.26a2,2,0,0,1-.49,1.45,2,2,0,0,1-1.54.61H95.18a2,2,0,0,1-1.48-.58,2.1,2.1,0,0,1-.55-1.48v-14a2,2,0,0,1,.52-1.45,2,2,0,0,1,1.51-.56h14.3a2,2,0,0,1,1.48.57,2,2,0,0,1,.55,1.44Zm-1.38.16V42.22c0-.69-.39-1-1.17-1H95.68c-.78,0-1.17.34-1.17,1v14.2c0,.68.39,1,1.17,1H109C109.74,57.45,110.13,57.1,110.13,56.42ZM107,52.13a1.61,1.61,0,0,1-1.83,1.81H99.47a1.61,1.61,0,0,1-1.83-1.81V46.21a1.58,1.58,0,0,1,1.79-1.78h5.8A1.57,1.57,0,0,1,107,46.21Zm-1.34,0V46.26a1.06,1.06,0,0,0-.23-.8,1.44,1.44,0,0,0-.84-.19H100a1.44,1.44,0,0,0-.84.19,1.06,1.06,0,0,0-.23.8v5.87a1,1,0,0,0,.23.78,1.29,1.29,0,0,0,.84.2h4.58a1.29,1.29,0,0,0,.84-.2A1,1,0,0,0,105.68,52.13Z"/></svg>